<svg width="24" height="24" viewBox="0 0 24 24" stroke="#000" fill="none" xmlns="http://www.w3.org/2000/svg">
<path d="M3 19V5.73684C3 5.54142 3.07662 5.354 3.21301 5.21582C3.3494 5.07763 3.53439 5 3.72727 5H8.57576C8.73312 5 8.88623 5.05171 9.01212 5.14737L11.5333 7.06316C11.6592 7.15882 11.8123 7.21053 11.9697 7.21053H18.2727C18.4656 7.21053 18.6506 7.28816 18.787 7.42634C18.9234 7.56453 19 7.75195 19 7.94737V10.1579" stroke-width="1.5" stroke-linecap="round" stroke-linejoin="round"/>
<path d="M3 19L5.79821 10.5128C5.84745 10.3635 5.94191 10.2336 6.06822 10.1416C6.19452 10.0495 6.34627 10 6.50197 10H21.2582C21.3757 10 21.4916 10.0282 21.5962 10.0824C21.7008 10.1365 21.7912 10.2151 21.86 10.3115C21.9287 10.4079 21.9738 10.5194 21.9915 10.6369C22.0092 10.7544 21.9991 10.8744 21.9619 10.9872L19.3201 19H3Z" stroke-width="1.5" stroke-linecap="round" stroke-linejoin="round"/>
</svg>
