<svg width="24" height="24" viewBox="0 0 24 24" fill="none" xmlns="http://www.w3.org/2000/svg">
<path d="M8.95703 20H4.75269C4.55306 20 4.36161 19.9207 4.22046 19.7795C4.0793 19.6384 4 19.4469 4 19.2473V15.043C4 14.9441 4.01947 14.8463 4.05729 14.7549C4.09512 14.6636 4.15056 14.5806 4.22046 14.5107L15.5107 3.22046C15.6519 3.0793 15.8433 3 16.043 3C16.2426 3 16.434 3.0793 16.5752 3.22046L20.7795 7.4248C20.9207 7.56595 21 7.7574 21 7.95703C21 8.15665 20.9207 8.3481 20.7795 8.48926L9.48926 19.7795C9.41936 19.8494 9.33639 19.9049 9.24507 19.9427C9.15375 19.9805 9.05587 20 8.95703 20Z" stroke="#776FEF" stroke-width="1.5" stroke-linecap="round" stroke-linejoin="round"/>
<path d="M13 6L18 11" stroke="#776FEF" stroke-width="1.5" stroke-linecap="round" stroke-linejoin="round"/>
<path d="M9 20L4 15" stroke="#776FEF" stroke-width="1.5" stroke-linecap="round" stroke-linejoin="round"/>
</svg>
