<svg width="18" height="21" viewBox="0 0 18 21" fill="none" xmlns="http://www.w3.org/2000/svg">
<path d="M16.4995 7.5H6.37451V4.875C6.37451 4.17881 6.65107 3.51113 7.14336 3.01884C7.63564 2.52656 8.30332 2.25 8.99951 2.25C9.69571 2.25 10.3634 2.52656 10.8557 3.01884C11.348 3.51113 11.6245 4.17881 11.6245 4.875C11.6245 5.07391 11.7035 5.26468 11.8442 5.40533C11.9848 5.54598 12.1756 5.625 12.3745 5.625C12.5734 5.625 12.7642 5.54598 12.9048 5.40533C13.0455 5.26468 13.1245 5.07391 13.1245 4.875C13.1245 3.78098 12.6899 2.73177 11.9163 1.95818C11.1427 1.1846 10.0935 0.75 8.99951 0.75C7.90549 0.75 6.85628 1.1846 6.0827 1.95818C5.30911 2.73177 4.87451 3.78098 4.87451 4.875V7.5H1.49951C1.10183 7.50045 0.72056 7.65864 0.439354 7.93984C0.158148 8.22105 -3.34643e-05 8.60231 -0.000488281 9V19.5C-3.34643e-05 19.8977 0.158148 20.279 0.439354 20.5602C0.72056 20.8414 1.10183 20.9995 1.49951 21H16.4995C16.8972 20.9995 17.2785 20.8414 17.5597 20.5602C17.8409 20.279 17.9991 19.8977 17.9995 19.5V9C17.9991 8.60231 17.8409 8.22105 17.5597 7.93984C17.2785 7.65864 16.8972 7.50045 16.4995 7.5Z" fill="#E6E7EB"/>
</svg>
