<svg width="24" height="24" viewBox="0 0 24 24" fill="none" xmlns="http://www.w3.org/2000/svg">
<path d="M12 15C13.6569 15 15 13.6569 15 12C15 10.3431 13.6569 9 12 9C10.3431 9 9 10.3431 9 12C9 13.6569 10.3431 15 12 15Z" stroke="#4C595C" stroke-width="1.5" stroke-linecap="round" stroke-linejoin="round"/>
<path d="M17 11C17.9704 10.999 18.9276 11.2697 19.7955 11.7905C20.6635 12.3112 21.4183 13.0678 22 14" stroke="#4C595C" stroke-width="1.5" stroke-linecap="round" stroke-linejoin="round"/>
<path d="M2 14C2.58168 13.0678 3.33648 12.3112 4.20445 11.7905C5.07241 11.2697 6.02961 10.999 7 11" stroke="#4C595C" stroke-width="1.5" stroke-linecap="round" stroke-linejoin="round"/>
<path d="M6 19C6.54774 17.8006 7.40076 16.7896 8.46168 16.0823C9.52261 15.3751 10.7487 15 12 15C13.2513 15 14.4774 15.375 15.5383 16.0823C16.5992 16.7896 17.4523 17.8006 18 19" stroke="#4C595C" stroke-width="1.5" stroke-linecap="round" stroke-linejoin="round"/>
<path d="M6.02635 11C5.45203 10.9999 4.88959 10.8379 4.40471 10.5328C3.91983 10.2277 3.53253 9.79226 3.28802 9.2772C3.04351 8.76215 2.95189 8.18878 3.02386 7.62406C3.09583 7.05933 3.32842 6.52655 3.69447 6.08793C4.06052 5.64931 4.54491 5.32296 5.0911 5.14698C5.63728 4.97099 6.22271 4.95265 6.77901 5.09408C7.33532 5.23552 7.83955 5.53089 8.23283 5.94572C8.6261 6.36054 8.89218 6.8777 9 7.43679" stroke="#4C595C" stroke-width="1.5" stroke-linecap="round" stroke-linejoin="round"/>
<path d="M14 7.43714C14.1078 6.87801 14.3738 6.3608 14.767 5.94592C15.1603 5.53104 15.6645 5.23561 16.2208 5.09413C16.7772 4.95265 17.3626 4.97097 17.9088 5.14694C18.455 5.32291 18.9395 5.64927 19.3055 6.08791C19.6716 6.52655 19.9042 7.05936 19.9761 7.62411C20.0481 8.18887 19.9565 8.76226 19.7119 9.27733C19.4674 9.7924 19.08 10.2279 18.5951 10.5329C18.1102 10.838 17.5477 11 16.9734 11" stroke="#4C595C" stroke-width="1.5" stroke-linecap="round" stroke-linejoin="round"/>
</svg>
