<svg width="24" height="24" viewBox="0 0 24 24" fill="none" xmlns="http://www.w3.org/2000/svg">
<path d="M19.3903 11.539H18.0938C18.0689 11.539 18.045 11.5291 18.0275 11.5115C18.0099 11.494 18 11.4701 18 11.4453V7.82463C18 7.34152 17.8081 6.8782 17.4665 6.53659C17.1249 6.19498 16.6615 6.00306 16.1784 6.00306H12.5578C12.5329 6.00306 12.5091 5.99319 12.4915 5.97561C12.4739 5.95802 12.4641 5.93418 12.4641 5.90931V4.61275C12.4641 3.34056 11.4563 2.27556 10.1841 2.25353C9.87583 2.24812 9.56961 2.30414 9.28327 2.41833C8.99692 2.53252 8.73618 2.7026 8.51627 2.91863C8.29635 3.13466 8.12166 3.39233 8.00238 3.6766C7.88311 3.96086 7.82164 4.26604 7.82156 4.57431V5.90931C7.82156 5.93418 7.81169 5.95802 7.7941 5.97561C7.77652 5.99319 7.75268 6.00306 7.72781 6.00306H4.10719C3.61509 6.00455 3.14357 6.20069 2.7956 6.54866C2.44763 6.89663 2.25148 7.36815 2.25 7.86025V11.1593C2.25 11.1842 2.25988 11.208 2.27746 11.2256C2.29504 11.2432 2.31889 11.2531 2.34375 11.2531H3.60516C4.98188 11.2531 6.12141 12.4474 6.14063 13.8242C6.16031 15.2243 5.03859 16.5031 3.64266 16.5031H2.34375C2.31889 16.5031 2.29504 16.5129 2.27746 16.5305C2.25988 16.5481 2.25 16.572 2.25 16.5968V19.8959C2.25148 20.388 2.44763 20.8595 2.7956 21.2075C3.14357 21.5554 3.61509 21.7516 4.10719 21.7531H7.40625C7.43111 21.7531 7.45496 21.7432 7.47254 21.7256C7.49012 21.708 7.5 21.6842 7.5 21.6593V20.6782C7.5 19.2588 8.66016 18.0368 10.0781 18.0035C11.4891 17.9707 12.75 18.9556 12.75 20.3604V21.6593C12.75 21.6842 12.7599 21.708 12.7775 21.7256C12.795 21.7432 12.8189 21.7531 12.8438 21.7531H16.1784C16.6615 21.7531 17.1249 21.5612 17.4665 21.2195C17.8081 20.8779 18 20.4146 18 19.9315V16.2753C18 16.2504 18.0099 16.2265 18.0275 16.209C18.045 16.1914 18.0689 16.1815 18.0938 16.1815H19.4288C20.7239 16.1815 21.75 15.1188 21.75 13.819C21.75 12.5192 20.6625 11.539 19.3903 11.539V11.539Z" stroke="#4C595C" stroke-width="1.5" stroke-linecap="round" stroke-linejoin="round"/>
</svg>
