<svg width="24" height="24" viewBox="0 0 24 24" fill="none" xmlns="http://www.w3.org/2000/svg">
<path d="M8.25 7.38968L10.6344 2.38069C11.1674 1.20644 12.8326 1.20644 13.3656 2.38069L15.75 7.38968L21.1656 8.23747C21.9253 8.32201 22.5 8.96512 22.5 9.73066C22.5 10.1765 22.3023 10.8046 21.9603 11.09L18 14.7518L19.185 19.1431C19.2855 19.5456 19.263 19.9682 19.1205 20.3582L19.1077 20.3932C18.8681 21.0484 18.3052 21.5388 17.614 21.6943C17.0708 21.8165 16.5003 21.7197 16.0303 21.4255L12 18.4328L7.96749 21.4269C7.4985 21.7205 6.92761 21.819 6.38433 21.7018C5.64949 21.5434 5.05463 21.0088 4.83218 20.3033C4.72013 19.9479 4.70858 19.5693 4.79876 19.208L6 14.7518L2.03972 11.09C1.69773 10.8046 1.5 10.1765 1.5 9.73066C1.5 8.96512 2.0747 8.32201 2.83435 8.23747L8.25 7.38968Z" fill="#D7699B"/>
</svg>
