<svg width="24" height="24" viewBox="0 0 24 24" fill="none" xmlns="http://www.w3.org/2000/svg">
<path d="M20.251 6.75H3.75098C3.33676 6.75 3.00098 7.08579 3.00098 7.5V19.5C3.00098 19.9142 3.33676 20.25 3.75098 20.25H20.251C20.6652 20.25 21.001 19.9142 21.001 19.5V7.5C21.001 7.08579 20.6652 6.75 20.251 6.75Z" stroke="#4C595C" stroke-width="1.5" stroke-linecap="round" stroke-linejoin="round"/>
<path d="M15.75 6.75V5.25C15.75 4.85218 15.592 4.47064 15.3107 4.18934C15.0294 3.90804 14.6478 3.75 14.25 3.75H9.75C9.35218 3.75 8.97064 3.90804 8.68934 4.18934C8.40804 4.47064 8.25 4.85218 8.25 5.25V6.75" stroke="#4C595C" stroke-width="1.5" stroke-linecap="round" stroke-linejoin="round"/>
<path d="M21.0011 11.8416C18.2658 13.4241 15.1605 14.255 12.0004 14.2501C8.84075 14.255 5.736 13.4244 3.00098 11.8423" stroke="#4C595C" stroke-width="1.5" stroke-linecap="round" stroke-linejoin="round"/>
<path d="M10.875 11.25H13.125" stroke="#4C595C" stroke-width="1.5" stroke-linecap="round" stroke-linejoin="round"/>
</svg>
