<svg width="18" height="21" viewBox="0 0 18 21" fill="none" xmlns="http://www.w3.org/2000/svg">
<path d="M16.5 7.5H13.125V4.875C13.125 3.78098 12.6904 2.73177 11.9168 1.95818C11.1432 1.1846 10.094 0.75 9 0.75C7.90598 0.75 6.85677 1.1846 6.08319 1.95818C5.3096 2.73177 4.875 3.78098 4.875 4.875V7.5H1.5C1.10231 7.50045 0.721048 7.65864 0.439842 7.93984C0.158636 8.22105 0.000454817 8.60231 0 9V19.5C0.000454817 19.8977 0.158636 20.279 0.439842 20.5602C0.721048 20.8414 1.10231 20.9995 1.5 21H16.5C16.8977 20.9995 17.279 20.8414 17.5602 20.5602C17.8414 20.279 17.9995 19.8977 18 19.5V9C17.9995 8.60231 17.8414 8.22105 17.5602 7.93984C17.279 7.65864 16.8977 7.50045 16.5 7.5ZM6.375 4.875C6.375 4.17881 6.65156 3.51113 7.14384 3.01884C7.63613 2.52656 8.30381 2.25 9 2.25C9.69619 2.25 10.3639 2.52656 10.8562 3.01884C11.3484 3.51113 11.625 4.17881 11.625 4.875V7.5H6.375V4.875Z" fill="#776FEF"/>
</svg>
