<svg width="24" height="24" viewBox="0 0 24 24" fill="none" xmlns="http://www.w3.org/2000/svg">
<path d="M5.25 5.25V10.4153C5.25 14.1372 8.227 17.2222 11.9488 17.2498C12.8395 17.2566 13.7228 17.087 14.5476 16.7508C15.3725 16.4146 16.1226 15.9185 16.7548 15.291C17.3871 14.6636 17.8889 13.9172 18.2313 13.0949C18.5737 12.2727 18.75 11.3907 18.75 10.5V5.25C18.75 5.05109 18.671 4.86032 18.5303 4.71967C18.3897 4.57902 18.1989 4.5 18 4.5H6C5.80109 4.5 5.61032 4.57902 5.46967 4.71967C5.32902 4.86032 5.25 5.05109 5.25 5.25Z" stroke="#4C595C" stroke-width="1.5" stroke-linecap="round" stroke-linejoin="round"/>
<path d="M9 21H15" stroke="#4C595C" stroke-width="1.5" stroke-linecap="round" stroke-linejoin="round"/>
<path d="M12 17.25V21" stroke="#4C595C" stroke-width="1.5" stroke-linecap="round" stroke-linejoin="round"/>
<path d="M18.5828 12H19.5001C20.2957 12 21.0588 11.6839 21.6214 11.1213C22.184 10.5587 22.5001 9.79565 22.5001 9V7.5C22.5001 7.30109 22.421 7.11032 22.2804 6.96967C22.1397 6.82902 21.949 6.75 21.7501 6.75H18.7501" stroke="#4C595C" stroke-width="1.5" stroke-linecap="round" stroke-linejoin="round"/>
<path d="M5.43408 12H4.48804C3.69239 12 2.92933 11.6839 2.36672 11.1213C1.80411 10.5587 1.48804 9.79565 1.48804 9V7.5C1.48804 7.30109 1.56705 7.11032 1.70771 6.96967C1.84836 6.82902 2.03912 6.75 2.23804 6.75H5.23804" stroke="#4C595C" stroke-width="1.5" stroke-linecap="round" stroke-linejoin="round"/>
</svg>
