<svg xmlns="http://www.w3.org/2000/svg" xmlns:xlink="http://www.w3.org/1999/xlink" width="3508.84" height="2481" viewBox="0 0 3508.84 2481">
  <defs>
    <clipPath id="bcb99678-e0f9-44ff-9f5f-bb2d794dfbd5" transform="translate(0.92)">
      <path d="M1523.78,1610.63a6.34,6.34,0,0,0-3.49,3,7.47,7.47,0,0,0-.63,5.27,42.26,42.26,0,0,0,2.11,6.55c.32.85.68,1.82,1,2.84a1.21,1.21,0,0,0,.54.64,1.2,1.2,0,0,0,.83.12l3-.62a41.16,41.16,0,0,0,6.66-1.68,7.54,7.54,0,0,0,4.14-3.34,6.34,6.34,0,0,0,.69-4.55,5.45,5.45,0,0,0-2.68-3.49,5.07,5.07,0,0,0-3.31-.58,6.15,6.15,0,0,0-1.77.55,6.47,6.47,0,0,0-.48-1.79,5.11,5.11,0,0,0-2.24-2.5,5.55,5.55,0,0,0-2.67-.7,5.43,5.43,0,0,0-1.72.28m-35.29,78.13c-.25-3.71-.45-12.1,2.23-16.84l2.43-4.29,12.89,7.31-2.43,4.29c-3,5.22-10,9.06-13.27,10.62a1.36,1.36,0,0,1-.58.13,1.27,1.27,0,0,1-1.27-1.22m-13.29-39.52c1.37-7,4.23-14,12-16.2l10.17-2.82a1.26,1.26,0,0,0,.85-.74c8.37-20.33,24.82-35.33,39.12-39.28l5.92-1.64a4,4,0,0,1,4.86,2.75l1.64,5.93c4,14.29-.48,36.12-13.61,53.74a1.24,1.24,0,0,0-.21,1.1l2.81,10.19c2.15,7.78-2.42,13.86-7.73,18.63l-7.09,6.39-2.69-9.71-2.54-9.21a1.32,1.32,0,0,0-.62-.79l-12.42-7-12.41-7a1.32,1.32,0,0,0-1-.12l-9.21,2.54-9.71,2.69Zm32-110.25-71.47,41.27a20.24,20.24,0,0,0-10.13,17.53v82.54a20.23,20.23,0,0,0,10.13,17.53l71.47,41.26a20.24,20.24,0,0,0,20.25,0l71.47-41.26a20.23,20.23,0,0,0,10.13-17.53v-82.54a20.24,20.24,0,0,0-10.13-17.53L1527.47,1539a20.27,20.27,0,0,0-20.25,0" fill="none"/>
    </clipPath>
    <linearGradient id="a57ab67f-9e3b-4f54-a10f-ca6a56d5cab0" data-name="Безымянный градиент 2" x1="1635.62" y1="1286.33" x2="1639.39" y2="1286.33" gradientTransform="matrix(0, 52.94, 52.94, 0, -66580.72, -85049.98)" gradientUnits="userSpaceOnUse">
      <stop offset="0" stop-color="#314999"/>
      <stop offset="0.16" stop-color="#666aaf"/>
      <stop offset="0.32" stop-color="#7172b4"/>
      <stop offset="0.48" stop-color="#794c99"/>
      <stop offset="0.64" stop-color="#d7699b"/>
      <stop offset="0.82" stop-color="#f39b9f"/>
      <stop offset="1" stop-color="#fcc042"/>
    </linearGradient>
    <linearGradient id="bbfa7448-680c-4156-8683-73be3bce1868" data-name="Degradado sin nombre 5" x1="2470.86" y1="107.65" x2="3476.02" y2="107.65" gradientTransform="translate(32.11 4823.34) rotate(-90)" gradientUnits="userSpaceOnUse">
      <stop offset="0" stop-color="#ffe600"/>
      <stop offset="0.14" stop-color="#fdd806"/>
      <stop offset="0.41" stop-color="#f8b414"/>
      <stop offset="0.76" stop-color="#f07b2c"/>
      <stop offset="0.99" stop-color="#ea523c"/>
    </linearGradient>
    <linearGradient id="a0f0ee6c-9810-4a01-9a69-65fb5a351299" x1="2470.86" y1="34.29" x2="3476.02" y2="34.29" xlink:href="#bbfa7448-680c-4156-8683-73be3bce1868"/>
    <linearGradient id="e4c95ce0-c15f-47c0-8eb1-6a089d71dffb" data-name="Degradado sin nombre 3" x1="2845.02" y1="34.29" x2="3472.59" y2="34.29" gradientTransform="translate(32.11 4823.34) rotate(-90)" gradientUnits="userSpaceOnUse">
      <stop offset="0" stop-color="#fce650"/>
      <stop offset="1" stop-color="#f09321"/>
    </linearGradient>
    <linearGradient id="f3d8ffca-2fb2-435c-9cd4-9e5775fc8b33" x1="2470.86" y1="11.77" x2="3476.02" y2="11.77" xlink:href="#bbfa7448-680c-4156-8683-73be3bce1868"/>
    <linearGradient id="a5a34e3f-b290-44d2-9d76-5d06753bb4ba" x1="2845.02" y1="11.77" x2="3472.59" y2="11.77" xlink:href="#e4c95ce0-c15f-47c0-8eb1-6a089d71dffb"/>
    <linearGradient id="bba73aec-10ff-484c-89ce-a10dcdabeec2" data-name="Degradado sin nombre 4" x1="3014.66" y1="11.77" x2="3471.04" y2="11.77" gradientTransform="translate(32.11 4823.34) rotate(-90)" gradientUnits="userSpaceOnUse">
      <stop offset="0" stop-color="#faeb8c"/>
      <stop offset="1" stop-color="#f09321"/>
    </linearGradient>
    <linearGradient id="f28dd7f9-45c9-4a82-a6e9-11c159a34743" x1="2470.86" y1="103.14" x2="3476.02" y2="103.14" xlink:href="#bbfa7448-680c-4156-8683-73be3bce1868"/>
    <linearGradient id="bd972397-ee01-484e-a37d-86caf0f1d8b1" x1="2470.86" y1="80.82" x2="3476.02" y2="80.82" xlink:href="#bbfa7448-680c-4156-8683-73be3bce1868"/>
    <linearGradient id="a4642d02-215f-4751-90eb-40e78e1bac9f" x1="2845.02" y1="80.82" x2="3472.59" y2="80.82" xlink:href="#e4c95ce0-c15f-47c0-8eb1-6a089d71dffb"/>
    <linearGradient id="a5d9ccfe-1bce-4041-a8de-7d0830a7a256" data-name="Degradado sin nombre 31" x1="350.41" y1="-2353.79" x2="350.41" y2="-2133.73" gradientTransform="translate(-300.89 3044.97) rotate(-0.39)" gradientUnits="userSpaceOnUse">
      <stop offset="0" stop-color="#fff"/>
      <stop offset="0.07" stop-color="#fff" stop-opacity="0.85"/>
      <stop offset="0.21" stop-color="#fff" stop-opacity="0.6"/>
      <stop offset="0.35" stop-color="#fff" stop-opacity="0.38"/>
      <stop offset="0.47" stop-color="#fff" stop-opacity="0.22"/>
      <stop offset="0.58" stop-color="#fff" stop-opacity="0.1"/>
      <stop offset="0.68" stop-color="#fff" stop-opacity="0.03"/>
      <stop offset="0.74" stop-color="#fff" stop-opacity="0"/>
    </linearGradient>
    <linearGradient id="ec5bd084-a95f-4130-89a2-445622344fab" x1="339.46" y1="-2532.12" x2="339.46" y2="-2409.56" xlink:href="#a5d9ccfe-1bce-4041-a8de-7d0830a7a256"/>
    <linearGradient id="fb8f1571-d7a9-4dd3-aa16-ced1c76e7ef2" x1="330.26" y1="-2047.34" x2="330.26" y2="-1924.78" xlink:href="#a5d9ccfe-1bce-4041-a8de-7d0830a7a256"/>
  </defs>
  <g style="isolation: isolate">
    <g id="e509ea50-ffb2-47ab-9c5e-bbac94496d00" data-name="Слой 1">
      <g>
        <text transform="translate(754.77 753.76)" font-size="247.83" fill="#303031" font-family="Montserrat-ExtraLight, Montserrat" font-weight="200" letter-spacing="0.1em">СЕ<tspan x="387.32" y="0" letter-spacing="0.07em">Р</tspan><tspan x="578.02" y="0">ТИФИ</tspan><tspan x="1450.93" y="0" letter-spacing="0.07em">К</tspan><tspan x="1639.09" y="0" letter-spacing="0.07em">А</tspan><tspan x="1834.51" y="0" letter-spacing="0.1em">Т</tspan></text>
        <text transform="translate(1365.94 1112.35)" font-size="90.57" fill="#303031" font-family="Montserrat-Medium, Montserrat" font-weight="500"><tspan letter-spacing="-0.01em">Ф<tspan x="82.96" y="0" letter-spacing="0em">АМ</tspan><tspan x="238.8" y="0" letter-spacing="-0.01em">И</tspan><tspan x="312.51" y="0" letter-spacing="0em">ЛИЯ ИМЯ</tspan></tspan><tspan x="128.91" y="108.68" letter-spacing="-0.01em">О</tspan><tspan x="204.79" y="108.68" letter-spacing="-0.01em">Т</tspan><tspan x="258.25" y="108.68">Ч</tspan><tspan x="324.9" y="108.68" letter-spacing="0em">Е</tspan><tspan x="384.82" y="108.68" letter-spacing="-0.01em">С</tspan><tspan x="449.11" y="108.68">ТВО</tspan></text>
        <text transform="translate(1370.88 870.85)" font-size="82.71" fill="#303031" font-family="Montserrat-ExtraLight, Montserrat" font-weight="200">п<tspan x="55.41" y="0" letter-spacing="0em">о</tspan><tspan x="107.35" y="0">дтве</tspan><tspan x="295.12" y="0" letter-spacing="-0.02em">р</tspan><tspan x="349.92" y="0">жда</tspan><tspan x="514.71" y="0" letter-spacing="-0.02em">е</tspan><tspan x="562.48" y="0" letter-spacing="-0.04em">т</tspan><tspan x="595.64" y="0">, ч</tspan><tspan x="680.58" y="0" letter-spacing="-0.02em">т</tspan><tspan x="715.07" y="0">о</tspan></text>
        <text transform="translate(1339.69 1405.95)" font-size="58.46" fill="#303031" font-family="Montserrat-ExtraLight, Montserrat" font-weight="200">принял уча<tspan x="342.26" y="0" letter-spacing="-0.01em">с</tspan><tspan x="373.68" y="0" letter-spacing="0em">тие в </tspan><tspan x="538.7" y="0" letter-spacing="-0.02em">к</tspan><tspan x="570.07" y="0">он</tspan><tspan x="645.75" y="0" letter-spacing="-0.03em">к</tspan><tspan x="676.55" y="0">ур</tspan><tspan x="747.82" y="0" letter-spacing="-0.01em">с</tspan><tspan x="779.51" y="0">е </tspan><tspan x="-313.6" y="70.15" letter-spacing="-0.02em">Д</tspan><tspan x="-269.18" y="70.15" letter-spacing="0em">епа</tspan><tspan x="-161.42" y="70.15" letter-spacing="-0.02em">р</tspan><tspan x="-122.69" y="70.15">тамента зд</tspan><tspan x="197.36" y="70.15" letter-spacing="0em">р</tspan><tspan x="237.21" y="70.15" letter-spacing="0em">аво</tspan><tspan x="342.28" y="70.15" letter-spacing="-0.02em">о</tspan><tspan x="377.88" y="70.15">х</tspan><tspan x="407.28" y="70.15" letter-spacing="0em">р</tspan><tspan x="447.13" y="70.15">анения </tspan><tspan x="682.77" y="70.15" letter-spacing="-0.02em">г</tspan><tspan x="707.95" y="70.15">ор</tspan><tspan x="784.62" y="70.15" letter-spacing="0em">о</tspan><tspan x="821.33" y="70.15">да Москвы</tspan></text>
        <text transform="translate(1603.59 2368.87)" font-size="39.47" fill="#303031" font-family="Montserrat-ExtraLight, Montserrat" font-weight="200">Москва <tspan x="162.7" y="0" letter-spacing="0em">2</tspan><tspan x="184.51" y="0" letter-spacing="0em">0</tspan><tspan x="210.31" y="0">22 </tspan><tspan x="264.31" y="0" letter-spacing="-0.04em">г</tspan><tspan x="280.67" y="0">.</tspan></text>
        <text transform="translate(2658.31 1874.36)" font-size="38.19" fill="#303031" font-family="Montserrat-ExtraLight, Montserrat" font-weight="200">ме<tspan x="52.72" y="0" letter-spacing="-0.01em">с</tspan><tspan x="73.25" y="0" letter-spacing="-0.02em">т</tspan><tspan x="89.18" y="0">о для п</tspan><tspan x="228.55" y="0" letter-spacing="0em">о</tspan><tspan x="252.53" y="0">дписи ФИО</tspan></text>
        <g>
          <g>
            <polygon points="1672.15 237.15 1661.94 247.36 1637.82 254.71 1621.65 270.88 1621.64 276.5 1672.15 276.5 1672.15 249.08 1666.53 254.7 1666.53 270.88 1629.59 270.88 1640.8 259.68 1664.93 252.33 1672.15 245.1 1672.15 237.15" fill="#369042"/>
            <path d="M1656.55,239.91l-24.13,7.35-6.07,6.07V181.27a23.28,23.28,0,0,1,17.23,11.12l2.4,4,2.4-4a23.28,23.28,0,0,1,17.23-11.12v45.6l5.62-5.62V175.48h-2.81a28.82,28.82,0,0,0-22.44,10.6,28.82,28.82,0,0,0-22.45-10.6h-2.81v91.43l14.69-14.69,24.12-7.35,11.7-11.7v-7.95Z" transform="translate(0.92)" fill="#e34f27"/>
            <polygon points="1695.83 183.34 1689.89 183.34 1689.89 189.06 1687.76 189.06 1687.76 175.93 1689.89 175.93 1689.89 181.46 1695.83 181.46 1695.83 175.93 1697.96 175.93 1697.96 189.06 1695.83 189.06 1695.83 183.34" fill="#010101"/>
            <polygon points="1701.19 175.93 1703.27 175.93 1703.27 183.4 1703.06 186.1 1703.11 186.1 1704.43 183.68 1709.47 175.93 1711.39 175.93 1711.39 189.06 1709.32 189.06 1709.32 181.59 1709.53 178.88 1709.47 178.88 1708.16 181.31 1703.11 189.06 1701.19 189.06 1701.19 175.93" fill="#010101"/>
            <polygon points="1714.63 175.93 1716.7 175.93 1716.7 183.4 1716.49 186.1 1716.55 186.1 1717.87 183.68 1722.91 175.93 1724.83 175.93 1724.83 189.06 1722.76 189.06 1722.76 181.59 1722.96 178.88 1722.91 178.88 1721.59 181.31 1716.55 189.06 1714.63 189.06 1714.63 175.93" fill="#010101"/>
            <path d="M1691.92,209.19a3.47,3.47,0,0,0,1.38-.27,2.87,2.87,0,0,0,1.08-.76,3.52,3.52,0,0,0,.68-1.22,4.83,4.83,0,0,0,.25-1.62v-2.08a4.89,4.89,0,0,0-.25-1.63,3.71,3.71,0,0,0-.68-1.22,3,3,0,0,0-1.08-.76,3.82,3.82,0,0,0-2.77,0,2.91,2.91,0,0,0-1.06.76,3.56,3.56,0,0,0-.69,1.22,5.17,5.17,0,0,0-.24,1.63v2.08a5.11,5.11,0,0,0,.24,1.62,3.38,3.38,0,0,0,.69,1.22,2.79,2.79,0,0,0,1.06.76,3.45,3.45,0,0,0,1.39.27m0,1.88a6,6,0,0,1-2.32-.44,4.92,4.92,0,0,1-1.79-1.3,5.88,5.88,0,0,1-1.15-2.13,10.89,10.89,0,0,1,0-5.85,5.83,5.83,0,0,1,1.15-2.12,4.81,4.81,0,0,1,1.79-1.3,6.36,6.36,0,0,1,4.65,0,4.77,4.77,0,0,1,1.78,1.3,5.83,5.83,0,0,1,1.15,2.12,10.89,10.89,0,0,1,0,5.85,5.88,5.88,0,0,1-1.15,2.13,4.88,4.88,0,0,1-1.78,1.3,6,6,0,0,1-2.33.44" transform="translate(0.92)" fill="#010101"/>
            <path d="M1702.36,203.73h3.39a1.78,1.78,0,0,0,1.26-.42,1.56,1.56,0,0,0,.45-1.2v-.89A1.57,1.57,0,0,0,1707,200a1.78,1.78,0,0,0-1.26-.42h-3.39Zm-2.12,7.11V197.71h5.64a3.66,3.66,0,0,1,2.82,1.07,4.65,4.65,0,0,1,0,5.76,3.63,3.63,0,0,1-2.82,1.07h-3.52v5.23Z" transform="translate(0.92)" fill="#010101"/>
            <polygon points="1712.95 197.71 1720.35 197.71 1720.35 199.59 1715.08 199.59 1715.08 210.84 1712.95 210.84 1712.95 197.71" fill="#010101"/>
            <path d="M1724.6,199.67h-.09l-1.9,5.79h3.87Zm3.59,11.17-1.18-3.55h-4.91l-1.15,3.55h-2.16l4.47-13.13h2.67l4.48,13.13Z" transform="translate(0.92)" fill="#010101"/>
            <polygon points="1741.44 205.12 1735.49 205.12 1735.49 210.84 1733.37 210.84 1733.37 197.71 1735.49 197.71 1735.49 203.24 1741.44 203.24 1741.44 197.71 1743.56 197.71 1743.56 210.84 1741.44 210.84 1741.44 205.12" fill="#010101"/>
            <polygon points="1746.8 197.71 1748.87 197.71 1748.87 205.18 1748.66 207.89 1748.71 207.89 1750.04 205.46 1755.08 197.71 1757 197.71 1757 210.84 1754.93 210.84 1754.93 203.37 1755.13 200.66 1755.08 200.66 1753.76 203.09 1748.71 210.84 1746.8 210.84 1746.8 197.71" fill="#010101"/>
            <path d="M1763,211.07a6.16,6.16,0,0,1-2.69-.56,5.71,5.71,0,0,1-2-1.6l1.45-1.34a4.43,4.43,0,0,0,1.38,1.19,3.75,3.75,0,0,0,1.85.43,3.42,3.42,0,0,0,2-.49,1.73,1.73,0,0,0,.7-1.5V207a1.71,1.71,0,0,0-.59-1.4,2.79,2.79,0,0,0-1.82-.49h-2.11v-1.89h2a2.52,2.52,0,0,0,1.7-.48,1.8,1.8,0,0,0,.55-1.44v-.19a1.55,1.55,0,0,0-.57-1.3,2.88,2.88,0,0,0-1.74-.44,3.87,3.87,0,0,0-1.76.37,3.41,3.41,0,0,0-1.21,1l-1.45-1.22a5.53,5.53,0,0,1,1.84-1.5,5.68,5.68,0,0,1,2.58-.53,5.23,5.23,0,0,1,3.39,1,3.13,3.13,0,0,1,1.18,2.57,2.77,2.77,0,0,1-.72,2.07,3.41,3.41,0,0,1-1.88.91v.09a4,4,0,0,1,1.09.26,3,3,0,0,1,.91.58,2.7,2.7,0,0,1,.63.9,3.27,3.27,0,0,1,.23,1.27,3.76,3.76,0,0,1-.34,1.62,3.42,3.42,0,0,1-1,1.26,4.43,4.43,0,0,1-1.56.81,7,7,0,0,1-2.07.28" transform="translate(0.92)" fill="#010101"/>
            <path d="M1774.94,199.67h-.09l-1.9,5.79h3.87Zm3.6,11.17-1.19-3.55h-4.91l-1.14,3.55h-2.17l4.48-13.13h2.67l4.47,13.13Z" transform="translate(0.92)" fill="#010101"/>
            <polygon points="1793.61 210.84 1783.71 210.84 1783.71 197.71 1785.84 197.71 1785.84 208.96 1791.5 208.96 1791.5 197.71 1793.62 197.71 1793.62 208.96 1795.58 208.96 1795.58 213.66 1793.61 213.66 1793.61 210.84" fill="#010101"/>
            <polygon points="1797.76 197.71 1799.83 197.71 1799.83 205.18 1799.63 207.89 1799.68 207.89 1801 205.46 1806.04 197.71 1807.96 197.71 1807.96 210.84 1805.89 210.84 1805.89 203.37 1806.1 200.66 1806.04 200.66 1804.72 203.09 1799.68 210.84 1797.76 210.84 1797.76 197.71" fill="#010101"/>
            <polygon points="1811.19 197.71 1813.27 197.71 1813.27 205.18 1813.06 207.89 1813.11 207.89 1814.43 205.46 1819.47 197.71 1821.39 197.71 1821.39 210.84 1819.32 210.84 1819.32 203.37 1819.53 200.66 1819.47 200.66 1818.16 203.09 1813.11 210.84 1811.19 210.84 1811.19 197.71" fill="#010101"/>
            <path d="M1690.55,232.85a6.17,6.17,0,0,1-2.7-.56,5.89,5.89,0,0,1-2-1.6l1.45-1.34a4.37,4.37,0,0,0,1.39,1.2,3.83,3.83,0,0,0,1.85.42,3.4,3.4,0,0,0,2-.49,1.69,1.69,0,0,0,.7-1.49v-.21a1.77,1.77,0,0,0-.58-1.4,2.8,2.8,0,0,0-1.83-.49h-2.11V225h2a2.57,2.57,0,0,0,1.71-.48,1.86,1.86,0,0,0,.54-1.45v-.19a1.52,1.52,0,0,0-.57-1.29,2.79,2.79,0,0,0-1.74-.45,3.87,3.87,0,0,0-1.76.38,3.47,3.47,0,0,0-1.21,1l-1.45-1.22a5.39,5.39,0,0,1,1.84-1.49,5.71,5.71,0,0,1,2.58-.54,5.28,5.28,0,0,1,3.4,1,3.16,3.16,0,0,1,1.17,2.58,2.8,2.8,0,0,1-.72,2.07,3.47,3.47,0,0,1-1.87.9v.09a4.48,4.48,0,0,1,1.08.26,3.07,3.07,0,0,1,.91.58,2.8,2.8,0,0,1,.63.9,3.09,3.09,0,0,1,.24,1.27,3.91,3.91,0,0,1-.34,1.62,3.53,3.53,0,0,1-1,1.26,4.61,4.61,0,0,1-1.56.81,7.05,7.05,0,0,1-2.07.28" transform="translate(0.92)" fill="#010101"/>
            <path d="M1706.22,230.75v-9.37h-4.38v2.35c0,.94,0,1.77-.09,2.5s-.14,1.37-.24,1.93a8.54,8.54,0,0,1-.4,1.45,5.25,5.25,0,0,1-.54,1.06v.08Zm-9.48,0h1.39a6.29,6.29,0,0,0,.69-1.12,7.82,7.82,0,0,0,.52-1.53,12.77,12.77,0,0,0,.33-2,25.2,25.2,0,0,0,.12-2.61v-4h8.56v11.26h2v4.7h-2v-2.82h-9.61v2.82h-2Z" transform="translate(0.92)" fill="#010101"/>
            <path d="M1714.61,225.52H1718a1.8,1.8,0,0,0,1.26-.43,1.55,1.55,0,0,0,.45-1.2V223a1.56,1.56,0,0,0-.45-1.2,1.79,1.79,0,0,0-1.26-.42h-3.39Zm-2.13,7.11V219.49h5.65a3.65,3.65,0,0,1,2.82,1.08,4.63,4.63,0,0,1,0,5.75,3.65,3.65,0,0,1-2.82,1.08h-3.52v5.23Z" transform="translate(0.92)" fill="#010101"/>
            <path d="M1727.82,221.45h-.1l-1.9,5.8h3.88Zm3.59,11.18-1.19-3.56h-4.91l-1.14,3.56H1722l4.48-13.14h2.67l4.48,13.14Z" transform="translate(0.92)" fill="#010101"/>
            <path d="M1737.79,230.8h3.65a1.86,1.86,0,0,0,1.3-.43,1.61,1.61,0,0,0,.46-1.24v-.64a1.61,1.61,0,0,0-.46-1.24,1.86,1.86,0,0,0-1.3-.44h-3.65Zm0-5.76h3.29a1.71,1.71,0,0,0,1.22-.4,1.5,1.5,0,0,0,.44-1.16v-.6a1.51,1.51,0,0,0-.44-1.16,1.76,1.76,0,0,0-1.22-.4h-3.29Zm-2.13-5.55h5.81a3.48,3.48,0,0,1,2.57.93,3.31,3.31,0,0,1,.93,2.46,3.52,3.52,0,0,1-.2,1.25,2.63,2.63,0,0,1-.53.85,2.09,2.09,0,0,1-.73.49,3.19,3.19,0,0,1-.81.2v.11a3.06,3.06,0,0,1,1.77.72,3.15,3.15,0,0,1,.69.95,3.09,3.09,0,0,1,.29,1.4,4.27,4.27,0,0,1-.26,1.48,3.7,3.7,0,0,1-.7,1.21,3.42,3.42,0,0,1-1.08.8,3.17,3.17,0,0,1-1.35.29h-6.4Z" transform="translate(0.92)" fill="#010101"/>
            <path d="M1753.14,231a3.65,3.65,0,0,0,1.38-.26,3,3,0,0,0,1.07-.77,3.38,3.38,0,0,0,.69-1.22,5.11,5.11,0,0,0,.24-1.62V225a5.11,5.11,0,0,0-.24-1.62,3.38,3.38,0,0,0-.69-1.22,3,3,0,0,0-1.07-.77,3.82,3.82,0,0,0-2.77,0,3.06,3.06,0,0,0-1.07.77,3.52,3.52,0,0,0-.68,1.22,4.83,4.83,0,0,0-.25,1.62v2.08a4.83,4.83,0,0,0,.25,1.62,3.52,3.52,0,0,0,.68,1.22,3.06,3.06,0,0,0,1.07.77,3.62,3.62,0,0,0,1.39.26m0,1.88a5.83,5.83,0,0,1-2.33-.44,4.88,4.88,0,0,1-1.78-1.3,5.91,5.91,0,0,1-1.15-2.12,10.93,10.93,0,0,1,0-5.86A5.91,5.91,0,0,1,1749,221a4.88,4.88,0,0,1,1.78-1.3,6.36,6.36,0,0,1,4.65,0,4.92,4.92,0,0,1,1.79,1.3,5.91,5.91,0,0,1,1.15,2.12,10.93,10.93,0,0,1,0,5.86,5.91,5.91,0,0,1-1.15,2.12,4.92,4.92,0,0,1-1.79,1.3,5.78,5.78,0,0,1-2.32.44" transform="translate(0.92)" fill="#010101"/>
            <path d="M1766.53,231a3.66,3.66,0,0,0,1.39-.26,3.06,3.06,0,0,0,1.07-.77,3.7,3.7,0,0,0,.69-1.22,5.11,5.11,0,0,0,.24-1.62V225a5.11,5.11,0,0,0-.24-1.62,3.7,3.7,0,0,0-.69-1.22,3.06,3.06,0,0,0-1.07-.77,3.66,3.66,0,0,0-1.39-.26,3.62,3.62,0,0,0-1.39.26,3,3,0,0,0-1.06.77,3.38,3.38,0,0,0-.69,1.22,5.11,5.11,0,0,0-.24,1.62v2.08a5.11,5.11,0,0,0,.24,1.62,3.38,3.38,0,0,0,.69,1.22,3,3,0,0,0,1.06.77,3.62,3.62,0,0,0,1.39.26m0,1.88a5.82,5.82,0,0,1-2.32-.44,4.92,4.92,0,0,1-1.79-1.3,6.07,6.07,0,0,1-1.15-2.12,10.93,10.93,0,0,1,0-5.86,6.07,6.07,0,0,1,1.15-2.12,4.92,4.92,0,0,1,1.79-1.3,6.36,6.36,0,0,1,4.65,0,4.88,4.88,0,0,1,1.78,1.3,5.91,5.91,0,0,1,1.15,2.12,10.67,10.67,0,0,1,0,5.86,5.91,5.91,0,0,1-1.15,2.12,4.88,4.88,0,0,1-1.78,1.3,5.83,5.83,0,0,1-2.33.44" transform="translate(0.92)" fill="#010101"/>
            <polygon points="1785.38 232.63 1782.88 232.63 1779.7 227.4 1779.64 227.4 1776.51 232.63 1774.15 232.63 1778.4 225.91 1774.3 219.49 1776.8 219.49 1779.8 224.38 1779.83 224.38 1782.86 219.49 1785.22 219.49 1781.07 225.89 1785.38 232.63" fill="#010101"/>
            <path d="M1788.6,225.52H1792a1.78,1.78,0,0,0,1.26-.43,1.55,1.55,0,0,0,.45-1.2V223a1.56,1.56,0,0,0-.45-1.2,1.78,1.78,0,0,0-1.26-.42h-3.39Zm-2.12,7.11V219.49h5.64a3.63,3.63,0,0,1,2.82,1.08,4.63,4.63,0,0,1,0,5.75,3.63,3.63,0,0,1-2.82,1.08h-3.52v5.23Z" transform="translate(0.92)" fill="#010101"/>
            <path d="M1801.81,221.45h-.1l-1.89,5.8h3.87Zm3.59,11.18-1.18-3.56h-4.91l-1.15,3.56H1796l4.47-13.14h2.67l4.48,13.14Z" transform="translate(0.92)" fill="#010101"/>
            <polygon points="1818.65 226.91 1812.7 226.91 1812.7 232.63 1810.58 232.63 1810.58 219.5 1812.7 219.5 1812.7 225.03 1818.65 225.03 1818.65 219.5 1820.77 219.5 1820.77 232.63 1818.65 232.63 1818.65 226.91" fill="#010101"/>
            <polygon points="1824.01 232.63 1824.01 219.49 1832.41 219.49 1832.41 221.38 1826.13 221.38 1826.13 225.03 1831.83 225.03 1831.83 226.91 1826.13 226.91 1826.13 230.75 1832.41 230.75 1832.41 232.63 1824.01 232.63" fill="#010101"/>
            <polygon points="1843.23 226.91 1837.29 226.91 1837.29 232.63 1835.16 232.63 1835.16 219.5 1837.29 219.5 1837.29 225.03 1843.23 225.03 1843.23 219.5 1845.36 219.5 1845.36 232.63 1843.23 232.63 1843.23 226.91" fill="#010101"/>
            <polygon points="1848.6 219.5 1850.66 219.5 1850.66 226.97 1850.46 229.68 1850.51 229.68 1851.83 227.25 1856.87 219.5 1858.79 219.5 1858.79 232.63 1856.72 232.63 1856.72 225.16 1856.93 222.45 1856.87 222.45 1855.56 224.87 1850.51 232.63 1848.6 232.63 1848.6 219.5" fill="#010101"/>
            <path d="M1868.09,225.53v-4.15h-3.37a1.8,1.8,0,0,0-1.27.42A1.54,1.54,0,0,0,1863,223v.89a1.54,1.54,0,0,0,.46,1.21,1.76,1.76,0,0,0,1.27.42Zm-7.83,5.22h1.15l1.39-2.52a2.77,2.77,0,0,1,.53-.74,1.64,1.64,0,0,1,.75-.36V227a3.38,3.38,0,0,1-2.49-1.06,3.77,3.77,0,0,1-.84-2.55,4,4,0,0,1,1-2.89,3.72,3.72,0,0,1,2.8-1h5.66v13.14h-2.12v-5.29h-2.39l-2.23,3.95a2.81,2.81,0,0,1-.88,1.06,1.87,1.87,0,0,1-1,.28h-1.28Z" transform="translate(0.92)" fill="#010101"/>
            <polygon points="1687.76 241.28 1689.83 241.28 1689.83 248.75 1689.63 251.46 1689.68 251.46 1691 249.03 1696.04 241.28 1697.96 241.28 1697.96 254.41 1695.89 254.41 1695.89 246.94 1696.1 244.23 1696.04 244.23 1694.72 246.66 1689.68 254.41 1687.76 254.41 1687.76 241.28" fill="#010101"/>
            <polygon points="1715.68 244.36 1715.59 244.36 1714.55 246.49 1711.67 251.74 1708.8 246.49 1707.76 244.36 1707.67 244.36 1707.67 254.41 1705.64 254.41 1705.64 241.28 1708.16 241.28 1711.67 247.96 1711.79 247.96 1715.31 241.28 1717.71 241.28 1717.71 254.41 1715.68 254.41 1715.68 244.36" fill="#010101"/>
            <polygon points="1720.95 254.41 1720.95 241.28 1729.36 241.28 1729.36 243.16 1723.07 243.16 1723.07 246.81 1728.78 246.81 1728.78 248.69 1723.07 248.69 1723.07 252.53 1729.36 252.53 1729.36 254.41 1720.95 254.41" fill="#010101"/>
            <path d="M1739.29,252.53v-9.37h-4.38v2.35c0,.94,0,1.78-.09,2.51a15.68,15.68,0,0,1-.24,1.92,9.66,9.66,0,0,1-.39,1.45,5.51,5.51,0,0,1-.54,1.06v.08Zm-9.48,0h1.39a6,6,0,0,0,.69-1.12,7.39,7.39,0,0,0,.52-1.53,14,14,0,0,0,.34-2c.07-.76.11-1.63.11-2.6v-4h8.56v11.25h2v4.7h-2v-2.82h-9.61v2.82h-2Z" transform="translate(0.92)" fill="#010101"/>
            <polygon points="1746.48 241.28 1748.55 241.28 1748.55 248.75 1748.34 251.46 1748.39 251.46 1749.71 249.03 1754.76 241.28 1756.68 241.28 1756.68 254.41 1754.61 254.41 1754.61 246.94 1754.81 244.23 1754.76 244.23 1753.44 246.66 1748.39 254.41 1746.48 254.41 1746.48 241.28" fill="#010101"/>
            <polygon points="1769.81 254.41 1759.91 254.41 1759.91 241.28 1762.04 241.28 1762.04 252.53 1767.7 252.53 1767.7 241.28 1769.82 241.28 1769.82 252.53 1771.78 252.53 1771.78 257.23 1769.81 257.23 1769.81 254.41" fill="#010101"/>
            <polygon points="1773.96 241.28 1776.03 241.28 1776.03 248.75 1775.83 251.46 1775.88 251.46 1777.2 249.03 1782.24 241.28 1784.16 241.28 1784.16 254.41 1782.09 254.41 1782.09 246.94 1782.3 244.23 1782.24 244.23 1780.92 246.66 1775.88 254.41 1773.96 254.41 1773.96 241.28" fill="#010101"/>
            <polygon points="1795.47 248.69 1789.52 248.69 1789.52 254.41 1787.4 254.41 1787.4 241.28 1789.52 241.28 1789.52 246.81 1795.47 246.81 1795.47 241.28 1797.59 241.28 1797.59 254.41 1795.47 254.41 1795.47 248.69" fill="#010101"/>
            <path d="M1804.84,254.64a5,5,0,0,1-4-1.74,7.64,7.64,0,0,1-1.47-5.05,10.24,10.24,0,0,1,.38-2.92,6.12,6.12,0,0,1,1.09-2.13,4.64,4.64,0,0,1,1.74-1.3,5.67,5.67,0,0,1,2.31-.45,5.2,5.2,0,0,1,2.87.75,5,5,0,0,1,1.81,2.21l-1.79,1a3.23,3.23,0,0,0-1-1.49,3.33,3.33,0,0,0-4.24.48,4.35,4.35,0,0,0-.87,2.87v2a4.35,4.35,0,0,0,.87,2.87,2.94,2.94,0,0,0,2.39,1,2.89,2.89,0,0,0,1.92-.62,3.58,3.58,0,0,0,1.11-1.57l1.7,1a5.27,5.27,0,0,1-1.84,2.23,5.06,5.06,0,0,1-2.89.8" transform="translate(0.92)" fill="#010101"/>
            <path d="M1811.84,241.28H1814v5.51h2.28l2.33-4.09a3.12,3.12,0,0,1,.91-1.09,2,2,0,0,1,1.18-.33h1v1.88h-1.19l-1.88,3.31a3.54,3.54,0,0,1-.59.78,2.09,2.09,0,0,1-.67.38v.09a2.15,2.15,0,0,1,.77.32,2.65,2.65,0,0,1,.66.83l2.09,3.66H1822v1.88h-1.3a1.77,1.77,0,0,1-1.06-.31,3.3,3.3,0,0,1-.91-1.1l-2.48-4.33H1814v5.74h-2.12Z" transform="translate(0.92)" fill="#010101"/>
            <path d="M1829,252.76a3.47,3.47,0,0,0,1.38-.27,2.83,2.83,0,0,0,1.07-.76,3.47,3.47,0,0,0,.69-1.22,4.85,4.85,0,0,0,.25-1.63v-2.07a4.85,4.85,0,0,0-.25-1.63,3.47,3.47,0,0,0-.69-1.22,2.94,2.94,0,0,0-1.07-.76,3.82,3.82,0,0,0-2.77,0,3,3,0,0,0-1.07.76,3.61,3.61,0,0,0-.68,1.22,4.85,4.85,0,0,0-.25,1.63v2.07a4.85,4.85,0,0,0,.25,1.63,3.61,3.61,0,0,0,.68,1.22,2.91,2.91,0,0,0,1.07.76,3.45,3.45,0,0,0,1.39.27m0,1.88a5.78,5.78,0,0,1-2.32-.45,4.7,4.7,0,0,1-1.79-1.29,5.88,5.88,0,0,1-1.15-2.13,10.89,10.89,0,0,1,0-5.85,5.88,5.88,0,0,1,1.15-2.13,4.7,4.7,0,0,1,1.79-1.29,6.21,6.21,0,0,1,4.64,0,4.78,4.78,0,0,1,1.79,1.29,5.88,5.88,0,0,1,1.15,2.13,10.89,10.89,0,0,1,0,5.85,5.88,5.88,0,0,1-1.15,2.13,4.78,4.78,0,0,1-1.79,1.29,5.78,5.78,0,0,1-2.32.45" transform="translate(0.92)" fill="#010101"/>
            <polygon points="1838.27 241.28 1845.66 241.28 1845.66 243.16 1840.39 243.16 1840.39 254.41 1838.27 254.41 1838.27 241.28" fill="#010101"/>
            <path d="M1851.36,252.76a3.47,3.47,0,0,0,1.38-.27,3,3,0,0,0,1.08-.76,3.61,3.61,0,0,0,.68-1.22,4.85,4.85,0,0,0,.25-1.63v-2.07a4.85,4.85,0,0,0-.25-1.63,3.61,3.61,0,0,0-.68-1.22,3.07,3.07,0,0,0-1.08-.76,3.82,3.82,0,0,0-2.77,0,2.91,2.91,0,0,0-1.06.76,3.47,3.47,0,0,0-.69,1.22,4.85,4.85,0,0,0-.25,1.63v2.07a4.85,4.85,0,0,0,.25,1.63,3.47,3.47,0,0,0,.69,1.22,2.79,2.79,0,0,0,1.06.76,3.45,3.45,0,0,0,1.39.27m0,1.88a5.78,5.78,0,0,1-2.32-.45,4.78,4.78,0,0,1-1.79-1.29,5.88,5.88,0,0,1-1.15-2.13,10.89,10.89,0,0,1,0-5.85,5.88,5.88,0,0,1,1.15-2.13,4.78,4.78,0,0,1,1.79-1.29,6.21,6.21,0,0,1,4.64,0,4.7,4.7,0,0,1,1.79,1.29,5.88,5.88,0,0,1,1.15,2.13,10.89,10.89,0,0,1,0,5.85,5.88,5.88,0,0,1-1.15,2.13,4.7,4.7,0,0,1-1.79,1.29,5.75,5.75,0,0,1-2.32.45" transform="translate(0.92)" fill="#010101"/>
            <polygon points="1697.81 266.15 1697.71 266.15 1696.68 268.27 1693.8 273.52 1690.92 268.27 1689.89 266.15 1689.8 266.15 1689.8 276.19 1687.76 276.19 1687.76 263.06 1690.28 263.06 1693.8 269.74 1693.91 269.74 1697.43 263.06 1699.84 263.06 1699.84 276.19 1697.81 276.19 1697.81 266.15" fill="#010101"/>
            <polygon points="1703.08 276.19 1703.08 263.06 1711.49 263.06 1711.49 264.94 1705.2 264.94 1705.2 268.59 1710.9 268.59 1710.9 270.47 1705.2 270.47 1705.2 274.31 1711.49 274.31 1711.49 276.19 1703.08 276.19" fill="#010101"/>
            <polygon points="1722.3 270.48 1716.36 270.48 1716.36 276.2 1714.23 276.2 1714.23 263.06 1716.36 263.06 1716.36 268.59 1722.3 268.59 1722.3 263.06 1724.43 263.06 1724.43 276.2 1722.3 276.2 1722.3 270.48" fill="#010101"/>
            <polygon points="1727.67 276.19 1727.67 263.06 1736.07 263.06 1736.07 264.94 1729.79 264.94 1729.79 268.59 1735.49 268.59 1735.49 270.47 1729.79 270.47 1729.79 274.31 1736.07 274.31 1736.07 276.19 1727.67 276.19" fill="#010101"/>
            <path d="M1746,274.31v-9.37h-4.38v2.36c0,.93,0,1.77-.09,2.5a17.62,17.62,0,0,1-.25,1.93,7.62,7.62,0,0,1-.39,1.44,5.09,5.09,0,0,1-.54,1.07v.07Zm-9.48,0h1.39a6,6,0,0,0,.69-1.12,8.16,8.16,0,0,0,.52-1.52,12.77,12.77,0,0,0,.33-2,25.42,25.42,0,0,0,.11-2.61v-4h8.57v11.25h1.95V279h-2v-2.83h-9.61V279h-2Z" transform="translate(0.92)" fill="#010101"/>
            <path d="M1751.45,274.31h1.16l1.79-3.53a2.91,2.91,0,0,1,.62-.89,1.56,1.56,0,0,1,.75-.37v-.1a2.17,2.17,0,0,1-.71-.4,2.33,2.33,0,0,1-.58-.82l-1.53-3.26h-1.17v-1.88h1a2.2,2.2,0,0,1,1.21.32,2.57,2.57,0,0,1,.88,1.11l1.93,4.1h2.08v-5.53H1761v5.53h2.07l1.94-4.1a2.63,2.63,0,0,1,.87-1.11,2.26,2.26,0,0,1,1.22-.32h1v1.88H1767l-1.52,3.26a2.62,2.62,0,0,1-.58.82,2.32,2.32,0,0,1-.72.4v.1a1.64,1.64,0,0,1,.76.37,3.09,3.09,0,0,1,.62.89l1.78,3.53h1.17v1.88h-1.32a1.75,1.75,0,0,1-1.08-.31,3.15,3.15,0,0,1-.85-1.15l-2.15-4.27H1761v5.73h-2.12v-5.73h-2.08l-2.14,4.27a3.16,3.16,0,0,1-.86,1.15,1.75,1.75,0,0,1-1.08.31h-1.31Z" transform="translate(0.92)" fill="#010101"/>
            <polygon points="1781.88 266.15 1781.79 266.15 1780.76 268.27 1777.88 273.52 1775 268.27 1773.96 266.15 1773.87 266.15 1773.87 276.19 1771.84 276.19 1771.84 263.06 1774.36 263.06 1777.88 269.74 1777.99 269.74 1781.51 263.06 1783.92 263.06 1783.92 276.19 1781.88 276.19 1781.88 266.15" fill="#010101"/>
            <polygon points="1787.15 276.19 1787.15 263.06 1795.56 263.06 1795.56 264.94 1789.28 264.94 1789.28 268.59 1794.98 268.59 1794.98 270.47 1789.28 270.47 1789.28 274.31 1795.56 274.31 1795.56 276.19 1787.15 276.19" fill="#010101"/>
            <polygon points="1806.38 270.48 1800.43 270.48 1800.43 276.2 1798.31 276.2 1798.31 263.06 1800.43 263.06 1800.43 268.59 1806.38 268.59 1806.38 263.06 1808.5 263.06 1808.5 276.2 1806.38 276.2 1806.38 270.48" fill="#010101"/>
            <polygon points="1816.61 264.94 1816.61 276.19 1814.48 276.19 1814.48 264.94 1810.58 264.94 1810.58 263.06 1820.53 263.06 1820.53 264.94 1816.61 264.94" fill="#010101"/>
            <path d="M1825.06,265H1825l-1.9,5.79h3.87Zm3.59,11.17-1.18-3.55h-4.91l-1.15,3.55h-2.16l4.48-13.13h2.67l4.47,13.13Z" transform="translate(0.92)" fill="#010101"/>
          </g>
          <g>
            <path d="M1227,253.22h-11v17h4.56v-13.1H1227Zm1.21,12.19a7.64,7.64,0,0,0,1.5,2.84,6.69,6.69,0,0,0,2.5,1.82,8.91,8.91,0,0,0,3.54.65,7.49,7.49,0,0,0,5.9-2.34q2.1-2.33,2.1-6.65a12.87,12.87,0,0,0-.5-3.67,7.76,7.76,0,0,0-1.48-2.84,6.72,6.72,0,0,0-2.48-1.83,8.92,8.92,0,0,0-3.54-.64,7.55,7.55,0,0,0-5.92,2.33q-2.11,2.32-2.11,6.65a12.9,12.9,0,0,0,.49,3.68m5-7.7a3,3,0,0,1,2.55-1.22,2.75,2.75,0,0,1,2.65,1.45,7.94,7.94,0,0,1,.79,3.79,7.19,7.19,0,0,1-.86,4,2.9,2.9,0,0,1-2.58,1.26,3,3,0,0,1-1.58-.39,2.93,2.93,0,0,1-1.08-1.1,6.09,6.09,0,0,1-.61-1.67,9.73,9.73,0,0,1-.2-2.08,6.77,6.77,0,0,1,.92-4m13.61,19.34h4.42v-7a6.43,6.43,0,0,0,1.36.5,8.4,8.4,0,0,0,1.74.15,8.09,8.09,0,0,0,3.32-.65,6.61,6.61,0,0,0,2.45-1.87,8.46,8.46,0,0,0,1.51-3,14.07,14.07,0,0,0,.51-3.93q0-4.5-1.6-6.52a5.72,5.72,0,0,0-4.79-2,6.44,6.44,0,0,0-3,.61,5.63,5.63,0,0,0-2.09,1.91h-.14l-.51-2.05h-3.23Zm10-19.34a6.82,6.82,0,0,1,.74,3.48,8,8,0,0,1-1,4.44,3.27,3.27,0,0,1-2.86,1.34,4.05,4.05,0,0,1-1.48-.22,4,4,0,0,1-1-.59v-7.09a4.32,4.32,0,0,1,1.14-1.93,2.93,2.93,0,0,1,2-.65,2.64,2.64,0,0,1,2.42,1.22m8,7.7a7.64,7.64,0,0,0,1.5,2.84,6.77,6.77,0,0,0,2.5,1.82,8.91,8.91,0,0,0,3.54.65,7.53,7.53,0,0,0,5.91-2.34q2.09-2.33,2.09-6.65a13.24,13.24,0,0,0-.49-3.67,7.92,7.92,0,0,0-1.49-2.84,6.56,6.56,0,0,0-2.48-1.83,8.92,8.92,0,0,0-3.54-.64,7.56,7.56,0,0,0-5.92,2.33q-2.12,2.32-2.11,6.65a12.9,12.9,0,0,0,.49,3.68m5-7.7a3,3,0,0,1,2.55-1.22,2.75,2.75,0,0,1,2.65,1.45,7.82,7.82,0,0,1,.79,3.79,7.29,7.29,0,0,1-.85,4,2.91,2.91,0,0,1-2.59,1.26,2.9,2.9,0,0,1-2.66-1.49,6.44,6.44,0,0,1-.61-1.67,10.41,10.41,0,0,1-.2-2.08,6.85,6.85,0,0,1,.92-4m30.53,8.62h-2.49V253.22H1286a41.22,41.22,0,0,1-.31,5.48,30.16,30.16,0,0,1-.73,3.88,15.33,15.33,0,0,1-.85,2.47,9.61,9.61,0,0,1-.7,1.28h-2v7.79h3.24l.51-3.88h11.43l.52,3.88h3.23Zm-12.49.2a9.7,9.7,0,0,0,.74-1.87,23.78,23.78,0,0,0,.6-2.42c.17-.86.31-1.75.43-2.67s.19-1.79.24-2.6h3.57v9.56Zm15.86-9a10.29,10.29,0,0,1,2.43-.71,15.64,15.64,0,0,1,2.81-.28c1.17,0,1.94.28,2.28.84a4.41,4.41,0,0,1,.27,2.74,22.1,22.1,0,0,0-4.07.15,10,10,0,0,0-3.13.92,5,5,0,0,0-2,1.74,4.67,4.67,0,0,0-.7,2.63,5.25,5.25,0,0,0,.37,2,4.71,4.71,0,0,0,1,1.57,4.58,4.58,0,0,0,1.64,1,6,6,0,0,0,2.14.36,5.77,5.77,0,0,0,3.12-.76,6.13,6.13,0,0,0,1.89-1.83h.16l.72,2.35h3.61a10.34,10.34,0,0,1-.51-2.6c-.07-.92-.1-1.87-.09-2.84s0-2,.12-3,.1-2,.1-3a9.71,9.71,0,0,0-.28-2.45,4.61,4.61,0,0,0-1-1.87,4.45,4.45,0,0,0-1.89-1.21,9,9,0,0,0-3-.43,20.78,20.78,0,0,0-3.92.36,14.54,14.54,0,0,0-3.23,1Zm3,8.83a1.9,1.9,0,0,1-.56-1.48,1.51,1.51,0,0,1,.44-1.12,2.91,2.91,0,0,1,1.19-.68,7.55,7.55,0,0,1,1.72-.31,12.64,12.64,0,0,1,2,0V265a4.16,4.16,0,0,1-1.16,1.27,3.41,3.41,0,0,1-2.11.6,2.13,2.13,0,0,1-1.55-.53m40.11,3.9h4.66V246.42h-4.22l-6,10.82-1,2.79h-.14l-1.13-2.72-6.36-10.89h-4.25v23.82h4.42V257.85l-.68-4.69h.17l1.5,3.77,5.34,8.92h1.5l5.07-8.88,1.46-3.81h.21l-.51,4.73Zm8.31-4.83a7.79,7.79,0,0,0,1.5,2.84,6.8,6.8,0,0,0,2.51,1.82,8.84,8.84,0,0,0,3.54.65,7.51,7.51,0,0,0,5.9-2.34q2.09-2.33,2.09-6.65a12.88,12.88,0,0,0-.49-3.67,7.76,7.76,0,0,0-1.48-2.84,6.72,6.72,0,0,0-2.48-1.83,9,9,0,0,0-3.54-.64,7.57,7.57,0,0,0-5.93,2.33,9.6,9.6,0,0,0-2.11,6.65,13.27,13.27,0,0,0,.49,3.68m5-7.7a3,3,0,0,1,2.56-1.22,2.76,2.76,0,0,1,2.65,1.45,7.94,7.94,0,0,1,.78,3.79,7.2,7.2,0,0,1-.85,4,2.91,2.91,0,0,1-2.58,1.26,3.1,3.1,0,0,1-1.59-.39,3,3,0,0,1-1.07-1.1,6.09,6.09,0,0,1-.61-1.67,9.71,9.71,0,0,1-.21-2.08,6.85,6.85,0,0,1,.92-4m24.64,8.1a6.24,6.24,0,0,1-1.39.7,5.41,5.41,0,0,1-1.91.29,3.9,3.9,0,0,1-1.79-.39,3.39,3.39,0,0,1-1.24-1.07,5,5,0,0,1-.71-1.6,7.91,7.91,0,0,1-.24-2,6.27,6.27,0,0,1,1-3.86,3.33,3.33,0,0,1,2.79-1.21,6.74,6.74,0,0,1,1.76.21,9.45,9.45,0,0,1,1.55.57l1-3.6a9.8,9.8,0,0,0-2.06-.78,11.73,11.73,0,0,0-3-.31,6.91,6.91,0,0,0-5.65,2.33c-1.3,1.55-1.94,3.77-1.94,6.65a16.17,16.17,0,0,0,.39,3.68,7.47,7.47,0,0,0,1.27,2.84,5.92,5.92,0,0,0,2.3,1.82,8.31,8.31,0,0,0,3.46.65,11.31,11.31,0,0,0,3-.39,7.51,7.51,0,0,0,2.47-1.14Zm13.48,4.43h5.07l-4.59-7.93-1.91-1.33,1.73-1.29,4.12-6.47H1398l-4,6.78-1,.47v-7.25h-4.43v17h4.43v-7.05h1.18Zm6.87,0c.8.09,1.73.16,2.79.22s2.08.08,3,.08q4.33,0,6.28-1.26a4.21,4.21,0,0,0,2-3.81,4.15,4.15,0,0,0-.82-2.67,4.49,4.49,0,0,0-2.65-1.45v-.13a3.89,3.89,0,0,0,2.14-1.64,4.33,4.33,0,0,0,.68-2.31A3.62,3.62,0,0,0,1417,254c-1-.71-2.83-1.07-5.32-1.07-1.3,0-2.51,0-3.63.11s-2.08.13-2.88.2Zm4.33-7.32h2.28a3.76,3.76,0,0,1,2.36.56,1.82,1.82,0,0,1,.67,1.45,1.74,1.74,0,0,1-.79,1.56,5,5,0,0,1-2.62.51q-.62,0-1,0c-.27,0-.57-.06-.88-.1Zm0-2.73v-3.57l.83-.07c.31,0,.72,0,1.24,0a3.66,3.66,0,0,1,2.16.46,1.72,1.72,0,0,1-.1,2.69,2.88,2.88,0,0,1-1.79.52Zm17.28,2.29a8.18,8.18,0,0,1,2-.24,3,3,0,0,1,2,.56,2.12,2.12,0,0,1,.61,1.65,2.24,2.24,0,0,1-.61,1.75,3.14,3.14,0,0,1-2.14.56,9.64,9.64,0,0,1-2-.2Zm0-9.23h-4.42v17c.8.07,1.66.12,2.61.17s2,.07,3.34.07a14.17,14.17,0,0,0,3.61-.39,6.21,6.21,0,0,0,2.39-1.16,4.31,4.31,0,0,0,1.32-1.92,7.92,7.92,0,0,0,.41-2.69,7,7,0,0,0-.3-2.09,4.15,4.15,0,0,0-1-1.69,4.53,4.53,0,0,0-1.87-1.1,8.87,8.87,0,0,0-2.89-.4c-.46,0-1,0-1.52,0s-1.1.1-1.65.19Zm11.2,17h4.43v-17H1438Z" transform="translate(0.92)" fill="#9cbf32"/>
            <path d="M1219.44,231.29a7.25,7.25,0,0,1,3,.41,1.35,1.35,0,0,1,.79,1.29c0,1.32-1,2-3.1,2a10.39,10.39,0,0,1-2.46-.28,7.54,7.54,0,0,1-1.89-.71l-1,3.43a10.39,10.39,0,0,0,2.29.91,12.14,12.14,0,0,0,3.26.39,11.43,11.43,0,0,0,3.23-.41,7.1,7.1,0,0,0,2.26-1.09,4.35,4.35,0,0,0,1.35-1.62,5.23,5.23,0,0,0-.31-4.8,4.12,4.12,0,0,0-2.55-1.44v-.14a3.52,3.52,0,0,0,1.17-.66,4.23,4.23,0,0,0,.83-1,3.61,3.61,0,0,0,.5-1.14,4.82,4.82,0,0,0,.15-1.17,3.71,3.71,0,0,0-1.45-3.17,7.2,7.2,0,0,0-4.37-1.09,14.3,14.3,0,0,0-3.59.43,11,11,0,0,0-2.7,1l.95,3.37a8.25,8.25,0,0,1,1.63-.72,7.67,7.67,0,0,1,2.35-.33,4.34,4.34,0,0,1,2.08.39,1.4,1.4,0,0,1,.68,1.31,1.45,1.45,0,0,1-.77,1.26,3.7,3.7,0,0,1-2,.47h-2.08v3.1Zm28.17,3.13h-2.48v-13.1h-11.84a43.22,43.22,0,0,1-.31,5.48,30.49,30.49,0,0,1-.73,3.88,16.06,16.06,0,0,1-.85,2.47,10,10,0,0,1-.7,1.27h-2v7.79h3.24l.51-3.88h11.43l.51,3.88h3.23Zm-12.48.21a9.82,9.82,0,0,0,.74-1.88,23.78,23.78,0,0,0,.6-2.42c.17-.86.31-1.75.43-2.66s.19-1.79.23-2.61h3.58v9.57Zm14.9,10.51h4.43v-7a6.54,6.54,0,0,0,1.36.49,9.28,9.28,0,0,0,5-.49,6.66,6.66,0,0,0,2.45-1.88,8.23,8.23,0,0,0,1.52-3,14.07,14.07,0,0,0,.51-3.93c0-3-.54-5.16-1.6-6.51a5.76,5.76,0,0,0-4.8-2,6.39,6.39,0,0,0-2.94.61,5.67,5.67,0,0,0-2.1,1.91h-.13l-.51-2H1250Zm10-19.33a6.67,6.67,0,0,1,.75,3.47,7.84,7.84,0,0,1-1,4.44,3.27,3.27,0,0,1-2.86,1.35,4.32,4.32,0,0,1-1.48-.22,4.27,4.27,0,0,1-1-.6v-7.08a4.27,4.27,0,0,1,1.13-1.94,3,3,0,0,1,2-.64,2.62,2.62,0,0,1,2.42,1.22m9.32-.21a10.59,10.59,0,0,1,2.43-.71,15.76,15.76,0,0,1,2.81-.27c1.18,0,1.94.28,2.28.83a4.41,4.41,0,0,1,.28,2.74,23,23,0,0,0-4.07.15,10.22,10.22,0,0,0-3.13.92,5.15,5.15,0,0,0-2,1.74,4.81,4.81,0,0,0-.7,2.64,5.19,5.19,0,0,0,.38,2,4.56,4.56,0,0,0,1,1.57,4.74,4.74,0,0,0,1.64,1,6,6,0,0,0,2.14.36,5.77,5.77,0,0,0,3.12-.77,6.07,6.07,0,0,0,1.88-1.82h.17l.72,2.35H1282a10.07,10.07,0,0,1-.51-2.61c-.07-.91-.1-1.86-.09-2.84s.05-2,.12-3,.1-2,.1-3a9.74,9.74,0,0,0-.29-2.45,4.54,4.54,0,0,0-1-1.87,4.61,4.61,0,0,0-1.9-1.21,9,9,0,0,0-3-.42,20.68,20.68,0,0,0-3.91.35,14.52,14.52,0,0,0-3.23,1Zm3,8.84a2,2,0,0,1-.56-1.48,1.55,1.55,0,0,1,.44-1.13,3,3,0,0,1,1.2-.68,7,7,0,0,1,1.71-.3,11.54,11.54,0,0,1,2,0v2.22a4.26,4.26,0,0,1-1.16,1.27,3.37,3.37,0,0,1-2.11.6,2.21,2.21,0,0,1-1.55-.53m12.92,3.86c.79.09,1.73.16,2.79.22s2.08.09,3,.09q4.32,0,6.28-1.26a4.24,4.24,0,0,0,2-3.82,4.2,4.2,0,0,0-.82-2.66,4.42,4.42,0,0,0-2.65-1.45v-.14a3.91,3.91,0,0,0,2.14-1.63,4.45,4.45,0,0,0,.68-2.32,3.62,3.62,0,0,0-1.58-3.21q-1.59-1.08-5.33-1.08c-1.29,0-2.5,0-3.63.11s-2.08.13-2.87.2Zm4.32-7.32h2.28a3.79,3.79,0,0,1,2.37.56,1.83,1.83,0,0,1,.66,1.45,1.72,1.72,0,0,1-.78,1.56,4.9,4.9,0,0,1-2.62.52,9.7,9.7,0,0,1-1,0c-.28,0-.57-.06-.89-.1Zm0-2.72v-3.57l.83-.07c.31,0,.73,0,1.25,0a3.68,3.68,0,0,1,2.16.46,1.59,1.59,0,0,1,.59,1.34,1.62,1.62,0,0,1-.69,1.34,2.9,2.9,0,0,1-1.79.53Zm12.54,5.24a7.64,7.64,0,0,0,1.5,2.84,6.79,6.79,0,0,0,2.5,1.83,9.1,9.1,0,0,0,3.54.64,7.56,7.56,0,0,0,5.91-2.33q2.09-2.32,2.09-6.65a12.9,12.9,0,0,0-.49-3.68,7.76,7.76,0,0,0-1.48-2.84,6.65,6.65,0,0,0-2.49-1.82,8.91,8.91,0,0,0-3.54-.65,7.58,7.58,0,0,0-5.92,2.33c-1.41,1.55-2.11,3.78-2.11,6.66a13.19,13.19,0,0,0,.49,3.67m5-7.69a3,3,0,0,1,2.55-1.22,2.79,2.79,0,0,1,2.66,1.44,8,8,0,0,1,.78,3.8,7.24,7.24,0,0,1-.85,4,2.91,2.91,0,0,1-2.59,1.26,3,3,0,0,1-1.58-.4,2.9,2.9,0,0,1-1.07-1.1,5.32,5.32,0,0,1-.61-1.67,9.61,9.61,0,0,1-.21-2.07,6.82,6.82,0,0,1,.92-4m13.29,7.69a7.64,7.64,0,0,0,1.5,2.84,6.71,6.71,0,0,0,2.5,1.83,9.1,9.1,0,0,0,3.54.64,7.52,7.52,0,0,0,5.9-2.33c1.4-1.55,2.09-3.77,2.09-6.65a12.9,12.9,0,0,0-.49-3.68,7.76,7.76,0,0,0-1.48-2.84,6.62,6.62,0,0,0-2.48-1.82,8.91,8.91,0,0,0-3.54-.65,7.58,7.58,0,0,0-5.92,2.33c-1.41,1.55-2.12,3.78-2.12,6.66a12.82,12.82,0,0,0,.5,3.67m5-7.69a3,3,0,0,1,2.56-1.22,2.77,2.77,0,0,1,2.65,1.44,8,8,0,0,1,.78,3.8,7.24,7.24,0,0,1-.85,4,2.9,2.9,0,0,1-2.58,1.26,3,3,0,0,1-1.58-.4,2.93,2.93,0,0,1-1.08-1.1,5.57,5.57,0,0,1-.61-1.67,9.63,9.63,0,0,1-.2-2.07,6.83,6.83,0,0,1,.91-4m11.27,12.52h4.83l2.62-4.08,1.09-2.52,1,2.52,2.62,4.08H1354l-5.48-8.84,5.14-8.17h-4.8l-2.31,3.64-1,2.38-1-2.38-2.22-3.64h-5.27l5.1,8.3Zm19.53,6.81h4.43v-7a6.54,6.54,0,0,0,1.36.49,9.28,9.28,0,0,0,5-.49,6.69,6.69,0,0,0,2.46-1.88,8.37,8.37,0,0,0,1.51-3,14.07,14.07,0,0,0,.51-3.93c0-3-.54-5.16-1.6-6.51a5.74,5.74,0,0,0-4.8-2,6.39,6.39,0,0,0-2.94.61,5.67,5.67,0,0,0-2.1,1.91H1360l-.51-2h-3.24Zm10-19.33a6.67,6.67,0,0,1,.75,3.47,7.93,7.93,0,0,1-1,4.44,3.28,3.28,0,0,1-2.86,1.35,4.38,4.38,0,0,1-1.49-.22,4.27,4.27,0,0,1-1-.6v-7.08a4.19,4.19,0,0,1,1.14-1.94,3,3,0,0,1,2-.64,2.61,2.61,0,0,1,2.42,1.22m9.33-.21a10.29,10.29,0,0,1,2.43-.71,15.68,15.68,0,0,1,2.81-.27c1.17,0,1.94.28,2.28.83a4.5,4.5,0,0,1,.27,2.74,23,23,0,0,0-4.07.15,10.3,10.3,0,0,0-3.13.92,5.22,5.22,0,0,0-2,1.74,4.8,4.8,0,0,0-.69,2.64,5.19,5.19,0,0,0,.37,2,4.6,4.6,0,0,0,2.69,2.59,6,6,0,0,0,2.14.36,5.77,5.77,0,0,0,3.12-.77,6.22,6.22,0,0,0,1.89-1.82h.16l.72,2.35h3.61a10.07,10.07,0,0,1-.51-2.61c-.07-.91-.1-1.86-.09-2.84s0-2,.12-3,.1-2,.1-3a9.3,9.3,0,0,0-.29-2.45,4.54,4.54,0,0,0-1-1.87,4.64,4.64,0,0,0-1.89-1.21,9,9,0,0,0-3-.42,20.79,20.79,0,0,0-3.92.35,14.69,14.69,0,0,0-3.23,1Zm3,8.84A2,2,0,0,1,1378,233a1.55,1.55,0,0,1,.44-1.13,3,3,0,0,1,1.2-.68,7.06,7.06,0,0,1,1.71-.3,11.53,11.53,0,0,1,2,0v2.22a4.13,4.13,0,0,1-1.16,1.27,3.35,3.35,0,0,1-2.11.6,2.21,2.21,0,0,1-1.55-.53m22.89,3.89h4.43v-17h-4.43v6.4h-5.54v-6.4h-4.43v17h4.43v-6.7h5.54ZM1421.9,234a7.12,7.12,0,0,1-1.68.87,6.92,6.92,0,0,1-2.49.42,4.21,4.21,0,0,1-3.24-1.09,5,5,0,0,1-1.1-3.23h10.18c.11-.59.19-1.16.25-1.7s.09-1.06.09-1.53a8.34,8.34,0,0,0-.58-3.3,5.57,5.57,0,0,0-1.53-2.11,5.9,5.9,0,0,0-2.18-1.13,9.69,9.69,0,0,0-2.52-.34,7.91,7.91,0,0,0-6,2.25c-1.43,1.5-2.15,3.74-2.15,6.74a10.36,10.36,0,0,0,1.9,6.58q1.92,2.4,6,2.4a12.29,12.29,0,0,0,3.73-.56,8.82,8.82,0,0,0,2.77-1.38Zm-2.67-8.61a4.32,4.32,0,0,1,.56,2.82h-6.3a5.15,5.15,0,0,1,1-2.77,3,3,0,0,1,2.55-1,2.48,2.48,0,0,1,2.19,1m17.78,13h4.42v-17H1437v6.4h-5.55v-6.4H1427v17h4.43v-6.7H1437Zm18.55,0H1460v-17h-2.79l-6.13,8-1.39,2.42h-.14l.21-2.31v-8.1h-4.43v17h2.79l6.06-7.69,1.46-2.48h.11l-.17,2.41Zm17.29,0h4.42V221.39c-.71-.14-1.53-.27-2.47-.38a26.13,26.13,0,0,0-3-.17q-4.26,0-6.31,1.47a5.19,5.19,0,0,0-2.07,4.56,5,5,0,0,0,1.09,3.28,4.38,4.38,0,0,0,2.76,1.58l-1.67,1.26-3.3,5.34h5.28l3.26-6,2-.41Zm-1.23-8.68a4.8,4.8,0,0,1-2.74-.57,2.14,2.14,0,0,1-.94-1.91,2.28,2.28,0,0,1,.86-1.94,3.85,3.85,0,0,1,2.38-.64,6.29,6.29,0,0,1,.85.06,3.7,3.7,0,0,1,.82.24v4.7Z" transform="translate(0.92)" fill="#9cbf32"/>
            <path d="M1237,202.28h-3V182.6h-14.26a77.33,77.33,0,0,1-.34,8.43,51.58,51.58,0,0,1-.92,5.92,23.26,23.26,0,0,1-1.09,3.66,13.75,13.75,0,0,1-.78,1.67h-2.52v8.4h3.3l.51-4.25h15.32l.5,4.25H1237Zm-15.49,0a28.36,28.36,0,0,0,1.55-5.6,64.4,64.4,0,0,0,1-9.93h5.27v15.53Zm29.58-.21a6.45,6.45,0,0,1-1.68.87,6.91,6.91,0,0,1-2.49.43,4.25,4.25,0,0,1-3.24-1.09,5,5,0,0,1-1.1-3.24h10.17c.12-.59.2-1.16.26-1.7a13.89,13.89,0,0,0,.09-1.53,8.37,8.37,0,0,0-.58-3.3,5.48,5.48,0,0,0-1.54-2.11,5.76,5.76,0,0,0-2.17-1.12,9.28,9.28,0,0,0-2.52-.34,7.91,7.91,0,0,0-6,2.24q-2.14,2.25-2.15,6.74a10.36,10.36,0,0,0,1.91,6.59c1.27,1.59,3.28,2.4,6,2.4a12,12,0,0,0,3.73-.57,8.72,8.72,0,0,0,2.77-1.37Zm-2.67-8.61a4.33,4.33,0,0,1,.56,2.83h-6.3a5.19,5.19,0,0,1,1-2.78,3.07,3.07,0,0,1,2.56-1,2.5,2.5,0,0,1,2.18,1m17.61,13h4.42v-17h-14.22v17h4.42V193.32H1266Zm9.25-12.73a10.5,10.5,0,0,1,2.44-.72,16.65,16.65,0,0,1,2.81-.27c1.18,0,1.93.28,2.28.84a4.4,4.4,0,0,1,.27,2.74,22.1,22.1,0,0,0-4.07.15,10,10,0,0,0-3.13.92,5,5,0,0,0-2,1.73,4.81,4.81,0,0,0-.7,2.64,5.28,5.28,0,0,0,.38,2,4.67,4.67,0,0,0,1,1.56,4.74,4.74,0,0,0,1.64,1,6,6,0,0,0,2.14.36,5.68,5.68,0,0,0,3.12-.77,6,6,0,0,0,1.88-1.82h.18l.71,2.35h3.61a10.42,10.42,0,0,1-.51-2.6c-.07-.92-.1-1.87-.09-2.84s0-2,.12-3,.1-2,.1-3a9.2,9.2,0,0,0-.29-2.45,4.58,4.58,0,0,0-1-1.88,4.53,4.53,0,0,0-1.89-1.2,8.76,8.76,0,0,0-3-.43,20.57,20.57,0,0,0-3.9.36,14,14,0,0,0-3.24,1Zm3,8.83a1.92,1.92,0,0,1-.57-1.48,1.52,1.52,0,0,1,.45-1.12,2.81,2.81,0,0,1,1.19-.68,7.55,7.55,0,0,1,1.72-.31,13.76,13.76,0,0,1,2,0v2.22a4,4,0,0,1-1.16,1.27,3.37,3.37,0,0,1-2.11.6,2.16,2.16,0,0,1-1.54-.53m12.91,10.7h4.43v-7a6,6,0,0,0,1.36.49,7.54,7.54,0,0,0,1.73.16,8.06,8.06,0,0,0,3.32-.65,6.63,6.63,0,0,0,2.45-1.87,8.47,8.47,0,0,0,1.52-3,14.07,14.07,0,0,0,.51-3.93q0-4.5-1.61-6.52a5.72,5.72,0,0,0-4.79-2,6.47,6.47,0,0,0-3,.61,5.69,5.69,0,0,0-2.09,1.9H1295l-.51-2h-3.24Zm10-19.33a6.7,6.7,0,0,1,.75,3.47,7.87,7.87,0,0,1-1,4.45,3.25,3.25,0,0,1-2.85,1.34,4.11,4.11,0,0,1-1.49-.22,3.7,3.7,0,0,1-1-.6v-7.08a4.32,4.32,0,0,1,1.13-1.94,3,3,0,0,1,2-.64,2.64,2.64,0,0,1,2.42,1.22m20.35-4.49h-14.16v3.91h4.8v13.11h4.56V193.32h4.8Zm2.93,4.29a10.26,10.26,0,0,1,2.43-.72,16.65,16.65,0,0,1,2.81-.27q1.77,0,2.28.84a4.4,4.4,0,0,1,.27,2.74,22.1,22.1,0,0,0-4.07.15,9.89,9.89,0,0,0-3.12.92,5,5,0,0,0-2,1.73,4.72,4.72,0,0,0-.7,2.64,5.28,5.28,0,0,0,.37,2,4.55,4.55,0,0,0,1.06,1.56,4.61,4.61,0,0,0,1.63,1,6,6,0,0,0,2.14.36,5.68,5.68,0,0,0,3.12-.77,6.11,6.11,0,0,0,1.89-1.82h.17l.71,2.35h3.61a10.42,10.42,0,0,1-.51-2.6c-.07-.92-.1-1.87-.08-2.84s0-2,.11-3,.1-2,.1-3a9.2,9.2,0,0,0-.29-2.45,4.58,4.58,0,0,0-1-1.88,4.53,4.53,0,0,0-1.89-1.2,8.69,8.69,0,0,0-3-.43,20.78,20.78,0,0,0-3.92.36,14.18,14.18,0,0,0-3.23,1Zm3,8.83a2,2,0,0,1-.55-1.48,1.51,1.51,0,0,1,.44-1.12,2.81,2.81,0,0,1,1.19-.68,7.55,7.55,0,0,1,1.72-.31,13.72,13.72,0,0,1,2,0v2.22a4.1,4.1,0,0,1-1.15,1.27,3.39,3.39,0,0,1-2.11.6,2.22,2.22,0,0,1-1.56-.53m27.49,3.9h4.26v-17h-4.64l-3.6,6.33-1,2.21h-.14l-1-2.14-3.91-6.4h-4.6v17h3.95V198.6l-.44-3.51h.21l1.29,2.93,3.5,5.28h1.6l3.2-5.28,1.36-2.93h.17l-.27,3.55Zm20.25-4.36a6.45,6.45,0,0,1-1.68.87,6.91,6.91,0,0,1-2.49.43,4.25,4.25,0,0,1-3.24-1.09,5.08,5.08,0,0,1-1.1-3.24h10.18c.11-.59.19-1.16.25-1.7a13.89,13.89,0,0,0,.09-1.53,8.19,8.19,0,0,0-.59-3.3,5.27,5.27,0,0,0-1.53-2.11,5.69,5.69,0,0,0-2.17-1.12,9.28,9.28,0,0,0-2.52-.34,7.89,7.89,0,0,0-6,2.24q-2.14,2.25-2.15,6.74a10.36,10.36,0,0,0,1.91,6.59c1.27,1.59,3.28,2.4,6,2.4a12,12,0,0,0,3.73-.57,8.62,8.62,0,0,0,2.77-1.37Zm-2.67-8.61a4.33,4.33,0,0,1,.56,2.83h-6.3a5.27,5.27,0,0,1,1-2.78,3.09,3.09,0,0,1,2.56-1,2.5,2.5,0,0,1,2.18,1m17.78,13h4.42v-17h-4.42v6.4h-5.55v-6.4h-4.42v17h4.42v-6.7h5.55Zm20.56-17h-14.16v3.91h4.8v13.11h4.56V193.32h4.8Z" transform="translate(0.92)" fill="#9cbf32"/>
            <path d="M1112.71,180.47v83c0,7.17,6.48,10.92,12.88,10.92H1140c6,0,11.26,3.06,14.43,5.48,3.16-2.42,8.37-5.48,14.42-5.48h14.42c6.41,0,12.88-3.75,12.88-10.92v-83Zm41.72,104.83-1.34-1.14c-2.45-2.09-7.4-5.58-13.08-5.58h-14.42c-8.47,0-17-5.18-17-15.08V176.31h91.79V263.5c0,9.9-8.58,15.08-17,15.08h-14.42c-5.67,0-10.63,3.49-13.08,5.58Z" transform="translate(0.92)" fill="#9cbf32"/>
            <path d="M1116.8,230.19c3.77,0,3.5,1.89,4.17,3.78a3.28,3.28,0,0,1,1.16-2.52v-.35c.42-18.43,23.3-40.86,49.51-46.46H1116.8Z" transform="translate(0.92)" fill="#84bee8"/>
            <path d="M1188.28,184.64a1.43,1.43,0,0,1-.19,2.4c-1.86,1.31-18.42,12.82-4,39.6l.65,1.2c3.34-1.5,7.32.82,7.32,2.46V184.64Z" transform="translate(0.92)" fill="#84bee8"/>
            <path d="M1158.34,223.8c-.9,2.31-2.47,3-3.58,2.68-.63-.21-2.26-1.2-1.4-4.08s3.17-3.46,4.12-3.05c1.23.54,1.77,2.14.86,4.45m17.42-20.7a28.05,28.05,0,0,1,5.43-13.44c2.4-3,3.93-2.76,3.62-3.68-.19-.58-3.13-.59-6-.12A83.6,83.6,0,0,0,1149,197.33c-18.34,11.52-30,32.28-23,46.11,4.13,8.21,10.78,9.07,15.64,8.37,0,0,3.33,9.88,14.7,18.67.32.21.44.2.52.15.47-.28-.76-1.25-1.36-2a48.84,48.84,0,0,1-7.49-10.84c-2.42-5.1-6.29-14.33-2.62-30.57a53.74,53.74,0,0,1,8.44-18.82c.42-.56,1-1.27,1.27-1.65,1.77-2.38,1.65-1.15,1.52-.9-.24.47-.76,1.37-1.11,2.2a75.75,75.75,0,0,0-3.31,8.69c-4.2,13.1-.53,22-.53,22l4.19-7.33a43.73,43.73,0,0,1,8.4-9.84,22.44,22.44,0,0,1,2.86-2.19c.19,0,.54,0-.28,1a44.68,44.68,0,0,0-8.35,14.7,30.14,30.14,0,0,0-1.27,6.15c3.56-.52,2.38,3.84.06,6.07.75,5.8,3.6,10.63,9.06,11.88,10.8,2.47,18.31-5.05,18.6-17.3.34-14.38-11.26-24.62-9.16-38.76" transform="translate(0.92)" fill="#9cbf32"/>
            <path d="M1155.14,242.51c4.74-2.17,2.41,4.12,0,4.6-1.92-.69-4-7.32,0-4.6" transform="translate(0.92)" fill="#db1318"/>
            <path d="M1149,266.86c-4.58-2.55-7.54-8.37-9-11.4a30.26,30.26,0,0,0-6.16,1.32,19.11,19.11,0,0,1-2.11-3.53c-1.73.05-10.59,2.41-12.71,5.05a9.66,9.66,0,0,0,2.22,2.44c.7-.17,2-.4,3.68-.64-3.2,1.49-6,3.25-7.54,5.12,1.81,2.75,1.77,3.08,3.48,4.59a142.44,142.44,0,0,1,14.93-2,10.37,10.37,0,0,0-3.33,2.89,9.7,9.7,0,0,0,2.53,2.11,118.07,118.07,0,0,1,14.61-3.86,8.43,8.43,0,0,1-2.84-2c.81,0,1.57-.06,2.26-.08" transform="translate(0.92)" fill="#e1b809"/>
            <path d="M1192.33,258c-3.44.06-30.39,5.72-34.62,9.3a16.48,16.48,0,0,0,4.43,3.32c2.18-.36,6.9-.93,12.07-1.44a8.41,8.41,0,0,0-2.4,2.28,9.35,9.35,0,0,0,2.53,2.11,117.87,117.87,0,0,1,14.6-3.86,7.93,7.93,0,0,1-2.35-1.51c1.32-.07,2.53-.12,3.57-.14,1.15-.85,2.17-6.95,2.17-10.06" transform="translate(0.92)" fill="#e1b809"/>
          </g>
          <g>
            <path d="M2142.79,241.63l-.17.47a7.53,7.53,0,0,1-6.92,4.23c-4.66,0-8.38-4.32-8.38-9.58,0-4.6,2.94-9.49,8.3-9.49a7,7,0,0,1,6.74,4.13l.26.47,4.23-2.81-.17-.47a11.79,11.79,0,0,0-10.89-6.3c-8.64,0-13.83,7.24-13.83,14.19s5.45,14.65,13.57,14.65c4.32,0,9.68-2.25,11.5-6.67l.17-.47Z" transform="translate(0.92)" fill="#303031"/>
            <path d="M2161.81,222.37c-7.52,0-13.74,6.48-13.74,14.47,0,6.95,5.18,14.47,13.65,14.47,7.52,0,13.66-6.49,13.66-14.38C2175.46,229.89,2170.19,222.37,2161.81,222.37Zm8.21,14.47c0,4.6-2.85,9.49-8.21,9.49s-8.3-4.89-8.3-9.49,2.94-9.49,8.3-9.49C2167,227.35,2170,232.14,2170,236.84Z" transform="translate(0.92)" fill="#303031"/>
            <path d="M2190.93,222.37c-7.52,0-13.75,6.48-13.75,14.47,0,6.95,5.19,14.47,13.66,14.47,7.52,0,13.66-6.49,13.66-14.38C2204.58,229.89,2199.31,222.37,2190.93,222.37Zm8.21,14.47c0,4.6-2.85,9.49-8.21,9.49s-8.3-4.89-8.3-9.49,2.94-9.49,8.3-9.49C2196,227.35,2199.14,232.14,2199.14,236.84Z" transform="translate(0.92)" fill="#303031"/>
            <path d="M2221,234h-7.6v-6.67h15v-4.79h-20.23v28.56h13.14c5.79,0,9.34-3.29,9.34-8.64S2227.06,234,2221,234Zm4.15,8.18c0,2.53-1.64,4-4.49,4h-7.26v-7.71h7.17C2223.69,238.53,2225.16,239.75,2225.16,242.2Z" transform="translate(0.92)" fill="#303031"/>
            <path d="M2266.56,246.24V222.56h-5.27v23.68h-8.47V222.56h-5.36v23.68H2239V222.56h-5.27V251h31.55v5.26h4.84V246.24Z" transform="translate(0.92)" fill="#303031"/>
            <path d="M2278.84,246.24v-7.43h12.27v-4.6h-12.27v-6.76H2293v-4.89h-19.45V251h19.8v-4.79Z" transform="translate(0.92)" fill="#303031"/>
            <path d="M2315.57,241.63l-.17.47a7.54,7.54,0,0,1-6.92,4.23c-4.66,0-8.38-4.32-8.38-9.58,0-4.6,2.94-9.49,8.3-9.49a7,7,0,0,1,6.74,4.13l.26.47,4.23-2.81-.26-.47a11.78,11.78,0,0,0-10.89-6.3c-8.64,0-13.83,7.24-13.83,14.19s5.45,14.65,13.57,14.65c4.33,0,9.68-2.25,11.5-6.67l.17-.47Z" transform="translate(0.92)" fill="#303031"/>
            <path d="M2320.41,222.56v4.89h9.16V251h5.27V227.45H2344v-4.89Z" transform="translate(0.92)" fill="#303031"/>
            <path d="M2364.92,236.37a7.44,7.44,0,0,0,3.2-6.29c0-3.67-2.59-7.52-6.74-7.52h-14.61v28.56h13.57c5.28,0,9-3.1,9-7.61A7.46,7.46,0,0,0,2364.92,236.37Zm-1,6.3a3.62,3.62,0,0,1-3.55,3.66H2352v-7.42h8.56A3.55,3.55,0,0,1,2363.89,242.67ZM2352,234.4v-7.05h7.78c1.82,0,3.12,1.51,3.12,3.57a3.35,3.35,0,0,1-3.29,3.48Z" transform="translate(0.92)" fill="#303031"/>
            <path d="M2384.89,222.37c-7.52,0-13.74,6.48-13.74,14.47,0,6.95,5.18,14.47,13.65,14.47,7.52,0,13.66-6.49,13.66-14.38C2398.46,229.89,2393.27,222.37,2384.89,222.37Zm8.21,14.47c0,4.6-2.85,9.49-8.21,9.49s-8.3-4.89-8.3-9.49,2.94-9.49,8.3-9.49C2390,227.35,2393.1,232.14,2393.1,236.84Z" transform="translate(0.92)" fill="#303031"/>
            <path d="M2125.76,178.69v28.56H2131V183.58h12.1v23.67h5.36V178.69Z" transform="translate(0.92)" fill="#303031"/>
            <path d="M2165.78,178.69h-12v28.56H2159v-9.58h7c5.45,0,8.73-4.79,8.73-9.49S2171.14,178.69,2165.78,178.69Zm3.63,9.49c0,2.72-1.55,4.6-3.71,4.6H2159v-9.2h6.48C2167.69,183.58,2169.41,185.55,2169.41,188.18Z" transform="translate(0.92)" fill="#303031"/>
            <path d="M2189.81,178.5c-7.52,0-13.74,6.48-13.74,14.47,0,6.95,5.18,14.46,13.65,14.46,7.52,0,13.66-6.48,13.66-14.37C2203.47,186,2198.28,178.5,2189.81,178.5ZM2198,193c0,4.6-2.85,9.49-8.21,9.49s-8.3-4.89-8.3-9.49,2.94-9.49,8.3-9.49C2195,183.48,2198,188.36,2198,193Z" transform="translate(0.92)" fill="#303031"/>
            <path d="M2212.29,202.36V195h12.27v-4.7h-12.27v-6.76h14.17v-4.89H2207v28.56h19.8v-4.89Z" transform="translate(0.92)" fill="#303031"/>
            <path d="M2242.53,192.59l10.46-13.9h-6.14l-8.64,11.56h-2.51V178.69h-5.27v28.56h5.27v-12h2.51l9,12h6.57Z" transform="translate(0.92)" fill="#303031"/>
            <path d="M2253.77,178.69v4.89h9.16v23.67h5.28V183.58h9.16v-4.89Z" transform="translate(0.92)" fill="#303031"/>
            <path d="M2298.37,178.69v11.56h-13V178.69h-5.28v28.56h5.28V195.13h13v12.12h5.27V178.69Z" transform="translate(0.92)" fill="#303031"/>
            <path d="M2320.85,178.5c-7.52,0-13.74,6.48-13.74,14.47,0,6.95,5.18,14.46,13.65,14.46,7.52,0,13.66-6.48,13.66-14.37C2334.5,186,2329.32,178.5,2320.85,178.5Zm8.21,14.47c0,4.6-2.85,9.49-8.21,9.49s-8.3-4.89-8.3-9.49,2.94-9.49,8.3-9.49C2326,183.48,2329.06,188.36,2329.06,193Z" transform="translate(0.92)" fill="#303031"/>
            <path d="M2343.32,202.36V195h12.27v-4.7h-12.27v-6.76h14.17v-4.89h-19.44v28.56h19.79v-4.89Z" transform="translate(0.92)" fill="#303031"/>
            <path d="M2035.09,175.4l-48.83,53.08h73.29v79.67l48.84-53.08V175.4ZM2096,210.07h-9.77v10.61h-9.77V210.07h-9.76V199.36h9.76V188.74h9.77v10.62H2096Z" transform="translate(0.92)" fill="#b4191c"/>
          </g>
        </g>
        <g>
          <path d="M1667.23,1624.23v-66a1.84,1.84,0,0,1,1.84-1.84h36.49a1.85,1.85,0,0,1,1.84,1.84v66a1.84,1.84,0,0,1-1.84,1.84h-8.88a1.84,1.84,0,0,1-1.84-1.84v-57a1.84,1.84,0,0,0-1.84-1.84h-11.37a1.84,1.84,0,0,0-1.84,1.84v57a1.84,1.84,0,0,1-1.84,1.84h-8.88a1.84,1.84,0,0,1-1.84-1.84" transform="translate(0.92)" fill="#303030"/>
          <path d="M1717.89,1624.23v-66a1.84,1.84,0,0,1,1.84-1.83h18.64a19.75,19.75,0,0,1,10.18,2.32,13.84,13.84,0,0,1,5.77,6.75,27.8,27.8,0,0,1,1.85,10.71q0,6.79-2.32,11a13.86,13.86,0,0,1-6.5,6.06,23.66,23.66,0,0,1-9.84,1.89h-6.89v29.13a1.84,1.84,0,0,1-1.84,1.84h-9a1.85,1.85,0,0,1-1.84-1.84m12.73-38.07h4.82a12,12,0,0,0,5.37-1,5.31,5.31,0,0,0,2.67-3.18,19.17,19.17,0,0,0,.73-5.89,27.8,27.8,0,0,0-.56-6.16,5.27,5.27,0,0,0-2.4-3.48,11.7,11.7,0,0,0-5.81-1.12h-4.82Z" transform="translate(0.92)" fill="#303030"/>
          <path d="M1782.14,1627q-7.4,0-11.78-2.75a15.22,15.22,0,0,1-6.29-7.91,35.79,35.79,0,0,1-1.88-12.22v-26.06a34.64,34.64,0,0,1,1.88-12.08,14.85,14.85,0,0,1,6.29-7.7q4.38-2.67,11.78-2.67,7.58,0,11.91,2.67a15.07,15.07,0,0,1,6.28,7.7,33.66,33.66,0,0,1,1.94,12.08v26.15a34.08,34.08,0,0,1-1.94,12.08,15.68,15.68,0,0,1-6.28,7.92q-4.33,2.79-11.91,2.79m0-9.37a6.77,6.77,0,0,0,4.69-1.38,7,7,0,0,0,2-3.78,25.41,25.41,0,0,0,.51-5.25v-32.08a24.6,24.6,0,0,0-.51-5.25,6.71,6.71,0,0,0-2-3.66,7,7,0,0,0-4.69-1.33,6.85,6.85,0,0,0-4.56,1.33,6.52,6.52,0,0,0-2.06,3.66,24.56,24.56,0,0,0-.52,5.25v32.08a27.78,27.78,0,0,0,.47,5.25,6.55,6.55,0,0,0,2,3.78,6.77,6.77,0,0,0,4.64,1.38" transform="translate(0.92)" fill="#303030"/>
          <path d="M1811.65,1624.23v-66a1.84,1.84,0,0,1,1.84-1.84h27.4v8.95h-14.68a1.83,1.83,0,0,0-1.83,1.84v16.36a1.83,1.83,0,0,0,1.83,1.84h11.15v8.86h-11.15a1.84,1.84,0,0,0-1.83,1.84v19.38a1.84,1.84,0,0,0,1.83,1.84h14.85v8.77h-27.57a1.84,1.84,0,0,1-1.84-1.84" transform="translate(0.92)" fill="#303030"/>
          <path d="M1848.63,1624.23v-66a1.84,1.84,0,0,1,1.84-1.84h9a1.84,1.84,0,0,1,1.83,1.84v27.41h2.58l10.82-28.07a1.83,1.83,0,0,1,1.71-1.18H1885a1.84,1.84,0,0,1,1.7,2.53l-12,29.66a1.85,1.85,0,0,0,0,1.35l13,33.63a1.84,1.84,0,0,1-1.71,2.51h-8.94a1.83,1.83,0,0,1-1.72-1.19l-11.6-30.89h-2.58v30.24a1.83,1.83,0,0,1-1.83,1.84h-9a1.84,1.84,0,0,1-1.84-1.84" transform="translate(0.92)" fill="#303030"/>
          <path d="M1902,1624.23v-56.62a1.84,1.84,0,0,0-1.84-1.84h-7.42a1.83,1.83,0,0,1-1.84-1.83v-5.71a1.84,1.84,0,0,1,1.84-1.84h31.07a1.85,1.85,0,0,1,1.84,1.84v5.71a1.84,1.84,0,0,1-1.84,1.83h-7.25a1.84,1.84,0,0,0-1.84,1.84v56.62a1.83,1.83,0,0,1-1.83,1.84h-9a1.84,1.84,0,0,1-1.84-1.84" transform="translate(0.92)" fill="#303030"/>
          <path d="M1932.15,1624.23v-66a1.84,1.84,0,0,1,1.84-1.84h9a1.84,1.84,0,0,1,1.83,1.84v25.49a1.84,1.84,0,0,0,1.84,1.83h10.52a1.84,1.84,0,0,0,1.84-1.83v-25.49a1.84,1.84,0,0,1,1.83-1.84h9a1.84,1.84,0,0,1,1.84,1.84v66a1.84,1.84,0,0,1-1.84,1.84h-9a1.83,1.83,0,0,1-1.83-1.84v-27.8a1.84,1.84,0,0,0-1.84-1.84h-10.52a1.84,1.84,0,0,0-1.84,1.84v27.8a1.83,1.83,0,0,1-1.83,1.84h-9a1.84,1.84,0,0,1-1.84-1.84" transform="translate(0.92)" fill="#303030"/>
          <path d="M1979.3,1623.87l13.19-66a1.84,1.84,0,0,1,1.8-1.48h10.58a1.84,1.84,0,0,1,1.8,1.48l13.2,66a1.84,1.84,0,0,1-1.8,2.2h-8a1.84,1.84,0,0,1-1.81-1.53l-2.24-13a1.84,1.84,0,0,0-1.81-1.53h-9a1.84,1.84,0,0,0-1.81,1.52l-2.3,13a1.84,1.84,0,0,1-1.81,1.52h-8.17a1.84,1.84,0,0,1-1.8-2.2m15.64-22h9.46l-4.73-29.25Z" transform="translate(0.92)" fill="#303030"/>
          <path d="M2024.13,1623.48l12.12-27.08a1.82,1.82,0,0,0-.73-2.28,17.43,17.43,0,0,1-5.58-6.12,26.59,26.59,0,0,1-.17-22.87,15.12,15.12,0,0,1,7.52-6.58,32.6,32.6,0,0,1,12.78-2.16h14.24a1.84,1.84,0,0,1,1.84,1.84v66a1.84,1.84,0,0,1-1.84,1.84h-9a1.84,1.84,0,0,1-1.84-1.84v-26.38h-5.59l-10.64,27.05a1.86,1.86,0,0,1-1.71,1.17h-9.76a1.84,1.84,0,0,1-1.68-2.59m26.54-34.57h2.84v-23.65h-3.1q-5.59,0-8.43,2.71c-1.89,1.8-2.84,4.63-2.84,8.47s.85,7,2.54,9.2,4.69,3.27,9,3.27" transform="translate(0.92)" fill="#303030"/>
          <path d="M1664.14,1717.05l13.2-66a1.84,1.84,0,0,1,1.8-1.48h10.58a1.84,1.84,0,0,1,1.8,1.48l13.2,66a1.84,1.84,0,0,1-1.8,2.2h-8a1.83,1.83,0,0,1-1.81-1.53l-2.24-13a1.83,1.83,0,0,0-1.81-1.53h-9a1.84,1.84,0,0,0-1.81,1.52l-2.3,13a1.85,1.85,0,0,1-1.82,1.52H1666a1.84,1.84,0,0,1-1.81-2.2m15.65-22h9.46l-4.73-29.24Z" transform="translate(0.92)" fill="#303030"/>
          <path d="M1712.3,1717.41v-66a1.84,1.84,0,0,1,1.84-1.84h9a1.84,1.84,0,0,1,1.84,1.84v27.41h2.58l10.81-28.07a1.84,1.84,0,0,1,1.72-1.18h8.65a1.84,1.84,0,0,1,1.71,2.52l-12,29.66a1.85,1.85,0,0,0,0,1.35l13,33.64a1.84,1.84,0,0,1-1.72,2.5h-8.94a1.84,1.84,0,0,1-1.72-1.19l-11.59-30.89H1725v30.24a1.84,1.84,0,0,1-1.84,1.84h-9a1.84,1.84,0,0,1-1.84-1.84" transform="translate(0.92)" fill="#303030"/>
          <path d="M1765.63,1717.41v-56.62a1.85,1.85,0,0,0-1.84-1.84h-7.42a1.83,1.83,0,0,1-1.84-1.83v-5.7a1.84,1.84,0,0,1,1.84-1.84h31.07a1.83,1.83,0,0,1,1.83,1.84v5.7a1.82,1.82,0,0,1-1.83,1.83h-7.25a1.85,1.85,0,0,0-1.84,1.84v56.62a1.84,1.84,0,0,1-1.84,1.84h-9a1.83,1.83,0,0,1-1.83-1.84" transform="translate(0.92)" fill="#303030"/>
          <path d="M1795.82,1719.25v-67.83a1.84,1.84,0,0,1,1.84-1.84h6.72a1.84,1.84,0,0,1,1.84,1.84v33.27a1.84,1.84,0,0,0,3.53.73l15.09-34.74a1.83,1.83,0,0,1,1.69-1.1h7.31v67.83a1.84,1.84,0,0,1-1.84,1.84h-6.82a1.84,1.84,0,0,1-1.84-1.84v-33.87a1.83,1.83,0,0,0-3.52-.73l-15.18,35.33a1.85,1.85,0,0,1-1.69,1.11Z" transform="translate(0.92)" fill="#303030"/>
          <path d="M1844.5,1717.41v-66a1.83,1.83,0,0,1,1.84-1.83h15.27a37.77,37.77,0,0,1,8.39.86,16.91,16.91,0,0,1,6.45,2.88,13,13,0,0,1,4.17,5.47,22.17,22.17,0,0,1,1.47,8.68,20,20,0,0,1-1.17,7.23,11,11,0,0,1-3.39,4.77,12.41,12.41,0,0,1-5.59,2.37,14.43,14.43,0,0,1,6.84,2.88,13.16,13.16,0,0,1,4,5.71,24.19,24.19,0,0,1,1.34,8.52,28.49,28.49,0,0,1-1.25,8.82,16.16,16.16,0,0,1-3.69,6.36,15.53,15.53,0,0,1-6.11,3.83,25.74,25.74,0,0,1-8.56,1.29h-18.2a1.84,1.84,0,0,1-1.84-1.84m12.73-39.36h4.29a12.45,12.45,0,0,0,5.86-1.12,6.05,6.05,0,0,0,2.88-3.44,18,18,0,0,0,.82-5.85,11,11,0,0,0-1.25-5.72,6.32,6.32,0,0,0-3.74-2.75,23.09,23.09,0,0,0-6.37-.73h-2.49Zm0,32.25h4.82q5.75,0,7.82-2.79t2.07-8.64a19.72,19.72,0,0,0-1-6.84,7.32,7.32,0,0,0-3.28-3.91,12.27,12.27,0,0,0-6.06-1.3h-4.38Z" transform="translate(0.92)" fill="#303030"/>
          <path d="M1889.32,1717.05l13.2-66a1.83,1.83,0,0,1,1.8-1.48h10.57a1.82,1.82,0,0,1,1.8,1.48l13.21,66a1.84,1.84,0,0,1-1.8,2.2h-8a1.84,1.84,0,0,1-1.82-1.53l-2.23-13a1.83,1.83,0,0,0-1.81-1.53h-9a1.84,1.84,0,0,0-1.81,1.52l-2.29,13a1.85,1.85,0,0,1-1.82,1.52h-8.17a1.84,1.84,0,0,1-1.8-2.2m15.64-22h9.47l-4.74-29.24Z" transform="translate(0.92)" fill="#303030"/>
          <path d="M1976.88,1731.44l-1.05-10.53a1.83,1.83,0,0,0-1.82-1.66h-34.69a1.84,1.84,0,0,1-1.84-1.84v-66a1.84,1.84,0,0,1,1.84-1.84h9a1.84,1.84,0,0,1,1.84,1.84v57.22a1.84,1.84,0,0,0,1.83,1.84h12a1.84,1.84,0,0,0,1.84-1.84v-57.22a1.84,1.84,0,0,1,1.84-1.84h9a1.84,1.84,0,0,1,1.84,1.84v59.06h8.08v20.78a1.83,1.83,0,0,1-1.83,1.84h-6a1.84,1.84,0,0,1-1.83-1.66" transform="translate(0.92)" fill="#303030"/>
          <path d="M1993.82,1719.25v-67.83a1.84,1.84,0,0,1,1.84-1.84h6.72a1.84,1.84,0,0,1,1.84,1.84v33.27a1.84,1.84,0,0,0,3.53.73l15.09-34.74a1.83,1.83,0,0,1,1.69-1.1h7.31v67.83a1.84,1.84,0,0,1-1.84,1.84h-6.82a1.84,1.84,0,0,1-1.84-1.84v-33.87a1.83,1.83,0,0,0-3.52-.73l-15.18,35.33a1.86,1.86,0,0,1-1.69,1.11Z" transform="translate(0.92)" fill="#303030"/>
          <path d="M2039.36,1716.66l12.12-27.08a1.83,1.83,0,0,0-.73-2.28,17.4,17.4,0,0,1-5.58-6.11,23.05,23.05,0,0,1-2.67-11.57,22.79,22.79,0,0,1,2.5-11.31,15.17,15.17,0,0,1,7.52-6.58,32.79,32.79,0,0,1,12.78-2.15h14.24a1.84,1.84,0,0,1,1.84,1.84v66a1.84,1.84,0,0,1-1.84,1.84h-9a1.84,1.84,0,0,1-1.84-1.84V1691h-5.59l-10.64,27a1.85,1.85,0,0,1-1.71,1.16H2041a1.84,1.84,0,0,1-1.67-2.59m26.54-34.57h2.84v-23.65h-3.1q-5.59,0-8.43,2.71c-1.89,1.8-2.84,4.63-2.84,8.47s.85,7,2.54,9.21,4.69,3.26,9,3.26" transform="translate(0.92)" fill="#303030"/>
          <g clip-path="url(#bcb99678-e0f9-44ff-9f5f-bb2d794dfbd5)">
            <rect x="1379.49" y="1501.66" width="275.7" height="275.7" transform="translate(-713.97 1553.13) rotate(-45)" fill="url(#a57ab67f-9e3b-4f54-a10f-ca6a56d5cab0)"/>
          </g>
        </g>
        <g>
          <path d="M-.92,0V2481h0V1516a666.92,666.92,0,0,1,77.74,23.64c182.46,68.12,332.75,200,479.37,328.25s298.86,258.53,482.89,322.27c247.66,85.79,520.19,40.33,774.77-22s512-141.19,773.21-119.48C2883.19,2073.37,3159.65,2241,3333.5,2481h174.42V0Z" transform="translate(0.92)" fill="none"/>
          <path d="M2587.06,2048.76c-261.17-21.71-518.63,57.2-773.21,119.48s-527.11,107.74-774.77,22c-184-63.74-336.26-194-482.89-322.27S259.28,1607.79,76.82,1539.67A666.92,666.92,0,0,0-.92,1516v965H3333.5C3159.65,2241,2883.19,2073.37,2587.06,2048.76Z" transform="translate(0.92)" fill="#7372b4" opacity="0.29"/>
        </g>
        <g>
          <path d="M-.92,0V155.67A1130.93,1130.93,0,0,1,103.15,295.6q26.71,42.31,49.42,86.53,9,17.61,17.45,35.48,12.6,26.81,23.76,54.15Q201.22,490,208,508.44t12.92,37.09q6.14,18.65,11.61,37.48t10.29,37.81q4.38,17.23,8.18,34.6,4.6,20.9,8.45,41.93,6.78,37.36,11,75.14,1.32,11.71,2.4,23.46,3.45,37.56,4.39,75.36c0,.61,0,1.22.05,1.82a1131.15,1131.15,0,0,1-6.42,149.13q3-20.91,5.18-40.64,26.74,52.14,53.47,104.28a385.38,385.38,0,0,1,30.66,270.51l-46.05,181.75L200.09,1310.62c-3.6,9.21-7.28,18.39-11.13,27.54q-15,35.63-30,71.25c-4.9,3-11.41,6.82-19.25,10.9,65.06,170.75,259.33,361,36.85,703.07,27.75-94.33,38.85-216.41-23.78-309.16,2.38,54.7,42.81,215.22-151.39,538.22v0c-.78-1.3-1.53-2.58-2.3-3.87V2481H3507.92V0Z" transform="translate(0.92)" fill="none"/>
          <path d="M1.38,2352.48v0c194.2-323,153.77-483.52,151.39-538.22,62.63,92.75,51.53,214.83,23.78,309.16,222.48-342.11,28.21-532.32-36.85-703.07q-4.2,2.19-8.93,4.46c8.87,112.66,6,345.09-131.71,547.62v376.18c.77,1.29,1.52,2.57,2.3,3.87Z" transform="translate(0.92)" fill="url(#bbfa7448-680c-4156-8683-73be3bce1868)"/>
          <path d="M130.79,1424.77a311.18,311.18,0,0,1-35.72,14.44c-2.19.73-4.38,1.46-6.65,2.16,2.26,89.61-9.35,235.42-89.34,364.31v166.71C136.77,1769.86,139.66,1537.43,130.79,1424.77Z" transform="translate(0.92)" fill="url(#a0f0ee6c-9810-4a01-9a69-65fb5a351299)"/>
          <path d="M130.79,1424.77a311.18,311.18,0,0,1-35.72,14.44c-2.19.73-4.38,1.46-6.65,2.16,2.26,89.61-9.35,235.42-89.34,364.31v166.71C136.77,1769.86,139.66,1537.43,130.79,1424.77Z" transform="translate(0.92)" fill="url(#e4c95ce0-c15f-47c0-8eb1-6a089d71dffb)"/>
          <path d="M88.42,1441.37A303.58,303.58,0,0,1-.31,1455c-.21,0-.41,0-.61,0v350.71C79.07,1676.79,90.68,1531,88.42,1441.37Z" transform="translate(0.92)" fill="url(#f3d8ffca-2fb2-435c-9cd4-9e5775fc8b33)"/>
          <path d="M88.42,1441.37A303.58,303.58,0,0,1-.31,1455c-.21,0-.41,0-.61,0v350.71C79.07,1676.79,90.68,1531,88.42,1441.37Z" transform="translate(0.92)" fill="url(#a5a34e3f-b290-44d2-9d76-5d06753bb4ba)"/>
          <path d="M88.42,1441.37A303.58,303.58,0,0,1-.31,1455c-.21,0-.41,0-.61,0v350.71C79.07,1676.79,90.68,1531,88.42,1441.37Z" transform="translate(0.92)" fill="url(#bba73aec-10ff-484c-89ce-a10dcdabeec2)"/>
          <path d="M232.53,583q5.47,18.82,10.29,37.81Q238,601.83,232.53,583Z" transform="translate(0.92)" fill="#fafbfe"/>
          <path d="M152.57,382.13q9,17.61,17.45,35.48Q161.62,399.75,152.57,382.13Z" transform="translate(0.92)" fill="#fafbfe"/>
          <path d="M242.82,620.82q4.38,17.23,8.18,34.6Q247.18,638.07,242.82,620.82Z" transform="translate(0.92)" fill="#fafbfe"/>
          <path d="M193.78,471.76Q201.22,490,208,508.44,201.22,490,193.78,471.76Z" transform="translate(0.92)" fill="#fafbfe"/>
          <path d="M270.88,1022.28v0a1131.15,1131.15,0,0,0,6.42-149.13A1129.74,1129.74,0,0,1,270.88,1022.28Z" transform="translate(0.92)" fill="#fafbfe"/>
          <path d="M272.87,796q3.45,37.56,4.39,75.36Q276.33,833.54,272.87,796Z" transform="translate(0.92)" fill="#fafbfe"/>
          <path d="M259.45,697.35q6.78,37.36,11,75.14Q266.21,734.75,259.45,697.35Z" transform="translate(0.92)" fill="#fafbfe"/>
          <path d="M189.06,1337.91a2.6,2.6,0,0,1-.1.25c3.85-9.15,7.53-18.33,11.13-27.54h0C196.52,1319.74,192.88,1328.85,189.06,1337.91Z" transform="translate(0.92)" fill="#fafbfe"/>
          <path d="M88.42,1441.37c2.27-.7,4.46-1.43,6.65-2.16a304.14,304.14,0,0,1-80.81,15.37q-7.15.38-14.57.4H-.92c.2,0,.4,0,.61,0A303.58,303.58,0,0,0,88.42,1441.37Z" transform="translate(0.92)" fill="#874e9a"/>
          <path d="M189,1338.16l-30,71.25q15-35.62,30-71.25a2.6,2.6,0,0,0,.1-.25Z" transform="translate(0.92)" fill="#874e9a"/>
          <path d="M277.26,871.31c0,.61,0,1.22.05,1.82C277.3,872.53,277.28,871.92,277.26,871.31Z" transform="translate(0.92)" fill="#dcdee0" style="mix-blend-mode: multiply"/>
          <path d="M220.92,545.53q6.14,18.65,11.61,37.48Q227.06,564.17,220.92,545.53Z" transform="translate(0.92)" fill="#dcdee0" style="mix-blend-mode: multiply"/>
          <path d="M139.72,1420.31c7.84-4.08,14.35-7.87,19.25-10.9-4.9,3-11.41,6.82-19.25,10.9Z" transform="translate(0.92)" fill="#dcdee0" style="mix-blend-mode: multiply"/>
          <path d="M270.47,772.49q1.32,11.71,2.4,23.46Q271.79,784.21,270.47,772.49Z" transform="translate(0.92)" fill="#dcdee0" style="mix-blend-mode: multiply"/>
          <path d="M251,655.42q4.6,20.9,8.45,41.93Q255.64,676.31,251,655.42Z" transform="translate(0.92)" fill="#dcdee0" style="mix-blend-mode: multiply"/>
          <path d="M130.79,1424.77h0q4.72-2.26,8.93-4.46h0Q135.52,1422.5,130.79,1424.77Z" transform="translate(0.92)" fill="url(#f28dd7f9-45c9-4a82-a6e9-11c159a34743)"/>
          <path d="M130.79,1424.77h0q4.72-2.26,8.93-4.46h0Q135.52,1422.5,130.79,1424.77Z" transform="translate(0.92)" fill="#dcdee0" style="mix-blend-mode: multiply"/>
          <path d="M127.72,1426.25a313.35,313.35,0,0,1-32.65,13,311.18,311.18,0,0,0,35.72-14.44h0C129.75,1425.27,128.79,1425.75,127.72,1426.25Z" transform="translate(0.92)" fill="url(#bd972397-ee01-484e-a37d-86caf0f1d8b1)"/>
          <path d="M127.72,1426.25a313.35,313.35,0,0,1-32.65,13,311.18,311.18,0,0,0,35.72-14.44h0C129.75,1425.27,128.79,1425.75,127.72,1426.25Z" transform="translate(0.92)" fill="url(#a4642d02-215f-4751-90eb-40e78e1bac9f)"/>
          <path d="M127.72,1426.25a313.35,313.35,0,0,1-32.65,13,311.18,311.18,0,0,0,35.72-14.44h0C129.75,1425.27,128.79,1425.75,127.72,1426.25Z" transform="translate(0.92)" fill="#dcdee0" style="mix-blend-mode: multiply"/>
          <path d="M137.1,353.25h0A1132,1132,0,0,1,268.21,1040c.93-6,1.84-11.9,2.67-17.73a1129.74,1129.74,0,0,0,6.43-149.15c0-.6,0-1.21-.05-1.82q-.93-37.77-4.39-75.36-1.08-11.75-2.4-23.46-4.26-37.74-11-75.14-3.81-21-8.45-41.93-3.83-17.35-8.18-34.6-4.81-19-10.29-37.81t-11.61-37.48q-6.13-18.64-12.92-37.09t-14.22-36.68Q182.62,444.43,170,417.61q-8.4-17.87-17.45-35.48Q129.88,338,103.15,295.6q17.77,28.22,33.74,57.3Z" transform="translate(0.92)" fill="#fafbfe"/>
          <path d="M137.1,353.25h0A1132,1132,0,0,1,268.21,1040c.93-6,1.84-11.9,2.67-17.73a1129.74,1129.74,0,0,0,6.43-149.15c0-.6,0-1.21-.05-1.82q-.93-37.77-4.39-75.36-1.08-11.75-2.4-23.46-4.26-37.74-11-75.14-3.81-21-8.45-41.93-3.83-17.35-8.18-34.6-4.81-19-10.29-37.81t-11.61-37.48q-6.13-18.64-12.92-37.09t-14.22-36.68Q182.62,444.43,170,417.61q-8.4-17.87-17.45-35.48Q129.88,338,103.15,295.6q17.77,28.22,33.74,57.3Z" transform="translate(0.92)" fill="#dcdee0" style="mix-blend-mode: multiply"/>
          <path d="M199.64,1309.73c-1.54,4-3.09,7.9-4.68,11.85l.83-.48c-2.25,5.6-4.38,11.23-6.73,16.81,3.82-9.06,7.46-18.17,11-27.29Z" transform="translate(0.92)" fill="#fafbfe"/>
          <path d="M199.64,1309.73c-1.54,4-3.09,7.9-4.68,11.85l.83-.48c-2.25,5.6-4.38,11.23-6.73,16.81,3.82-9.06,7.46-18.17,11-27.29Z" transform="translate(0.92)" fill="#dcdee0" style="mix-blend-mode: multiply"/>
          <path d="M177.45,1331.2a1640,1640,0,0,0,24.06-566.13A1636.56,1636.56,0,0,0,97.38,368.93a332.55,332.55,0,0,1-98.3,16.4V520.24a68.75,68.75,0,0,1,7.21-.42,68,68,0,1,1,.52,136,68.13,68.13,0,0,1-7.73-.45v50c.64,0,1.27-.05,1.92-.05A122.06,122.06,0,1,1,1.93,949.4c-.95,0-1.9,0-2.85-.06v55.53a68,68,0,0,1,63.66,67.51,68,68,0,0,1-63.66,68V1375h.28A391.18,391.18,0,0,0,177.45,1331.2Z" transform="translate(0.92)" fill="#fafbfe"/>
          <path d="M177.45,1331.2a1640,1640,0,0,0,24.06-566.13A1636.56,1636.56,0,0,0,97.38,368.93a332.55,332.55,0,0,1-98.3,16.4V520.24a68.75,68.75,0,0,1,7.21-.42,68,68,0,1,1,.52,136,68.13,68.13,0,0,1-7.73-.45v50c.64,0,1.27-.05,1.92-.05A122.06,122.06,0,1,1,1.93,949.4c-.95,0-1.9,0-2.85-.06v55.53a68,68,0,0,1,63.66,67.51,68,68,0,0,1-63.66,68V1375h.28A391.18,391.18,0,0,0,177.45,1331.2Z" transform="translate(0.92)" fill="#dcdee0" style="mix-blend-mode: multiply"/>
          <path d="M14.26,1454.58a304.14,304.14,0,0,0,80.81-15.37,313.35,313.35,0,0,0,32.65-13c1.07-.5,2-1,3.07-1.48q4.72-2.26,8.93-4.46c7.84-4.08,14.35-7.87,19.25-10.9l30-71.25.1-.25c2.35-5.58,4.48-11.21,6.73-16.81l-.83.48c-2.13,5.27-4.28,10.54-6.49,15.8q-15,35.61-30,71.25c6.24-23,12.71-48.91,19-77.43A391.18,391.18,0,0,1-.64,1375.05H-.92V1455h.61Q7.1,1455,14.26,1454.58Z" transform="translate(0.92)" fill="#874e9a"/>
          <path d="M14.26,1454.58a304.14,304.14,0,0,0,80.81-15.37,313.35,313.35,0,0,0,32.65-13c1.07-.5,2-1,3.07-1.48q4.72-2.26,8.93-4.46c7.84-4.08,14.35-7.87,19.25-10.9l30-71.25.1-.25c2.35-5.58,4.48-11.21,6.73-16.81l-.83.48c-2.13,5.27-4.28,10.54-6.49,15.8q-15,35.61-30,71.25c6.24-23,12.71-48.91,19-77.43A391.18,391.18,0,0,1-.64,1375.05H-.92V1455h.61Q7.1,1455,14.26,1454.58Z" transform="translate(0.92)" fill="#dcdee0" style="mix-blend-mode: multiply"/>
          <path d="M-.92,165.86V385.33a332.55,332.55,0,0,0,98.3-16.4A1637.25,1637.25,0,0,0-.92,165.86Z" transform="translate(0.92)" fill="#874e9a"/>
          <path d="M-.92,165.86V385.33a332.55,332.55,0,0,0,98.3-16.4A1637.25,1637.25,0,0,0-.92,165.86Z" transform="translate(0.92)" fill="#dcdee0" style="mix-blend-mode: multiply"/>
          <path d="M136.89,352.9l.2.36h0Z" transform="translate(0.92)" fill="#874e9a"/>
          <path d="M136.89,352.9l.2.36h0Z" transform="translate(0.92)" fill="#dcdee0" style="mix-blend-mode: multiply"/>
          <path d="M17.05,177q9,10.89,17.77,21.94c.11.13.21.27.32.41q9,11.46,17.71,23.13l1.58,2.11q25.8,34.71,48.72,71A1130.93,1130.93,0,0,0-.92,155.67v.22q7.1,8.15,14,16.4Z" transform="translate(0.92)" fill="#cbcccf" style="mix-blend-mode: multiply"/>
          <path d="M54.43,224.6l-1.58-2.11Z" transform="translate(0.92)" fill="#874e9a"/>
          <path d="M54.43,224.6l-1.58-2.11Z" transform="translate(0.92)" fill="#cbcccf" style="mix-blend-mode: multiply"/>
          <path d="M17.05,177l-4-4.72Z" transform="translate(0.92)" fill="#874e9a"/>
          <path d="M17.05,177l-4-4.72Z" transform="translate(0.92)" fill="#cbcccf" style="mix-blend-mode: multiply"/>
          <path d="M35.14,199.36c-.11-.14-.21-.28-.32-.41C34.93,199.08,35,199.22,35.14,199.36Z" transform="translate(0.92)" fill="#874e9a"/>
          <path d="M35.14,199.36c-.11-.14-.21-.28-.32-.41C34.93,199.08,35,199.22,35.14,199.36Z" transform="translate(0.92)" fill="#cbcccf" style="mix-blend-mode: multiply"/>
          <path d="M-.92,155.89v0c4.72,5.43,9.42,10.87,14,16.36Q6.19,164-.92,155.89Z" transform="translate(0.92)" fill="#fafbfe"/>
          <path d="M-.92,155.89v0c4.72,5.43,9.42,10.87,14,16.36Q6.19,164-.92,155.89Z" transform="translate(0.92)" fill="#dcdee0" style="mix-blend-mode: multiply"/>
          <path d="M-.92,155.89v0c4.72,5.43,9.42,10.87,14,16.36Q6.19,164-.92,155.89Z" transform="translate(0.92)" fill="#cbcccf" style="mix-blend-mode: multiply"/>
          <path d="M136.89,352.9q-16-29.06-33.74-57.3-22.87-36.27-48.72-71A1132.83,1132.83,0,0,1,136.89,352.9Z" transform="translate(0.92)" fill="#fafbfe"/>
          <path d="M136.89,352.9q-16-29.06-33.74-57.3-22.87-36.27-48.72-71A1132.83,1132.83,0,0,1,136.89,352.9Z" transform="translate(0.92)" fill="#dcdee0" style="mix-blend-mode: multiply"/>
          <path d="M136.89,352.9q-16-29.06-33.74-57.3-22.87-36.27-48.72-71A1132.83,1132.83,0,0,1,136.89,352.9Z" transform="translate(0.92)" fill="#cbcccf" style="mix-blend-mode: multiply"/>
          <path d="M52.85,222.49q-8.7-11.66-17.71-23.13Q44.17,210.82,52.85,222.49Z" transform="translate(0.92)" fill="#fafbfe"/>
          <path d="M52.85,222.49q-8.7-11.66-17.71-23.13Q44.17,210.82,52.85,222.49Z" transform="translate(0.92)" fill="#dcdee0" style="mix-blend-mode: multiply"/>
          <path d="M52.85,222.49q-8.7-11.66-17.71-23.13Q44.17,210.82,52.85,222.49Z" transform="translate(0.92)" fill="#cbcccf" style="mix-blend-mode: multiply"/>
          <path d="M34.82,199Q26.11,187.88,17.05,177C23.06,184.27,29,191.57,34.82,199Z" transform="translate(0.92)" fill="#fafbfe"/>
          <path d="M34.82,199Q26.11,187.88,17.05,177C23.06,184.27,29,191.57,34.82,199Z" transform="translate(0.92)" fill="#dcdee0" style="mix-blend-mode: multiply"/>
          <path d="M34.82,199Q26.11,187.88,17.05,177C23.06,184.27,29,191.57,34.82,199Z" transform="translate(0.92)" fill="#cbcccf" style="mix-blend-mode: multiply"/>
          <path d="M198.43,1307.31a1376.76,1376.76,0,0,0,45.85-148.44c10.37-41.81,18.11-81.58,23.93-118.86A1132,1132,0,0,0,137.09,353.26a347.82,347.82,0,0,1-39.71,15.67A1636.56,1636.56,0,0,1,201.51,765.07a1640,1640,0,0,1-24.06,566.13c6.6-3.42,12.48-6.68,17.51-9.62,1.59-3.95,3.14-7.9,4.68-11.85Z" transform="translate(0.92)" fill="#fafbfe"/>
          <path d="M198.43,1307.31a1376.76,1376.76,0,0,0,45.85-148.44c10.37-41.81,18.11-81.58,23.93-118.86A1132,1132,0,0,0,137.09,353.26a347.82,347.82,0,0,1-39.71,15.67A1636.56,1636.56,0,0,1,201.51,765.07a1640,1640,0,0,1-24.06,566.13c6.6-3.42,12.48-6.68,17.51-9.62,1.59-3.95,3.14-7.9,4.68-11.85Z" transform="translate(0.92)" fill="#dcdee0" style="mix-blend-mode: multiply"/>
          <path d="M198.43,1307.31a1376.76,1376.76,0,0,0,45.85-148.44c10.37-41.81,18.11-81.58,23.93-118.86A1132,1132,0,0,0,137.09,353.26a347.82,347.82,0,0,1-39.71,15.67A1636.56,1636.56,0,0,1,201.51,765.07a1640,1640,0,0,1-24.06,566.13c6.6-3.42,12.48-6.68,17.51-9.62,1.59-3.95,3.14-7.9,4.68-11.85Z" transform="translate(0.92)" fill="#cbcccf" style="mix-blend-mode: multiply"/>
          <path d="M158.47,1408.63q15-35.62,30-71.25c2.21-5.26,4.36-10.53,6.49-15.8-5,2.94-10.91,6.2-17.51,9.62C171.18,1359.72,164.71,1385.65,158.47,1408.63Z" transform="translate(0.92)" fill="#874e9a"/>
          <path d="M158.47,1408.63q15-35.62,30-71.25c2.21-5.26,4.36-10.53,6.49-15.8-5,2.94-10.91,6.2-17.51,9.62C171.18,1359.72,164.71,1385.65,158.47,1408.63Z" transform="translate(0.92)" fill="#dcdee0" style="mix-blend-mode: multiply"/>
          <path d="M158.47,1408.63q15-35.62,30-71.25c2.21-5.26,4.36-10.53,6.49-15.8-5,2.94-10.91,6.2-17.51,9.62C171.18,1359.72,164.71,1385.65,158.47,1408.63Z" transform="translate(0.92)" fill="#cbcccf" style="mix-blend-mode: multiply"/>
          <path d="M137.09,353.26l-.2-.36A1132.83,1132.83,0,0,0,54.43,224.6l-1.58-2.11q-8.7-11.66-17.71-23.13c-.11-.14-.21-.28-.32-.41C29,191.57,23.06,184.27,17.05,177l-4-4.72c-4.6-5.49-9.3-10.93-14-16.36v9.93a1637.25,1637.25,0,0,1,98.3,203.07A347.82,347.82,0,0,0,137.09,353.26Z" transform="translate(0.92)" fill="#874e9a"/>
          <path d="M137.09,353.26l-.2-.36A1132.83,1132.83,0,0,0,54.43,224.6l-1.58-2.11q-8.7-11.66-17.71-23.13c-.11-.14-.21-.28-.32-.41C29,191.57,23.06,184.27,17.05,177l-4-4.72c-4.6-5.49-9.3-10.93-14-16.36v9.93a1637.25,1637.25,0,0,1,98.3,203.07A347.82,347.82,0,0,0,137.09,353.26Z" transform="translate(0.92)" fill="#dcdee0" style="mix-blend-mode: multiply"/>
          <path d="M137.09,353.26l-.2-.36A1132.83,1132.83,0,0,0,54.43,224.6l-1.58-2.11q-8.7-11.66-17.71-23.13c-.11-.14-.21-.28-.32-.41C29,191.57,23.06,184.27,17.05,177l-4-4.72c-4.6-5.49-9.3-10.93-14-16.36v9.93a1637.25,1637.25,0,0,1,98.3,203.07A347.82,347.82,0,0,0,137.09,353.26Z" transform="translate(0.92)" fill="#cbcccf" style="mix-blend-mode: multiply"/>
          <path d="M97.58,827A96.11,96.11,0,0,0,1.1,731.23c-.68,0-1.35,0-2,.06v27.24c.5,0,1-.09,1.5-.09a69.18,69.18,0,1,1,.93,138.35c-.82,0-1.62-.08-2.43-.1v26.7c.92,0,1.83.06,2.75.06A96.12,96.12,0,0,0,97.58,827Z" transform="translate(0.92)" fill="#261f4a"/>
          <path d="M123.53,826.87A122.2,122.2,0,0,0,1,705.28c-.65,0-1.28,0-1.92.05v26c.67,0,1.34-.06,2-.06a96.11,96.11,0,1,1,.73,192.22c-.92,0-1.83,0-2.75-.06v26c1,0,1.9.06,2.85.06A122.2,122.2,0,0,0,123.53,826.87Z" transform="translate(0.92)" fill="#864e9a"/>
          <path d="M70.22,827.15A69.17,69.17,0,0,0,.58,758.44c-.51,0-1,.07-1.5.09V896.69c.81,0,1.61.11,2.43.1A69.16,69.16,0,0,0,70.22,827.15Z" transform="translate(0.92)" fill="#261f4a"/>
          <path d="M70.22,827.15A69.17,69.17,0,0,0,.58,758.44c-.51,0-1,.07-1.5.09V896.69c.81,0,1.61.11,2.43.1A69.16,69.16,0,0,0,70.22,827.15Z" transform="translate(0.92)" fill="url(#a5d9ccfe-1bce-4041-a8de-7d0830a7a256)"/>
          <path d="M60.08,587.6A53.54,53.54,0,0,0,6.35,534.27a54.42,54.42,0,0,0-7.27.58v15.29a39.14,39.14,0,0,1,7-.71,38.53,38.53,0,1,1-7,76.37v15a52.59,52.59,0,0,0,7.68.58A53.52,53.52,0,0,0,60.08,587.6Z" transform="translate(0.92)" fill="#261f4a"/>
          <path d="M74.54,587.54A68.07,68.07,0,0,0,6.29,519.82a68.75,68.75,0,0,0-7.21.42v14.61a54.42,54.42,0,0,1,7.27-.58,53.53,53.53,0,0,1,.41,107.06,52.59,52.59,0,0,1-7.68-.58v14.59a68.13,68.13,0,0,0,7.73.45A68.07,68.07,0,0,0,74.54,587.54Z" transform="translate(0.92)" fill="#864e9a"/>
          <path d="M44.85,587.7A38.53,38.53,0,0,0,6.06,549.43a39.14,39.14,0,0,0-7,.71V625.8a38.51,38.51,0,0,0,45.77-38.1Z" transform="translate(0.92)" fill="#261f4a"/>
          <path d="M44.85,587.7A38.53,38.53,0,0,0,6.06,549.43a39.14,39.14,0,0,0-7,.71V625.8a38.51,38.51,0,0,0,45.77-38.1Z" transform="translate(0.92)" fill="url(#ec5bd084-a95f-4130-89a2-445622344fab)"/>
          <path d="M48.29,1072.43A53.51,53.51,0,0,0-.92,1019.32v15.24a38.52,38.52,0,0,1,34,38,38.51,38.51,0,0,1-34,38.5v14.9A53.49,53.49,0,0,0,48.29,1072.43Z" transform="translate(0.92)" fill="#261f4a"/>
          <path d="M62.74,1072.38A68,68,0,0,0-.92,1004.87v14.45a53.51,53.51,0,0,1,49.21,53.11A53.49,53.49,0,0,1-.92,1125.94v14.46A68,68,0,0,0,62.74,1072.38Z" transform="translate(0.92)" fill="#864e9a"/>
          <path d="M33.05,1072.54a38.52,38.52,0,0,0-34-38V1111A38.51,38.51,0,0,0,33.05,1072.54Z" transform="translate(0.92)" fill="#261f4a"/>
          <path d="M33.05,1072.54a38.52,38.52,0,0,0-34-38V1111A38.51,38.51,0,0,0,33.05,1072.54Z" transform="translate(0.92)" fill="url(#fb8f1571-d7a9-4dd3-aa16-ced1c76e7ef2)"/>
          <path d="M268.21,1040c-5.82,37.28-13.56,77-23.93,118.86a1376.76,1376.76,0,0,1-45.85,148.44l1.21,2.42.45.89h0l114.06,227.54,46.05-181.75a385.38,385.38,0,0,0-30.66-270.51q-26.73-52.14-53.47-104.28-2.22,19.71-5.18,40.64v0C270.05,1028.11,269.14,1034.05,268.21,1040Zm-19.66,116.45a1226.46,1226.46,0,0,0,28.33-157.91q23.82,46.44,47.63,92.9a343.36,343.36,0,0,1,27.31,241l-41,161.92L207.7,1288.71A1223.12,1223.12,0,0,0,248.55,1156.46Z" transform="translate(0.92)" fill="#874e9a"/>
          <path d="M207.7,1288.71l103.1,205.67,41-161.92a343.36,343.36,0,0,0-27.31-241q-23.81-46.46-47.63-92.9a1226.46,1226.46,0,0,1-28.33,157.91A1223.12,1223.12,0,0,1,207.7,1288.71Z" transform="translate(0.92)" fill="#dcdee0"/>
        </g>
      </g>
    </g>
  </g>
</svg>
