<svg width="25" height="24" viewBox="0 0 25 24" fill="none" xmlns="http://www.w3.org/2000/svg">
<path fill-rule="evenodd" clip-rule="evenodd" d="M12.5 21C17.4706 21 21.5 16.9706 21.5 12C21.5 7.02944 17.4706 3 12.5 3C7.52944 3 3.5 7.02944 3.5 12C3.5 16.9706 7.52944 21 12.5 21ZM16.0303 8.46967C16.3232 8.76256 16.3232 9.23744 16.0303 9.53033L13.5607 12L16.0303 14.4697C16.3232 14.7626 16.3232 15.2374 16.0303 15.5303C15.7374 15.8232 15.2626 15.8232 14.9697 15.5303L12.5 13.0607L10.0303 15.5303C9.73744 15.8232 9.26256 15.8232 8.96967 15.5303C8.67678 15.2374 8.67678 14.7626 8.96967 14.4697L11.4393 12L8.96967 9.53033C8.67678 9.23744 8.67678 8.76256 8.96967 8.46967C9.26256 8.17678 9.73744 8.17678 10.0303 8.46967L12.5 10.9393L14.9697 8.46967C15.2626 8.17678 15.7374 8.17678 16.0303 8.46967Z" fill="#F70330"/>
</svg>
