<svg width="560" height="350" viewBox="0 0 560 350" fill="none" xmlns="http://www.w3.org/2000/svg">
<mask id="mask0_7416_64117" style="mask-type:alpha" maskUnits="userSpaceOnUse" x="25" y="32" width="496" height="288">
<path d="M51.5195 297.308C82.7006 316.357 192.702 324.042 320.988 317.956C449.275 311.87 533.447 292.583 519.491 249.927C505.536 207.27 460.326 203.961 468.345 154.649C476.364 105.336 482.538 56.9068 435.995 38.6675C389.451 20.4283 329.117 43.2457 291.908 63.5075C254.699 83.7692 188.702 123.594 168.097 114.805C147.492 106.017 126.084 81.0848 88.4911 113.757C1.37767 189.527 19.3885 277.708 51.5195 297.308Z" fill="url(#paint0_linear_7416_64117)"/>
</mask>
<g mask="url(#mask0_7416_64117)">
<mask id="mask1_7416_64117" style="mask-type:alpha" maskUnits="userSpaceOnUse" x="26" y="33" width="495" height="319">
<path d="M32.875 33C29.078 33 26 34.1518 26 35.5726L26 349.427C26 350.848 29.078 352 32.875 352L514.125 352C517.922 352 521 350.848 521 349.427V35.5726C521 34.1518 517.922 33 514.125 33L32.875 33Z" fill="#C4C4C4"/>
</mask>
<g mask="url(#mask1_7416_64117)">
<path d="M39.1126 33C31.8707 33 26 34.2446 26 35.78L26 349.22C26 350.755 31.8707 352 39.1126 352L507.887 352C515.129 352 521 350.755 521 349.22V35.78C521 34.2446 515.129 33 507.887 33L39.1126 33Z" fill="#2516EF"/>
<path d="M172.953 348.142C254.113 348.142 319.906 311.573 319.906 266.463C319.906 221.353 254.113 184.784 172.953 184.784C91.7932 184.784 26 221.353 26 266.463C26 311.573 91.7932 348.142 172.953 348.142Z" fill="#FF9E9F"/>
<path d="M311.312 141.048C441.358 141.048 546.781 116.861 546.781 87.0242C546.781 57.1875 441.358 33 311.312 33C181.267 33 75.8438 57.1875 75.8437 87.0242C75.8437 116.861 181.267 141.048 311.312 141.048Z" fill="#776FEF"/>
<path d="M180.67 215.582C235.736 236.222 335.634 243.137 403.8 231.027C471.965 218.916 482.584 192.366 427.518 171.725C372.452 151.085 272.554 144.17 204.389 156.28C136.223 168.391 125.604 194.941 180.67 215.582Z" fill="#D7699B"/>
<path d="M387.733 346.161C472.687 336.928 507.049 308.299 464.484 282.214C421.918 256.13 318.543 242.469 233.59 251.701C148.636 260.933 114.274 289.563 156.839 315.647C199.405 341.731 302.78 355.393 387.733 346.161Z" fill="#FFC141"/>
<path d="M272.128 168.795C358.455 176.37 455.002 162.346 487.772 137.474C520.541 112.601 477.124 86.2978 390.797 78.7236C304.469 71.1494 207.922 85.1725 175.153 110.045C142.384 134.918 185.801 161.221 272.128 168.795Z" fill="#9248C0"/>
<path d="M165.213 141.71C203.374 145.583 249.139 138.99 267.432 126.985C285.725 114.98 269.619 102.108 231.458 98.236C193.297 94.3636 147.532 100.956 129.239 112.962C110.946 124.967 127.052 137.838 165.213 141.71Z" fill="white"/>
</g>
<g filter="url(#filter0_b_7416_64117)">
<path d="M25 316C25 318.209 26.7945 320 29.0081 320H517.992C520.206 320 522 318.209 522 316V36C522 33.7909 520.206 32 517.992 32H29.0081C26.7945 32 25 33.7909 25 36V316Z" fill="white" fill-opacity="0.1" style="mix-blend-mode:multiply"/>
</g>
</g>
<path d="M525.477 324.659C498.398 341.702 429.478 345.037 292.077 345.037C154.675 345.037 50.5824 341.999 43.2738 322.936C40.8802 316.656 55.1868 303.984 97.5584 310.357C160.814 319.898 192.059 318.749 253.871 318.749C338.322 318.749 432.822 305.448 482.685 293.314C513.819 285.755 553.98 306.708 525.477 324.659Z" fill="url(#paint1_linear_7416_64117)"/>
<path opacity="0.4" d="M192.135 330.029C192.135 334.087 163.884 336.38 129.044 335.142C94.2032 333.905 65.9709 329.574 65.9893 325.443C66.0076 321.312 94.2766 319.146 129.154 320.383C164.031 321.621 192.135 325.952 192.135 330.029Z" fill="url(#paint2_linear_7416_64117)"/>
<path opacity="0.4" d="M514.427 323.703C514.427 328.918 471.14 336.899 393.011 338.469C325.924 339.796 271.614 339.572 271.614 334.376C271.614 329.18 325.961 322.563 393.011 319.61C460.062 316.657 514.408 318.488 514.427 323.703Z" fill="url(#paint3_linear_7416_64117)"/>
<path d="M274.91 224.351C274.812 222.961 273.68 221.881 272.312 221.875C271.232 221.881 270.269 222.573 269.901 223.608C269.425 223.065 268.748 222.747 268.032 222.732C266.587 222.732 265.416 223.926 265.416 225.399C265.42 226.374 265.942 227.271 266.78 227.741C266.12 228.507 265.955 229.593 266.355 230.527C266.755 231.461 267.649 232.075 268.649 232.103C269.122 232.096 269.586 231.965 269.995 231.722C269.985 231.849 269.985 231.976 269.995 232.103C269.995 233.155 270.832 234.007 271.864 234.007C272.896 234.007 273.733 233.155 273.733 232.103C273.751 231.951 273.751 231.798 273.733 231.646C274.06 231.745 274.4 231.797 274.742 231.798C276.477 231.477 277.756 229.963 277.81 228.167C277.864 226.371 276.679 224.78 274.966 224.351H274.91Z" fill="white" fill-opacity="0.5"/>
<path d="M204.194 231.997C204.1 230.655 203.019 229.611 201.706 229.596C200.657 229.594 199.72 230.266 199.363 231.276C198.898 230.756 198.248 230.45 197.56 230.427C196.409 230.434 195.408 231.239 195.128 232.383C194.848 233.527 195.359 234.721 196.37 235.284C195.967 235.745 195.748 236.345 195.758 236.965C195.758 238.372 196.871 239.513 198.245 239.513C198.703 239.516 199.152 239.388 199.543 239.144C199.525 239.267 199.525 239.391 199.543 239.513C199.543 240.533 200.35 241.36 201.346 241.36C202.341 241.36 203.148 240.533 203.148 239.513C203.167 239.373 203.167 239.23 203.148 239.089C203.467 239.169 203.794 239.213 204.122 239.218C205.796 238.907 207.029 237.439 207.081 235.697C207.133 233.955 205.99 232.413 204.338 231.997H204.194Z" fill="white" fill-opacity="0.5"/>
<path d="M286.555 231.016C285.448 231.082 284.345 230.844 283.379 230.331C282.833 230.337 282.359 230.688 282.225 231.187C282.09 231.686 282.328 232.208 282.805 232.459C282.617 232.657 282.515 232.915 282.518 233.181C282.513 233.475 282.634 233.76 282.853 233.97C283.073 234.18 283.372 234.299 283.685 234.299C283.908 234.301 284.126 234.244 284.317 234.136C284.307 234.19 284.307 234.245 284.317 234.299C284.317 234.747 284.702 235.11 285.177 235.11C285.653 235.11 286.038 234.747 286.038 234.299C286.047 234.239 286.047 234.178 286.038 234.118C286.197 234.137 286.358 234.137 286.517 234.118C287.372 234.032 288.021 233.351 288.021 232.54C288.021 231.729 287.372 231.049 286.517 230.962L286.555 231.016Z" fill="white" fill-opacity="0.5"/>
<path d="M220.051 225.519C220.001 224.702 219.323 224.069 218.51 224.081C217.871 224.076 217.298 224.478 217.082 225.084C216.647 224.609 215.967 224.451 215.37 224.685C214.772 224.919 214.377 225.497 214.375 226.143C214.372 226.713 214.683 227.238 215.183 227.505C214.944 227.791 214.811 228.152 214.807 228.526C214.807 229.383 215.497 230.077 216.349 230.077C216.627 230.071 216.899 229.993 217.138 229.85C217.129 229.926 217.129 230.002 217.138 230.077C217.211 230.643 217.69 231.066 218.256 231.066C218.823 231.066 219.302 230.643 219.375 230.077C219.385 229.99 219.385 229.901 219.375 229.813C219.574 229.842 219.777 229.842 219.976 229.813C221.104 229.747 221.996 228.825 222.03 227.688C222.064 226.552 221.23 225.577 220.108 225.443L220.051 225.519Z" fill="white" fill-opacity="0.5"/>
<path d="M193.485 244.311C193.453 243.753 193.043 243.295 192.503 243.212C191.963 243.129 191.44 243.444 191.249 243.968C191.034 243.714 190.721 243.568 190.392 243.568C189.744 243.568 189.219 244.105 189.219 244.768C189.555 244.936 189.792 245.258 189.858 245.634C189.925 246.011 189.812 246.397 189.554 246.674C189.554 246.988 189.676 247.288 189.892 247.51C190.109 247.731 190.403 247.856 190.709 247.856C190.919 247.852 191.124 247.793 191.305 247.684C191.305 247.684 191.305 247.78 191.305 247.856C191.305 248.329 191.68 248.713 192.143 248.713C192.606 248.713 192.982 248.329 192.982 247.856C192.992 247.786 192.992 247.716 192.982 247.646C193.471 247.782 193.995 247.678 194.399 247.365C194.804 247.051 195.044 246.564 195.049 246.045C195.075 245.601 194.922 245.165 194.627 244.838C194.332 244.511 193.92 244.321 193.485 244.311Z" fill="white" fill-opacity="0.5"/>
<path d="M311.525 316.897C329.454 316.035 348.241 315.357 364.219 313.89C359.987 295.55 342.988 281.282 324.749 281.19C319.227 281.184 313.777 282.438 308.808 284.858C306.363 273.854 297.317 265.675 286.464 265.62C286.464 265.161 286.464 264.721 286.373 264.263C286.453 263.624 286.496 262.981 286.501 262.337C286.501 253.937 280.318 247.078 272.602 247.042C270.887 247.045 269.189 247.388 267.605 248.05C267 242.429 263.285 237.634 258.011 235.671L251.28 215.993H240.209L233.424 235.249C232.548 235.022 231.648 234.905 230.743 234.901C223.842 235.16 218.451 240.983 218.687 247.922C218.692 248.536 218.74 249.149 218.833 249.756C218.833 249.903 218.833 250.049 218.833 250.178C216.872 249.361 214.772 248.937 212.649 248.931C202.8 248.931 194.775 257.532 194.702 268.261C194.099 268.15 193.49 268.082 192.878 268.059C188.278 268.14 184.171 270.978 182.445 275.266C176.207 270.692 168.698 268.203 160.977 268.151C139.364 268.041 121.744 287.059 121.635 310.625C121.635 311.249 121.635 311.872 121.635 312.459C121.635 312.661 121.635 312.863 121.635 313.083C119.978 309.882 116.832 307.733 113.262 307.363C109.692 306.994 106.177 308.454 103.906 311.249C153.317 318.86 228.463 320.969 311.525 316.897Z" fill="url(#paint4_linear_7416_64117)" fill-opacity="0.5"/>
<path d="M259.412 182.904H232.029C226.468 189.275 223.689 197.575 224.302 205.978C225.694 204.408 227.218 202.958 228.857 201.645C229.022 201.517 229.251 201.505 229.428 201.616C229.606 201.726 229.694 201.935 229.65 202.138C229.17 205.228 229.65 214.534 245.729 230.331C261.864 214.534 262.325 205.228 261.79 202.138C261.759 201.935 261.854 201.732 262.031 201.624C262.208 201.516 262.433 201.524 262.602 201.645C264.236 202.964 265.76 204.413 267.156 205.978C267.769 197.572 264.982 189.27 259.412 182.904Z" fill="url(#paint5_linear_7416_64117)"/>
<path d="M245.542 172.243C245.542 172.243 227.915 186.143 245.542 210.11C263.188 186.143 245.542 172.243 245.542 172.243Z" fill="url(#paint6_linear_7416_64117)" fill-opacity="0.8"/>
<path d="M245.907 180.699C245.907 180.699 235.662 189.07 245.907 203.493C256.17 189.07 245.907 180.699 245.907 180.699Z" fill="url(#paint7_linear_7416_64117)" fill-opacity="0.8"/>
<path d="M226.406 176.287L228.355 180.414C229.186 182.167 230.833 183.268 232.63 183.272H258.464C260.262 183.272 261.911 182.17 262.739 180.414L264.688 176.287H226.406Z" fill="#949494" stroke="#424242" stroke-width="3.46"/>
<path d="M220.572 169.302L223.112 174.076C224.195 176.111 226.351 177.389 228.702 177.39H262.39C264.742 177.389 266.897 176.111 267.981 174.076L270.52 169.302H220.572Z" fill="#4D4D4D" stroke="#424242" stroke-width="3.46"/>
<path d="M269.334 131.066C269.334 131.066 312.13 145.781 309.407 188.787C309.407 188.787 273.363 151.999 253.75 159.927L269.334 131.066Z" fill="url(#paint8_linear_7416_64117)"/>
<path d="M221.778 131.066C221.778 131.066 178.964 145.781 181.687 188.787C181.687 188.787 217.731 151.999 237.344 159.927L221.778 131.066Z" fill="url(#paint9_linear_7416_64117)"/>
<path d="M266.145 48.7133C261.111 35.835 254.14 23.8079 245.473 13.0515C236.894 23.7014 229.974 35.5953 224.947 48.3276C238.514 45.1607 252.639 45.2929 266.145 48.7133Z" fill="url(#paint10_linear_7416_64117)"/>
<path d="M266.748 50.3719L266.182 48.9124C252.719 45.3518 238.595 45.2185 225.069 48.5245L224.358 50.3719C205.581 99.5857 214.102 152.993 217.059 168.068C217.552 170.497 219.663 172.241 222.113 172.243H268.883C271.333 172.241 273.444 170.497 273.938 168.068C277.003 152.993 285.525 99.5857 266.748 50.3719Z" fill="url(#paint11_linear_7416_64117)"/>
<path d="M261.771 88.584C261.778 95.7976 257.608 102.305 251.205 105.071C244.803 107.836 237.43 106.316 232.526 101.217C227.621 96.1194 226.152 88.4487 228.803 81.7836C231.454 75.1184 237.704 70.7721 244.636 70.7721C254.092 70.7721 261.761 78.7438 261.771 88.584Z" fill="#444444"/>
<path d="M255.011 99.0221C260.46 93.8915 260.64 85.3969 255.413 80.0487C250.186 74.7005 241.531 74.524 236.082 79.6546C230.633 84.7851 230.454 93.2797 235.681 98.6279C240.908 103.976 249.563 104.153 255.011 99.0221Z" fill="#7C7C7C" stroke="#424242" stroke-width="3.46"/>
<path d="M257.76 88.4007C257.767 93.7554 254.574 98.587 249.67 100.641C244.766 102.696 239.118 101.568 235.361 97.784C231.603 94.0003 230.477 88.3062 232.507 83.3583C234.538 78.4105 239.325 75.1838 244.635 75.1838C251.877 75.1838 257.75 81.0983 257.76 88.4007Z" fill="url(#paint12_linear_7416_64117)" fill-opacity="0.5"/>
<g opacity="0.08">
<path d="M245.737 77.3529C250.865 77.3503 255.54 80.3242 257.763 85.0027C256.44 80.0363 252.449 76.2597 247.466 75.2589C242.483 74.2581 237.371 76.2065 234.277 80.2857C231.182 84.3649 230.641 89.8686 232.881 94.4854C232.554 93.317 232.386 92.1087 232.382 90.8943C232.382 83.4229 238.359 77.3633 245.737 77.3529Z" fill="black" stroke="#424242" stroke-width="3.46"/>
</g>
<path d="M333.897 236.636C335.936 230.313 341.178 219.467 338.138 217.574C335.323 216.216 332.333 215.263 329.255 214.743H330.857C330.857 214.743 327.653 212.904 327.38 211.728C327.253 211.103 326.998 209.191 326.798 207.5C328.607 205.351 329.623 202.636 329.674 199.816C329.674 194.724 326.543 190.625 322.666 190.625C318.789 190.625 315.64 194.724 315.621 199.816C315.687 202.541 316.648 205.166 318.352 207.279C318.133 209.118 317.86 211.25 317.696 211.93C317.442 213.125 314.256 214.927 314.22 214.945C311.654 215.314 309.161 216.083 306.829 217.224C303.735 219.063 309.086 230.496 311.125 236.82C311.617 238.327 311.544 245.147 311.344 251.177C311.344 252.666 310.088 259.504 310.288 262.335C310.288 263.18 319.808 268.419 322.466 268.566V268.364C325.105 268.235 334.589 263.015 334.643 262.169C334.844 259.338 333.551 253.585 333.515 252.096C333.229 246.94 333.356 241.77 333.897 236.636Z" fill="url(#paint13_linear_7416_64117)"/>
<path d="M299.603 201.629C298.979 201.038 298.291 200.519 297.554 200.082C297.067 197.315 296.097 194.658 294.688 192.238C292.74 188.946 290.621 185.762 288.34 182.699C288.607 181.092 288.758 179.467 288.794 177.838C288.338 176.421 287.774 175.042 287.107 173.713C287.107 173.713 286.255 175.076 285.457 175.186C284.659 175.297 282.555 175.371 282.555 175.371C282.558 176.876 282.723 178.376 283.044 179.845C283.309 180.602 283.637 181.335 284.024 182.036C284.55 183.878 287.651 194.466 289.592 199.032C290.1 200.364 290.81 201.606 291.696 202.715C291.797 203.167 291.962 203.601 292.185 204.004C293.092 205.643 297.354 211.094 298.025 212.088C298.696 213.082 300.02 215.771 302.578 219.453C305.135 223.136 308.291 224.149 310.177 222.731C315.346 218.827 301.997 203.894 299.603 201.629Z" fill="url(#paint14_linear_7416_64117)"/>
<path d="M361.699 176.874C360.908 176.67 360.209 175.184 360.209 175.184C359.373 176.43 358.635 177.741 358.002 179.104C357.841 180.789 357.798 182.484 357.874 184.175C355.3 187.204 352.894 190.373 350.665 193.668C349.197 195.909 348.081 198.366 347.355 200.951C346.55 201.417 345.803 201.978 345.13 202.623C342.776 204.852 329.242 219.974 334.391 223.838C336.321 225.269 339.503 224.191 342.096 220.532C344.689 216.872 346.086 214.085 346.73 213.101C347.373 212.116 351.732 206.598 352.651 204.945L352.817 204.592C353.908 203.493 354.793 202.202 355.428 200.784C357.579 196.492 361.092 186.683 361.956 184.287C362.566 183.534 363.096 182.718 363.537 181.853C364.044 180.422 364.396 178.94 364.586 177.432C364.586 177.432 362.471 177.079 361.699 176.874Z" fill="url(#paint15_linear_7416_64117)"/>
<path d="M316.232 256.066C311.588 256.066 309.78 259.425 309.904 269.76C310.028 280.095 311.482 291.334 312.12 292.958C312.758 294.583 319.352 294.619 319.99 293.678C320.628 292.737 322.294 271.273 322.294 267.841C322.294 264.408 321.337 256.085 316.232 256.066Z" fill="#FFBD95"/>
<path d="M311.739 300.383L311.986 290.584C311.995 290.201 312.311 289.898 312.692 289.907C312.692 289.907 312.692 289.907 312.692 289.907L319.418 290.081C319.798 290.091 320.098 290.409 320.089 290.793L319.842 300.592C319.832 300.976 319.516 301.279 319.136 301.269C319.135 301.269 319.135 301.269 319.135 301.269L312.41 301.096C312.029 301.086 311.729 300.767 311.739 300.383Z" fill="#FFBD95"/>
<path d="M315.546 294.669C314.065 294.669 311.546 294.799 311.731 304.528C312.184 312.698 313.186 320.827 314.731 328.86H318.231C318.231 328.86 320.083 309.923 320.083 306.537C320.176 298.613 320.231 294.669 315.546 294.669Z" fill="black"/>
<path d="M328.857 256.12C333.568 255.602 335.734 258.761 336.672 269.051C337.611 279.341 337.232 290.702 336.672 292.384C336.113 294.065 329.453 294.804 328.767 293.935C328.081 293.067 324.201 271.878 323.858 268.534C323.515 265.19 323.732 256.692 328.857 256.12Z" fill="#FFBD95"/>
<path d="M336.188 289.154H329.546C329.165 289.154 328.856 289.466 328.856 289.849V300.224C328.856 300.608 329.165 300.919 329.546 300.919H336.188C336.569 300.919 336.877 300.608 336.877 300.224V289.849C336.877 289.466 336.569 289.154 336.188 289.154Z" fill="#FFBD95"/>
<path d="M333.201 293.96C331.798 293.814 328.328 293.96 327.557 303.424C326.786 312.889 329.082 327.022 329.082 327.022L332.587 326.694C332.587 326.694 335.97 309.315 336.32 305.941C337.179 298.282 337.617 294.452 333.201 293.96Z" fill="black"/>
<path d="M349.638 211.278C349.638 211.278 343.894 204.799 343.528 204.579C343.163 204.359 334.84 213.462 333.102 215.353C330.999 214.674 329.206 213.866 329.206 213.866C327.888 216.158 325.442 217.561 322.804 217.537C319.365 217.537 316.421 213.866 316.421 213.866C316.421 213.866 314.793 214.582 312.762 215.243C312.762 215.243 302.537 203.661 302.172 203.863C301.806 204.065 296.044 210.562 296.044 210.562C296.044 210.562 304.385 221.575 305.555 223.833C306.832 226.407 307.955 229.055 308.921 231.762C309.762 235.084 310.512 237.856 310.75 238.406C311.281 239.948 309.678 251.218 310.995 254.412L322.297 255.147L322.694 254.228L334.035 253.604C335.078 249.933 334.035 239.783 334.657 238.241C334.858 237.654 335.7 234.57 336.614 231.028C337.567 228.79 338.724 226.646 340.071 224.622C341.681 222.585 349.638 211.278 349.638 211.278Z" fill="url(#paint16_linear_7416_64117)"/>
<path d="M322.294 269.109V254.612L310.818 254.228C309.692 258.496 309.017 262.87 308.805 267.279C310.36 308.372 312.154 320.086 312.722 326.529C313.582 327.207 318.725 327.39 318.725 327.39C318.725 327.39 320.318 310.605 321.324 290.91C321.654 282.49 322.294 269.109 322.294 269.109Z" fill="#1F1A54"/>
<path d="M338.336 290.845C338.221 284.499 338.202 270.198 337.574 266.443C336.645 262.07 335.483 257.748 334.092 253.493L322.294 254.122V269.514C322.294 269.514 325.148 282.316 326.842 290.808L327.984 294.822C327.379 299.599 327.042 304.404 326.975 309.216C326.992 314.695 327.514 320.163 328.536 325.551C330.396 325.503 332.238 325.179 333.997 324.589C333.997 324.589 337.441 305.756 337.803 300.539C338.164 295.322 338.336 290.845 338.336 290.845Z" fill="#1F1A54"/>
<path d="M315.408 200.884C314.721 199.676 314.332 198.322 314.273 196.933C314.511 195.891 314.767 193.641 316.103 192.909C316.414 192.745 317.292 192.909 317.365 191.922C317.493 190.44 320.419 190.367 320.749 190.348C321.8 190.227 322.862 190.227 323.913 190.348C325.047 190.531 327.315 191.117 329.401 194.94C329.868 195.844 330.177 196.821 330.315 197.83C330.315 198.104 329.711 200.409 329.675 200.592C329.565 200.833 329.437 201.066 329.291 201.287C329.291 201.287 327.462 196.458 327.352 196.001C327.242 195.543 317.676 195.397 317.072 195.708C316.311 197.36 315.752 199.098 315.408 200.884Z" fill="#BFB500"/>
<path d="M283.166 174.471C283.595 174.378 284.037 174.582 284.157 174.93L285.08 177.663C285.135 177.833 285.104 178.014 284.994 178.166C284.884 178.317 284.704 178.427 284.495 178.47C284.066 178.564 283.625 178.359 283.504 178.011L282.581 175.278C282.526 175.108 282.557 174.927 282.667 174.776C282.777 174.624 282.957 174.515 283.166 174.471Z" fill="url(#paint17_linear_7416_64117)"/>
<path d="M284.441 174.471C284.749 174.378 285.066 174.582 285.152 174.93L285.816 177.662C285.898 178.012 285.718 178.371 285.411 178.469C285.099 178.564 284.777 178.361 284.683 178.011L284.037 175.278C283.992 175.11 284.01 174.929 284.087 174.777C284.163 174.624 284.291 174.514 284.441 174.471Z" fill="url(#paint18_linear_7416_64117)"/>
<path d="M285.541 173.732C285.846 173.648 286.156 173.849 286.249 174.191L286.909 176.926C286.992 177.276 286.812 177.636 286.507 177.734C286.196 177.829 285.876 177.626 285.783 177.275L285.123 174.558C285.049 174.2 285.232 173.839 285.541 173.732Z" fill="url(#paint19_linear_7416_64117)"/>
<path d="M286.428 173.737C286.863 173.642 287.312 173.845 287.442 174.195L288.366 176.928C288.467 177.281 288.209 177.636 287.78 177.735C287.351 177.828 286.909 177.624 286.789 177.276L285.865 174.562C285.748 174.208 285.997 173.843 286.428 173.737Z" fill="url(#paint20_linear_7416_64117)"/>
<path d="M328.468 326.794C328.081 328.422 328.024 330.099 328.3 331.745C328.449 332.152 339.297 333.304 340.906 332.762C342.514 332.219 343.805 331.677 343.805 331.677C343.805 331.677 343.506 330.185 342.795 330.117C342.084 330.049 335.463 328.303 334.771 327.439C334.079 326.574 333.537 325.15 333.144 325.658C331.819 326.595 330.132 327.005 328.468 326.794Z" fill="black"/>
<path d="M318.524 329.08L314.033 328.86C313.839 329.863 313.427 330.812 312.828 331.638C312.061 332.844 310.874 334.087 311.002 335.037C311.002 335.659 311.312 336.298 311.896 336.372C313.591 336.694 315.335 336.644 317.009 336.225C317.696 335.601 318.265 334.858 318.688 334.032C319.015 333.253 319.097 332.393 318.926 331.565C318.816 330.889 318.524 329.08 318.524 329.08Z" fill="#22272C"/>
<path d="M318.564 328.338L314.049 328.125C313.85 329.098 313.437 330.018 312.837 330.822C312.066 331.993 310.873 333.182 311.002 334.122C311.002 334.708 311.277 335.204 311.864 335.275C313.568 335.592 315.324 335.537 317.004 335.116C317.656 334.573 318.197 333.917 318.6 333.182C318.963 332.423 319.09 331.579 318.967 330.751C318.857 330.094 318.564 328.338 318.564 328.338Z" fill="black"/>
<path d="M315.047 327.591C314.525 327.888 314.273 330.702 314.273 330.859C314.273 331.016 315.191 331.103 315.515 331.051C316.883 330.824 317.423 328.57 317.099 327.888C316.775 327.207 315.479 327.346 315.047 327.591Z" fill="black"/>
<path d="M321.595 188.858C323.616 188.523 328.856 189.252 328.856 193.766C328.886 194.565 328.476 195.304 327.818 195.639C327.818 195.639 327.568 194.259 325.511 193.786C323.455 193.313 322.15 195.994 320.343 195.757C318.537 195.521 317.5 195.915 317.214 194.574C316.928 193.234 319.306 189.272 321.595 188.858Z" fill="#BFB500"/>
<path d="M327.398 194.575C327.398 194.575 328.928 194.575 329.357 195.376C329.609 195.825 329.66 196.379 329.494 196.875C329.898 196.459 330.172 195.91 330.275 195.308C330.481 194.101 329.882 192.903 328.852 192.463L327.398 194.575Z" fill="#BFB500"/>
<path d="M383.909 211.581C385.896 210.396 388.137 209.712 390.443 209.589C392.685 209.23 394.975 209.33 397.178 209.884L397.763 202.506L396.08 195.404L385.739 197.249L383.909 204.959V211.581Z" fill="#69303A"/>
<path d="M397.167 319.302C397.263 320.332 397.609 321.325 398.176 322.199C398.598 323.002 398.598 323.953 398.176 324.756C397.07 325.76 395.789 325.4 394.47 326.195C393.15 326.991 391.112 329.983 389.986 330.21C388.861 330.437 386.279 330.362 386.105 329.831C385.93 329.301 388.628 327.445 388.628 327.445C392.665 322.597 393.111 320.305 393.111 320.305C394.439 319.884 395.794 319.548 397.167 319.302Z" fill="url(#paint21_linear_7416_64117)"/>
<path d="M388.863 327.653C388.863 327.653 388.115 328.268 388.227 328.472C388.34 328.677 389.517 328.64 389.816 328.472C392.341 327.105 394.657 325.387 396.695 323.37C397.144 322.837 397.441 322.194 397.555 321.507C398.245 322.198 398.583 323.165 398.471 324.133C398.37 324.482 398.219 324.815 398.022 325.12C397.002 325.815 395.934 326.438 394.826 326.983C393.536 327.783 391.76 330.707 390.657 330.931C389.555 331.154 385.91 331.136 385.741 330.614C385.573 330.093 387.592 328.435 388.863 327.653Z" fill="url(#paint22_linear_7416_64117)"/>
<path d="M398.492 323.346C398.492 323.346 397.664 325.606 397.428 326.359C397.143 327.544 396.939 328.749 396.817 329.963H396.266C396.266 329.963 396.916 325.321 394.551 326.705C393.862 327.133 398.492 323.346 398.492 323.346Z" fill="#4F2718"/>
<path d="M387.663 289.493C391.129 291.307 393.795 298.072 394.453 300.793C395.11 303.514 396.23 318.459 396.639 319.384C397.048 320.309 393.226 320.708 393.084 320.146C390.907 313.153 388.344 306.292 385.406 299.596C384.766 298.254 382.1 292.069 381.851 291.434C380.874 288.187 385.69 288.441 387.663 289.493Z" fill="url(#paint23_linear_7416_64117)"/>
<path d="M400.019 306.639C399.662 307.599 399.523 308.629 399.612 309.652C399.852 310.82 401.164 313.419 402.088 313.419C403.012 313.419 404.472 311.121 404.676 310.745C405.392 308.654 405.595 306.417 405.267 304.228L400.019 306.639Z" fill="url(#paint24_linear_7416_64117)"/>
<path d="M387.083 224.941C388.649 223.793 386.14 218.268 382.141 213.345C375.18 204.811 374.199 201.037 371.237 202.824C368.275 204.611 371.237 208.039 376.142 216.08C379.971 222.443 383.838 227.312 387.083 224.941Z" fill="#EA9C1F"/>
<path d="M407.693 214.739C406.737 213.272 402.17 213.254 400.473 213.053C398.231 213.037 395.992 213.202 393.776 213.547C391.58 213.995 389.42 214.607 387.314 215.38C385.762 216.169 381.484 217.782 381.069 219.486C380.437 222.034 389.931 233.893 386.755 242.233C385.69 245.001 379.534 252.333 379.534 255.302C379.534 258.968 390.058 264.045 390.058 264.045L390.708 264.229L391.357 264.393C391.357 264.393 403.018 265.328 404.769 262.157C406.213 259.573 403.307 246.687 403.668 243.131C404.535 233.985 409.137 216.92 407.693 214.739Z" fill="#EA9C1F"/>
<path d="M379.359 255.842C377.854 258.201 377.524 262.603 377.799 268.378C378.36 275.345 379.428 282.26 380.993 289.067C382.04 294.23 387.015 294.398 388.061 290.442C388.355 289.365 390.925 267.208 390.834 264.701C390.742 262.194 390.834 257.588 389.255 254.691C388.08 252.499 381.599 252.369 379.359 255.842Z" fill="url(#paint25_linear_7416_64117)"/>
<path d="M395.567 203.493L392.47 204.068L389.355 204.625C389.781 206.744 389.998 208.902 390.003 211.066C389.431 212.49 388.603 214.339 387.558 215.441L394.108 213.702L400.318 213.235C398.966 212.562 398.112 210.908 397.097 209.767C396.387 207.733 395.874 205.631 395.567 203.493Z" fill="#EA9C1F"/>
<path d="M372.51 206.715C374.194 206.305 375.824 202.879 374.882 197.294C373.814 190.853 372.419 181.6 370.898 181.805C370.173 181.898 369.739 182.829 369.902 184.244C370.228 187.204 369.34 192.324 369.068 196.587C368.67 203.14 369.286 207.478 372.51 206.715Z" fill="#EA9C1F"/>
<path d="M405.436 220.4C407.2 220.581 408.965 214.972 409.53 208.748C410.465 198.001 412.195 194.636 409.23 193.985C406.547 193.406 406 197.766 404.077 206.831C402.577 213.833 401.924 219.93 405.436 220.4Z" fill="#EA9C1F"/>
<path d="M409.924 199.436C411.65 199.287 412.652 194.465 411.464 188.224C410.091 181.122 408.254 170.937 406.732 171.143C404.654 171.442 405.693 180.263 405.582 187.401C405.471 194.54 406.361 199.735 409.924 199.436Z" fill="#EA9C1F"/>
<path d="M384.638 200.642C384.638 205.405 388.519 209.338 390.913 209.375C393.306 209.412 396.444 205.571 396.97 200.771C397.496 195.97 394.703 192.887 391.166 192.832C387.63 192.776 384.71 195.878 384.638 200.642Z" fill="#EA9C1F"/>
<path d="M393.87 195.462C393.377 196.897 392.021 197.419 389.114 197.717C387.326 197.975 385.82 199.259 385.203 201.052C384.656 204.533 384.362 208.053 384.322 211.581C384.322 211.581 381.838 200.791 385.749 194.81C389.66 188.828 394.681 192.257 394.839 193.133C394.927 193.654 394.117 194.847 393.87 195.462Z" fill="#9A4A4D"/>
<path d="M390.045 194.912C390.045 194.912 389.762 197.136 392.495 197.247C397.659 197.451 394.889 210.365 394.889 210.365C394.889 210.365 396.773 210.884 397.207 209.698C398.979 205.288 400.976 193.56 393.55 192.893C388.216 192.411 390.045 194.912 390.045 194.912Z" fill="#9A4A4D"/>
<path d="M400.289 301.072C400.289 301.072 399.493 306.69 399.595 307.323C399.697 307.955 400.86 310.256 401.82 310.103C404.473 309.7 405.738 305.003 405.351 303.507C405.106 302.644 404.922 301.724 404.718 301.129C404.481 300.277 404.109 299.462 403.616 298.713L400.289 301.072Z" fill="url(#paint26_linear_7416_64117)"/>
<path d="M386.041 286.901C384.384 289.106 384.513 290.514 387.883 293.386C391.253 296.259 401.473 302.929 402.007 302.355C402.541 301.78 404.456 299.464 403.148 298.76C402.264 298.278 401.896 296.907 400.515 294.924C398.564 292.18 396.475 289.54 394.254 287.012C393.204 286.049 388.711 283.325 386.041 286.901Z" fill="url(#paint27_linear_7416_64117)"/>
<path d="M405.269 259.283C405.878 261.953 404.587 266.076 402.356 271.288C399.408 277.466 396 283.42 392.16 289.103C389.376 293.48 384.638 291.9 385.025 287.905C385.136 286.815 390.446 265.64 391.404 263.37C392.363 261.099 393.894 256.868 396.383 254.743C398.189 253.181 404.366 255.306 405.269 259.283Z" fill="url(#paint28_linear_7416_64117)"/>
<path d="M370.346 178.493C370.574 178.482 370.768 178.702 370.783 178.989L370.886 181.249C370.894 181.389 370.856 181.526 370.782 181.63C370.708 181.734 370.603 181.796 370.492 181.8C370.381 181.81 370.272 181.763 370.189 181.669C370.107 181.576 370.058 181.444 370.054 181.304L369.952 179.063C369.944 178.921 369.981 178.782 370.055 178.675C370.129 178.568 370.234 178.502 370.346 178.493Z" fill="#EA9C1F"/>
<path d="M370.71 178.494C370.821 178.484 370.93 178.531 371.013 178.625C371.096 178.718 371.144 178.85 371.148 178.99L371.25 181.249C371.258 181.389 371.221 181.526 371.146 181.63C371.072 181.734 370.967 181.796 370.856 181.8C370.746 181.81 370.636 181.763 370.554 181.669C370.471 181.576 370.422 181.444 370.419 181.304L370.317 179.045C370.308 178.758 370.483 178.514 370.71 178.494Z" fill="#EA9C1F"/>
<path d="M371.978 178.493C372.259 178.491 372.496 178.682 372.524 178.934L372.652 180.943C372.662 181.067 372.615 181.189 372.522 181.282C372.429 181.374 372.299 181.429 372.16 181.433C372.02 181.442 371.881 181.4 371.775 181.317C371.669 181.235 371.604 181.117 371.595 180.992L371.467 178.999C371.457 178.734 371.683 178.51 371.978 178.493Z" fill="#EA9C1F"/>
<path d="M372.673 178.493C373.068 178.491 373.399 178.681 373.439 178.931L373.617 180.93C373.631 181.055 373.567 181.178 373.437 181.273C373.308 181.367 373.125 181.425 372.928 181.434C372.529 181.443 372.19 181.249 372.163 180.995L371.958 178.996C371.944 178.733 372.26 178.51 372.673 178.493Z" fill="#EA9C1F"/>
<path d="M372.626 185.846C373.194 184.531 373.674 183.186 374.065 181.819C373.924 180.696 373.693 179.585 373.375 178.493C373.375 178.493 372.435 179.368 371.763 179.316C371.092 179.263 369.346 178.983 369.346 178.983C369.073 180.103 368.945 181.249 368.963 182.397C369.19 183.503 369.511 184.592 369.922 185.653L372.626 185.846Z" fill="#EA9C1F"/>
<path d="M408.102 168.567C407.934 168.559 407.768 168.596 407.64 168.668C407.513 168.741 407.435 168.843 407.424 168.953L407.271 170.697C407.258 170.923 407.516 171.117 407.862 171.14C408.2 171.141 408.484 170.974 408.518 170.754L408.671 168.996C408.683 168.89 408.63 168.785 408.523 168.704C408.416 168.624 408.265 168.575 408.102 168.567Z" fill="#EA9C1F"/>
<path d="M406.987 167.832C406.821 167.822 406.657 167.869 406.533 167.963C406.409 168.057 406.336 168.189 406.331 168.328L406.177 170.57C406.165 170.712 406.221 170.851 406.332 170.958C406.443 171.065 406.6 171.13 406.768 171.14C407.106 171.141 407.39 170.926 407.424 170.644L407.577 168.384C407.589 168.244 407.533 168.106 407.422 168.002C407.31 167.898 407.153 167.837 406.987 167.832Z" fill="#EA9C1F"/>
<path d="M406.228 167.832C406.116 167.822 406.005 167.869 405.92 167.962C405.836 168.055 405.784 168.187 405.776 168.328L405.674 170.57C405.666 170.867 405.847 171.12 406.082 171.139C406.311 171.15 406.504 170.93 406.52 170.643L406.622 168.383C406.63 168.244 406.593 168.106 406.518 168.002C406.444 167.898 406.339 167.837 406.228 167.832Z" fill="#EA9C1F"/>
<path d="M405.018 167.832C404.878 167.822 404.739 167.869 404.633 167.964C404.527 168.059 404.463 168.193 404.453 168.337L404.289 170.579C404.288 170.868 404.501 171.11 404.781 171.139C405.067 171.15 405.309 170.927 405.328 170.635L405.456 168.337C405.449 168.082 405.265 167.869 405.018 167.832Z" fill="#EA9C1F"/>
<path d="M405.381 176.287C404.815 174.908 404.341 173.495 403.961 172.059C404.086 170.879 404.311 169.711 404.633 168.566C404.633 168.566 405.573 169.485 406.263 169.43C406.954 169.375 408.681 169.081 408.681 169.081C408.943 170.253 409.072 171.449 409.065 172.647C408.828 173.807 408.507 174.949 408.105 176.066L405.381 176.287Z" fill="#EA9C1F"/>
<path d="M404.115 242.271C404.656 238.486 406.877 223.181 406.877 223.181C406.877 223.181 405.866 224.059 404.403 222.267C402.435 219.908 402.941 213.271 402.941 213.271L400.214 213.052C399.816 215.536 399.212 217.983 398.409 220.366C397.92 221.651 396.936 222.68 395.682 223.215C394.428 223.75 393.013 223.744 391.764 223.2C387.647 220.932 387.304 215.045 387.304 215.045L384.379 216.507V228.393C384.379 228.393 387.123 236.584 386.076 240.625C385.029 244.666 380.659 249.256 378.113 254.851C375.567 260.446 378.113 278.786 378.113 278.786C378.113 278.786 384.848 280.962 386.961 278.786C388.772 277.113 391.468 276.88 393.533 278.22C394.743 279.134 397.795 282.169 397.795 282.169C397.795 282.169 403.898 272.204 405.198 262.897C406.318 255.382 403.555 246.056 404.115 242.271Z" fill="url(#paint29_linear_7416_64117)"/>
<path d="M154.95 266.36C158.972 264.489 163.285 263.302 167.706 262.849C173.879 262.5 158.52 224.081 158.52 224.081L154.95 266.36Z" fill="black"/>
<path d="M190.907 290.306C189.632 289.537 185.49 288.9 180.702 297.446C175.913 305.991 172.086 320.214 172.086 320.214L175.654 321.507C175.654 321.507 186.322 306.778 188.097 303.78C192.128 296.977 194.938 292.742 190.907 290.306Z" fill="#935006"/>
<path d="M171.661 320.037C170.761 321.582 170.164 323.271 169.898 325.021C169.898 325.47 179.966 329.701 181.672 329.594C183.378 329.486 184.822 329.307 184.822 329.307C184.822 329.307 185.009 327.711 184.353 327.514C183.697 327.316 177.904 323.605 177.529 322.529C177.154 321.453 177.06 319.858 176.516 320.27C174.933 320.836 173.176 320.751 171.661 320.037Z" fill="black"/>
<path d="M184.627 329.142C183.462 329.312 182.284 329.392 181.104 329.382C180.684 329.296 175.281 326.276 172.177 325.04C171.283 324.662 170.535 324.25 170.169 324.096C169.804 323.942 169.914 325.023 169.914 325.023V325.778C169.914 325.778 180.483 329.862 180.867 329.948C181.25 330.034 184.846 329.725 184.846 329.725L184.627 329.142Z" fill="black"/>
<path d="M184.267 237.07C185.404 230.543 189.087 219.112 185.783 217.69C181.486 215.867 169.858 215.995 169.858 215.995V216.195C169.858 216.195 158.483 218.82 154.872 221.81C152.091 224.108 158.952 234.573 161.841 240.48C163.57 244.965 164.741 249.65 165.326 254.427C165.489 255.903 165.777 262.722 166.373 265.493C166.536 266.314 175.816 269.559 179.193 269.668C181.829 269.759 190.369 262.686 190.315 261.847C190.117 259.039 187.48 252.549 187.228 251.09C186.235 245.165 183.996 238.62 184.267 237.07Z" fill="#935006"/>
<path d="M160.015 227.846C161.835 226.334 161.525 223.038 158.631 219.725C155.737 216.412 153.389 214.485 152.625 213.639C151.86 212.793 147.565 207.391 146.2 206.148C144.982 204.78 142.905 204.568 141.431 205.662C140.23 206.688 140.63 210.038 142.214 212.865C143.797 215.692 155.118 231.898 160.015 227.846Z" fill="#935006"/>
<path d="M174.424 212.863C173.978 211.733 172.455 206.066 172.455 206.066L168.498 206.604V206.802L164.522 207.34C164.522 207.34 164.708 213.204 164.615 214.406C164.522 215.607 161.513 217.831 161.513 217.831L179.013 215.697C179.013 215.697 174.944 213.993 174.424 212.863Z" fill="#935006"/>
<path d="M173.544 211.265C173.039 209.466 172.39 207.038 172.191 206.264L171.902 206.066L168.295 206.57V206.768L164.435 207.307C164.435 207.307 164.615 213.19 164.525 214.395C164.435 215.6 161.513 217.831 161.513 217.831H161.891L169.377 214.647C170.841 213.642 172.228 212.53 173.526 211.319L173.544 211.265Z" fill="#935006"/>
<path d="M172.842 256.436C167.925 256.325 165.944 259.696 165.888 270.106C165.894 278.748 166.732 287.369 168.393 295.853C169.047 297.501 175.029 296.872 175.72 295.946C176.412 295.019 178.954 271.866 179.01 268.458C179.066 265.05 178.188 256.566 172.842 256.436Z" fill="#935006"/>
<path d="M171.56 293.199C170.143 293.199 166.811 295.199 166.988 304.907C167.165 314.614 170.94 328.86 170.94 328.86H174.307C174.307 328.86 176.079 309.946 176.079 306.5C176.168 298.664 176.062 293.199 171.56 293.199Z" fill="#935006"/>
<path d="M183.973 257.238C188.745 256.644 191.012 259.782 192.127 270.236C193.011 278.383 193.103 286.599 192.401 294.765C191.926 296.455 186.24 296.417 185.472 295.563C184.704 294.709 179.567 273.281 179.165 269.939C178.762 266.597 178.799 257.907 183.973 257.238Z" fill="#935006"/>
<path d="M181.988 225.084C179.932 223.752 179.857 220.367 182.44 216.648C185.024 212.93 187.192 210.673 187.89 209.73C188.588 208.786 192.34 202.774 193.547 201.331C194.667 199.829 196.751 199.378 198.412 200.277C199.769 201.183 199.769 204.643 198.412 207.676C197.054 210.71 187.437 228.654 181.988 225.084Z" fill="#935006"/>
<path d="M144.155 210.507C142.315 211.306 140.474 211.008 138.008 206.083C135.541 201.158 131.253 188.985 131.253 188.985L134.143 187.684C134.143 187.684 141.321 196.289 142.775 198.835C144.229 201.381 148.83 208.407 144.155 210.507Z" fill="#935006"/>
<path d="M175.179 200.785C176.125 205.859 173.361 211.642 170.142 212.258C166.923 212.874 162.305 208.527 161.359 203.471C160.413 198.415 162.741 193.677 166.56 192.931C170.378 192.184 174.252 195.71 175.179 200.785Z" fill="#935006"/>
<path d="M161.879 204.963C160.996 203.856 160.372 202.547 160.058 201.141C160.058 200.013 159.931 197.662 161.151 196.63C161.424 196.401 162.316 196.362 162.207 195.368C162.043 193.801 164.901 193.17 165.21 193.075C166.224 192.755 167.268 192.55 168.323 192.463C169.47 192.463 171.8 192.578 174.658 196.076C175.28 196.917 175.765 197.86 176.096 198.866C176.096 199.172 175.987 201.638 175.987 201.829C175.925 202.104 175.84 202.372 175.732 202.631C175.732 202.631 172.965 198.025 172.838 197.566C172.71 197.108 163.244 198.847 162.716 199.306C162.219 201.149 161.938 203.049 161.879 204.963Z" fill="black"/>
<path d="M129.661 181.824C130.089 181.73 130.531 181.935 130.651 182.283L131.596 185.016C131.697 185.369 131.439 185.724 131.011 185.823C130.583 185.917 130.141 185.712 130.021 185.364L129.099 182.631C129.037 182.463 129.062 182.282 129.168 182.13C129.274 181.977 129.452 181.867 129.661 181.824Z" fill="#935006"/>
<path d="M130.755 181.461C130.962 181.411 131.186 181.431 131.375 181.518C131.564 181.604 131.7 181.749 131.753 181.919L132.683 184.649C132.799 184.998 132.546 185.357 132.116 185.455C131.684 185.549 131.239 185.345 131.118 184.997L130.187 182.267C130.071 181.918 130.324 181.559 130.755 181.461Z" fill="#935006"/>
<path d="M132.141 180.721C132.508 180.627 132.887 180.832 132.99 181.18L133.781 183.912C133.879 184.262 133.664 184.621 133.299 184.719C132.926 184.814 132.542 184.611 132.431 184.261L131.64 181.528C131.593 181.358 131.62 181.177 131.714 181.026C131.808 180.874 131.962 180.765 132.141 180.721Z" fill="#935006"/>
<path d="M133.301 180.722C133.736 180.627 134.184 180.83 134.314 181.18L135.237 183.913C135.291 184.083 135.26 184.264 135.15 184.416C135.041 184.567 134.861 184.677 134.652 184.72C134.223 184.814 133.782 184.609 133.662 184.261L132.739 181.529C132.624 181.18 132.874 180.82 133.301 180.722Z" fill="#935006"/>
<path d="M135.038 190.625C135.348 188.744 135.545 186.846 135.628 184.942C135.14 183.485 134.543 182.066 133.84 180.699C133.84 180.699 132.946 182.1 132.109 182.214C131.272 182.328 129.066 182.403 129.066 182.403C129.06 183.959 129.232 185.509 129.579 187.026C129.916 187.965 130.349 188.866 130.873 189.716L135.038 190.625Z" fill="#935006"/>
<path d="M195.271 205.722C197.109 206.527 198.948 206.234 201.431 201.385C203.913 196.537 208.179 184.553 208.179 184.553L205.292 183.272C205.292 183.272 198.121 191.743 196.668 194.25C195.215 196.756 190.6 203.673 195.271 205.722Z" fill="url(#paint30_linear_7416_64117)"/>
<path d="M211.013 178.567C210.825 178.49 210.6 178.472 210.392 178.517C210.185 178.563 210.014 178.667 209.922 178.805L208.287 180.965C208.176 181.099 208.15 181.258 208.215 181.406C208.279 181.554 208.429 181.676 208.627 181.743C209.031 181.877 209.514 181.774 209.741 181.505L211.377 179.329C211.574 179.048 211.412 178.708 211.013 178.567Z" fill="#935006"/>
<path d="M209.988 177.827C209.628 177.67 209.189 177.786 208.993 178.091L207.531 180.502C207.349 180.813 207.484 181.194 207.836 181.364C208.195 181.521 208.634 181.405 208.83 181.1L210.292 178.69C210.463 178.377 210.331 178.003 209.988 177.827Z" fill="#935006"/>
<path d="M208.505 177.449C208.15 177.311 207.72 177.424 207.541 177.702L206.075 179.859C205.984 179.996 205.967 180.155 206.028 180.301C206.088 180.448 206.221 180.569 206.396 180.636C206.746 180.777 207.174 180.671 207.36 180.399L208.826 178.226C208.917 178.089 208.934 177.93 208.873 177.784C208.813 177.637 208.68 177.517 208.505 177.449Z" fill="#935006"/>
<path d="M207.473 176.725C207.16 176.567 206.777 176.684 206.606 176.989L205.332 179.402C205.175 179.709 205.293 180.085 205.597 180.248C205.746 180.334 205.924 180.354 206.089 180.304C206.253 180.254 206.389 180.138 206.464 179.984L207.738 177.588C207.819 177.439 207.837 177.263 207.787 177.101C207.737 176.939 207.624 176.803 207.473 176.725Z" fill="#935006"/>
<path d="M203.805 185.846C203.917 183.997 204.14 182.155 204.473 180.331C205.263 179.04 206.157 177.811 207.146 176.654C207.146 176.654 207.719 178.18 208.521 178.493C209.323 178.805 211.461 179.302 211.461 179.302C211.125 180.773 210.619 182.203 209.953 183.566C209.403 184.39 208.763 185.154 208.043 185.846H203.805Z" fill="#935006"/>
<path d="M174.595 329.079L170.096 328.86C169.903 329.861 169.493 330.807 168.895 331.632C168.13 332.835 166.946 334.093 166.982 335.041C166.982 335.661 167.31 336.299 167.875 336.372C169.577 336.693 171.329 336.643 173.01 336.226C173.685 335.598 174.246 334.858 174.668 334.039C174.997 333.262 175.086 332.405 174.923 331.577C174.923 330.902 174.595 329.079 174.595 329.079Z" fill="black"/>
<path d="M174.631 328.355L170.111 328.125C169.919 329.101 169.507 330.024 168.903 330.829C168.135 331.995 166.946 333.197 166.982 334.116C166.982 334.717 167.275 335.212 167.842 335.282C169.548 335.589 171.302 335.535 172.984 335.123C173.644 334.585 174.185 333.924 174.576 333.179C174.945 332.426 175.079 331.584 174.96 330.758C174.96 330.104 174.631 328.355 174.631 328.355Z" fill="black"/>
<path d="M170.766 327.229C170.181 327.555 169.898 330.665 169.898 330.838C169.898 331.011 170.927 331.107 171.29 331.049C172.843 330.8 173.428 328.304 173.085 327.574C172.742 326.845 171.27 326.96 170.766 327.229Z" fill="black"/>
<path d="M166.043 194.404C167.983 194.064 173.089 194.404 173.18 198.021C173.18 199.21 170.819 200.552 170.819 200.552C170.819 200.552 171.936 198.463 169.941 198.157C167.946 197.851 166.72 199.991 164.963 199.855C163.207 199.719 162.218 200.076 161.907 199.04C161.596 198.004 163.81 194.811 166.043 194.404Z" fill="black"/>
<path d="M172.086 198.047C172.647 198.564 173.025 199.25 173.164 200.001C173.195 200.475 173.027 200.941 172.702 201.287C173.161 201.21 173.572 200.958 173.849 200.584C174.252 199.778 174.373 198.861 174.191 197.978L172.086 198.047Z" fill="black"/>
<path d="M165.523 256.648C165.523 256.648 165.523 264.173 165.523 268.936C165.523 273.698 166.986 290.257 166.986 290.257H177.002L179.378 270.026L177.897 256.066L165.523 256.648Z" fill="#00214E"/>
<path d="M188.111 253.125L177.919 256.146L179.409 270.292L183.088 289.89L193.961 289.503C193.961 289.503 193.666 275.431 192.802 269.905C191.867 264.154 190.294 258.526 188.111 253.125Z" fill="#00214E"/>
<path d="M165.557 256.368C164.607 251.745 163.363 247.187 161.833 242.722C159.972 238.117 157.272 229.892 155.113 228.629C152.953 227.367 158.129 219.049 158.129 219.049L162.857 217.192C162.857 217.192 167.437 220.014 171.104 219.55C174.772 219.086 177.341 214.89 177.341 214.89C177.341 214.89 183.075 216.988 183.075 216.561C183.075 216.134 187.915 223.616 187.45 225.009C186.551 229.186 186.151 233.456 186.258 237.727C186.612 241.44 188.492 252.822 188.492 252.822C185.313 254.563 181.796 255.602 178.179 255.867C173.992 256.373 169.771 256.541 165.557 256.368Z" fill="url(#paint31_linear_7416_64117)"/>
<path d="M148.289 207.904C148.289 207.904 157.283 217.731 157.742 217.656C158.202 217.582 158.975 217.099 159.103 217.953C159.232 218.808 163.481 216.69 163.481 216.69C164.869 222.454 165.555 228.368 165.522 234.299C165.117 241.989 160.391 256.589 159.857 261.902C159.324 267.214 159.324 268.199 159.324 268.199L155.37 267.214C155.37 267.214 155.204 231.105 154.101 229.507C152.997 227.91 142.919 215.353 142.919 215.353C144.541 214.598 146.026 213.574 147.314 212.325C148.264 211.067 148.621 209.451 148.289 207.904Z" fill="url(#paint32_linear_7416_64117)"/>
<path d="M177.19 215.492C177.19 215.492 181.161 221.16 181.937 234.836C182.713 248.512 184.392 265.625 184.392 265.625L191.846 263.596C191.846 263.596 187.803 228.126 188.002 226.462C188.2 224.798 193.741 216.937 195.221 215.2C196.172 214.112 196.864 212.817 197.243 211.415C197.243 211.415 194.337 207.448 191.99 206.625C189.644 205.802 189.103 206.131 189.103 206.131C187.395 208.784 185.539 211.335 183.544 213.774C183.309 213.463 182.425 213.298 182.425 213.774C182.425 214.249 181.865 215.602 181.648 214.962C181.432 214.322 180.313 214.962 179.97 215.2C179.06 215.418 178.126 215.517 177.19 215.492Z" fill="url(#paint33_linear_7416_64117)"/>
<path d="M177.536 288.787H166.271C166.059 288.787 165.888 288.96 165.888 289.173V292.445C165.888 292.658 166.059 292.831 166.271 292.831H177.536C177.748 292.831 177.919 292.658 177.919 292.445V289.173C177.919 288.96 177.748 288.787 177.536 288.787Z" fill="#375987"/>
<path d="M193.578 288.787H182.677C182.465 288.787 182.294 288.96 182.294 289.173V292.445C182.294 292.658 182.465 292.831 182.677 292.831H193.578C193.789 292.831 193.961 292.658 193.961 292.445V289.173C193.961 288.96 193.789 288.787 193.578 288.787Z" fill="#375987"/>
<path d="M359.422 85.8922C366.903 93.3444 378.198 95.6084 388.031 91.6269C397.864 87.6455 404.296 78.2041 404.322 67.7119C404.349 57.2197 397.965 47.7467 388.152 43.7168C378.339 39.6869 367.033 41.8951 359.514 49.3102C349.295 59.4026 349.253 75.7495 359.422 85.8922Z" fill="url(#paint34_linear_7416_64117)"/>
<path opacity="0.6" d="M386.174 78.908C388.163 78.9083 390.116 79.4384 391.83 80.4434C392.055 76.9373 393.955 73.7508 396.938 71.8735C399.921 69.9962 403.628 69.6552 406.906 70.9565C408.485 64.5597 414.685 60.4015 421.234 61.347C427.783 62.2924 432.54 68.0326 432.229 74.6123C432.229 74.7951 432.229 74.9779 432.229 75.1607C439.368 75.1607 445.156 80.9222 445.156 88.0293C445.156 95.1364 439.368 100.898 432.229 100.898C431.788 100.926 431.347 100.926 430.907 100.898H387.386C386.983 100.925 386.578 100.925 386.174 100.898C380.089 100.898 375.156 95.9876 375.156 89.9303C375.156 83.8731 380.089 78.9628 386.174 78.9628V78.908Z" fill="url(#paint35_linear_7416_64117)"/>
<path opacity="0.3" d="M347.926 95.2155C346.573 95.2188 345.245 95.5947 344.085 96.3033C343.818 92.2873 340.539 89.1684 336.583 89.1679C335.744 89.1663 334.911 89.3097 334.119 89.592C332.983 85.8461 329.582 83.2898 325.73 83.2863C325.434 83.2674 325.138 83.2674 324.842 83.2863C321.218 83.5185 318.108 85.9948 317.014 89.5182C316.223 89.2359 315.389 89.0925 314.55 89.0941C310.591 89.094 307.307 92.2107 307.031 96.2296C304.303 94.5844 300.854 94.8571 298.409 96.9114C295.964 98.9656 295.048 102.36 296.119 105.397C297.19 108.434 300.019 110.46 303.189 110.463H304.023H315.583C315.927 110.483 316.272 110.483 316.616 110.463H317.504H347.111H347.926C350.704 110.602 353.331 109.173 354.761 106.746C356.19 104.318 356.19 101.287 354.761 98.8595C353.331 96.4321 350.704 95.003 347.926 95.1417V95.2155Z" fill="url(#paint36_linear_7416_64117)"/>
<path d="M326.484 123.713C326.987 123.713 327.395 123.219 327.395 122.61C327.395 122.001 326.987 121.507 326.484 121.507C325.98 121.507 325.572 122.001 325.572 122.61C325.572 123.219 325.98 123.713 326.484 123.713Z" fill="white"/>
<path d="M358.385 113.787C358.989 113.787 359.479 113.293 359.479 112.684C359.479 112.075 358.989 111.581 358.385 111.581C357.781 111.581 357.291 112.075 357.291 112.684C357.291 113.293 357.781 113.787 358.385 113.787Z" fill="white"/>
<path d="M388.464 124.081C389.168 124.081 389.74 123.752 389.74 123.346C389.74 122.94 389.168 122.61 388.464 122.61C387.759 122.61 387.188 122.94 387.188 123.346C387.188 123.752 387.759 124.081 388.464 124.081Z" fill="white"/>
<path d="M434.036 129.596C434.54 129.596 434.948 129.184 434.948 128.677C434.948 128.169 434.54 127.757 434.036 127.757C433.533 127.757 433.125 128.169 433.125 128.677C433.125 129.184 433.533 129.596 434.036 129.596Z" fill="white"/>
<path d="M417.083 107.904C417.687 107.904 418.177 107.575 418.177 107.169C418.177 106.763 417.687 106.434 417.083 106.434C416.479 106.434 415.989 106.763 415.989 107.169C415.989 107.575 416.479 107.904 417.083 107.904Z" fill="white"/>
<path d="M448.438 83.2721C449.042 83.2721 449.531 82.8606 449.531 82.353C449.531 81.8453 449.042 81.4338 448.438 81.4338C447.833 81.4338 447.344 81.8453 447.344 82.353C447.344 82.8606 447.833 83.2721 448.438 83.2721Z" fill="white"/>
<path d="M463.021 116.728C463.625 116.728 464.114 116.234 464.114 115.625C464.114 115.016 463.625 114.522 463.021 114.522C462.416 114.522 461.927 115.016 461.927 115.625C461.927 116.234 462.416 116.728 463.021 116.728Z" fill="white"/>
<path d="M364.125 176.708C363.774 176.563 363.371 176.723 363.221 177.066L362.085 179.747C362.016 179.915 362.017 180.103 362.089 180.269C362.162 180.436 362.299 180.567 362.47 180.634C362.655 180.719 362.869 180.72 363.054 180.636C363.24 180.553 363.378 180.393 363.432 180.2L364.568 177.519C364.648 177.178 364.459 176.831 364.125 176.708Z" fill="url(#paint37_linear_7416_64117)"/>
<path d="M363.11 176.34C362.806 176.196 362.457 176.356 362.327 176.699L361.344 179.399C361.228 179.748 361.375 180.139 361.677 180.286C361.985 180.417 362.33 180.251 362.46 179.908L363.443 177.227C363.508 177.06 363.509 176.87 363.446 176.702C363.383 176.534 363.261 176.403 363.11 176.34Z" fill="url(#paint38_linear_7416_64117)"/>
<path d="M361.719 175.242C361.466 175.084 361.175 175.259 361.067 175.634L360.248 178.567C360.198 178.75 360.199 178.956 360.251 179.138C360.303 179.32 360.402 179.464 360.525 179.538C360.778 179.695 361.07 179.52 361.178 179.145L361.997 176.213C362.047 176.029 362.046 175.823 361.994 175.641C361.942 175.459 361.843 175.315 361.719 175.242Z" fill="url(#paint39_linear_7416_64117)"/>
<path d="M361.16 174.879C360.967 174.799 360.747 174.795 360.55 174.868C360.354 174.94 360.199 175.083 360.121 175.263L358.816 178.212C358.645 178.585 358.832 179.015 359.236 179.181C359.639 179.32 360.09 179.141 360.253 178.777L361.558 175.909C361.678 175.728 361.703 175.508 361.625 175.308C361.548 175.109 361.378 174.952 361.16 174.879Z" fill="url(#paint40_linear_7416_64117)"/>
<defs>
<filter id="filter0_b_7416_64117" x="-275" y="-268" width="1097" height="888" filterUnits="userSpaceOnUse" color-interpolation-filters="sRGB">
<feFlood flood-opacity="0" result="BackgroundImageFix"/>
<feGaussianBlur in="BackgroundImage" stdDeviation="150"/>
<feComposite in2="SourceAlpha" operator="in" result="effect1_backgroundBlur_7416_64117"/>
<feBlend mode="normal" in="SourceGraphic" in2="effect1_backgroundBlur_7416_64117" result="shape"/>
</filter>
<linearGradient id="paint0_linear_7416_64117" x1="258.608" y1="231.284" x2="304.044" y2="159.59" gradientUnits="userSpaceOnUse">
<stop stop-color="#2516EF"/>
<stop offset="0.190625" stop-color="#776FEF"/>
<stop offset="0.383333" stop-color="#9248C0"/>
<stop offset="0.586458" stop-color="#D7699B"/>
<stop offset="0.789583" stop-color="#FF9E9F"/>
<stop offset="1" stop-color="#FFC141"/>
</linearGradient>
<linearGradient id="paint1_linear_7416_64117" x1="289" y1="345" x2="289" y2="292" gradientUnits="userSpaceOnUse">
<stop stop-color="#776FEF"/>
<stop offset="1" stop-color="#F4A661"/>
</linearGradient>
<linearGradient id="paint2_linear_7416_64117" x1="31.3344" y1="327.734" x2="156.808" y2="332.676" gradientUnits="userSpaceOnUse">
<stop stop-color="#27004F" stop-opacity="0.5"/>
<stop offset="1" stop-color="#004C81" stop-opacity="0.5"/>
</linearGradient>
<linearGradient id="paint3_linear_7416_64117" x1="272.473" y1="328.701" x2="516.028" y2="318.905" gradientUnits="userSpaceOnUse">
<stop stop-color="#27004F" stop-opacity="0.5"/>
<stop offset="1" stop-color="#004C81" stop-opacity="0.5"/>
</linearGradient>
<linearGradient id="paint4_linear_7416_64117" x1="234.008" y1="336.209" x2="234.008" y2="232.718" gradientUnits="userSpaceOnUse">
<stop stop-color="#88CFDA"/>
<stop offset="0.0864582" stop-color="#A0D3CE"/>
<stop offset="0.169792" stop-color="#C2D8BE"/>
<stop offset="0.253125" stop-color="#DDDCB1"/>
<stop offset="0.38" stop-color="#F0DFA7"/>
<stop offset="0.44" stop-color="#FBE0A2"/>
<stop offset="0.49" stop-color="#FFE1A0"/>
<stop offset="0.6" stop-color="#FFE9BB"/>
<stop offset="0.77" stop-color="#FFF5E0"/>
<stop offset="0.91" stop-color="#FFFCF7"/>
<stop offset="1" stop-color="white"/>
</linearGradient>
<linearGradient id="paint5_linear_7416_64117" x1="245.729" y1="182.904" x2="245.729" y2="230.313" gradientUnits="userSpaceOnUse">
<stop stop-color="#88AEDA"/>
<stop offset="0.04" stop-color="#8EAED4"/>
<stop offset="0.5" stop-color="#CBA895"/>
<stop offset="0.83" stop-color="#F1A56D"/>
<stop offset="1" stop-color="#FFA45E"/>
</linearGradient>
<linearGradient id="paint6_linear_7416_64117" x1="237.712" y1="191.177" x2="253.391" y2="191.177" gradientUnits="userSpaceOnUse">
<stop stop-color="#88CFDA"/>
<stop offset="0.04" stop-color="#8ED0D4"/>
<stop offset="0.5" stop-color="#CBD995"/>
<stop offset="0.83" stop-color="#F1DF6D"/>
<stop offset="1" stop-color="#FFE15E"/>
</linearGradient>
<linearGradient id="paint7_linear_7416_64117" x1="241.362" y1="192.096" x2="250.47" y2="192.096" gradientUnits="userSpaceOnUse">
<stop stop-color="#A1BAFF"/>
<stop offset="0.08" stop-color="#B5C9FF"/>
<stop offset="0.21" stop-color="#D0DDFF"/>
<stop offset="0.35" stop-color="#E5ECFF"/>
<stop offset="0.51" stop-color="#F4F7FF"/>
<stop offset="0.7" stop-color="#FCFDFF"/>
<stop offset="1" stop-color="white"/>
</linearGradient>
<linearGradient id="paint8_linear_7416_64117" x1="232.368" y1="129.098" x2="324.411" y2="175.572" gradientUnits="userSpaceOnUse">
<stop stop-color="#776FEF"/>
<stop offset="0.75" stop-color="#C7A7E3"/>
</linearGradient>
<linearGradient id="paint9_linear_7416_64117" x1="246.634" y1="148.209" x2="167.828" y2="167.579" gradientUnits="userSpaceOnUse">
<stop stop-color="#776FEF"/>
<stop offset="0.75" stop-color="#C7A7E3"/>
</linearGradient>
<linearGradient id="paint10_linear_7416_64117" x1="224.838" y1="30.8824" x2="266.054" y2="30.8824" gradientUnits="userSpaceOnUse">
<stop stop-color="#776FEF"/>
<stop offset="0.75" stop-color="#C7A7E3"/>
</linearGradient>
<linearGradient id="paint11_linear_7416_64117" x1="212.551" y1="109.211" x2="278.536" y2="109.211" gradientUnits="userSpaceOnUse">
<stop stop-color="#A1BAFF"/>
<stop offset="0.04" stop-color="#A9C0FF"/>
<stop offset="0.37" stop-color="#E7EDFF"/>
<stop offset="0.52" stop-color="white"/>
<stop offset="1" stop-color="#CEDBFF"/>
</linearGradient>
<linearGradient id="paint12_linear_7416_64117" x1="231.528" y1="88.4007" x2="257.76" y2="88.4007" gradientUnits="userSpaceOnUse">
<stop stop-color="#7633FF"/>
<stop offset="0.22" stop-color="#4E53FF"/>
<stop offset="0.44" stop-color="#2C6DFF"/>
<stop offset="0.65" stop-color="#1480FF"/>
<stop offset="0.84" stop-color="#058CFF"/>
<stop offset="1" stop-color="#0090FF"/>
</linearGradient>
<linearGradient id="paint13_linear_7416_64117" x1="322.139" y1="193.64" x2="326.747" y2="257.873" gradientUnits="userSpaceOnUse">
<stop stop-color="#F2994A"/>
<stop offset="0.04" stop-color="#F2994A"/>
<stop offset="0.37" stop-color="#F2994A" stop-opacity="0.8"/>
<stop offset="0.52" stop-color="#F2994A" stop-opacity="0.8"/>
<stop offset="1" stop-color="#F2994A" stop-opacity="0.8"/>
</linearGradient>
<linearGradient id="paint14_linear_7416_64117" x1="282.627" y1="198.498" x2="311.41" y2="198.498" gradientUnits="userSpaceOnUse">
<stop stop-color="#F2994A"/>
<stop offset="0.04" stop-color="#F2994A" stop-opacity="0.9"/>
<stop offset="0.37" stop-color="#F2994A" stop-opacity="0.9"/>
<stop offset="0.52" stop-color="#F2994A" stop-opacity="0.8"/>
<stop offset="1" stop-color="#F2994A" stop-opacity="0.8"/>
</linearGradient>
<linearGradient id="paint15_linear_7416_64117" x1="333.214" y1="199.818" x2="364.567" y2="199.818" gradientUnits="userSpaceOnUse">
<stop stop-color="#F2994A"/>
<stop offset="0.04" stop-color="#F2994A"/>
<stop offset="0.37" stop-color="#F2994A" stop-opacity="0.8"/>
<stop offset="0.52" stop-color="#F2994A"/>
<stop offset="1" stop-color="#F2994A" stop-opacity="0.9"/>
</linearGradient>
<linearGradient id="paint16_linear_7416_64117" x1="322.841" y1="203.86" x2="322.841" y2="255.147" gradientUnits="userSpaceOnUse">
<stop stop-color="#BBCDE2"/>
<stop offset="0.492708" stop-color="#8AB4E1"/>
<stop offset="1" stop-color="#6B98CB"/>
</linearGradient>
<linearGradient id="paint17_linear_7416_64117" x1="283.215" y1="173.536" x2="285.705" y2="178.274" gradientUnits="userSpaceOnUse">
<stop stop-color="#F2994A"/>
<stop offset="0.04" stop-color="#F2994A"/>
<stop offset="0.37" stop-color="#F2994A" stop-opacity="0.5"/>
<stop offset="0.52" stop-color="#F2994A" stop-opacity="0.24"/>
<stop offset="1" stop-color="#F2994A" stop-opacity="0.24"/>
</linearGradient>
<linearGradient id="paint18_linear_7416_64117" x1="284.697" y1="173.499" x2="286.536" y2="178.393" gradientUnits="userSpaceOnUse">
<stop stop-color="#F2994A"/>
<stop offset="0.04" stop-color="#F2994A"/>
<stop offset="0.37" stop-color="#F2994A" stop-opacity="0.5"/>
<stop offset="0.52" stop-color="#F2994A" stop-opacity="0.24"/>
<stop offset="1" stop-color="#F2994A" stop-opacity="0.24"/>
</linearGradient>
<linearGradient id="paint19_linear_7416_64117" x1="285.783" y1="172.668" x2="287.627" y2="177.563" gradientUnits="userSpaceOnUse">
<stop stop-color="#F2994A"/>
<stop offset="0.04" stop-color="#F2994A"/>
<stop offset="0.37" stop-color="#F2994A" stop-opacity="0.5"/>
<stop offset="0.52" stop-color="#F2994A" stop-opacity="0.24"/>
<stop offset="1" stop-color="#F2994A" stop-opacity="0.24"/>
</linearGradient>
<linearGradient id="paint20_linear_7416_64117" x1="286.424" y1="172.453" x2="288.915" y2="177.189" gradientUnits="userSpaceOnUse">
<stop stop-color="#F2994A"/>
<stop offset="0.04" stop-color="#F2994A"/>
<stop offset="0.37" stop-color="#F2994A" stop-opacity="0.5"/>
<stop offset="0.52" stop-color="#F2994A" stop-opacity="0.24"/>
<stop offset="1" stop-color="#F2994A" stop-opacity="0.24"/>
</linearGradient>
<linearGradient id="paint21_linear_7416_64117" x1="386.027" y1="324.813" x2="398.429" y2="324.813" gradientUnits="userSpaceOnUse">
<stop stop-color="#EA9C1F"/>
<stop offset="0.13" stop-color="#EA9C1F"/>
<stop offset="1" stop-color="#EA9C1F"/>
</linearGradient>
<linearGradient id="paint22_linear_7416_64117" x1="385.685" y1="326.182" x2="398.452" y2="326.182" gradientUnits="userSpaceOnUse">
<stop stop-color="#A5143A"/>
<stop offset="0.75" stop-color="#FF9E9F"/>
</linearGradient>
<linearGradient id="paint23_linear_7416_64117" x1="381.744" y1="304.602" x2="396.675" y2="304.602" gradientUnits="userSpaceOnUse">
<stop stop-color="#EA8C1F"/>
<stop offset="0.11" stop-color="#EA911F"/>
<stop offset="0.46" stop-color="#EA991F"/>
<stop offset="1" stop-color="#EA9C1F"/>
</linearGradient>
<linearGradient id="paint24_linear_7416_64117" x1="399.557" y1="308.824" x2="405.415" y2="308.824" gradientUnits="userSpaceOnUse">
<stop stop-color="#A5143A"/>
<stop offset="0.75" stop-color="#FF9E9F"/>
</linearGradient>
<linearGradient id="paint25_linear_7416_64117" x1="377.726" y1="273.151" x2="390.834" y2="273.151" gradientUnits="userSpaceOnUse">
<stop stop-color="#EA4D1F"/>
<stop offset="0.02" stop-color="#EA521F"/>
<stop offset="0.16" stop-color="#EA6D1F"/>
<stop offset="0.31" stop-color="#EA821F"/>
<stop offset="0.48" stop-color="#EA911F"/>
<stop offset="0.68" stop-color="#EA991F"/>
<stop offset="1" stop-color="#EA9C1F"/>
</linearGradient>
<linearGradient id="paint26_linear_7416_64117" x1="399.595" y1="304.408" x2="405.412" y2="304.408" gradientUnits="userSpaceOnUse">
<stop stop-color="#EA8C1F"/>
<stop offset="0.11" stop-color="#EA911F"/>
<stop offset="0.46" stop-color="#EA991F"/>
<stop offset="1" stop-color="#EA9C1F"/>
</linearGradient>
<linearGradient id="paint27_linear_7416_64117" x1="385.01" y1="293.738" x2="403.646" y2="293.738" gradientUnits="userSpaceOnUse">
<stop stop-color="#EA4D1F"/>
<stop offset="0.02" stop-color="#EA521F"/>
<stop offset="0.16" stop-color="#EA6D1F"/>
<stop offset="0.31" stop-color="#EA821F"/>
<stop offset="0.48" stop-color="#EA911F"/>
<stop offset="0.68" stop-color="#EA991F"/>
<stop offset="1" stop-color="#EA9C1F"/>
</linearGradient>
<linearGradient id="paint28_linear_7416_64117" x1="385.007" y1="272.977" x2="405.417" y2="272.977" gradientUnits="userSpaceOnUse">
<stop stop-color="#EA4D1F"/>
<stop offset="0.02" stop-color="#EA521F"/>
<stop offset="0.16" stop-color="#EA6D1F"/>
<stop offset="0.31" stop-color="#EA821F"/>
<stop offset="0.48" stop-color="#EA911F"/>
<stop offset="0.68" stop-color="#EA991F"/>
<stop offset="1" stop-color="#EA9C1F"/>
</linearGradient>
<linearGradient id="paint29_linear_7416_64117" x1="391.929" y1="213.052" x2="391.929" y2="282.169" gradientUnits="userSpaceOnUse">
<stop stop-color="#DF6886"/>
<stop offset="1" stop-color="#FF9E9F"/>
</linearGradient>
<linearGradient id="paint30_linear_7416_64117" x1="194.075" y1="194.671" x2="209.025" y2="194.671" gradientUnits="userSpaceOnUse">
<stop offset="0.12" stop-color="#935006"/>
<stop offset="0.43" stop-color="#A0570D"/>
<stop offset="0.75" stop-color="#A85C11"/>
</linearGradient>
<linearGradient id="paint31_linear_7416_64117" x1="169.391" y1="217.805" x2="185.06" y2="265.993" gradientUnits="userSpaceOnUse">
<stop stop-color="#27004F"/>
<stop offset="0.836458" stop-color="#0068A4"/>
</linearGradient>
<linearGradient id="paint32_linear_7416_64117" x1="154.221" y1="207.904" x2="154.221" y2="268.199" gradientUnits="userSpaceOnUse">
<stop stop-color="#776FEF"/>
<stop offset="1" stop-color="#8AB4E1"/>
</linearGradient>
<linearGradient id="paint33_linear_7416_64117" x1="187.216" y1="206.066" x2="187.216" y2="265.625" gradientUnits="userSpaceOnUse">
<stop stop-color="#776FEF"/>
<stop offset="1" stop-color="#8AB4E1"/>
</linearGradient>
<linearGradient id="paint34_linear_7416_64117" x1="384.26" y1="48.3254" x2="374.234" y2="97.3214" gradientUnits="userSpaceOnUse">
<stop stop-color="#88CFDA"/>
<stop offset="0.01" stop-color="#89CFD9"/>
<stop offset="0.48" stop-color="#C8D9BB"/>
<stop offset="0.82" stop-color="#F0DFA7"/>
<stop offset="1" stop-color="#FFE1A0"/>
</linearGradient>
<linearGradient id="paint35_linear_7416_64117" x1="375.101" y1="81.3574" x2="445.156" y2="81.3574" gradientUnits="userSpaceOnUse">
<stop stop-color="#A1BAFF"/>
<stop offset="0.09" stop-color="#ACC2FF"/>
<stop offset="0.5" stop-color="#D9E3FF"/>
<stop offset="0.82" stop-color="#F5F7FF"/>
<stop offset="1" stop-color="white"/>
</linearGradient>
<linearGradient id="paint36_linear_7416_64117" x1="295.67" y1="96.9302" x2="355.464" y2="96.9302" gradientUnits="userSpaceOnUse">
<stop stop-color="#A1BAFF"/>
<stop offset="0.09" stop-color="#ACC2FF"/>
<stop offset="0.5" stop-color="#D9E3FF"/>
<stop offset="0.82" stop-color="#F5F7FF"/>
<stop offset="1" stop-color="white"/>
</linearGradient>
<linearGradient id="paint37_linear_7416_64117" x1="363.31" y1="176.654" x2="363.31" y2="180.699" gradientUnits="userSpaceOnUse">
<stop stop-color="#F2994A" stop-opacity="0.8"/>
<stop offset="0.523958" stop-color="#F2994A"/>
<stop offset="1" stop-color="#F2994A" stop-opacity="0.24"/>
</linearGradient>
<linearGradient id="paint38_linear_7416_64117" x1="362.398" y1="176.287" x2="362.398" y2="180.331" gradientUnits="userSpaceOnUse">
<stop stop-color="#F2994A" stop-opacity="0.8"/>
<stop offset="0.523958" stop-color="#F2994A"/>
<stop offset="1" stop-color="#F2994A" stop-opacity="0.24"/>
</linearGradient>
<linearGradient id="paint39_linear_7416_64117" x1="361.122" y1="175.184" x2="361.122" y2="179.596" gradientUnits="userSpaceOnUse">
<stop stop-color="#F2994A" stop-opacity="0.8"/>
<stop offset="0.523958" stop-color="#F2994A"/>
<stop offset="1" stop-color="#F2994A" stop-opacity="0.24"/>
</linearGradient>
<linearGradient id="paint40_linear_7416_64117" x1="360.211" y1="174.816" x2="360.211" y2="179.228" gradientUnits="userSpaceOnUse">
<stop stop-color="#F2994A" stop-opacity="0.8"/>
<stop offset="0.523958" stop-color="#F2994A"/>
<stop offset="1" stop-color="#F2994A" stop-opacity="0.24"/>
</linearGradient>
</defs>
</svg>
