<svg xmlns="http://www.w3.org/2000/svg" xmlns:xlink="http://www.w3.org/1999/xlink" width="32" height="32" viewBox="0 0 32 32"><defs><linearGradient id="a47c25b2-841d-4db2-869b-f4ddc54fb43e" data-name="Безымянный градиент" x1="13.33" y1="33.48" x2="13.33" y2="2.47" gradientTransform="matrix(1, 0, 0, -1, 0, 34)" gradientUnits="userSpaceOnUse"><stop offset="0.3" stop-color="#ff1b2d"/><stop offset="0.44" stop-color="#fa1a2c"/><stop offset="0.59" stop-color="#ed1528"/><stop offset="0.76" stop-color="#d60e21"/><stop offset="0.93" stop-color="#b70519"/><stop offset="1" stop-color="#a70014"/></linearGradient><linearGradient id="b7f8b9fb-39f4-400d-aa80-91e2048528f4" data-name="Безымянный градиент 2" x1="21.37" y1="31.65" x2="21.37" y2="4.22" gradientTransform="matrix(1, 0, 0, -1, 0, 34)" gradientUnits="userSpaceOnUse"><stop offset="0" stop-color="#9c0000"/><stop offset="0.7" stop-color="#ff4b4b"/></linearGradient></defs><g><path d="M10.73,25a14,14,0,0,1-3-8.64v-.76a14,14,0,0,1,3-8.64,12,12,0,0,1,9.52-4.87,11.57,11.57,0,0,1,6.41,2A16,16,0,0,0,16.06,0H16a16,16,0,0,0-.76,32L16,32a15.93,15.93,0,0,0,10.66-4.07,11.57,11.57,0,0,1-6.41,2A12,12,0,0,1,10.73,25Z" fill="url(#a47c25b2-841d-4db2-869b-f4ddc54fb43e)"/><path d="M10.73,7a7.18,7.18,0,0,1,5.44-2.77c4.66,0,8.43,5.28,8.43,11.79s-3.77,11.8-8.43,11.8A7.19,7.19,0,0,1,10.73,25a12,12,0,0,0,9.52,4.87,11.54,11.54,0,0,0,6.41-2,16,16,0,0,0,0-23.86,11.57,11.57,0,0,0-6.41-2A12,12,0,0,0,10.73,7Z" fill="url(#b7f8b9fb-39f4-400d-aa80-91e2048528f4)"/></g></svg>