<svg xmlns="http://www.w3.org/2000/svg" xmlns:xlink="http://www.w3.org/1999/xlink" width="32" height="32" viewBox="0 0 32 32"><defs><linearGradient id="bc7a120f-9244-48dc-8717-ed66e2d771eb" data-name="Безымянный градиент" x1="28.55" y1="27.28" x2="2.33" y2="1.99" gradientTransform="matrix(1, 0, 0, -1, 0, 32)" gradientUnits="userSpaceOnUse"><stop offset="0.05" stop-color="#fff44f"/><stop offset="0.11" stop-color="#ffe847"/><stop offset="0.22" stop-color="#ffc830"/><stop offset="0.37" stop-color="#ff980e"/><stop offset="0.4" stop-color="#ff8b16"/><stop offset="0.46" stop-color="#ff672a"/><stop offset="0.53" stop-color="#ff3647"/><stop offset="0.7" stop-color="#e31587"/></linearGradient><radialGradient id="a6012aab-2554-4268-96fe-516e6b73e274" data-name="Безымянный градиент 2" cx="188.34" cy="93.47" r="501.01" gradientTransform="matrix(0.07, 0, 0, -0.06, 14.94, 9.58)" gradientUnits="userSpaceOnUse"><stop offset="0.13" stop-color="#ffbd4f"/><stop offset="0.19" stop-color="#ffac31"/><stop offset="0.25" stop-color="#ff9d17"/><stop offset="0.28" stop-color="#ff980e"/><stop offset="0.4" stop-color="#ff563b"/><stop offset="0.47" stop-color="#ff3750"/><stop offset="0.71" stop-color="#f5156c"/><stop offset="0.78" stop-color="#eb0878"/><stop offset="0.86" stop-color="#e50080"/></radialGradient><radialGradient id="f0d6de4f-eabd-4c9b-bb6a-ce9a2e6115a8" data-name="Безымянный градиент 3" cx="5.27" cy="-111.35" r="501.01" gradientTransform="matrix(0.07, 0, 0, -0.06, 14.94, 9.58)" gradientUnits="userSpaceOnUse"><stop offset="0.3" stop-color="#960e18"/><stop offset="0.35" stop-color="#b11927" stop-opacity="0.74"/><stop offset="0.43" stop-color="#db293d" stop-opacity="0.34"/><stop offset="0.5" stop-color="#f5334b" stop-opacity="0.09"/><stop offset="0.53" stop-color="#ff3750" stop-opacity="0"/></radialGradient><radialGradient id="e696f212-76e0-45f9-bc3d-f21b09cbdc22" data-name="Безымянный градиент 4" cx="65.68" cy="207.17" r="362.96" gradientTransform="matrix(0.07, 0, 0, -0.06, 14.94, 9.58)" gradientUnits="userSpaceOnUse"><stop offset="0.13" stop-color="#fff44f"/><stop offset="0.25" stop-color="#ffdc3e"/><stop offset="0.51" stop-color="#ff9d12"/><stop offset="0.53" stop-color="#ff980e"/></radialGradient><radialGradient id="f8a47bb2-f516-4bdf-93f7-b35553d9c16e" data-name="Безымянный градиент 5" cx="-50.14" cy="-242.22" r="238.55" gradientTransform="matrix(0.07, 0, 0, -0.06, 14.94, 9.58)" gradientUnits="userSpaceOnUse"><stop offset="0.35" stop-color="#3a8ee6"/><stop offset="0.47" stop-color="#5c79f0"/><stop offset="0.67" stop-color="#9059ff"/><stop offset="1" stop-color="#c139e6"/></radialGradient><radialGradient id="ba8fd75e-a398-4629-9665-2c98bf00c728" data-name="Безымянный градиент 6" cx="-17.43" cy="-31.33" r="126.48" gradientTransform="matrix(0.06, -0.02, -0.02, -0.07, 16.31, 10.35)" gradientUnits="userSpaceOnUse"><stop offset="0.21" stop-color="#9059ff" stop-opacity="0"/><stop offset="0.28" stop-color="#8c4ff3" stop-opacity="0.06"/><stop offset="0.75" stop-color="#7716a8" stop-opacity="0.45"/><stop offset="0.97" stop-color="#6e008b" stop-opacity="0.6"/></radialGradient><radialGradient id="b3c4db7d-d742-4ad0-b63a-57a1827a3f9c" data-name="Безымянный градиент 7" cx="-1.06" cy="113.97" r="171.62" gradientTransform="matrix(0.07, 0, 0, -0.06, 14.94, 9.58)" gradientUnits="userSpaceOnUse"><stop offset="0" stop-color="#ffe226"/><stop offset="0.12" stop-color="#ffdb27"/><stop offset="0.3" stop-color="#ffc82a"/><stop offset="0.5" stop-color="#ffa930"/><stop offset="0.73" stop-color="#ff7e37"/><stop offset="0.79" stop-color="#ff7139"/></radialGradient><radialGradient id="a1a11a9d-2ed4-46de-b6bd-2d1fe3b2c664" data-name="Безымянный градиент 8" cx="133.84" cy="222.82" r="732.21" gradientTransform="matrix(0.07, 0, 0, -0.06, 14.94, 9.58)" gradientUnits="userSpaceOnUse"><stop offset="0.11" stop-color="#fff44f"/><stop offset="0.46" stop-color="#ff980e"/><stop offset="0.62" stop-color="#ff5634"/><stop offset="0.72" stop-color="#ff3647"/><stop offset="0.9" stop-color="#e31587"/></radialGradient><radialGradient id="a729cfef-aa49-4ed3-b067-abd95ed87032" data-name="Безымянный градиент 9" cx="187.96" cy="245.77" r="536.37" gradientTransform="matrix(0.01, 0.06, 0.04, 0, 7.24, -10.53)" gradientUnits="userSpaceOnUse"><stop offset="0" stop-color="#fff44f"/><stop offset="0.06" stop-color="#ffe847"/><stop offset="0.17" stop-color="#ffc830"/><stop offset="0.3" stop-color="#ff980e"/><stop offset="0.36" stop-color="#ff8b16"/><stop offset="0.45" stop-color="#ff672a"/><stop offset="0.57" stop-color="#ff3647"/><stop offset="0.74" stop-color="#e31587"/></radialGradient><radialGradient id="afb0f036-2d84-4f84-8f59-a4c4c02cc626" data-name="Безымянный градиент 10" cx="-5.1" cy="50.41" r="457.12" gradientTransform="matrix(0.07, 0, 0, -0.06, 14.94, 9.58)" gradientUnits="userSpaceOnUse"><stop offset="0.14" stop-color="#fff44f"/><stop offset="0.48" stop-color="#ff980e"/><stop offset="0.59" stop-color="#ff5634"/><stop offset="0.66" stop-color="#ff3647"/><stop offset="0.9" stop-color="#e31587"/></radialGradient><radialGradient id="b1c47555-dae4-4b4a-aff4-ce365c1403a8" data-name="Безымянный градиент 11" cx="115.57" cy="23.65" r="500.32" gradientTransform="matrix(0.07, 0, 0, -0.06, 14.94, 9.58)" gradientUnits="userSpaceOnUse"><stop offset="0.09" stop-color="#fff44f"/><stop offset="0.23" stop-color="#ffe141"/><stop offset="0.51" stop-color="#ffaf1e"/><stop offset="0.63" stop-color="#ff980e"/></radialGradient><linearGradient id="ee07eede-2da5-47a1-b03e-858364670257" data-name="Безымянный градиент 12" x1="28.12" y1="27.3" x2="5.93" y2="5.11" gradientTransform="matrix(1, 0, 0, -1, 0, 32)" gradientUnits="userSpaceOnUse"><stop offset="0.17" stop-color="#fff44f" stop-opacity="0.8"/><stop offset="0.27" stop-color="#fff44f" stop-opacity="0.63"/><stop offset="0.49" stop-color="#fff44f" stop-opacity="0.22"/><stop offset="0.6" stop-color="#fff44f" stop-opacity="0"/></linearGradient></defs><g><path d="M30.85,10.73a8.74,8.74,0,0,0-3.22-3.92,15.47,15.47,0,0,1,1.62,4.7v0c-1.81-4.37-4.89-6.13-7.39-10-.13-.19-.26-.39-.38-.59L21.31.65A3,3,0,0,1,21.07,0s0,0,0,0H21a11.24,11.24,0,0,0-5.51,8.62,8,8,0,0,0-4.41,1.64,4,4,0,0,0-.42-.3,7,7,0,0,1,0-3.79A11.74,11.74,0,0,0,6.75,9.05h0c-.63-.78-.59-3.35-.55-3.88a3,3,0,0,0-.53.27,11.66,11.66,0,0,0-1.57,1.3,13.77,13.77,0,0,0-1.5,1.74A12.91,12.91,0,0,0,.44,13.17a.43.43,0,0,1,0,.11c0,.13-.14.82-.16,1v0A14.05,14.05,0,0,0,0,16.42v.08A15.77,15.77,0,0,0,16,32,15.88,15.88,0,0,0,31.81,19.12c0-.2.05-.4.08-.6a15.6,15.6,0,0,0-1-7.79ZM12.38,22.87l.22.1h0l-.23-.11ZM29.26,11.55v0Z" transform="translate(0 0)" fill="url(#bc7a120f-9244-48dc-8717-ed66e2d771eb)"/><path d="M30.85,10.73a8.74,8.74,0,0,0-3.22-3.92,15.47,15.47,0,0,1,1.62,4.7v0A13.61,13.61,0,0,1,28.76,22c-1.84,3.81-6.28,7.72-13.24,7.53C8,29.33,1.38,23.93.15,16.87a6.46,6.46,0,0,1,.11-2.59A11.15,11.15,0,0,0,0,16.42v.08A15.77,15.77,0,0,0,16,32,15.87,15.87,0,0,0,31.81,19.12c0-.2.05-.4.08-.6A15.6,15.6,0,0,0,30.85,10.73Z" transform="translate(0 0)" fill="url(#a6012aab-2554-4268-96fe-516e6b73e274)"/><path d="M30.85,10.73a8.74,8.74,0,0,0-3.22-3.92,15.47,15.47,0,0,1,1.62,4.7v0A13.61,13.61,0,0,1,28.76,22c-1.84,3.81-6.28,7.72-13.24,7.53C8,29.33,1.38,23.93.15,16.87a6.46,6.46,0,0,1,.11-2.59A11.15,11.15,0,0,0,0,16.42v.08A15.77,15.77,0,0,0,16,32,15.87,15.87,0,0,0,31.81,19.12c0-.2.05-.4.08-.6A15.6,15.6,0,0,0,30.85,10.73Z" transform="translate(0 0)" fill="url(#f0d6de4f-eabd-4c9b-bb6a-ce9a2e6115a8)"/><path d="M23.06,12.55l.1.08a8.18,8.18,0,0,0-1.49-1.88C16.69,5.93,20.37.3,21,0h0a11.24,11.24,0,0,0-5.51,8.62,5.12,5.12,0,0,1,.56,0,8.15,8.15,0,0,1,7,4Z" transform="translate(0 0)" fill="url(#e696f212-76e0-45f9-bc3d-f21b09cbdc22)"/><path d="M16.05,13.52a3.83,3.83,0,0,1-1.93,1.71c-4.55,0-5.29,2.67-5.29,2.67A6.56,6.56,0,0,0,12.6,23l.27.13c.16.06.31.13.47.18a7.36,7.36,0,0,0,2.08.39c8,.36,9.54-9.24,3.77-12a5.75,5.75,0,0,1,3.87.91,8.13,8.13,0,0,0-7-4l-.57,0a8.21,8.21,0,0,0-4.4,1.65c.24.2.52.47,1.1,1,1.09,1,3.87,2.11,3.88,2.24Z" transform="translate(0 0)" fill="url(#f8a47bb2-f516-4bdf-93f7-b35553d9c16e)"/><path d="M16.05,13.52a3.83,3.83,0,0,1-1.93,1.71c-4.55,0-5.29,2.67-5.29,2.67A6.56,6.56,0,0,0,12.6,23l.27.13c.16.06.31.13.47.18a7.36,7.36,0,0,0,2.08.39c8,.36,9.54-9.24,3.77-12a5.75,5.75,0,0,1,3.87.91,8.13,8.13,0,0,0-7-4l-.57,0a8.21,8.21,0,0,0-4.4,1.65c.24.2.52.47,1.1,1,1.09,1,3.87,2.11,3.88,2.24Z" transform="translate(0 0)" fill="url(#ba8fd75e-a398-4629-9665-2c98bf00c728)"/><path d="M10.32,9.74l.33.22a7,7,0,0,1,0-3.79A11.74,11.74,0,0,0,6.75,9.05a8.21,8.21,0,0,1,3.57.69Z" transform="translate(0 0)" fill="url(#b3c4db7d-d742-4ad0-b63a-57a1827a3f9c)"/><path d="M.15,16.87C1.38,23.93,8,29.33,15.52,29.54c7,.19,11.4-3.72,13.24-7.53a13.61,13.61,0,0,0,.5-10.46v0c.57,3.59-1.32,7.07-4.27,9.42v0c-5.75,4.53-11.25,2.74-12.36,2l-.23-.11C9,21.32,7.65,18.37,8,15.83a4.12,4.12,0,0,1-3.8-2.31A6.22,6.22,0,0,1,10,13.29a8.2,8.2,0,0,0,6,.23c0-.13-2.8-1.2-3.89-2.24-.58-.55-.85-.82-1.1-1s-.27-.21-.41-.3l-.33-.21a7.93,7.93,0,0,0-3.57-.69h0c-.64-.78-.59-3.35-.56-3.89a3.5,3.5,0,0,0-.53.28A10.76,10.76,0,0,0,4.1,6.75,13,13,0,0,0,2.6,8.48a12.88,12.88,0,0,0-2.15,4.7,11.17,11.17,0,0,0-.3,3.69Z" transform="translate(0 0)" fill="url(#a1a11a9d-2ed4-46de-b6bd-2d1fe3b2c664)"/><path d="M21.67,10.75a8.18,8.18,0,0,1,1.49,1.88l.24.19C27,16.06,25.13,20.64,25,21c3-2.35,4.84-5.83,4.27-9.42-1.81-4.37-4.89-6.13-7.39-10-.13-.19-.26-.39-.38-.59L21.31.65A3,3,0,0,1,21.07,0s0,0,0,0H21C20.37.3,16.69,5.93,21.67,10.75Z" transform="translate(0 0)" fill="url(#a729cfef-aa49-4ed3-b067-abd95ed87032)"/><path d="M23.4,12.82l-.24-.2-.1-.07a5.73,5.73,0,0,0-3.86-.91c5.76,2.79,4.21,12.39-3.77,12a7.43,7.43,0,0,1-2.09-.39l-.47-.18L12.6,23h0c1.11.73,6.61,2.53,12.36-2v0C25.13,20.64,27,16.06,23.4,12.82Z" transform="translate(0 0)" fill="url(#afb0f036-2d84-4f84-8f59-a4c4c02cc626)"/><path d="M8.83,17.9s.74-2.67,5.29-2.67a3.83,3.83,0,0,0,1.93-1.71c0-.39-2.91,1.18-6-.23a6.19,6.19,0,0,0-5.89.23,4.09,4.09,0,0,0,3.79,2.31c-.3,2.53,1.09,5.49,4.44,7l.22.1A6.54,6.54,0,0,1,8.83,17.9Z" transform="translate(0 0)" fill="url(#b1c47555-dae4-4b4a-aff4-ce365c1403a8)"/><path d="M30.85,10.73a8.74,8.74,0,0,0-3.22-3.92,15.47,15.47,0,0,1,1.62,4.7v0c-1.81-4.37-4.89-6.13-7.39-10-.13-.19-.26-.39-.38-.59L21.31.65A3,3,0,0,1,21.07,0s0,0,0,0H21a11.24,11.24,0,0,0-5.51,8.62,5.25,5.25,0,0,1,.56,0,8.15,8.15,0,0,1,7,4,5.66,5.66,0,0,0-3.86-.9c5.76,2.78,4.21,12.39-3.77,12a7.14,7.14,0,0,1-2.09-.38l-.47-.19L12.61,23h0l-.24-.11.23.11A6.57,6.57,0,0,1,8.83,17.9s.74-2.67,5.29-2.67a3.83,3.83,0,0,0,1.93-1.71c0-.13-2.79-1.2-3.88-2.24-.58-.55-.86-.82-1.1-1a3.19,3.19,0,0,0-.42-.3,7,7,0,0,1,0-3.79A11.74,11.74,0,0,0,6.75,9.05h0c-.64-.78-.6-3.35-.56-3.88a3,3,0,0,0-.53.27,12.32,12.32,0,0,0-1.57,1.3A12.93,12.93,0,0,0,2.6,8.48,12.59,12.59,0,0,0,.45,13.17l0,.11c0,.13-.16.83-.18,1h0A15.83,15.83,0,0,0,0,16.42v.08A15.77,15.77,0,0,0,16,32,15.88,15.88,0,0,0,31.81,19.12c0-.2.05-.4.08-.6a15.6,15.6,0,0,0-1-7.79Zm-1.59.8v0Z" transform="translate(0 0)" fill="url(#ee07eede-2da5-47a1-b03e-858364670257)"/></g></svg>