<svg xmlns="http://www.w3.org/2000/svg" width="19" height="18" viewBox="0 0 19 18"><path d="M9.5,18c-.1,0-.3-.1-.4-.1L1.7,10A6.9,6.9,0,0,1,.4,8,5.87,5.87,0,0,1,0,5.7,5.93,5.93,0,0,1,.5,3.4a5.58,5.58,0,0,1,1.4-2A6.66,6.66,0,0,1,3.9.2,5.45,5.45,0,0,1,8.2.8,6.89,6.89,0,0,1,9.5,1.9,6.89,6.89,0,0,1,10.8.8,5.22,5.22,0,0,1,12.9.1a5.34,5.34,0,0,1,2.2.2,4.66,4.66,0,0,1,2,1.2,6.69,6.69,0,0,1,1.4,1.9A5.93,5.93,0,0,1,19,5.7,5.87,5.87,0,0,1,18.6,8a8.17,8.17,0,0,1-1.2,2h0L9.9,17.9C9.8,17.9,9.6,18,9.5,18ZM5.5,1.1a3.4,3.4,0,0,0-1.4.2,5.07,5.07,0,0,0-1.6.9A4.57,4.57,0,0,0,1.4,3.8a5,5,0,0,0,0,3.8,4.35,4.35,0,0,0,1,1.6l7.1,7.5,7.1-7.5h0a5.37,5.37,0,0,0,1-1.6,4.22,4.22,0,0,0,.3-1.9,5.85,5.85,0,0,0-.4-1.9,3.27,3.27,0,0,0-1.1-1.5,5.37,5.37,0,0,0-1.6-1A3.72,3.72,0,0,0,13,1.1a6.36,6.36,0,0,0-1.8.6A5.71,5.71,0,0,0,9.8,3c0,.1-.1.2-.3.2h0A.52.52,0,0,1,9.1,3,3.48,3.48,0,0,0,7.7,1.7,2.72,2.72,0,0,0,6,1.1Z" fill="#d7699b"/><path d="M12,15.4c-.1,0-.3-.1-.4-.1l-2-2.1a.6.6,0,0,1,0-.8.48.48,0,0,1,.7,0h0l2,2.1a.6.6,0,0,1,0,.8A1,1,0,0,1,12,15.4Zm2.5-2.7a1,1,0,0,1-.3-.1l-2-2.1a.6.6,0,0,1,0-.8.48.48,0,0,1,.7,0h0l2,2.1a.51.51,0,0,1-.4.9ZM17,10.1a1,1,0,0,1-.3-.1L14.5,7.6a2.6,2.6,0,0,0-3.8,0h0l-1,1.1a2.12,2.12,0,0,1-3.1,0h0L5.9,8a1.5,1.5,0,0,1-.4-1.1,2.1,2.1,0,0,1,.4-1.1L9.1,2.3a.48.48,0,0,1,.7,0h0a.48.48,0,0,1,0,.7L6.6,6.5a.76.76,0,0,0-.2.4c0,.1.1.3.1.4l.5.6A1.24,1.24,0,0,0,8.7,8l.1-.1,1-1.1a3.62,3.62,0,0,1,5.1-.1l.1.1,2.3,2.4a.6.6,0,0,1,0,.8A1,1,0,0,1,17,10.1Z" fill="#d7699b"/></svg>