<svg xmlns="http://www.w3.org/2000/svg" xmlns:xlink="http://www.w3.org/1999/xlink" width="32" height="32" viewBox="0 0 32 32"><defs><linearGradient id="a42c410a-5703-4eb6-b57d-f9777cae1600" data-name="Безымянный градиент 39" x1="-56.22" y1="264.82" x2="-55.95" y2="265.49" gradientTransform="matrix(22.26, 0, 0, -26.1, 1254.33, 6927.59)" gradientUnits="userSpaceOnUse">
<stop offset="0" stop-color="#9a38fb"/><stop offset="1" stop-color="#d13075"/></linearGradient><linearGradient id="f0d390f1-23b9-4aec-84ea-44dcc94debb9" data-name="Безымянный градиент 40" x1="-55.65" y1="264.83" x2="-56.21" y2="265.19" gradientTransform="matrix(22.26, 0, 0, -26.1, 1254.33, 6927.59)" gradientUnits="userSpaceOnUse"><stop offset="0" stop-color="#79c5ff"/><stop offset="1" stop-color="#fff" stop-opacity="0"/></linearGradient><linearGradient id="a31aa8f2-8698-42f5-8001-b16051a6a83a" data-name="Безымянный градиент 41" x1="-53.82" y1="266.56" x2="-53.84" y2="267.12" gradientTransform="matrix(12, 0, 0, -31.48, 649.04, 8421.89)" gradientUnits="userSpaceOnUse"><stop offset="0" stop-color="#0892ff"/><stop offset="1" stop-color="#a51fff"/></linearGradient><linearGradient id="be49f7a6-79e9-426a-8678-570715f681e7" data-name="Безымянный градиент 42" x1="-57.19" y1="255.7" x2="-56.82" y2="255.71" gradientTransform="matrix(32.03, 0, 0, -10.22, 1840.89, 2642.3)" gradientUnits="userSpaceOnUse"><stop offset="0" stop-color="#005eb1"/><stop offset="1" stop-color="#8900e4"/></linearGradient><linearGradient id="b3fd72c8-349a-4e13-bb84-c289724d8d9e" data-name="Безымянный градиент 43" x1="-57.28" y1="266.5" x2="-56.95" y2="266.85" gradientTransform="matrix(31.33, 0, 0, -31.11, 1799.44, 8319.18)" gradientUnits="userSpaceOnUse"><stop offset="0" stop-color="#27a0ff"/><stop offset="1" stop-color="#bd47ff"/></linearGradient><linearGradient id="a34c69df-c1e4-4b92-8c5d-d3b3fad997a7" data-name="Безымянный градиент 44" x1="-57.61" y1="264.94" x2="-57.23" y2="265.21" gradientTransform="matrix(36.6, 0, 0, -26.01, 2112.54, 6902.41)" gradientUnits="userSpaceOnUse"><stop offset="0" stop-color="#902eff"/><stop offset="1" stop-color="#ff5858"/></linearGradient><linearGradient id="b1083cdc-508f-4ec2-88fd-99b0c71879f5" data-name="Безымянный градиент 55" x1="-57.39" y1="264.08" x2="-57.28" y2="265.16" gradientTransform="matrix(36.6, 0, 0, -26.01, 2112.54, 6902.41)" gradientUnits="userSpaceOnUse"><stop offset="0" stop-color="#fff"/><stop offset="1" stop-color="#fff" stop-opacity="0"/></linearGradient><linearGradient id="b398edfb-537f-4b3e-aa5b-3b2dc50cbbab" data-name="Безымянный градиент 46" x1="-57.48" y1="267.39" x2="-57.01" y2="267.86" gradientTransform="matrix(36.7, 0, 0, -37.27, 2118, 9988.91)" gradientUnits="userSpaceOnUse"><stop offset="0" stop-color="#a966ff"/><stop offset="1" stop-color="#f14e59"/></linearGradient><linearGradient id="bccc074d-957f-49e9-a5a2-340a5177add7" x1="-58.53" y1="266.51" x2="-57.16" y2="267.68" gradientTransform="matrix(36.7, 0, 0, -37.27, 2118, 9988.91)" xlink:href="#b1083cdc-508f-4ec2-88fd-99b0c71879f5"/><linearGradient id="faaa5a2f-9e97-4730-8f12-006018373d01" data-name="Безымянный градиент 48" x1="-57.44" y1="265.08" x2="-56.56" y2="265.9" gradientTransform="matrix(23.44, 0, 0, -24.35, 1364.86, 6485.49)" gradientUnits="userSpaceOnUse"><stop offset="0" stop-color="#9d6dd7"/><stop offset="1" stop-color="#ec2f48"/></linearGradient><linearGradient id="a18e8cc4-5e5a-44ae-9d49-e5a5d06fed6b" data-name="Безымянный градиент 49" x1="-57.23" y1="267.25" x2="-57" y2="267.78" gradientTransform="matrix(23.44, 0, 0, -37.42, 1365.15, 10029.68)" gradientUnits="userSpaceOnUse"><stop offset="0" stop-color="#a554ff"/><stop offset="1" stop-color="#ff788e"/></linearGradient><linearGradient id="a29fedc1-e4d1-4cfc-8f7e-8ecb44111e33" x1="-57.83" y1="267.41" x2="-57.09" y2="267.68" gradientTransform="matrix(23.44, 0, 0, -37.42, 1365.15, 10029.68)" xlink:href="#b1083cdc-508f-4ec2-88fd-99b0c71879f5"/>
<linearGradient id="a8cb5e00-d966-4485-80c5-c5ca225c3455" data-name="Безымянный градиент 51" x1="-57.14" y1="259.17" x2="-57.21" y2="258.95" gradientTransform="matrix(30.19, 0, 0, -14.47, 1744.68, 3751.04)" gradientUnits="userSpaceOnUse"><stop offset="0" stop-color="#ff224e"/><stop offset="1" stop-color="#ffa2a3"/></linearGradient><linearGradient id="ba55e6f3-c863-48fc-a00a-14c7d188ad7e" x1="-57.19" y1="258.81" x2="-57.17" y2="259.01" gradientTransform="matrix(30.19, 0, 0, -14.47, 1744.68, 3751.04)" xlink:href="#b1083cdc-508f-4ec2-88fd-99b0c71879f5"/><linearGradient id="f6746faf-5091-47f5-bcd3-ad8fa23afc78" data-name="Безымянный градиент 53" x1="-56.53" y1="266.19" x2="-56.61" y2="265.72" gradientTransform="matrix(15.91, 0, 0, -28.84, 928.04, 7684.38)" gradientUnits="userSpaceOnUse"><stop offset="0" stop-color="#fa4f57"/><stop offset="1" stop-color="#e0ade8"/></linearGradient><linearGradient id="a933eced-860f-4bc3-b595-dbbdd346f417" x1="-56.62" y1="265.93" x2="-56.49" y2="266" gradientTransform="matrix(15.91, 0, 0, -28.84, 928.04, 7684.38)" xlink:href="#b1083cdc-508f-4ec2-88fd-99b0c71879f5"/><linearGradient id="a019d540-3489-468f-990f-e6c4e00769cb" data-name="Безымянный градиент 38" x1="-747.36" y1="256.18" x2="-747.61" y2="255.86" gradientTransform="matrix(81.17, 0, 0, -78.07, 60685.65, 20004.94)" gradientUnits="userSpaceOnUse">
<stop offset="0" stop-color="#fc6268"/><stop offset="0.53" stop-color="#bf0eff"/><stop offset="1" stop-color="#3995ff"/></linearGradient><linearGradient id="abf57586-5365-4987-80e1-8fd729ee24a0" x1="-730.16" y1="232.63" x2="-729.87" y2="233.16" gradientTransform="matrix(28.29, 0, 0, -33.29, 20662.25, 7759.91)" xlink:href="#a42c410a-5703-4eb6-b57d-f9777cae1600"/><linearGradient id="b55a2d21-acfa-4e0e-966f-8d813c6c2120" x1="-729.56" y1="232.64" x2="-730.16" y2="232.92" gradientTransform="matrix(28.29, 0, 0, -33.29, 20662.25, 7759.91)" xlink:href="#f0d390f1-23b9-4aec-84ea-44dcc94debb9"/><linearGradient id="ab76b629-67f7-4514-8c3e-74f936b99dde" x1="-707.08" y1="240.05" x2="-707.19" y2="240.49" gradientTransform="matrix(15.25, 0, 0, -40.16, 10790.57, 9668.82)" xlink:href="#a31aa8f2-8698-42f5-8001-b16051a6a83a"/><linearGradient id="e88900a2-1b62-4c35-a4cb-f3e7e8548e89" x1="-738.48" y1="173.03" x2="-738.19" y2="173.11" gradientTransform="matrix(40.72, 0, 0, -13.03, 30080.07, 2285.33)" xlink:href="#be49f7a6-79e9-426a-8678-570715f681e7"/><linearGradient id="e0f3ec96-23b6-4fdd-96ec-65d0c720ee6c" x1="-738.19" y1="239.66" x2="-737.93" y2="239.95" gradientTransform="matrix(39.83, 0, 0, -39.67, 29404.56, 9537.61)" xlink:href="#b3fd72c8-349a-4e13-bb84-c289724d8d9e"/><linearGradient id="b6925ae5-f958-442b-8a25-271837fa6e5f" x1="-740.95" y1="232.46" x2="-740.64" y2="232.87" gradientTransform="matrix(46.53, 0, 0, -33.18, 34480.33, 7727.75)" xlink:href="#a34c69df-c1e4-4b92-8c5d-d3b3fad997a7"/><linearGradient id="bdf1fcd9-6165-4725-96e9-184cb9237211" x1="-740.8" y1="231.16" x2="-740.72" y2="232.85" gradientTransform="matrix(46.53, 0, 0, -33.18, 34480.33, 7727.75)" xlink:href="#b1083cdc-508f-4ec2-88fd-99b0c71879f5"/><linearGradient id="a5b6a088-2d16-41c7-b1e8-cb894d97df3e" x1="-740.91" y1="245.03" x2="-740.53" y2="245.41" gradientTransform="matrix(46.65, 0, 0, -47.53, 34569.21, 11670.73)" xlink:href="#b398edfb-537f-4b3e-aa5b-3b2dc50cbbab"/><linearGradient id="aecf29ec-99ff-45cf-b47a-3d941a8ef8a3" x1="-741.76" y1="244.34" x2="-740.65" y2="245.26" gradientTransform="matrix(46.65, 0, 0, -47.53, 34569.21, 11670.73)" xlink:href="#b1083cdc-508f-4ec2-88fd-99b0c71879f5"/><linearGradient id="a5b15cfe-3cac-4b8e-b0b4-231bd85f6bb5" x1="-732.73" y1="230.68" x2="-731.98" y2="231.33" gradientTransform="matrix(29.79, 0, 0, -31.05, 21849.52, 7195.06)" xlink:href="#faaa5a2f-9e97-4730-8f12-006018373d01"/><linearGradient id="ad8580b4-757f-4a46-964e-75f4d54368d8" x1="-732.77" y1="245.04" x2="-732.33" y2="245.45" gradientTransform="matrix(29.8, 0, 0, -47.72, 21854.53, 11722.79)" xlink:href="#a18e8cc4-5e5a-44ae-9d49-e5a5d06fed6b"/><linearGradient id="bd65e25a-9745-4947-9871-c4ec0354e9bc" x1="-733.88" y1="245.12" x2="-732.38" y2="245.33" gradientTransform="matrix(29.8, 0, 0, -47.72, 21854.53, 11722.79)" xlink:href="#b1083cdc-508f-4ec2-88fd-99b0c71879f5"/><linearGradient id="f5e7303b-5a0f-4fde-b65d-ebeea6d7255f" x1="-737.5" y1="200.83" x2="-737.56" y2="200.07" gradientTransform="matrix(38.38, 0, 0, -18.45, 28324.81, 3701.86)" xlink:href="#a8cb5e00-d966-4485-80c5-c5ca225c3455"/><linearGradient id="fccace36-8db6-4d4e-9424-5baed7193a73" x1="-737.55" y1="199.74" x2="-737.53" y2="200.44" gradientTransform="matrix(38.38, 0, 0, -18.45, 28324.81, 3701.86)" xlink:href="#b1083cdc-508f-4ec2-88fd-99b0c71879f5"/><linearGradient id="aa71811d-8e1d-498d-8c4f-08b2bf3a66c8" x1="-721.14" y1="237" x2="-721.34" y2="236.63" gradientTransform="matrix(20.22, 0, 0, -36.79, 14612.4, 8726.68)" xlink:href="#f6746faf-5091-47f5-bcd3-ad8fa23afc78"/><linearGradient id="b8cf95a4-d6a9-4f66-99f8-ce7ee4825d53" x1="-721.5" y1="236.83" x2="-721.15" y2="236.89" gradientTransform="matrix(20.22, 0, 0, -36.79, 14612.4, 8726.68)" xlink:href="#b1083cdc-508f-4ec2-88fd-99b0c71879f5"/><linearGradient id="b47f0959-a17c-487f-aad4-486d018999ca" x1="-740.14" y1="184.38" x2="-740.99" y2="183.47" gradientTransform="matrix(46.47, 0, 0, -14.9, 34433.18, 2749.27)" xlink:href="#b1083cdc-508f-4ec2-88fd-99b0c71879f5"/><linearGradient id="e75d147d-6dc1-4605-a37d-dcb882f517e2" data-name="Безымянный градиент 58" x1="-683.21" y1="245.7" x2="-683.58" y2="245.32" gradientTransform="matrix(9.88, 0, 0, -47.79, 6771.16, 11742.97)" gradientUnits="userSpaceOnUse"><stop offset="0" stop-color="#fff" stop-opacity="0"/><stop offset="1" stop-color="#fff"/></linearGradient><linearGradient id="a5b8000e-87e9-4ffe-a9b2-108bdacbd1a6" x1="-732.83" y1="200.87" x2="-732.57" y2="201.18" gradientTransform="matrix(29.98, 0, 0, -18.13, 21986.69, 3659.8)" xlink:href="#e75d147d-6dc1-4605-a37d-dcb882f517e2"/><linearGradient id="b3756bc0-1226-447f-b2e7-229a9a8d1aac" x1="-700.37" y1="233.52" x2="-701.14" y2="232.82" gradientTransform="matrix(13.38, 0, 0, -33.42, 9386.86, 7793.94)" xlink:href="#e75d147d-6dc1-4605-a37d-dcb882f517e2"/><linearGradient id="a973adea-3205-4886-b824-ddd25b4bbbfc" x1="-836.25" y1="248.33" x2="-836.51" y2="248.64" gradientTransform="translate(67900.54 -19383.16) scale(81.17 78.07)" xlink:href="#a019d540-3489-468f-990f-e6c4e00769cb"/><linearGradient id="a18683c3-d054-4645-a388-767ec6e5b12b" x1="-816.98" y1="272.22" x2="-816.69" y2="271.69" gradientTransform="translate(23118.79 -9048.7) scale(28.29 33.29)" xlink:href="#a42c410a-5703-4eb6-b57d-f9777cae1600"/><linearGradient id="b7b4f7af-6876-402a-afb2-3baa6f91a494" x1="-816.38" y1="272.21" x2="-816.98" y2="271.93" gradientTransform="translate(23118.79 -9048.7) scale(28.29 33.29)" xlink:href="#f0d390f1-23b9-4aec-84ea-44dcc94debb9"/><linearGradient id="a05ed1da-6c3b-4757-a075-d8c8599b8df4" x1="-791.19" y1="264.7" x2="-791.29" y2="264.26" gradientTransform="translate(12073.47 -10599.62) scale(15.25 40.16)" xlink:href="#a31aa8f2-8698-42f5-8001-b16051a6a83a"/><linearGradient id="bb45cdac-8ab6-46b8-92dd-91ec1522fb0b" x1="-826.27" y1="332.75" x2="-825.98" y2="332.67" gradientTransform="translate(33654.81 -4306.38) scale(40.72 13.03)" xlink:href="#be49f7a6-79e9-426a-8678-570715f681e7"/><linearGradient id="a4ddf9ac-63d1-4528-9f95-e8a01014b847" x1="-825.93" y1="265.09" x2="-825.67" y2="264.81" gradientTransform="translate(32898.99 -10487.97) scale(39.83 39.67)" xlink:href="#b3fd72c8-349a-4e13-bb84-c289724d8d9e"/><linearGradient id="a649f37c-3887-4fb6-8b8e-7454722a0191" x1="-829.01" y1="272.4" x2="-828.7" y2="271.99" gradientTransform="translate(38577.91 -9021.5) scale(46.53 33.18)" xlink:href="#a34c69df-c1e4-4b92-8c5d-d3b3fad997a7"/><linearGradient id="b2e1971c-c63a-4c63-bacf-dcb889a953df" x1="-828.87" y1="273.68" x2="-828.79" y2="272.01" gradientTransform="translate(38577.91 -9021.5) scale(46.53 33.18)" xlink:href="#b1083cdc-508f-4ec2-88fd-99b0c71879f5"/><linearGradient id="be5db381-5095-4378-a194-832de832a0bb" x1="-828.98" y1="259.64" x2="-828.6" y2="259.27" gradientTransform="translate(38677.36 -12315.65) scale(46.65 47.53)" xlink:href="#b398edfb-537f-4b3e-aa5b-3b2dc50cbbab"/><linearGradient id="bb19873e-d583-4d0c-b835-155dbabaf4ae" x1="-829.83" y1="260.33" x2="-828.73" y2="259.41" gradientTransform="translate(38677.36 -12315.65) scale(46.65 47.53)" xlink:href="#b1083cdc-508f-4ec2-88fd-99b0c71879f5"/><linearGradient id="f4984e4d-70ef-4b70-82f4-d91681fd277c" x1="-819.72" y1="274.21" x2="-818.97" y2="273.57" gradientTransform="translate(24441.03 -8483.57) scale(29.79 31.05)" xlink:href="#faaa5a2f-9e97-4730-8f12-006018373d01"/><linearGradient id="b2decd6c-68f2-4994-aea2-8d1fadd9a72e" x1="-819.75" y1="259.63" x2="-819.31" y2="259.22" gradientTransform="translate(24446.64 -12359.95) scale(29.8 47.72)" xlink:href="#a18e8cc4-5e5a-44ae-9d49-e5a5d06fed6b"/><linearGradient id="f1b7506c-7bc2-482b-8dbf-f6e305a24d85" x1="-820.86" y1="259.55" x2="-819.37" y2="259.34" gradientTransform="translate(24446.64 -12359.95) scale(29.8 47.72)" xlink:href="#b1083cdc-508f-4ec2-88fd-99b0c71879f5"/><linearGradient id="e9948ca7-08da-4882-abab-9787b81229f6" x1="-825.16" y1="304.51" x2="-825.22" y2="305.26" gradientTransform="translate(31688.99 -5623.51) scale(38.38 18.45)" xlink:href="#a8cb5e00-d966-4485-80c5-c5ca225c3455"/><linearGradient id="a38f3eb6-94fa-4e27-9c65-a48a20d4fd49" x1="-825.2" y1="305.6" x2="-825.19" y2="304.9" gradientTransform="translate(31688.99 -5623.51) scale(38.38 18.45)" xlink:href="#b1083cdc-508f-4ec2-88fd-99b0c71879f5"/><linearGradient id="bfdf272f-3ed1-4636-b59f-6e0300b87210" x1="-806.69" y1="267.79" x2="-806.9" y2="268.17" gradientTransform="translate(16342.35 -9844.24) scale(20.22 36.79)" xlink:href="#f6746faf-5091-47f5-bcd3-ad8fa23afc78"/><linearGradient id="fd5a98f5-22dd-49e0-9eea-ea5295b1779e" x1="-807.05" y1="267.97" x2="-806.71" y2="267.91" gradientTransform="translate(16342.35 -9844.24) scale(20.22 36.79)" xlink:href="#b1083cdc-508f-4ec2-88fd-99b0c71879f5"/><linearGradient id="fa0f3a1a-c982-4aae-8800-0720bce1ee1b" x1="-828.21" y1="320.96" x2="-829.06" y2="321.87" gradientTransform="translate(38525.16 -4781.89) scale(46.47 14.9)" xlink:href="#b1083cdc-508f-4ec2-88fd-99b0c71879f5"/><linearGradient id="acb4f3fb-ffb8-4f86-b9ba-da9d3be518c9" x1="-763.92" y1="258.73" x2="-764.45" y2="259.27" gradientTransform="translate(7570.03 -12365.1) scale(9.88 47.79)" xlink:href="#e75d147d-6dc1-4605-a37d-dcb882f517e2"/><linearGradient id="a270416f-7931-4714-883d-6eca8fa01ee9" x1="-819.82" y1="304.71" x2="-819.45" y2="304.26" gradientTransform="translate(24594.51 -5495.35) scale(29.98 18.13)" xlink:href="#e75d147d-6dc1-4605-a37d-dcb882f517e2"/><linearGradient id="a832254c-f968-45de-b093-e030f5875238" x1="-783.65" y1="271.09" x2="-784.41" y2="271.78" gradientTransform="translate(10501.07 -9069.43) scale(13.38 33.42)" xlink:href="#e75d147d-6dc1-4605-a37d-dcb882f517e2"/></defs><g><path id="a43bcb5f-abbf-4e31-a69f-435d07393d45" data-name="Path-2" d="M11.08.1,0,13.28,4.92,29.5l15.8,1.86L31.4,19,26.09,4.58Z" fill="#fff"/><g id="fa2f720f-8d96-4c84-b992-a02d344ccffb" data-name="Logo"><g id="fed89bb5-6211-4415-8185-da49ebbe73a2" data-name="Group-32-Copy-7"><g id="fa6d40bf-dba5-4f3c-a4e9-36faaa5ea9f4" data-name="Path-28-Copy"><path id="f9567bbb-7cc2-4a2a-8605-1e5336cbbc6c" data-name="path-3" d="M0,13.28l6,.26L11.08.1Z" fill-rule="evenodd" fill="url(#a42c410a-5703-4eb6-b57d-f9777cae1600)"/><path d="M0,13.28l6,.26L11.08.1Z" fill-rule="evenodd" fill="url(#f0d390f1-23b9-4aec-84ea-44dcc94debb9)"/></g><path id="b59a709b-e717-4a9f-811d-a10481357732" data-name="Path-29-Copy" d="M0,13.28,4.92,29.5l1-16Z" fill-rule="evenodd" fill="url(#a31aa8f2-8698-42f5-8001-b16051a6a83a)"/><path id="b5d18f8e-7e99-4958-8e87-8c4886ffec1c" data-name="Path-30-Copy" d="M20.37,26.72,4.92,29.5,20.82,32Z" fill-rule="evenodd" fill="url(#be49f7a6-79e9-426a-8678-570715f681e7)"/><path id="a27195a3-eca3-4286-87cf-55d62d07474c" data-name="Path-31-Copy" d="M4.87,29.5l1-16L20.47,26.67Z" fill-rule="evenodd" fill="url(#b3fd72c8-349a-4e13-bb84-c289724d8d9e)"/><g id="baf04599-7e14-434e-9f68-f6f737ecd2ee" data-name="Path-32-Copy"><path id="b7b6e99e-297d-4c23-a4cf-4f28e6a4c042" data-name="path-9" d="M11.08.1,5.91,13.49,24.1,7.57Z" fill-rule="evenodd" fill="url(#a34c69df-c1e4-4b92-8c5d-d3b3fad997a7)"/><path d="M11.08.1,5.91,13.49,24.1,7.57Z" fill-rule="evenodd" fill="url(#b1083cdc-508f-4ec2-88fd-99b0c71879f5)"/></g><g id="bfa593de-7c53-4feb-a486-7dc46d26526f" data-name="Path-33-Copy"><path id="bdee1ff8-e7ae-4f48-bb61-d64a3e497616" data-name="path-12" d="M5.91,13.49,20.32,26.72l3.83-19.2Z" fill-rule="evenodd" fill="url(#b398edfb-537f-4b3e-aa5b-3b2dc50cbbab)"/><path d="M5.91,13.49,20.32,26.72l3.83-19.2Z" fill-opacity="0.5" fill-rule="evenodd" fill="url(#bccc074d-957f-49e9-a5a2-340a5177add7)"/></g><path id="e943e821-0244-4f1b-96b3-6ac0bb1fff1f" data-name="Path-34-Copy" d="M20.32,26.72,20.77,32,32,19.41Z" fill-rule="evenodd" fill="url(#faaa5a2f-9e97-4730-8f12-006018373d01)"/><g id="ec547918-b446-47b3-b218-ef7de4fb0cbd" data-name="Path-35-Copy"><path id="b41f9b19-3f69-4cdb-90ff-14e8b8999660" data-name="path-16" d="M20.32,26.72,32,19.41,24.1,7.47Z" fill-rule="evenodd" fill="url(#a18e8cc4-5e5a-44ae-9d49-e5a5d06fed6b)"/><path d="M20.32,26.72,32,19.41,24.1,7.47Z" fill-opacity="0.5" fill-rule="evenodd" fill="url(#a29fedc1-e4d1-4cfc-8f7e-8ecb44111e33)"/></g><g id="eef36ea7-45a7-4d1d-ac0f-f0427b38f9b1" data-name="Path-36-Copy"><path id="b3dbc49a-417d-4ba1-b4ec-55c8f6082a5f" data-name="path-19" d="M11.08.1l15,4.48-2,3Z" fill-rule="evenodd" fill="url(#a8cb5e00-d966-4485-80c5-c5ca225c3455)"/><path d="M11.08.1l15,4.48-2,3Z" fill-rule="evenodd" fill="url(#ba55e6f3-c863-48fc-a00a-14c7d188ad7e)"/></g><g id="f8f5956f-d73f-4dee-bddd-1a2f49220b3b" data-name="Path-37-Copy"><path id="a33297e3-8ccb-458d-b18e-b4fe37c07007" data-name="path-22" d="M26.09,4.58l-2,3,8,11.84Z" fill-rule="evenodd" fill="url(#f6746faf-5091-47f5-bcd3-ad8fa23afc78)"/><path d="M26.09,4.58l-2,3,8,11.84Z" fill-rule="evenodd" fill="url(#a933eced-860f-4bc3-b595-dbbdd346f417)"/></g></g></g><g><path d="M.15,13.41,5.07,29.48l15.65,2.37L31.85,19.39,26,4.82,11.08.34Z" fill="url(#a019d540-3489-468f-990f-e6c4e00769cb)"/><path d="M0,13.26l5.91.31L11,.08Z" fill="url(#abf57586-5365-4987-80e1-8fd729ee24a0)"/><path d="M0,13.26l5.91.31L11,.08Z" fill="url(#b55a2d21-acfa-4e0e-966f-8d813c6c2120)"/><path d="M0,13.26,4.92,29.53l1-16.07Z" fill="url(#ab76b629-67f7-4514-8c3e-74f936b99dde)"/><path d="M20.37,26.75,4.92,29.53,20.82,32Z" fill="url(#e88900a2-1b62-4c35-a4cb-f3e7e8548e89)"/><path d="M4.82,29.53l1-16.07L20.37,26.7Z" fill="url(#e0f3ec96-23b6-4fdd-96ec-65d0c720ee6c)"/><path d="M11,.08,5.91,13.46l18.14-6Z" fill="url(#b6925ae5-f958-442b-8a25-271837fa6e5f)"/><path d="M11,.08,5.91,13.46l18.14-6Z" fill="url(#bdf1fcd9-6165-4725-96e9-184cb9237211)"/><path d="M5.91,13.46,20.32,26.7,24.15,7.49Z" fill="url(#a5b6a088-2d16-41c7-b1e8-cb894d97df3e)"/><path d="M5.91,13.46,20.32,26.7,24.15,7.49Z" fill-opacity="0.5" fill="url(#aecf29ec-99ff-45cf-b47a-3d941a8ef8a3)"/><path d="M20.27,26.75,20.72,32,32,19.49Z" fill="url(#a5b15cfe-3cac-4b8e-b0b4-231bd85f6bb5)"/><path d="M20.27,26.75,32,19.44l-7.9-12Z" fill="url(#ad8580b4-757f-4a46-964e-75f4d54368d8)"/><path d="M20.27,26.75,32,19.44l-7.9-12Z" fill-opacity="0.5" fill="url(#bd65e25a-9745-4947-9871-c4ec0354e9bc)"/><path d="M11,.08,26,4.56l-2,2.93Z" fill="url(#f5e7303b-5a0f-4fde-b65d-ebeea6d7255f)"/><path d="M11,.08,26,4.56l-2,2.93Z" fill="url(#fccace36-8db6-4d4e-9424-5baed7193a73)"/><path d="M26.09,4.56l-2,2.93,7.9,12Z" fill="url(#aa71811d-8e1d-498d-8c4f-08b2bf3a66c8)"/><path d="M26.09,4.56l-2,2.93,7.9,12Z" fill="url(#b8cf95a4-d6a9-4f66-99f8-ce7ee4825d53)"/></g><path d="M5.91,13.54v0L24,7.52l.05.05Z" opacity="0.6" fill="url(#b47f0959-a17c-487f-aad4-486d018999ca)" style="isolation: isolate"/><path d="M20,18.28,22.56,4.79l.05,0Z" opacity="0.4" fill="url(#e75d147d-6dc1-4605-a37d-dcb882f517e2)" style="isolation: isolate"/><path d="M20,18.28l8.1-5.1h.05Z" opacity="0.6" fill="url(#a5b8000e-87e9-4ffe-a9b2-108bdacbd1a6)" style="isolation: isolate"/><path d="M6,13.44h0L11,0h.05Z" opacity="0.6" fill="url(#b3756bc0-1226-447f-b2e7-229a9a8d1aac)" style="isolation: isolate"/><g><path d="M.15,13.36,5,29.32l15.55,2.37,11-12.41L25.84,4.82,11,.34Z" fill="url(#a973adea-3205-4886-b824-ddd25b4bbbfc)"/><path d="M0,13.21l5.86.31L11,.13Z" fill="url(#a18683c3-d054-4645-a388-767ec6e5b12b)"/><path d="M0,13.21l5.86.31L11,.13Z" fill="url(#b7b4f7af-6876-402a-afb2-3baa6f91a494)"/><path d="M0,13.21,4.87,29.43l1-16Z" fill="url(#a05ed1da-6c3b-4757-a075-d8c8599b8df4)"/><path d="M20.22,26.65,4.87,29.43l15.8,2.42Z" fill="url(#bb45cdac-8ab6-46b8-92dd-91ec1522fb0b)"/><path d="M4.82,29.43l1-16L20.32,26.65Z" fill="url(#a4ddf9ac-63d1-4528-9f95-e8a01014b847)"/><path d="M11,.13,5.86,13.46l18-5.92Z" fill="url(#a649f37c-3887-4fb6-8b8e-7454722a0191)"/><path d="M11,.13,5.86,13.46l18-5.92Z" fill="url(#b2e1971c-c63a-4c63-bacf-dcb889a953df)"/><path d="M5.86,13.46,20.17,26.65,24,7.49Z" fill="url(#be5db381-5095-4378-a194-832de832a0bb)"/><path d="M5.86,13.46,20.17,26.65,24,7.49Z" fill-opacity="0.5" fill="url(#bb19873e-d583-4d0c-b835-155dbabaf4ae)"/><path d="M20.17,26.65l.45,5.2L31.8,19.39Z" fill="url(#f4984e4d-70ef-4b70-82f4-d91681fd277c)"/><path d="M20.17,26.65,31.8,19.39,23.9,7.44Z" fill="url(#b2decd6c-68f2-4994-aea2-8d1fadd9a72e)"/><path d="M20.17,26.65,31.8,19.39,23.9,7.44Z" fill-opacity="0.5" fill="url(#f1b7506c-7bc2-482b-8dbf-f6e305a24d85)"/><path d="M11,.13l15,4.48L24,7.54Z" fill="url(#e9948ca7-08da-4882-abab-9787b81229f6)"/><path d="M11,.13l15,4.48L24,7.54Z" fill="url(#a38f3eb6-94fa-4e27-9c65-a48a20d4fd49)"/><path d="M25.89,4.56l-2,2.93,7.9,11.9Z" fill="url(#bfdf272f-3ed1-4636-b59f-6e0300b87210)"/><path d="M25.89,4.56l-2,2.93,7.9,11.9Z" fill="url(#fd5a98f5-22dd-49e0-9eea-ea5295b1779e)"/></g><path d="M5.86,13.49v-.05l18-6,0,0Z" opacity="0.6" fill="url(#fa0f3a1a-c982-4aae-8800-0720bce1ee1b)" style="isolation: isolate"/><path d="M20.17,26.62l-.05-.05L23.85,7.41l0,.06Z" opacity="0.4" fill="url(#acb4f3fb-ffb8-4f86-b9ba-da9d3be518c9)" style="isolation: isolate"/><path d="M20.22,26.62l0-.05L31.8,19.36h.05Z" opacity="0.6" fill="url(#a270416f-7931-4714-883d-6eca8fa01ee9)" style="isolation: isolate"/><path d="M6,13.39h0L11,0h.05Z" opacity="0.6" fill="url(#a832254c-f968-45de-b093-e030f5875238)" style="isolation: isolate"/></g></svg>