<svg xmlns="http://www.w3.org/2000/svg" width="22" height="16" viewBox="0 0 22 16"><path d="M12.48,0A2.78,2.78,0,0,1,13,1.48a1.62,1.62,0,0,1-1.74-1A2.39,2.39,0,0,0,11,2H8.51A5.71,5.71,0,0,1,7.27.51Q6.58,4,5,1A2.8,2.8,0,0,1,6.52.27,37.11,37.11,0,0,1,12.48,0Z" fill="#dab2c1" fill-rule="evenodd"/><path d="M13,1.48c1.89-.84,3.21-.35,4,1.45a3.45,3.45,0,0,0-4-.48h-.5A.53.53,0,0,0,12,2L9,3.42A2.75,2.75,0,0,0,8.51,2H11A2.39,2.39,0,0,1,11.24.51,1.62,1.62,0,0,0,13,1.48Z" fill="#c5839b" fill-rule="evenodd"/><path d="M12.48,2.45A6.09,6.09,0,0,0,12,5.84L9,6.32a1.6,1.6,0,0,1-1.49-1A6.65,6.65,0,0,0,11,4.87a3.89,3.89,0,0,0-2.48,0A1.35,1.35,0,0,1,9,3.42L12,2A.53.53,0,0,1,12.48,2.45Z" fill="#e6bbcd" fill-rule="evenodd"/><path d="M8.51,2a2.32,2.32,0,0,0-2,1.45C5.61,2.23,4.79,2.23,4,3.42a2.18,2.18,0,0,0-1,2.42A12.92,12.92,0,0,1,1.56,3.42,4.52,4.52,0,0,1,5,1Q6.57,4,7.27.51A5.71,5.71,0,0,0,8.51,2Z" fill="#c9869e" fill-rule="evenodd"/><path d="M12.48,0A7.94,7.94,0,0,1,19.93,3.9a3.57,3.57,0,0,1-3-1c-.76-1.8-2.08-2.29-4-1.45A2.78,2.78,0,0,0,12.48,0Z" fill="#db92ac" fill-rule="evenodd"/><path d="M12.48,2.45H13a1.08,1.08,0,0,1,1,1,2.4,2.4,0,0,0,0,2.9H12.48Z" fill="#e9b2c8" fill-rule="evenodd"/><path d="M13,2.45a3.45,3.45,0,0,1,4,.48,2.19,2.19,0,0,1-1,1.46.53.53,0,0,0,.49.48,12.77,12.77,0,0,1-1,2.42c.18-1.21-.15-1.53-1-1H14a2.4,2.4,0,0,1,0-2.9A1.08,1.08,0,0,0,13,2.45Z" fill="#db9ab3" fill-rule="evenodd"/><path d="M8.51,2A2.75,2.75,0,0,1,9,3.42a1.35,1.35,0,0,0-.5,1.45,3.89,3.89,0,0,1,2.48,0,6.65,6.65,0,0,1-3.47.48v-1A.45.45,0,0,0,8,4.14a2.79,2.79,0,0,1-1.49-.72A2.32,2.32,0,0,1,8.51,2Z" fill="#e6c2d2" fill-rule="evenodd"/><path d="M1.56,3.42A12.92,12.92,0,0,0,3.05,5.84a.88.88,0,0,0,.5,1,7.15,7.15,0,0,0,.74-2.42A15.61,15.61,0,0,0,5,7.29c-.16.32-.33.64-.49,1a16.22,16.22,0,0,0-3-.73A2.39,2.39,0,0,0,.07,5.84,3.17,3.17,0,0,1,1.56,3.42Z" fill="#c6748e" fill-rule="evenodd"/><path d="M4,3.42c.16.6.4.6.75,0q.27,2.21,1,.48A1.57,1.57,0,0,1,5,6.08a2.22,2.22,0,0,0,2,.73v.48H5a15.63,15.63,0,0,1-.75-2.9,7.15,7.15,0,0,1-.74,2.42.88.88,0,0,1-.5-1A2.18,2.18,0,0,1,4,3.42Z" fill="#d9a0b5" fill-rule="evenodd"/><path d="M6.52,3.42A2.79,2.79,0,0,0,8,4.14a.45.45,0,0,1-.49.25A3.21,3.21,0,0,0,7,6.81a2.24,2.24,0,0,1-2-.73A1.57,1.57,0,0,0,5.78,3.9c-.48,1.15-.82,1-1-.48-.35.6-.59.6-.75,0C4.79,2.23,5.61,2.23,6.52,3.42Z" fill="#e2b5c7" fill-rule="evenodd"/><path d="M17,2.93a3.57,3.57,0,0,0,3,1,1.67,1.67,0,0,1,1,1.94,6.77,6.77,0,0,1-1,1.93,4.46,4.46,0,0,0-1.24-2.9q-1-.94-1.74,0h-.5A.53.53,0,0,1,16,4.39,2.19,2.19,0,0,0,17,2.93Z" fill="#c06383" fill-rule="evenodd"/><path d="M16.45,4.87H17c1.5.58,1.67,1.23.5,1.94a3.11,3.11,0,0,1-3,1.45l1-1A12.77,12.77,0,0,0,16.45,4.87Z" fill="#e5b1c7" fill-rule="evenodd"/><path d="M17,4.87q.78-.94,1.74,0a4.46,4.46,0,0,1,1.24,2.9l-1,.49a5,5,0,0,0-1.49-1.45C18.62,6.1,18.45,5.45,17,4.87Z" fill="#de9ab3" fill-rule="evenodd"/><path d="M15.46,7.29l-1,1a2.52,2.52,0,0,1-3-1.45,4.87,4.87,0,0,0,3-.49C15.31,5.76,15.64,6.08,15.46,7.29Z" fill="#e8c7d6" fill-rule="evenodd"/><path d="M12.48,2.45V6.32h2a4.87,4.87,0,0,1-3,.49A4.39,4.39,0,0,0,9,8.26q1.37,1.88,2.74,0a.43.43,0,0,1,.24.48,10.9,10.9,0,0,1,3,1H11a2.93,2.93,0,0,1-2.73-1l-.5,1a4,4,0,0,1-.24-1.94c.61-.89.45-1-.5-.48V6.81a3.21,3.21,0,0,1,.5-2.42v1A1.59,1.59,0,0,0,9,6.32l3-.48A6.09,6.09,0,0,1,12.48,2.45Z" fill="#ca839d" fill-rule="evenodd"/><path d="M.07,5.84A2.36,2.36,0,0,1,1.56,7.53a16,16,0,0,1,3,.73l.5,1a2.39,2.39,0,0,1-2,1C.71,9.66-.29,8.21.07,5.84Z" fill="#ae4a68" fill-rule="evenodd"/><path d="M7.52,7.77c-1.56.3-1.89,1.1-1,2.42a1.14,1.14,0,0,1-.24,1A2.56,2.56,0,0,1,5,9.22l-.49-1c.16-.33.33-.65.49-1H7C8,6.72,8.13,6.88,7.52,7.77Z" fill="#b75b79" fill-rule="evenodd"/><path d="M11.49,6.81a2.52,2.52,0,0,0,3,1.45A3.47,3.47,0,0,1,12,8.74a.44.44,0,0,0-.25-.48q-1.38,1.88-2.73,0A4.34,4.34,0,0,1,11.49,6.81Z" fill="#e0b0c3" fill-rule="evenodd"/><path d="M17.45,6.81a5,5,0,0,1,1.49,1.45v1a10.81,10.81,0,0,0-2.49,1.94,3.55,3.55,0,0,1-2-.48c.16-.33.33-.65.49-1a10.82,10.82,0,0,0-3-1,3.47,3.47,0,0,0,2.48-.48A3.11,3.11,0,0,0,17.45,6.81Z" fill="#dc98b2" fill-rule="evenodd"/><path d="M20.92,5.84a5,5,0,0,1,1,3.87,3.57,3.57,0,0,0-2,.48.87.87,0,0,0-1-1v-1l1-.49A6.77,6.77,0,0,0,20.92,5.84Z" fill="#cd7492" fill-rule="evenodd"/><path d="M11,9.71h4c-.16.32-.33.64-.49,1A5,5,0,0,1,10,10.19.8.8,0,0,0,11,9.71Z" fill="#e0a1b9" fill-rule="evenodd"/><path d="M7.52,7.77a3.9,3.9,0,0,0,.25,1.94l.49-1a2.93,2.93,0,0,0,2.73,1,.8.8,0,0,1-1,.48,2.55,2.55,0,0,0-1.49.24,19.61,19.61,0,0,0,3,1.21A14.61,14.61,0,0,1,7,11.16c1.37-.71,1.21-1-.5-1C5.63,8.87,6,8.07,7.52,7.77Z" fill="#c97692" fill-rule="evenodd"/><path d="M18.94,9.22a.87.87,0,0,1,1,1,20.3,20.3,0,0,1-2.48,2.42A1.43,1.43,0,0,1,16,12.13c.79-.25,1-.57.49-1A10.81,10.81,0,0,1,18.94,9.22Z" fill="#c9728f" fill-rule="evenodd"/><path d="M5,9.22a2.56,2.56,0,0,0,1.25,1.94,1.14,1.14,0,0,0,.24-1c1.7-.06,1.87.26.5,1a7.38,7.38,0,0,0,3,1.94l-1,.48a7.12,7.12,0,0,1-6-3.39A2.37,2.37,0,0,0,5,9.22Z" fill="#bc5776" fill-rule="evenodd"/><path d="M7,11.16a14.58,14.58,0,0,0,4.47.48l1,.49a3,3,0,0,1-2.48,1A7.38,7.38,0,0,1,7,11.16Z" fill="#c16784" fill-rule="evenodd"/><path d="M10,10.19a5,5,0,0,0,4.47.49,3.55,3.55,0,0,0,2,.48c.47.4.3.72-.49,1H12.48l-1-.49a19.61,19.61,0,0,1-3-1.21A2.55,2.55,0,0,1,10,10.19Z" fill="#ce7f9a" fill-rule="evenodd"/><path d="M21.92,9.71a3,3,0,0,1-2.49,3.87l-2-1a20.3,20.3,0,0,0,2.48-2.42A3.57,3.57,0,0,1,21.92,9.71Z" fill="#bc5776" fill-rule="evenodd"/><path d="M12.48,12.13H16a1.43,1.43,0,0,0,1.49.48l2,1-.49,1a9.61,9.61,0,0,0-6-.73,1.12,1.12,0,0,0-.5.73,4.39,4.39,0,0,1-3.47-1l1-.48A3,3,0,0,0,12.48,12.13Z" fill="#7d2e3d" fill-rule="evenodd"/><path d="M18.94,14.55A4.47,4.47,0,0,1,16,16a5.84,5.84,0,0,1-3.48-1.45,1.12,1.12,0,0,1,.5-.73A9.61,9.61,0,0,1,18.94,14.55Z" fill="#b2596b" fill-rule="evenodd"/></svg>