<svg xmlns="http://www.w3.org/2000/svg" width="10" height="14" viewBox="0 0 10 14"><path d="M5,7.64a.68.68,0,0,1-.39-.13l-4.13-3a1.15,1.15,0,0,1-.35-.41A1.12,1.12,0,0,1,0,3.55V1.17A1.14,1.14,0,0,1,.35.34,1.22,1.22,0,0,1,1.2,0H8.8a1.22,1.22,0,0,1,.85.34,1.14,1.14,0,0,1,.35.83V3.53a1.12,1.12,0,0,1-.13.53,1.17,1.17,0,0,1-.34.4L5.39,7.51A.68.68,0,0,1,5,7.64ZM1.3,1.27V3.55L5,6.21,8.74,3.44l0-2.17Z" fill="#776fef"/><path d="M8.8,14H1.2a1.22,1.22,0,0,1-.85-.34A1.13,1.13,0,0,1,0,12.83V10.45a1.06,1.06,0,0,1,.13-.52,1.1,1.1,0,0,1,.35-.42l4.13-3a.66.66,0,0,1,.78,0l4.14,3a1.39,1.39,0,0,1,.35.41,1.17,1.17,0,0,1,.12.52v2.36a1.13,1.13,0,0,1-.35.83A1.22,1.22,0,0,1,8.8,14ZM1.3,12.83h0Zm0-.1H8.7V10.47L5,7.79,1.26,10.53Z" fill="#776fef"/><path d="M8.6,5H1.38a.64.64,0,1,1,0-1.28H8.6A.64.64,0,1,1,8.6,5Z" fill="#776fef"/><path d="M5,10.29a.65.65,0,0,1-.65-.64V7a.65.65,0,0,1,1.3,0V9.65A.65.65,0,0,1,5,10.29Z" fill="#776fef"/></svg>