<svg xmlns="http://www.w3.org/2000/svg" width="16.2" height="18" viewBox="0 0 16.2 18"><path d="M15.8,2.5h0l.2-.1V2.2L15.3.4,15.2.3,15.1.2H15L10.9,1.8h0L6.3,3.4h0l-5,1.9a.1.1,0,0,0-.1.1l-.1.1v.2l.7,1.8V17.7c0,.1,0,.1.1.2s.1.1.2.1H16.7q.15,0,.3-.3V7.3q0-.15-.3-.3H3.4ZM10.5,3.9l-1.8.7L8.8,3l1.8-.7Zm.7-1.8L13,1.5l-.2,1.6L11,3.7Zm-3,2.7-1.8.6.1-1.6,1.8-.7Zm-2.3.8-1.7.7.1-1.6L6.1,4Zm9.5-3.5-2.1.8.1-1.6L14.9.8ZM3.8,4.9,3.6,6.5,2.2,7,1.7,5.7Zm0,2.7L4.5,9H2.3V7.6Zm2.5,0L7,9H5.1L4.4,7.6Zm2.4,0L9.4,9H7.5L6.8,7.6Zm2.5,0L11.8,9H10L9.3,7.6Zm2.4,0L14.3,9H12.4l-.7-1.4Zm2.8,9.7H2.3V9.5H16.4Zm0-8.3H14.8l-.7-1.4h2.3Z" transform="translate(-0.9)" fill="#776fef"/><path d="M9.3,10.7A2.7,2.7,0,1,0,12,13.4a2.69,2.69,0,0,0-2.7-2.7Zm0,5A2.39,2.39,0,0,1,7,13.4a2.39,2.39,0,0,1,2.3-2.3,2.49,2.49,0,0,1,2.4,2.3A2.35,2.35,0,0,1,9.3,15.7Z" transform="translate(-0.9)" fill="#776fef"/><path d="M10.5,13.2l-1.7-1H8.6l-.1.1v2.2l.1.1h.2l1.7-1,.1-.1v-.1c0-.1-.1-.1-.1-.2ZM8.7,14.3V12.5l1.6.9Z" transform="translate(-0.9)" fill="#776fef"/><path d="M16.7,18H2a.47.47,0,0,1-.5-.5h0V7.4L.9,5.7V5.3A.1.1,0,0,1,1,5.2a.35.35,0,0,1,.2-.1L14.9,0h.4c.1,0,.1.1.2.1a.35.35,0,0,1,.1.2l.7,1.8v.4c0,.1-.1.1-.1.2a.35.35,0,0,1-.2.1h0L4.7,6.9h12c.1,0,.2.1.3.1a.37.37,0,0,1,.1.3V17.5a.37.37,0,0,1-.1.3C16.9,18,16.8,18,16.7,18ZM15.1.4,10.9,1.9,1.3,5.5,2,7.4V17.6H16.7V7.3H3.4l-.1-.4L15.7,2.3h0Zm1.5,17.1H2.1V9.3H16.7v8.2ZM2.5,17.1H16.2V9.7H2.5ZM16.6,9.3H14.7l-.9-1.9h2.8ZM15,8.9h1.3v-1H14.6Zm-.4.4H12.2l-.9-1.9h2.4Zm-2.1-.4h1.4l-.5-1H12Zm-.3.4H9.8L8.9,7.4h2.4Zm-2.1-.4h1.4l-.5-1H9.6Zm-.3.4H7.4L6.5,7.4H8.9ZM7.7,8.8H9.1l-.5-1H7.2Zm-.4.5H4.9L4,7.4H6.4ZM5.2,8.8H6.6l-.5-1H4.7Zm-.3.5H2.1V7.4H4ZM2.5,8.8H4.2l-.5-1H2.5ZM2,7.3,1.4,5.5,4,4.5,3.9,6.6ZM1.9,5.8l.4.9,1.1-.4.1-1.1Zm2,.8.2-2.1,2.2-.8L6.1,5.8Zm.6-1.8L4.4,5.9l1.3-.5.1-1.1Zm1.7.9.2-2.1,2.2-.8L8.4,4.9ZM6.8,4,6.7,5.1,8,4.6l.1-1.1Zm1.7.9.2-2.1L10.9,2l-.2,2.1Zm.6-1.8L9,4.3l1.3-.5.1-1.1Zm1.7.9.1-2,2.2-.8-.1,2Zm.6-1.7-.1,1.1,1.4-.5.1-1.1Zm1.7.9.2-2.1L15,.4l.7,1.8Zm.5-1.8-.1,1.1L15.1,2l-.3-1Z" transform="translate(-0.9)" fill="#776fef"/><path d="M9.3,16.3a2.9,2.9,0,1,1,2.9-2.9h0A2.9,2.9,0,0,1,9.3,16.3Zm0-5a2.11,2.11,0,0,0-2.1,2.1,2.26,2.26,0,0,0,2.1,2.1,2.26,2.26,0,0,0,2.1-2.1A2.18,2.18,0,0,0,9.3,11.3Z" transform="translate(-0.9)" fill="#776fef"/><path d="M8.7,14.9c-.1,0-.2,0-.2-.1s-.1-.1-.2-.2-.1-.1-.1-.2v-2c0-.1,0-.2.1-.2s.1-.1.2-.2a.35.35,0,0,0,.2-.1c.1,0,.2,0,.2.1l1.7,1c.1,0,.1.1.2.2a.45.45,0,0,1,0,.5c0,.1-.1.1-.2.2l-1.7,1Zm.2-2v1l1-.5Zm1.5.3Z" transform="translate(-0.9)" fill="#776fef"/></svg>