<svg xmlns="http://www.w3.org/2000/svg" xmlns:xlink="http://www.w3.org/1999/xlink" width="21" height="10" viewBox="0 0 21 10"><defs><linearGradient id="b7228096-5505-49b3-98e9-6b4898ea2346" data-name="Безымянный градиент" x1="20.12" y1="8" x2="2.26" y2="8" gradientTransform="matrix(1, 0, 0, -1, 0, 13)" gradientUnits="userSpaceOnUse"><stop offset="0" stop-color="#ffe74d"/><stop offset="1" stop-color="#f3c240"/></linearGradient><linearGradient id="bd78c96d-5eb2-4eba-9adc-e10c139824f3" data-name="Безымянный градиент 2" x1="21.19" y1="8" x2="19.15" y2="8" gradientTransform="matrix(1, 0, 0, -1, 0, 13)" gradientUnits="userSpaceOnUse"><stop offset="0" stop-color="#fff250"/><stop offset="1" stop-color="#fff250" stop-opacity="0"/></linearGradient></defs><path d="M19.36,0H15.53a.42.42,0,0,0-.4.28A1.18,1.18,0,0,1,14,1.05,1.18,1.18,0,0,1,12.86.28a.35.35,0,0,0-.14-.2A.46.46,0,0,0,12.47,0H1.64A1.57,1.57,0,0,0,0,1.49v7A1.57,1.57,0,0,0,1.64,10H12.47a.41.41,0,0,0,.39-.28A1.19,1.19,0,0,1,14,9a1.16,1.16,0,0,1,1.13.77.42.42,0,0,0,.4.28h3.83A1.57,1.57,0,0,0,21,8.51v-7A1.57,1.57,0,0,0,19.36,0ZM14,7.76a1.13,1.13,0,0,1-1.19-1.08,1.19,1.19,0,0,1,2.37,0A1.13,1.13,0,0,1,14,7.76ZM14,4.4a1.13,1.13,0,0,1-1.19-1.08,1.19,1.19,0,0,1,2.37,0A1.13,1.13,0,0,1,14,4.4Z" fill="url(#b7228096-5505-49b3-98e9-6b4898ea2346)"/><path d="M19.36,0H15.53a.42.42,0,0,0-.4.28A1.18,1.18,0,0,1,14,1.05,1.18,1.18,0,0,1,12.86.28a.35.35,0,0,0-.14-.2A.46.46,0,0,0,12.47,0H1.64A1.57,1.57,0,0,0,0,1.49v7A1.57,1.57,0,0,0,1.64,10H12.47a.41.41,0,0,0,.39-.28A1.19,1.19,0,0,1,14,9a1.16,1.16,0,0,1,1.13.77.42.42,0,0,0,.4.28h3.83A1.57,1.57,0,0,0,21,8.51v-7A1.57,1.57,0,0,0,19.36,0ZM14,7.76a1.13,1.13,0,0,1-1.19-1.08,1.19,1.19,0,0,1,2.37,0A1.13,1.13,0,0,1,14,7.76ZM14,4.4a1.13,1.13,0,0,1-1.19-1.08,1.19,1.19,0,0,1,2.37,0A1.13,1.13,0,0,1,14,4.4Z" fill="url(#bd78c96d-5eb2-4eba-9adc-e10c139824f3)"/><path d="M10.23,6.44H3.15a.45.45,0,0,1-.16,0,.26.26,0,0,1-.13-.08.34.34,0,0,1-.09-.12.42.42,0,0,1,0-.15.33.33,0,0,1,0-.14.38.38,0,0,1,.09-.13A.57.57,0,0,1,3,5.71a.45.45,0,0,1,.16,0h7.08a.38.38,0,0,1,.39.53.34.34,0,0,1-.09.12.29.29,0,0,1-.14.08A.41.41,0,0,1,10.23,6.44Zm0,1.51H3.15a.44.44,0,0,1-.29-.11.35.35,0,0,1,0-.54.44.44,0,0,1,.29-.11h7.08a.4.4,0,0,1,.42.38A.41.41,0,0,1,10.23,8Z" fill="#d88b4c"/><path d="M6.42,3.26h-3a.69.69,0,0,1-.24,0,.72.72,0,0,1-.21-.12.62.62,0,0,1-.14-.19.59.59,0,0,1,0-.22.59.59,0,0,1,0-.23.49.49,0,0,1,.14-.18.57.57,0,0,1,.21-.13.67.67,0,0,1,.24,0H6.42a.6.6,0,0,1,.64.58A.61.61,0,0,1,6.42,3.26ZM19.08,5.45H17.41a.47.47,0,0,0-.49.45V7.41a.47.47,0,0,0,.49.45h1.67a.46.46,0,0,0,.48-.45V5.9A.46.46,0,0,0,19.08,5.45Z" fill="#d6894c"/></svg>