<svg xmlns="http://www.w3.org/2000/svg" xmlns:xlink="http://www.w3.org/1999/xlink" width="24" height="24" viewBox="0 0 24 24"><defs><linearGradient id="a9fde21a-b166-4c4c-a7a8-7c0b128896dd" data-name="Безымянный градиент" x1="12" y1="24.22" x2="12" y2="7.78" gradientTransform="matrix(1, 0, 0, -1, 0, 26)" gradientUnits="userSpaceOnUse"><stop offset="0" stop-color="#d6d6d6"/><stop offset="1" stop-color="#a1a1a1"/></linearGradient><linearGradient id="a87ea9b3-44b3-4e0a-bdef-4bc29bc289ab" data-name="Безымянный градиент 2" x1="3.72" y1="16.22" x2="9.52" y2="16.22" gradientTransform="matrix(1, 0, 0, -1, 0, 26)" gradientUnits="userSpaceOnUse"><stop offset="0" stop-color="#ffc033"/><stop offset="1" stop-color="#ef8e2e"/></linearGradient><linearGradient id="fdac6c08-3c41-401a-b180-e5aed1687142" data-name="Безымянный градиент 3" x1="4.95" y1="14.67" x2="9.03" y2="14.67" gradientTransform="matrix(1, 0, 0, -1, 0, 26)" gradientUnits="userSpaceOnUse"><stop offset="0" stop-color="#137dbf"/><stop offset="1" stop-color="#02476c"/></linearGradient><linearGradient id="b031cf67-4f3a-4b9f-8926-c550627c36fc" data-name="Безымянный градиент 4" x1="12" y1="26" x2="12" y2="23.33" xlink:href="#fdac6c08-3c41-401a-b180-e5aed1687142"/><linearGradient id="b1fea405-5d2d-4c34-8517-5e63e72741ff" data-name="Безымянный градиент 5" x1="11.17" y1="18.89" x2="20.69" y2="18.89" xlink:href="#fdac6c08-3c41-401a-b180-e5aed1687142"/><linearGradient id="a7fd5f16-bed6-4ce0-a7d8-2c19fd9f028e" data-name="Безымянный градиент 6" x1="11.17" y1="16.67" x2="19.03" y2="16.67" xlink:href="#fdac6c08-3c41-401a-b180-e5aed1687142"/><linearGradient id="ea2e40df-2940-4e84-a87c-3626ce12b30f" data-name="Безымянный градиент 7" x1="11.17" y1="14.44" x2="20.69" y2="14.44" xlink:href="#fdac6c08-3c41-401a-b180-e5aed1687142"/><linearGradient id="bab2ceb1-47af-48a1-9ef5-1abcf0214052" data-name="Безымянный градиент 8" x1="11.17" y1="12.22" x2="16.14" y2="12.22" xlink:href="#fdac6c08-3c41-401a-b180-e5aed1687142"/><linearGradient id="fb4c67e6-0628-4f16-b185-c7a61d219198" data-name="Безымянный градиент 9" y1="5.33" x2="24" y2="5.33" gradientTransform="matrix(1, 0, 0, -1, 0, 26)" gradientUnits="userSpaceOnUse"><stop offset="0" stop-color="#002237"/><stop offset="1" stop-color="#003352"/></linearGradient><linearGradient id="e077c2c3-10d9-4798-a582-4b4d4dfa24ca" data-name="Безымянный градиент 10" x1="-1.24" y1="23.78" x2="-0.83" y2="23.78" xlink:href="#fb4c67e6-0628-4f16-b185-c7a61d219198"/></defs><g><path d="M21.93,1.78H2.07a.43.43,0,0,0-.41.44V17.78a.43.43,0,0,0,.41.44H21.93a.43.43,0,0,0,.41-.44V2.22A.43.43,0,0,0,21.93,1.78Z" fill="url(#a9fde21a-b166-4c4c-a7a8-7c0b128896dd)"/><path d="M6.62,12.89a3,3,0,0,0,2.9-3.11,3,3,0,0,0-2.9-3.11,3,3,0,0,0-2.9,3.11A3,3,0,0,0,6.62,12.89Z" fill="url(#a87ea9b3-44b3-4e0a-bdef-4bc29bc289ab)"/><path d="M6.62,9.78,5,12.32a2.73,2.73,0,0,0,1,.49,2.72,2.72,0,0,0,2.21-.44,3.24,3.24,0,0,0,.82-.87Z" fill="url(#fdac6c08-3c41-401a-b180-e5aed1687142)"/><path d="M12,2.67a1.29,1.29,0,0,0,1.24-1.34,1.24,1.24,0,1,0-2.48,0A1.29,1.29,0,0,0,12,2.67Z" fill="url(#b031cf67-4f3a-4b9f-8926-c550627c36fc)"/><path d="M11.17,6.67h9.52v.89H11.17Z" fill="url(#b1fea405-5d2d-4c34-8517-5e63e72741ff)"/><path d="M11.17,8.89H19v.89H11.17Z" fill="url(#a7fd5f16-bed6-4ce0-a7d8-2c19fd9f028e)"/><path d="M11.17,11.11h9.52V12H11.17Z" fill="url(#ea2e40df-2940-4e84-a87c-3626ce12b30f)"/><path d="M11.17,13.33h5v.89h-5Z" fill="url(#bab2ceb1-47af-48a1-9ef5-1abcf0214052)"/><path d="M0,18.22H11.59v1.56L6.34,24H7.73l3.86-3.11V24h.82V20.89L16.27,24h1.39l-5.25-4.22V18.22H24v-.89H0Z" fill="url(#fb4c67e6-0628-4f16-b185-c7a61d219198)"/><path d="M0,1.78H24v.89H0Z" fill="url(#e077c2c3-10d9-4798-a582-4b4d4dfa24ca)"/></g></svg>