<svg xmlns="http://www.w3.org/2000/svg" width="18" height="18" viewBox="0 0 18 18"><path d="M15.43,6H11.57V2A2,2,0,0,0,11,.59,2,2,0,0,0,9.64,0H8.27a1.25,1.25,0,0,0-.84.33A1.35,1.35,0,0,0,7,1.14l-.54,4L4.16,8.67H0V18H13.5a4.4,4.4,0,0,0,3.18-1.37A4.77,4.77,0,0,0,18,13.33V8.67a2.77,2.77,0,0,0-.75-1.89A2.55,2.55,0,0,0,15.43,6ZM3.86,16.67H1.29V10H3.86Zm12.85-3.34a3.4,3.4,0,0,1-.94,2.36,3.16,3.16,0,0,1-2.27,1H5.14V9.54l2.55-4,.58-4.25H9.64a.63.63,0,0,1,.46.2.68.68,0,0,1,.19.47V7.33h5.14a1.26,1.26,0,0,1,.91.39,1.37,1.37,0,0,1,.37,1Z" fill="#776fef"/></svg>