<svg xmlns="http://www.w3.org/2000/svg" width="14" height="10" viewBox="0 0 14 10"><path d="M7,7.47A2.5,2.5,0,0,1,4.49,5,2.51,2.51,0,1,1,7,7.47Zm0-3.8A1.33,1.33,0,1,0,8.35,5,1.35,1.35,0,0,0,7,3.67Z"/><path d="M13.42,6.83a.58.58,0,0,1-.49-.26,3.71,3.71,0,0,0-1.22-1.21,2.88,2.88,0,0,0-1.5-.42h0a.58.58,0,0,1-.58-.57.57.57,0,0,1,.58-.57h0a4.09,4.09,0,0,1,2.09.58A4.76,4.76,0,0,1,13.91,6a.56.56,0,0,1-.49.87Z"/><path d="M.58,6.83a.58.58,0,0,1-.31-.08A.57.57,0,0,1,.09,6,4.76,4.76,0,0,1,1.7,4.38,4.09,4.09,0,0,1,3.79,3.8h0a.57.57,0,0,1,.58.57.58.58,0,0,1-.58.57h0a2.88,2.88,0,0,0-1.5.42A3.62,3.62,0,0,0,1.07,6.57.58.58,0,0,1,.58,6.83Z"/><path d="M10.85,10a.57.57,0,0,1-.52-.33A3.87,3.87,0,0,0,9,8.06a3.56,3.56,0,0,0-3.9,0A3.87,3.87,0,0,0,3.67,9.67a.58.58,0,0,1-1-.48A5,5,0,0,1,4.41,7.11a4.77,4.77,0,0,1,5.18,0,5.09,5.09,0,0,1,1.79,2.08.58.58,0,0,1-.29.76A.69.69,0,0,1,10.85,10Z"/><path d="M3.16,4.94a2.58,2.58,0,0,1-1.35-.39,2.5,2.5,0,0,1-.93-1A2.45,2.45,0,0,1,.66,2.16,2.48,2.48,0,0,1,1.22.89,2.56,2.56,0,0,1,3.79.08,2.52,2.52,0,0,1,5,.78,2.41,2.41,0,0,1,5.64,2a.58.58,0,0,1-1.13.22,1.29,1.29,0,0,0-.35-.66,1.37,1.37,0,0,0-.66-.38,1.4,1.4,0,0,0-.76,0,1.29,1.29,0,0,0-.63.41,1.35,1.35,0,0,0-.3.68A1.32,1.32,0,0,0,1.93,3a1.36,1.36,0,0,0,1.23.77.57.57,0,0,1,.58.57A.58.58,0,0,1,3.16,4.94Z"/><path d="M10.19,4.94a.58.58,0,0,1-.57-.57.57.57,0,0,1,.57-.57,1.38,1.38,0,0,0,.74-.21,1.35,1.35,0,0,0,.5-.56,1.32,1.32,0,0,0,.12-.73,1.35,1.35,0,0,0-.3-.68,1.33,1.33,0,0,0-.63-.41,1.44,1.44,0,0,0-.77,0,1.34,1.34,0,0,0-.65.38,1.29,1.29,0,0,0-.35.66A.58.58,0,0,1,7.72,2,2.41,2.41,0,0,1,8.36.78,2.47,2.47,0,0,1,9.57.08a2.56,2.56,0,0,1,2.57.81,2.52,2.52,0,0,1,.56,1.27,2.38,2.38,0,0,1-.23,1.36,2.37,2.37,0,0,1-.93,1A2.56,2.56,0,0,1,10.19,4.94Z"/></svg>