<svg xmlns="http://www.w3.org/2000/svg" width="22" height="18" viewBox="0 0 22 18"><path d="M1.64,0H20.36A1.7,1.7,0,0,1,22,1.75v14.5A1.7,1.7,0,0,1,20.36,18H1.64A1.7,1.7,0,0,1,0,16.25V1.75A1.7,1.7,0,0,1,1.64,0Zm0,1.61a.13.13,0,0,0-.12.14v14.5a.13.13,0,0,0,.12.14H20.36a.13.13,0,0,0,.12-.14V1.75a.13.13,0,0,0-.12-.14Z" fill="#776fef" fill-rule="evenodd"/><path d="M20.48,5.64h-19V4h19Z" fill="#776fef" fill-rule="evenodd"/><path d="M7.84,5.64l-3.79-4L5.15,1,8.94,5Z" fill="#776fef" fill-rule="evenodd"/><path d="M2.78,5.64l-2.53-3L1.38,2,3.91,5Z" fill="#776fef" fill-rule="evenodd"/><path d="M12.9,5.64l-3.8-4L10.21,1,14,5Z" fill="#776fef" fill-rule="evenodd"/><path d="M18,5.64l-3.79-4L15.26,1l3.8,4Z" fill="#776fef" fill-rule="evenodd"/><path d="M20.48,3,19.22,1.61l.89-.95L21.38,2Z" fill="#776fef" fill-rule="evenodd"/><path d="M12.6,11,9.1,9.16v3.71Zm1.69.6a.7.7,0,0,0,0-1.21L8.75,7.47a.63.63,0,0,0-.91.6V14a.63.63,0,0,0,.91.6Z" fill="#776fef" fill-rule="evenodd"/></svg>