<svg xmlns="http://www.w3.org/2000/svg" width="12" height="14" viewBox="0 0 12 14"><path d="M3.69,14a3.67,3.67,0,0,1-2.61-1.12,3.91,3.91,0,0,1,0-5.4L7.44.81a2.83,2.83,0,0,1,.87-.6,2.58,2.58,0,0,1,2,0,2.61,2.61,0,0,1,.87.6,2.91,2.91,0,0,1,.58.89A2.93,2.93,0,0,1,12,2.76a2.88,2.88,0,0,1-.2,1.05,2.84,2.84,0,0,1-.58.9L4.86,11.38a1.64,1.64,0,0,1-2.33,0,1.7,1.7,0,0,1-.48-1.2A1.72,1.72,0,0,1,2.53,9L7.87,3.37a.61.61,0,0,1,.87,0,.65.65,0,0,1,0,.9L3.41,9.88a.39.39,0,0,0-.13.3.42.42,0,0,0,.12.3.41.41,0,0,0,.58,0l6.37-6.67a1.52,1.52,0,0,0,.31-.48,1.65,1.65,0,0,0,.11-.57,1.56,1.56,0,0,0-.11-.57,1.52,1.52,0,0,0-.31-.48,1.27,1.27,0,0,0-.47-.32,1.4,1.4,0,0,0-1.1,0,1.32,1.32,0,0,0-.46.32L2,8.38a2.56,2.56,0,0,0-.73,1.8A2.59,2.59,0,0,0,2,12a2.48,2.48,0,0,0,3.48,0l5.26-5.43a.6.6,0,0,1,.87,0,.65.65,0,0,1,0,.9L6.3,12.88A3.65,3.65,0,0,1,3.69,14Z" fill="#3572f2"/></svg>