<svg xmlns="http://www.w3.org/2000/svg" width="18" height="18" viewBox="0 0 18 18"><path d="M9,18A9,9,0,1,0,0,9,9,9,0,0,0,9,18Z"/><path d="M9,15a1.13,1.13,0,1,0-1.12-1.12A1.13,1.13,0,0,0,9,15Z" fill="#fff"/><path d="M9,11.25a.76.76,0,0,1-.75-.75V9.75A.76.76,0,0,1,9,9a1.85,1.85,0,0,0,1-.32,1.78,1.78,0,0,0,.69-.84,1.87,1.87,0,0,0-.4-2,1.91,1.91,0,0,0-1-.51,1.85,1.85,0,0,0-1.09.1,2,2,0,0,0-.84.69,1.85,1.85,0,0,0-.31,1,.75.75,0,0,1-1.5,0,3.39,3.39,0,0,1,4-3.32,3.49,3.49,0,0,1,1.73.93,3.36,3.36,0,0,1,.92,1.73,3.38,3.38,0,0,1-2.56,4v.08A.76.76,0,0,1,9,11.25Z" fill="#fff"/></svg>