<svg width="452" height="352" viewBox="0 0 452 352" fill="none" xmlns="http://www.w3.org/2000/svg">
<rect x="178" y="313.5" width="95" height="30" rx="8" fill="#FAFAFA"/>
<g clip-path="url(#clip0_609_156103)">
<path d="M198.714 324.69C198.714 324.084 198.955 323.503 199.384 323.074C199.812 322.645 200.394 322.405 201 322.405C201.606 322.405 202.188 322.645 202.616 323.074C203.045 323.503 203.286 324.084 203.286 324.69V326.214H204.809V324.69C204.809 323.68 204.408 322.711 203.694 321.997C202.979 321.282 202.01 320.881 201 320.881C199.99 320.881 199.021 321.282 198.306 321.997C197.592 322.711 197.19 323.68 197.19 324.69V326.214H198.714V324.69ZM201 333.071C200.798 333.071 200.604 332.991 200.461 332.848C200.318 332.705 200.238 332.511 200.238 332.309V330.024C200.238 329.822 200.318 329.628 200.461 329.485C200.604 329.342 200.798 329.262 201 329.262C201.202 329.262 201.396 329.342 201.539 329.485C201.682 329.628 201.762 329.822 201.762 330.024V332.309C201.762 332.511 201.682 332.705 201.539 332.848C201.396 332.991 201.202 333.071 201 333.071Z" fill="#989FA0"/>
<path d="M204.809 326.214H197.19C196.584 326.214 196.002 326.455 195.574 326.883C195.145 327.312 194.904 327.893 194.904 328.5V333.833C194.904 334.439 195.145 335.021 195.574 335.449C196.002 335.878 196.584 336.119 197.19 336.119H204.809C205.415 336.119 205.997 335.878 206.425 335.449C206.854 335.021 207.095 334.439 207.095 333.833V328.5C207.095 327.893 206.854 327.312 206.425 326.883C205.997 326.455 205.415 326.214 204.809 326.214ZM201.761 332.309C201.761 332.511 201.681 332.705 201.538 332.848C201.395 332.991 201.202 333.071 201 333.071C200.797 333.071 200.604 332.991 200.461 332.848C200.318 332.705 200.238 332.511 200.238 332.309V330.023C200.238 329.821 200.318 329.628 200.461 329.485C200.604 329.342 200.797 329.261 201 329.261C201.202 329.261 201.395 329.342 201.538 329.485C201.681 329.628 201.761 329.821 201.761 330.023V332.309Z" fill="#D7D7D7"/>
</g>
<path d="M218.13 333.668C217.337 333.668 216.669 333.542 216.128 333.29C215.587 333.029 215.176 332.66 214.896 332.184C214.625 331.708 214.49 331.143 214.49 330.49H216.59C216.59 330.966 216.711 331.321 216.954 331.554C217.197 331.787 217.589 331.904 218.13 331.904C218.643 331.904 219.026 331.792 219.278 331.568C219.539 331.335 219.67 331.008 219.67 330.588C219.67 330.149 219.539 329.818 219.278 329.594C219.026 329.37 218.643 329.258 218.13 329.258H217.206V327.662H218.13C218.578 327.662 218.923 327.569 219.166 327.382C219.409 327.186 219.53 326.887 219.53 326.486C219.53 326.141 219.413 325.856 219.18 325.632C218.947 325.408 218.597 325.296 218.13 325.296C217.654 325.296 217.299 325.403 217.066 325.618C216.842 325.833 216.73 326.15 216.73 326.57H214.63C214.63 325.926 214.756 325.38 215.008 324.932C215.269 324.475 215.661 324.129 216.184 323.896C216.707 323.653 217.355 323.532 218.13 323.532C218.905 323.532 219.553 323.649 220.076 323.882C220.599 324.115 220.986 324.433 221.238 324.834C221.499 325.235 221.63 325.688 221.63 326.192C221.63 326.743 221.476 327.209 221.168 327.592C220.869 327.965 220.468 328.231 219.964 328.39C220.543 328.549 220.986 328.829 221.294 329.23C221.611 329.622 221.77 330.135 221.77 330.77C221.77 331.33 221.621 331.829 221.322 332.268C221.033 332.697 220.617 333.038 220.076 333.29C219.535 333.542 218.886 333.668 218.13 333.668ZM229.729 333.668C229.104 333.668 228.549 333.561 228.063 333.346C227.587 333.131 227.2 332.819 226.901 332.408C226.603 331.997 226.425 331.526 226.369 330.994H228.245C228.339 331.349 228.516 331.624 228.777 331.82C229.048 332.007 229.365 332.1 229.729 332.1C230.233 332.1 230.63 331.965 230.919 331.694C231.209 331.423 231.391 330.989 231.465 330.392H228.889V329.048H231.451C231.377 328.516 231.19 328.124 230.891 327.872C230.593 327.611 230.205 327.48 229.729 327.48C229.272 327.48 228.927 327.583 228.693 327.788C228.469 327.984 228.32 328.25 228.245 328.586H226.369C226.407 328.091 226.556 327.639 226.817 327.228C227.088 326.817 227.466 326.495 227.951 326.262C228.446 326.029 229.039 325.912 229.729 325.912C230.429 325.912 231.055 326.052 231.605 326.332C232.156 326.612 232.585 327.023 232.893 327.564C233.211 328.105 233.369 328.777 233.369 329.58V329.86C233.369 330.7 233.215 331.405 232.907 331.974C232.609 332.534 232.189 332.959 231.647 333.248C231.106 333.528 230.467 333.668 229.729 333.668ZM236.361 333.5V327.62H233.995V326.08H240.561V327.62H238.209V333.5H236.361ZM243.617 333.668C243.085 333.668 242.632 333.57 242.259 333.374C241.885 333.169 241.601 332.889 241.405 332.534C241.209 332.179 241.111 331.778 241.111 331.33C241.111 330.583 241.33 330.023 241.769 329.65C242.217 329.277 242.884 329.09 243.771 329.09H245.983V328.74C245.983 328.255 245.871 327.914 245.647 327.718C245.432 327.522 245.087 327.424 244.611 327.424C244.191 327.424 243.887 327.499 243.701 327.648C243.514 327.788 243.407 327.965 243.379 328.18H241.531C241.559 327.751 241.694 327.368 241.937 327.032C242.189 326.687 242.543 326.416 243.001 326.22C243.467 326.015 244.027 325.912 244.681 325.912C245.315 325.912 245.866 326.005 246.333 326.192C246.809 326.379 247.177 326.682 247.439 327.102C247.7 327.513 247.831 328.068 247.831 328.768V331.61C247.831 332.002 247.835 332.347 247.845 332.646C247.863 332.935 247.891 333.22 247.929 333.5H246.207C246.169 333.295 246.146 333.141 246.137 333.038C246.137 332.926 246.137 332.763 246.137 332.548C245.941 332.847 245.633 333.108 245.213 333.332C244.793 333.556 244.261 333.668 243.617 333.668ZM244.191 332.24C244.489 332.24 244.774 332.189 245.045 332.086C245.325 331.974 245.549 331.806 245.717 331.582C245.894 331.349 245.983 331.055 245.983 330.7V330.35H244.121C243.766 330.35 243.486 330.434 243.281 330.602C243.085 330.761 242.987 330.98 242.987 331.26C242.987 331.559 243.089 331.797 243.295 331.974C243.5 332.151 243.799 332.24 244.191 332.24ZM249.458 333.5V326.08H256.15V333.5H254.316V327.62H251.292V333.5H249.458Z" fill="#989FA0"/>
<ellipse cx="298" cy="344" rx="33" ry="3" fill="#E7E7E7"/>
<path d="M314.906 311.094C314.302 311.094 313.812 311.583 313.812 312.188V313.281H283.188V312.188C283.188 311.583 282.698 311.094 282.094 311.094C281.49 311.094 281 311.583 281 312.188V314.375V327.5V342.812C281 343.417 281.49 343.906 282.094 343.906C282.698 343.906 283.188 343.417 283.188 342.812V328.594H313.812V342.812C313.812 343.417 314.302 343.906 314.906 343.906C315.51 343.906 316 343.417 316 342.812V327.5V314.375V312.188C316 311.583 315.51 311.094 314.906 311.094ZM309.438 326.406V320.938H303.969V326.406H298.5V320.938H293.031V326.406H287.562V320.938H283.188V315.469H287.562V320.938H293.031V315.469H298.5V320.938H303.969V315.469H309.438V320.938H313.812V326.406H309.438Z" fill="#989FA0"/>
<path d="M303.969 320.938H298.5V326.406H303.969V320.938Z" fill="white"/>
<path d="M287.562 315.469H283.188V320.938H287.562V315.469Z" fill="white"/>
<path d="M313.812 320.938H309.438V326.406H313.812V320.938Z" fill="white"/>
<path d="M309.438 315.469H303.969V320.938H309.438V315.469Z" fill="white"/>
<path d="M298.5 315.469H293.031V320.938H298.5V315.469Z" fill="white"/>
<path d="M210.5 294.622L192.753 283.16C164.029 264.607 128.773 258.05 94.6489 264.916L77.5326 268.36C71.8992 269.493 66.1144 269.537 60.506 268.49L53.6548 267.21C40.3466 264.724 30.0565 254.557 27.6313 241.499V241.499C23.1095 217.152 46.9233 196.437 70.9965 203.776L110.795 215.911C113.245 216.658 115.891 216.599 118.334 215.743V215.743C131.395 211.17 127.597 187.203 114.175 184.358C101.623 181.697 92.496 177.418 91.5004 170.651C88.0004 146.865 209 185.5 216 158" stroke="#F8F8F8" stroke-width="18" stroke-linecap="round"/>
<path d="M246 295C278.198 288.586 302.534 282.676 321.018 277.186C353.157 267.64 330.377 235.521 312.592 263.943C308.091 271.136 313.565 278.008 322.551 283.766C347.658 299.856 382.923 288.521 401.108 264.888C407.616 256.43 412.528 247.998 413.088 241.432C417.008 195.453 353.104 198 334 198C314.6 198 306.916 199.658 301.502 202.441C295.851 205.344 291.226 212.803 295.231 217.734C299.651 223.176 311.707 220.823 340.5 219C369 212 364.301 206.391 371.835 202C377.79 194.76 382.1 171.751 374.5 165C374.5 157.5 354.472 155.202 363.5 175.5C384.185 209.339 427 182.5 416 159.5C384 110.8 289.5 175.798 257 154.5" stroke="#F8F8F8" stroke-width="18" stroke-linecap="round"/>
<path d="M233.03 292.863L242.321 283.636C254.407 271.633 260.105 255.675 257.729 240.482V240.482C255.924 228.944 244.464 221.408 231.444 223.198L205.435 226.773C193.626 228.396 181.788 227.805 170.667 225.037L169.423 224.727C169.169 224.664 168.957 224.518 168.826 224.315V224.315C160.604 211.64 172.642 194.56 189.392 195.136L208.731 195.801C212.542 195.932 216.41 195.403 220.13 194.241L226.271 192.324C244.213 186.721 248.065 176.37 236.813 163.962C234.919 161.873 232.821 159.56 230.5 157" stroke="#F8F8F8" stroke-width="18" stroke-linecap="round"/>
<path d="M233.03 292.863L242.321 283.636C254.407 271.633 260.105 255.675 257.729 240.482V240.482C255.924 228.944 244.464 221.408 231.444 223.198L205.435 226.773C193.626 228.396 181.788 227.805 170.667 225.037L169.423 224.727C169.169 224.664 168.957 224.518 168.826 224.315V224.315C160.604 211.64 172.642 194.56 189.392 195.136L208.731 195.801C212.542 195.932 216.41 195.403 220.13 194.241L226.271 192.324C244.213 186.721 248.065 176.37 236.813 163.962C234.919 161.873 232.821 159.56 230.5 157" stroke="#D7D7D7" stroke-width="2.5" stroke-linecap="round" stroke-dasharray="5.84 5.84"/>
<path d="M210.5 294.622L192.753 283.16C164.029 264.607 128.773 258.05 94.6489 264.916L77.5326 268.36C71.8992 269.493 66.1144 269.537 60.506 268.49L53.6548 267.21C40.3466 264.724 30.0565 254.557 27.6313 241.499V241.499C23.1095 217.152 46.9233 196.437 70.9965 203.776L110.795 215.911C113.245 216.658 115.891 216.599 118.334 215.743V215.743C131.395 211.17 127.597 187.203 114.175 184.358C101.623 181.697 92.496 177.418 91.5004 170.651C88.0004 146.865 209 185.5 216 158" stroke="#D7D7D7" stroke-width="2.5" stroke-linecap="round" stroke-dasharray="6.84 6.84"/>
<path d="M246 295C278.198 288.586 302.534 282.676 321.018 277.186C353.157 267.64 330.377 235.521 312.592 263.943C308.091 271.136 313.565 278.008 322.551 283.766C347.658 299.856 382.923 288.521 401.108 264.888C407.616 256.43 412.528 247.998 413.088 241.432C417.008 195.453 353.104 198 334 198C314.6 198 306.916 199.658 301.502 202.441C295.851 205.344 291.226 212.803 295.231 217.734C299.651 223.176 311.707 220.823 340.5 219C369 212 364.301 206.391 371.835 202C377.79 194.76 382.1 171.751 374.5 165C374.5 157.5 354.472 155.202 363.5 175.5C384.185 209.339 427 182.5 416 159.5C384 110.8 289.5 175.798 257 154.5" stroke="#D7D7D7" stroke-width="2.5" stroke-linecap="round" stroke-dasharray="6 6"/>
<path fill-rule="evenodd" clip-rule="evenodd" d="M160.5 63.75C160.5 63.3358 160.164 63 159.75 63C159.336 63 159 63.3358 159 63.75V83.75C159 84.1642 159.336 84.5 159.75 84.5C160.164 84.5 160.5 84.1642 160.5 83.75V75.6V65.6V63.75Z" fill="#B5B5B5"/>
<path d="M167.558 65.8738L167.145 65.7085C165.582 65.0834 163.871 64.9263 162.221 65.2564L160.5 65.6005V75.6005L162.221 75.2564C163.871 74.9263 165.582 75.0834 167.145 75.7085C168.838 76.3859 170.702 76.5124 172.472 76.07L172.572 76.045C173.158 75.8985 173.436 75.2274 173.125 74.7094L171.565 72.1083C171.223 71.5392 171.052 71.2546 171.012 70.945C170.995 70.8159 170.995 70.6851 171.012 70.556C171.052 70.2465 171.223 69.9619 171.565 69.3927L172.843 67.2618C173.178 66.7041 172.671 66.0202 172.04 66.178C170.551 66.5502 168.983 66.4438 167.558 65.8738Z" fill="#D7D7D7"/>
<rect x="178" y="59" width="95" height="30" rx="8" fill="#FAFAFA"/>
<path d="M199.214 70.1904C199.214 69.5842 199.455 69.0028 199.884 68.5741C200.312 68.1455 200.894 67.9047 201.5 67.9047C202.106 67.9047 202.688 68.1455 203.116 68.5741C203.545 69.0028 203.786 69.5842 203.786 70.1904V71.7142H205.309V70.1904C205.309 69.18 204.908 68.2111 204.194 67.4966C203.479 66.7822 202.51 66.3809 201.5 66.3809C200.49 66.3809 199.521 66.7822 198.806 67.4966C198.092 68.2111 197.69 69.18 197.69 70.1904V71.7142H199.214V70.1904ZM201.5 78.5713C201.298 78.5713 201.104 78.4911 200.961 78.3482C200.818 78.2053 200.738 78.0115 200.738 77.8094V75.5237C200.738 75.3216 200.818 75.1279 200.961 74.985C201.104 74.8421 201.298 74.7618 201.5 74.7618C201.702 74.7618 201.896 74.8421 202.039 74.985C202.182 75.1279 202.262 75.3216 202.262 75.5237V77.8094C202.262 78.0115 202.182 78.2053 202.039 78.3482C201.896 78.4911 201.702 78.5713 201.5 78.5713Z" fill="#989FA0"/>
<path d="M205.309 71.7139H197.69C197.084 71.7139 196.502 71.9547 196.074 72.3833C195.645 72.812 195.404 73.3934 195.404 73.9996V79.3329C195.404 79.9391 195.645 80.5205 196.074 80.9492C196.502 81.3778 197.084 81.6186 197.69 81.6186H205.309C205.915 81.6186 206.497 81.3778 206.925 80.9492C207.354 80.5205 207.595 79.9391 207.595 79.3329V73.9996C207.595 73.3934 207.354 72.812 206.925 72.3833C206.497 71.9547 205.915 71.7139 205.309 71.7139ZM202.261 77.8091C202.261 78.0112 202.181 78.205 202.038 78.3479C201.895 78.4907 201.702 78.571 201.5 78.571C201.297 78.571 201.104 78.4907 200.961 78.3479C200.818 78.205 200.738 78.0112 200.738 77.8091V75.5234C200.738 75.3213 200.818 75.1275 200.961 74.9846C201.104 74.8418 201.297 74.7615 201.5 74.7615C201.702 74.7615 201.895 74.8418 202.038 74.9846C202.181 75.1275 202.261 75.3213 202.261 75.5234V77.8091Z" fill="#D7D7D7"/>
<path d="M215.13 79V77.264H217.37V71.328L215.13 72.924V70.88L217.496 69.2H219.47V77.264H221.29V79H215.13ZM228.835 79.168C228.209 79.168 227.654 79.0607 227.169 78.846C226.693 78.6313 226.305 78.3187 226.007 77.908C225.708 77.4973 225.531 77.026 225.475 76.494H227.351C227.444 76.8487 227.621 77.124 227.883 77.32C228.153 77.5067 228.471 77.6 228.835 77.6C229.339 77.6 229.735 77.4647 230.025 77.194C230.314 76.9233 230.496 76.4893 230.571 75.892H227.995V74.548H230.557C230.482 74.016 230.295 73.624 229.997 73.372C229.698 73.1107 229.311 72.98 228.835 72.98C228.377 72.98 228.032 73.0827 227.799 73.288C227.575 73.484 227.425 73.75 227.351 74.086H225.475C225.512 73.5913 225.661 73.1387 225.923 72.728C226.193 72.3173 226.571 71.9953 227.057 71.762C227.551 71.5287 228.144 71.412 228.835 71.412C229.535 71.412 230.16 71.552 230.711 71.832C231.261 72.112 231.691 72.5227 231.999 73.064C232.316 73.6053 232.475 74.2773 232.475 75.08V75.36C232.475 76.2 232.321 76.9047 232.013 77.474C231.714 78.034 231.294 78.4587 230.753 78.748C230.211 79.028 229.572 79.168 228.835 79.168ZM235.466 79V73.12H233.1V71.58H239.666V73.12H237.314V79H235.466ZM242.722 79.168C242.19 79.168 241.738 79.07 241.364 78.874C240.991 78.6687 240.706 78.3887 240.51 78.034C240.314 77.6793 240.216 77.278 240.216 76.83C240.216 76.0833 240.436 75.5233 240.874 75.15C241.322 74.7767 241.99 74.59 242.876 74.59H245.088V74.24C245.088 73.7547 244.976 73.414 244.752 73.218C244.538 73.022 244.192 72.924 243.716 72.924C243.296 72.924 242.993 72.9987 242.806 73.148C242.62 73.288 242.512 73.4653 242.484 73.68H240.636C240.664 73.2507 240.8 72.868 241.042 72.532C241.294 72.1867 241.649 71.916 242.106 71.72C242.573 71.5147 243.133 71.412 243.786 71.412C244.421 71.412 244.972 71.5053 245.438 71.692C245.914 71.8787 246.283 72.182 246.544 72.602C246.806 73.0127 246.936 73.568 246.936 74.268V77.11C246.936 77.502 246.941 77.8473 246.95 78.146C246.969 78.4353 246.997 78.72 247.034 79H245.312C245.275 78.7947 245.252 78.6407 245.242 78.538C245.242 78.426 245.242 78.2627 245.242 78.048C245.046 78.3467 244.738 78.608 244.318 78.832C243.898 79.056 243.366 79.168 242.722 79.168ZM243.296 77.74C243.595 77.74 243.88 77.6887 244.15 77.586C244.43 77.474 244.654 77.306 244.822 77.082C245 76.8487 245.088 76.5547 245.088 76.2V75.85H243.226C242.872 75.85 242.592 75.934 242.386 76.102C242.19 76.2607 242.092 76.48 242.092 76.76C242.092 77.0587 242.195 77.2967 242.4 77.474C242.606 77.6513 242.904 77.74 243.296 77.74ZM248.563 79V71.58H255.255V79H253.421V73.12H250.397V79H248.563Z" fill="#989FA0"/>
<path d="M180 137.5C143.5 137.5 152.811 113.18 163 107C184 94.2651 225.5 102.8 225.5 92.5003" stroke="#D7D7D7" stroke-width="2.5" stroke-linecap="round" stroke-linejoin="round" stroke-dasharray="6 6"/>
<rect x="178" y="120" width="95" height="30" rx="8" fill="#FAFAFA"/>
<g clip-path="url(#clip1_609_156103)">
<path d="M198.714 131.19C198.714 130.584 198.955 130.003 199.384 129.574C199.812 129.145 200.394 128.905 201 128.905C201.606 128.905 202.188 129.145 202.616 129.574C203.045 130.003 203.286 130.584 203.286 131.19V132.714H204.809V131.19C204.809 130.18 204.408 129.211 203.694 128.497C202.979 127.782 202.01 127.381 201 127.381C199.99 127.381 199.021 127.782 198.306 128.497C197.592 129.211 197.19 130.18 197.19 131.19V132.714H198.714V131.19ZM201 139.571C200.798 139.571 200.604 139.491 200.461 139.348C200.318 139.205 200.238 139.011 200.238 138.809V136.524C200.238 136.322 200.318 136.128 200.461 135.985C200.604 135.842 200.798 135.762 201 135.762C201.202 135.762 201.396 135.842 201.539 135.985C201.682 136.128 201.762 136.322 201.762 136.524V138.809C201.762 139.011 201.682 139.205 201.539 139.348C201.396 139.491 201.202 139.571 201 139.571Z" fill="#989FA0"/>
<path d="M204.809 132.714H197.19C196.584 132.714 196.002 132.955 195.574 133.383C195.145 133.812 194.904 134.393 194.904 135V140.333C194.904 140.939 195.145 141.521 195.574 141.949C196.002 142.378 196.584 142.619 197.19 142.619H204.809C205.415 142.619 205.997 142.378 206.425 141.949C206.854 141.521 207.095 140.939 207.095 140.333V135C207.095 134.393 206.854 133.812 206.425 133.383C205.997 132.955 205.415 132.714 204.809 132.714ZM201.761 138.809C201.761 139.011 201.681 139.205 201.538 139.348C201.395 139.491 201.202 139.571 201 139.571C200.797 139.571 200.604 139.491 200.461 139.348C200.318 139.205 200.238 139.011 200.238 138.809V136.523C200.238 136.321 200.318 136.128 200.461 135.985C200.604 135.842 200.797 135.761 201 135.761C201.202 135.761 201.395 135.842 201.538 135.985C201.681 136.128 201.761 136.321 201.761 136.523V138.809Z" fill="#D7D7D7"/>
</g>
<path d="M214.42 140V138.474L217.85 135.52C218.279 135.137 218.62 134.825 218.872 134.582C219.133 134.33 219.32 134.092 219.432 133.868C219.544 133.644 219.6 133.401 219.6 133.14C219.6 132.739 219.488 132.417 219.264 132.174C219.049 131.922 218.718 131.796 218.27 131.796C217.757 131.796 217.36 131.936 217.08 132.216C216.8 132.487 216.66 132.953 216.66 133.616H214.56C214.56 132.879 214.7 132.244 214.98 131.712C215.26 131.171 215.675 130.755 216.226 130.466C216.786 130.177 217.467 130.032 218.27 130.032C219.017 130.032 219.647 130.167 220.16 130.438C220.673 130.699 221.056 131.063 221.308 131.53C221.569 131.997 221.7 132.533 221.7 133.14C221.7 133.588 221.593 134.008 221.378 134.4C221.173 134.792 220.897 135.165 220.552 135.52C220.207 135.875 219.819 136.229 219.39 136.584L217.374 138.264H221.84V140H214.42ZM229.661 140.168C229.036 140.168 228.48 140.061 227.995 139.846C227.519 139.631 227.132 139.319 226.833 138.908C226.534 138.497 226.357 138.026 226.301 137.494H228.177C228.27 137.849 228.448 138.124 228.709 138.32C228.98 138.507 229.297 138.6 229.661 138.6C230.165 138.6 230.562 138.465 230.851 138.194C231.14 137.923 231.322 137.489 231.397 136.892H228.821V135.548H231.383C231.308 135.016 231.122 134.624 230.823 134.372C230.524 134.111 230.137 133.98 229.661 133.98C229.204 133.98 228.858 134.083 228.625 134.288C228.401 134.484 228.252 134.75 228.177 135.086H226.301C226.338 134.591 226.488 134.139 226.749 133.728C227.02 133.317 227.398 132.995 227.883 132.762C228.378 132.529 228.97 132.412 229.661 132.412C230.361 132.412 230.986 132.552 231.537 132.832C232.088 133.112 232.517 133.523 232.825 134.064C233.142 134.605 233.301 135.277 233.301 136.08V136.36C233.301 137.2 233.147 137.905 232.839 138.474C232.54 139.034 232.12 139.459 231.579 139.748C231.038 140.028 230.398 140.168 229.661 140.168ZM236.292 140V134.12H233.926V132.58H240.492V134.12H238.14V140H236.292ZM243.548 140.168C243.016 140.168 242.564 140.07 242.19 139.874C241.817 139.669 241.532 139.389 241.336 139.034C241.14 138.679 241.042 138.278 241.042 137.83C241.042 137.083 241.262 136.523 241.7 136.15C242.148 135.777 242.816 135.59 243.702 135.59H245.914V135.24C245.914 134.755 245.802 134.414 245.578 134.218C245.364 134.022 245.018 133.924 244.542 133.924C244.122 133.924 243.819 133.999 243.632 134.148C243.446 134.288 243.338 134.465 243.31 134.68H241.462C241.49 134.251 241.626 133.868 241.868 133.532C242.12 133.187 242.475 132.916 242.932 132.72C243.399 132.515 243.959 132.412 244.612 132.412C245.247 132.412 245.798 132.505 246.264 132.692C246.74 132.879 247.109 133.182 247.37 133.602C247.632 134.013 247.762 134.568 247.762 135.268V138.11C247.762 138.502 247.767 138.847 247.776 139.146C247.795 139.435 247.823 139.72 247.86 140H246.138C246.101 139.795 246.078 139.641 246.068 139.538C246.068 139.426 246.068 139.263 246.068 139.048C245.872 139.347 245.564 139.608 245.144 139.832C244.724 140.056 244.192 140.168 243.548 140.168ZM244.122 138.74C244.421 138.74 244.706 138.689 244.976 138.586C245.256 138.474 245.48 138.306 245.648 138.082C245.826 137.849 245.914 137.555 245.914 137.2V136.85H244.052C243.698 136.85 243.418 136.934 243.212 137.102C243.016 137.261 242.918 137.48 242.918 137.76C242.918 138.059 243.021 138.297 243.226 138.474C243.432 138.651 243.73 138.74 244.122 138.74ZM249.389 140V132.58H256.081V140H254.247V134.12H251.223V140H249.389Z" fill="#989FA0"/>
<path d="M219.5 53.9999C219.5 41.4999 56.5002 50.4999 49.7399 38.2451" stroke="#D7D7D7" stroke-width="2.5" stroke-linecap="round" stroke-linejoin="round" stroke-dasharray="6 6"/>
<path d="M244.5 52.5C251.5 42 416.09 50.5 422.85 38.2451" stroke="#D7D7D7" stroke-width="2.5" stroke-linecap="round" stroke-linejoin="round" stroke-dasharray="6 6"/>
<path d="M232.001 55.0005C224.274 30.7181 252.121 16.6832 240.538 15.2375" stroke="#D7D7D7" stroke-width="2.5" stroke-linecap="round" stroke-linejoin="round" stroke-dasharray="6 6"/>
<defs>
<clipPath id="clip0_609_156103">
<rect width="14" height="16" fill="white" transform="translate(194 320.5)"/>
</clipPath>
<clipPath id="clip1_609_156103">
<rect width="14" height="16" fill="white" transform="translate(194 127)"/>
</clipPath>
</defs>
</svg>
