<svg xmlns="http://www.w3.org/2000/svg" width="256" height="44" viewBox="0 0 256 44"><path d="M5.71,10.75a1,1,0,0,1-.8-.4,34.77,34.77,0,0,1-4.84-9A1,1,0,0,1,.65.06h0a1,1,0,0,1,1.28.6,32.82,32.82,0,0,0,4.59,8.5,1,1,0,0,1-.22,1.4h0A1.06,1.06,0,0,1,5.71,10.75Z" fill="#eeecf7"/><path d="M20.89,23.51a.94.94,0,0,1-.48-.13A57.36,57.36,0,0,1,12,17.71a1,1,0,0,1-.13-1.41h0a1,1,0,0,1,1.4-.14,54.13,54.13,0,0,0,8.14,5.47A1,1,0,0,1,21.83,23h0a1,1,0,0,1-.9.53Z" fill="#eeecf7"/><path d="M39.41,30.9a1.22,1.22,0,0,1-.27,0,92.77,92.77,0,0,1-9.58-3.2,1,1,0,0,1,.74-1.86C33.23,27,36.39,28,39.71,29a1,1,0,0,1-.28,2Z" fill="#eeecf7"/><path d="M59,34.9h-.13c-3.42-.47-6.76-1-9.93-1.67a1,1,0,1,1,.4-2c3.13.63,6.43,1.19,9.8,1.65a1,1,0,0,1-.14,2Z" fill="#eeecf7"/><path d="M79,36.58h0c-3.39-.12-6.77-.32-10-.59a1,1,0,0,1-1-1v-.08A1,1,0,0,1,69.06,34c3.24.26,6.58.46,9.94.58a1,1,0,0,1,0,2Z" fill="#eeecf7"/><path d="M89,36.71a1,1,0,0,1,0-2c3.35,0,6.69-.15,10-.33a1,1,0,0,1,.11,2c-3.28.19-6.66.3-10,.34Z" fill="#eeecf7"/><path d="M109,35.58a1,1,0,1,1-.11-2c3.63-.41,6.93-.9,9.81-1.47a1,1,0,0,1,.38,2c-2.93.58-6.29,1.08-10,1.49Z" fill="#eeecf7"/><path d="M128.54,31.82a1,1,0,1,1-.26-2q5-1.18,9.75-2.27a1,1,0,0,1,.44,1.95h0c-3.15.72-6.39,1.48-9.73,2.26h-.18Z" fill="#eeecf7"/><path d="M148,27.33a1,1,0,0,1-.22-2l9.78-2.15a1,1,0,1,1,.42,2c-3.15.67-6.4,1.39-9.76,2.14H148Z" fill="#eeecf7"/><path d="M167.6,23.14a1,1,0,0,1-.2-2c3.45-.7,6.76-1.34,9.82-1.91a1,1,0,1,1,.37,2h0c-3.05.57-6.35,1.22-9.79,1.91Z" fill="#eeecf7"/><path d="M187.25,19.51a1,1,0,0,1-.15-2c3.49-.57,6.83-1.06,9.92-1.45a1,1,0,1,1,.26,2h0c-3.07.39-6.39.88-9.86,1.44Z" fill="#eeecf7"/><path d="M207.09,17a1,1,0,0,1-.07-2c3.33-.26,6.46-.39,9.33-.39h.74a1,1,0,0,1,0,2h-.73c-2.81,0-5.9.13-9.18.38Z" fill="#eeecf7"/><path d="M236.64,20a1.1,1.1,0,0,1-.4-.08,37.08,37.08,0,0,0-9.36-2.59,1,1,0,0,1,.31-2A39.6,39.6,0,0,1,237,18.1a1,1,0,0,1,.51,1.32h0A1,1,0,0,1,236.64,20Z" fill="#eeecf7"/><path d="M250.73,33.6a1,1,0,0,1-.88-.53,31.84,31.84,0,0,0-5.69-7.79,1,1,0,1,1,1.41-1.43h0a33.32,33.32,0,0,1,6,8.28,1,1,0,0,1-.4,1.36h0a1.19,1.19,0,0,1-.41.11Z" fill="#eeecf7"/><path d="M255,44a1,1,0,0,1-1-.7c-.13-.39-.25-.78-.38-1.16a1,1,0,0,1,.45-1.34,1,1,0,0,1,1.34.44l0,.1a.49.49,0,0,1,.06.17c.14.39.26.79.39,1.19a1,1,0,0,1-.6,1.28h0A.82.82,0,0,1,255,44Z" fill="#eeecf7"/></svg>