<svg xmlns="http://www.w3.org/2000/svg" width="22" height="22" viewBox="0 0 22 22"><path d="M8.23,22a.93.93,0,0,1-.65-.27l-2-2a.91.91,0,0,1-.06-1.23,1.43,1.43,0,0,0,.35-1A1.4,1.4,0,0,0,4.5,16.15a1.47,1.47,0,0,0-1,.34.86.86,0,0,1-.63.21.87.87,0,0,1-.61-.26l-2-2A.87.87,0,0,1,0,13.77a.91.91,0,0,1,.27-.64L8.54,4.86a1.64,1.64,0,0,1,.71-.44.38.38,0,0,0,.13-.09.34.34,0,0,0,.09-.14,1.88,1.88,0,0,1,.44-.71L13.13.26a.92.92,0,0,1,1.29,0l2,2a.93.93,0,0,1,.27.61.9.9,0,0,1-.22.63,1.42,1.42,0,0,0-.34,1,1.38,1.38,0,0,0,.41.94,1.4,1.4,0,0,0,.94.41,1.42,1.42,0,0,0,1-.34.91.91,0,0,1,1.24,0l2,2a.93.93,0,0,1,.27.65.91.91,0,0,1-.27.64l-3.22,3.23a1.88,1.88,0,0,1-.71.44.29.29,0,0,0-.14.08.39.39,0,0,0-.08.14,1.81,1.81,0,0,1-.44.71L8.87,21.73A.91.91,0,0,1,8.23,22Zm-1.3-3,1.3,1.3,7.87-7.88a.38.38,0,0,0,.09-.13,1.68,1.68,0,0,1,.43-.71,1.91,1.91,0,0,1,.71-.45.25.25,0,0,0,.14-.08L20.3,8.22,19,6.92a2.93,2.93,0,0,1-1.55.39,2.87,2.87,0,0,1-1.92-.84h0a2.82,2.82,0,0,1-.84-1.92A2.83,2.83,0,0,1,15.07,3l-1.3-1.3L10.94,4.52a.39.39,0,0,0-.08.14,1.88,1.88,0,0,1-.44.71,1.81,1.81,0,0,1-.71.44.39.39,0,0,0-.14.08L1.7,13.77,3,15.07a2.76,2.76,0,0,1,1.55-.39,2.92,2.92,0,0,1,1.93.84,2.84,2.84,0,0,1,.83,1.93A2.79,2.79,0,0,1,6.93,19Zm-.34-.33h0Zm-4-3.3Zm16.1-8.78h0Zm-3.29-4h0Z" fill="#776fef"/><path d="M17.05,12.74a.7.7,0,0,1-.51-.22l-.76-.75a.74.74,0,0,1,1-1l.75.75a.73.73,0,0,1,0,1A.7.7,0,0,1,17.05,12.74Zm-2.27-2.27a.74.74,0,0,1-.52-.22l-.5-.5a.74.74,0,0,1,1-1l.5.5a.73.73,0,0,1,0,1A.7.7,0,0,1,14.78,10.47Zm-2-2a.7.7,0,0,1-.52-.22l-.51-.5a.75.75,0,0,1,0-1,.73.73,0,0,1,1,0l.5.51a.72.72,0,0,1,0,1A.7.7,0,0,1,12.77,8.45Zm-2-2a.7.7,0,0,1-.52-.22l-.76-.75a.75.75,0,0,1,0-1,.73.73,0,0,1,1,0l.76.76a.74.74,0,0,1,0,1A.72.72,0,0,1,10.75,6.43Z" fill="#776fef"/></svg>