<svg xmlns="http://www.w3.org/2000/svg" width="22" height="24" viewBox="0 0 22 24"><path d="M21.23,13.79a.77.77,0,0,1-.76-.77V8.23l-6.72-6.7h-12a.25.25,0,0,0-.18.08.23.23,0,0,0-.08.18V13a.77.77,0,0,1-.76.77A.77.77,0,0,1,0,13V1.79A1.82,1.82,0,0,1,.52.52,1.82,1.82,0,0,1,1.79,0H14.07a.77.77,0,0,1,.54.22l7.17,7.15a.79.79,0,0,1,.22.54V13A.77.77,0,0,1,21.23,13.79Z"/><path d="M21.23,8.68H14.07a.77.77,0,0,1-.77-.77V.77a.77.77,0,1,1,1.54,0V7.15h6.39a.77.77,0,1,1,0,1.53Z"/><path d="M.77,24A.76.76,0,0,1,0,23.23V17.11a.76.76,0,0,1,.77-.77h2a2.8,2.8,0,0,1,2,4.79,2.75,2.75,0,0,1-2,.83H1.53v1.27A.76.76,0,0,1,.77,24Zm.76-3.57H2.81a1.3,1.3,0,0,0,.91-.38,1.26,1.26,0,0,0,.37-.9,1.25,1.25,0,0,0-.37-.9,1.3,1.3,0,0,0-.91-.38H1.53Z"/><path d="M10.49,24H9a.76.76,0,0,1-.76-.77V17.11A.76.76,0,0,1,9,16.34h1.54a3.83,3.83,0,1,1,0,7.66Zm-.77-1.53h.77a2.34,2.34,0,0,0,1.63-.68,2.29,2.29,0,0,0,0-3.24,2.34,2.34,0,0,0-1.63-.68H9.72Z"/><path d="M17.65,24a.77.77,0,0,1-.77-.77V17.11a.77.77,0,0,1,.77-.77h3.58a.77.77,0,1,1,0,1.53H18.42v5.36A.77.77,0,0,1,17.65,24Z"/><path d="M20.72,21.45H17.65a.77.77,0,0,1,0-1.54h3.07a.77.77,0,0,1,0,1.54Z"/></svg>