<svg xmlns="http://www.w3.org/2000/svg" width="20" height="10" viewBox="0 0 20 10"><path d="M19.23,7.89a.76.76,0,0,1-.69-.43L16.49,3.25a.8.8,0,0,1,.35-1.06.75.75,0,0,1,1,.35l2.05,4.21a.8.8,0,0,1-.35,1.06A.68.68,0,0,1,19.23,7.89Z" /><path d="M13.08,10a.78.78,0,0,1-.75-.6l-1-4.21a.8.8,0,0,1,.56-1,.79.79,0,0,1,.94.58l1,4.21a.79.79,0,0,1-.56,1Z" /><path d="M6.92,10l-.18,0a.79.79,0,0,1-.56-1l1-4.21a.77.77,0,1,1,1.49.38l-1,4.21A.78.78,0,0,1,6.92,10Z" /><path d="M.77,7.89a.68.68,0,0,1-.34-.08A.8.8,0,0,1,.08,6.75L2.13,2.54a.75.75,0,0,1,1-.35.8.8,0,0,1,.35,1.06l-2,4.21A.76.76,0,0,1,.77,7.89Z" /><path d="M10,5.79A12.65,12.65,0,0,1,.2,1.32.8.8,0,0,1,.26.2.75.75,0,0,1,1.34.26a11.2,11.2,0,0,0,8.66,4A11.2,11.2,0,0,0,18.66.26.75.75,0,0,1,19.74.2a.8.8,0,0,1,.06,1.12A12.65,12.65,0,0,1,10,5.79Z" /></svg>