<svg xmlns="http://www.w3.org/2000/svg" width="256" height="54" viewBox="0 0 256 54"><g><path d="M2.47,6.09a1,1,0,0,1-.83,1.14h0A1,1,0,0,1,.49,6.41h0Z" fill="#eeecf7"/><path d="M.48,6.35Q.15,3.8,0,1.07L2,1c.1,1.77.25,3.48.47,5.13Z" fill="#eeecf7"/><path d="M0,1.07A1,1,0,0,1,.93,0H1A1,1,0,0,1,2,1Z" fill="#eeecf7"/></g><g><path d="M8.89,25.34a1,1,0,0,1-.29,1.38h0a1,1,0,0,1-1.38-.32h0Z" fill="#eeecf7"/><path d="M2.78,16.73a1,1,0,0,1,.61-1.27h0a1,1,0,0,1,1.26.65h0Z" fill="#eeecf7"/><path d="M7.19,26.41a46,46,0,0,1-4.41-9.68l1.9-.64a44.88,44.88,0,0,0,4.21,9.25Z" fill="#eeecf7"/></g><g><path d="M23.22,39.33a1,1,0,0,1,.39,1.36h0a1,1,0,0,1-1.36.37h0Z" fill="#eeecf7"/><path d="M13.8,34.69a1,1,0,0,1,0-1.41h0a1,1,0,0,1,1.41,0h0Z" fill="#eeecf7"/><path d="M22.22,41a43.77,43.77,0,0,1-8.42-6.35l1.38-1.48a41.45,41.45,0,0,0,8,6.07Z" fill="#eeecf7"/></g><g><path d="M42.2,46a1,1,0,1,1-.34,2h0Z" fill="#eeecf7"/><path d="M31.75,45.43a1,1,0,0,1-.64-1.26h0a1,1,0,0,1,1.26-.64h0Z" fill="#eeecf7"/><path d="M41.85,48a67.71,67.71,0,0,1-10.1-2.59l.64-1.93A66.29,66.29,0,0,0,42.2,46Z" fill="#eeecf7"/></g><g><path d="M62.45,47.13a1,1,0,1,1,.08,2Z" fill="#eeecf7"/><path d="M52.17,49.13a1,1,0,1,1,.11-2Z" fill="#eeecf7"/><path d="M62.57,49.2c-3.52.15-7,.13-10.36,0l.11-2a90.8,90.8,0,0,0,10.17,0Z" fill="#eeecf7"/></g><g><path d="M82.68,44.67a1,1,0,0,1,1.18.78h0a1,1,0,0,1-.77,1.18h0Z" fill="#eeecf7"/><path d="M72.85,48.3a1,1,0,0,1-1.12-.86h0a1,1,0,0,1,.84-1.14h0Z" fill="#eeecf7"/><path d="M83.1,46.7c-3.42.67-6.83,1.22-10.21,1.63l-.25-2c3.33-.41,6.69-.94,10.08-1.61Z" fill="#eeecf7"/></g><g><path d="M102.46,39.53a1,1,0,0,1,1.26.64h0a1,1,0,0,1-.62,1.27h0Z" fill="#eeecf7"/><path d="M93.14,44.37a1,1,0,0,1-1.22-.72h0a1,1,0,0,1,.69-1.23h0Z" fill="#eeecf7"/><path d="M103.1,41.5q-4.93,1.59-9.93,2.9l-.5-2q4.92-1.29,9.82-2.87Z" fill="#eeecf7"/></g><g><path d="M117.23,35.16l.38.94Z" fill="#eeecf7"/><path d="M121.25,32.46a1,1,0,0,1,1.28.58h0a1,1,0,0,1-.56,1.3h0Z" fill="#eeecf7"/><path d="M112.81,38a1,1,0,0,1-1.29-.58h0a1,1,0,0,1,.53-1.31h0Z" fill="#eeecf7"/><path d="M122,34.37c-1.51.57-3,1.15-4.36,1.73l-.76-1.88c1.42-.6,2.9-1.18,4.42-1.76Z" fill="#eeecf7"/><path d="M117.64,36.1c-1.59.67-3.19,1.31-4.8,1.94l-.71-1.91c1.59-.61,3.18-1.25,4.75-1.91Z" fill="#eeecf7"/></g><g><path d="M139.39,26.8a1,1,0,1,1,.49,2Z" fill="#eeecf7"/><path d="M130.84,31.33a1,1,0,0,1-1.25-.66h0a1,1,0,0,1,.64-1.26h0Z" fill="#eeecf7"/><path d="M139.9,28.83c-3.11.8-6.14,1.65-9,2.55l-.59-1.95c2.94-.91,6-1.77,9.14-2.58Z" fill="#eeecf7"/></g><g><path d="M158,22.94a1,1,0,0,1,1.15.82h0a1,1,0,0,1-.81,1.16h0Z" fill="#eeecf7"/><path d="M149.05,26.66a1,1,0,0,1-1.18-.78h0a1,1,0,0,1,.76-1.19h0Z" fill="#eeecf7"/><path d="M158.32,25c-3.13.51-6.22,1.07-9.25,1.7l-.4-2c3.06-.64,6.18-1.22,9.34-1.73Z" fill="#eeecf7"/></g><g><path d="M176.92,20.78a1,1,0,0,1,1.07.93h0a1,1,0,0,1-.94,1.06h0Z" fill="#eeecf7"/><path d="M167.69,23.67a1,1,0,0,1-1.11-.88h0a1,1,0,0,1,.87-1.12h0Z" fill="#eeecf7"/><path d="M177,22.81c-3.12.22-6.24.5-9.36.86l-.23-2c3.14-.36,6.3-.65,9.46-.86Z" fill="#eeecf7"/></g><g><path d="M195.9,20.53a1,1,0,0,1,0,2h0Z" fill="#eeecf7"/><path d="M186.43,22.43a1,1,0,0,1,0-2Z" fill="#eeecf7"/><path d="M195.77,22.56q-4.65-.21-9.39-.13v-2c3.19-.05,6.36,0,9.49.14Z" fill="#eeecf7"/></g><g><path d="M214.8,22.76a1,1,0,1,1-.39,2Z" fill="#eeecf7"/><path d="M205.16,23.3a1,1,0,0,1-.88-1.11h0a1,1,0,0,1,1.1-.89h0Z" fill="#eeecf7"/><path d="M214.36,24.77c-3-.61-6.09-1.1-9.25-1.47l.23-2c3.21.37,6.36.86,9.41,1.48Z" fill="#eeecf7"/></g><g><path d="M233,28.64a1,1,0,0,1,.49,1.32h0a1,1,0,0,1-1.33.49h0Z" fill="#eeecf7"/><path d="M223.46,27.09a1,1,0,0,1-.67-1.24h0a1,1,0,0,1,1.24-.68h0Z" fill="#eeecf7"/><path d="M232.09,30.48a65.85,65.85,0,0,0-8.68-3.39l.6-1.95a69.76,69.76,0,0,1,8.93,3.5Z" fill="#eeecf7"/></g><g><path d="M248.49,40a1,1,0,0,1-.05,1.41h0a1,1,0,0,1-1.41-.08Z" fill="#eeecf7"/><path d="M240.11,35.17a1,1,0,0,1-.26-1.39h0a1,1,0,0,1,1.39-.26h0Z" fill="#eeecf7"/><path d="M247,41.39a41.38,41.38,0,0,0-6.89-6.2l1.16-1.67A42.73,42.73,0,0,1,248.49,40Z" fill="#eeecf7"/></g><g><path d="M255.93,52.64a1,1,0,0,1-.56,1.3h0a1,1,0,0,1-1.28-.6h0Z" fill="#eeecf7"/><path d="M252.2,49a1,1,0,0,1,.41-1.35h0a1,1,0,0,1,1.34.44Z" fill="#eeecf7"/><path d="M254.05,53.34A38.47,38.47,0,0,0,252.2,49l1.78-.93a35.69,35.69,0,0,1,2,4.52Z" fill="#eeecf7"/></g></svg>