<svg xmlns="http://www.w3.org/2000/svg" width="18" height="18" viewBox="0 0 18 18"><path d="M9,18A9,9,0,1,0,0,9,9,9,0,0,0,9,18Z" fill="#d2d8da"/><path d="M11.25,14.25H6.75a.75.75,0,0,1-.67-.42.74.74,0,0,1,.07-.78l4.11-5.49A1.51,1.51,0,0,0,10.48,7a1.63,1.63,0,0,0,0-.62,1.53,1.53,0,0,0-.27-.56,1.56,1.56,0,0,0-.48-.4,1.5,1.5,0,0,0-.59-.18,1.63,1.63,0,0,0-.62.08A1.48,1.48,0,0,0,8,5.66a1.5,1.5,0,0,0-.35.51.75.75,0,1,1-1.38-.59A3,3,0,0,1,8,3.92a2.85,2.85,0,0,1,1.23-.16,2.93,2.93,0,0,1,1.19.35,2.82,2.82,0,0,1,.94.81A3,3,0,0,1,12,7.28a3,3,0,0,1-.46,1.15L8.25,12.75h3Z" fill="#fff"/></svg>