<svg xmlns="http://www.w3.org/2000/svg" width="13.5" height="15" viewBox="0 0 13.5 15"><path d="m9.15,15h-4.8c-1.38,0-2.07,0-2.71-.33-.57-.29-1.02-.74-1.31-1.31-.33-.64-.33-1.33-.33-2.71v-1.05c0-1.38,0-2.07.33-2.71.29-.57.74-1.02,1.31-1.31.19-.1.39-.17.61-.22v-.86C2.25,2.02,4.27,0,6.75,0s4.5,2.02,4.5,4.5v.86c.22.05.42.12.61.22.57.29,1.02.74,1.31,1.31.33.64.33,1.33.33,2.71v1.05c0,1.38,0,2.07-.33,2.71-.29.57-.74,1.02-1.31,1.31-.64.33-1.33.33-2.71.33ZM4.35,6.75c-1.1,0-1.71,0-2.03.16-.28.14-.51.37-.66.66-.16.32-.16.93-.16,2.03v1.05c0,1.1,0,1.71.16,2.03.15.28.37.51.66.66.32.16.93.16,2.03.16h4.8c1.1,0,1.71,0,2.03-.16.28-.14.51-.38.66-.66.16-.32.16-.93.16-2.03v-1.05c0-1.1,0-1.71-.16-2.03-.14-.28-.37-.51-.66-.66-.32-.16-.93-.16-2.03-.16h-4.8ZM6.75,1.5c-1.65,0-3,1.35-3,3v.75c.18,0,.38,0,.6,0h4.8c.22,0,.42,0,.6,0v-.75c0-1.65-1.35-3-3-3Zm0,10.12c-.41,0-.75-.34-.75-.75v-1.5c0-.41.34-.75.75-.75s.75.34.75.75v1.5c0,.41-.34.75-.75.75Z" fill="#989fa0" stroke-width="0"/></svg>