<svg width="454" height="352" viewBox="0 0 454 352" fill="none" xmlns="http://www.w3.org/2000/svg">
<rect x="178" y="313.5" width="95" height="30" rx="8" fill="#FAFAFA"/>
<g clip-path="url(#clip0_609_155868)">
<path d="M198.714 324.69C198.714 324.084 198.955 323.503 199.384 323.074C199.812 322.645 200.394 322.405 201 322.405C201.606 322.405 202.188 322.645 202.616 323.074C203.045 323.503 203.286 324.084 203.286 324.69V326.214H204.809V324.69C204.809 323.68 204.408 322.711 203.694 321.997C202.979 321.282 202.01 320.881 201 320.881C199.99 320.881 199.021 321.282 198.306 321.997C197.592 322.711 197.19 323.68 197.19 324.69V326.214H198.714V324.69ZM201 333.071C200.798 333.071 200.604 332.991 200.461 332.848C200.318 332.705 200.238 332.511 200.238 332.309V330.024C200.238 329.822 200.318 329.628 200.461 329.485C200.604 329.342 200.798 329.262 201 329.262C201.202 329.262 201.396 329.342 201.539 329.485C201.682 329.628 201.762 329.822 201.762 330.024V332.309C201.762 332.511 201.682 332.705 201.539 332.848C201.396 332.991 201.202 333.071 201 333.071Z" fill="#989FA0"/>
<path d="M204.809 326.214H197.19C196.584 326.214 196.002 326.455 195.574 326.883C195.145 327.312 194.904 327.893 194.904 328.5V333.833C194.904 334.439 195.145 335.021 195.574 335.449C196.002 335.878 196.584 336.119 197.19 336.119H204.809C205.415 336.119 205.997 335.878 206.425 335.449C206.854 335.021 207.095 334.439 207.095 333.833V328.5C207.095 327.893 206.854 327.312 206.425 326.883C205.997 326.455 205.415 326.214 204.809 326.214ZM201.761 332.309C201.761 332.511 201.681 332.705 201.538 332.848C201.395 332.991 201.202 333.071 201 333.071C200.797 333.071 200.604 332.991 200.461 332.848C200.318 332.705 200.238 332.511 200.238 332.309V330.023C200.238 329.821 200.318 329.628 200.461 329.485C200.604 329.342 200.797 329.261 201 329.261C201.202 329.261 201.395 329.342 201.538 329.485C201.681 329.628 201.761 329.821 201.761 330.023V332.309Z" fill="#D7D7D7"/>
</g>
<path d="M218.13 333.668C217.337 333.668 216.669 333.542 216.128 333.29C215.587 333.029 215.176 332.66 214.896 332.184C214.625 331.708 214.49 331.143 214.49 330.49H216.59C216.59 330.966 216.711 331.321 216.954 331.554C217.197 331.787 217.589 331.904 218.13 331.904C218.643 331.904 219.026 331.792 219.278 331.568C219.539 331.335 219.67 331.008 219.67 330.588C219.67 330.149 219.539 329.818 219.278 329.594C219.026 329.37 218.643 329.258 218.13 329.258H217.206V327.662H218.13C218.578 327.662 218.923 327.569 219.166 327.382C219.409 327.186 219.53 326.887 219.53 326.486C219.53 326.141 219.413 325.856 219.18 325.632C218.947 325.408 218.597 325.296 218.13 325.296C217.654 325.296 217.299 325.403 217.066 325.618C216.842 325.833 216.73 326.15 216.73 326.57H214.63C214.63 325.926 214.756 325.38 215.008 324.932C215.269 324.475 215.661 324.129 216.184 323.896C216.707 323.653 217.355 323.532 218.13 323.532C218.905 323.532 219.553 323.649 220.076 323.882C220.599 324.115 220.986 324.433 221.238 324.834C221.499 325.235 221.63 325.688 221.63 326.192C221.63 326.743 221.476 327.209 221.168 327.592C220.869 327.965 220.468 328.231 219.964 328.39C220.543 328.549 220.986 328.829 221.294 329.23C221.611 329.622 221.77 330.135 221.77 330.77C221.77 331.33 221.621 331.829 221.322 332.268C221.033 332.697 220.617 333.038 220.076 333.29C219.535 333.542 218.886 333.668 218.13 333.668ZM229.729 333.668C229.104 333.668 228.549 333.561 228.063 333.346C227.587 333.131 227.2 332.819 226.901 332.408C226.603 331.997 226.425 331.526 226.369 330.994H228.245C228.339 331.349 228.516 331.624 228.777 331.82C229.048 332.007 229.365 332.1 229.729 332.1C230.233 332.1 230.63 331.965 230.919 331.694C231.209 331.423 231.391 330.989 231.465 330.392H228.889V329.048H231.451C231.377 328.516 231.19 328.124 230.891 327.872C230.593 327.611 230.205 327.48 229.729 327.48C229.272 327.48 228.927 327.583 228.693 327.788C228.469 327.984 228.32 328.25 228.245 328.586H226.369C226.407 328.091 226.556 327.639 226.817 327.228C227.088 326.817 227.466 326.495 227.951 326.262C228.446 326.029 229.039 325.912 229.729 325.912C230.429 325.912 231.055 326.052 231.605 326.332C232.156 326.612 232.585 327.023 232.893 327.564C233.211 328.105 233.369 328.777 233.369 329.58V329.86C233.369 330.7 233.215 331.405 232.907 331.974C232.609 332.534 232.189 332.959 231.647 333.248C231.106 333.528 230.467 333.668 229.729 333.668ZM236.361 333.5V327.62H233.995V326.08H240.561V327.62H238.209V333.5H236.361ZM243.617 333.668C243.085 333.668 242.632 333.57 242.259 333.374C241.885 333.169 241.601 332.889 241.405 332.534C241.209 332.179 241.111 331.778 241.111 331.33C241.111 330.583 241.33 330.023 241.769 329.65C242.217 329.277 242.884 329.09 243.771 329.09H245.983V328.74C245.983 328.255 245.871 327.914 245.647 327.718C245.432 327.522 245.087 327.424 244.611 327.424C244.191 327.424 243.887 327.499 243.701 327.648C243.514 327.788 243.407 327.965 243.379 328.18H241.531C241.559 327.751 241.694 327.368 241.937 327.032C242.189 326.687 242.543 326.416 243.001 326.22C243.467 326.015 244.027 325.912 244.681 325.912C245.315 325.912 245.866 326.005 246.333 326.192C246.809 326.379 247.177 326.682 247.439 327.102C247.7 327.513 247.831 328.068 247.831 328.768V331.61C247.831 332.002 247.835 332.347 247.845 332.646C247.863 332.935 247.891 333.22 247.929 333.5H246.207C246.169 333.295 246.146 333.141 246.137 333.038C246.137 332.926 246.137 332.763 246.137 332.548C245.941 332.847 245.633 333.108 245.213 333.332C244.793 333.556 244.261 333.668 243.617 333.668ZM244.191 332.24C244.489 332.24 244.774 332.189 245.045 332.086C245.325 331.974 245.549 331.806 245.717 331.582C245.894 331.349 245.983 331.055 245.983 330.7V330.35H244.121C243.766 330.35 243.486 330.434 243.281 330.602C243.085 330.761 242.987 330.98 242.987 331.26C242.987 331.559 243.089 331.797 243.295 331.974C243.5 332.151 243.799 332.24 244.191 332.24ZM249.458 333.5V326.08H256.15V333.5H254.316V327.62H251.292V333.5H249.458Z" fill="#989FA0"/>
<ellipse cx="298" cy="344" rx="33" ry="3" fill="#E7E7E7"/>
<path d="M314.906 311.094C314.302 311.094 313.812 311.583 313.812 312.188V313.281H283.188V312.188C283.188 311.583 282.698 311.094 282.094 311.094C281.49 311.094 281 311.583 281 312.188V314.375V327.5V342.812C281 343.417 281.49 343.906 282.094 343.906C282.698 343.906 283.188 343.417 283.188 342.812V328.594H313.812V342.812C313.812 343.417 314.302 343.906 314.906 343.906C315.51 343.906 316 343.417 316 342.812V327.5V314.375V312.188C316 311.583 315.51 311.094 314.906 311.094ZM309.438 326.406V320.938H303.969V326.406H298.5V320.938H293.031V326.406H287.562V320.938H283.188V315.469H287.562V320.938H293.031V315.469H298.5V320.938H303.969V315.469H309.438V320.938H313.812V326.406H309.438Z" fill="#989FA0"/>
<path d="M303.969 320.938H298.5V326.406H303.969V320.938Z" fill="white"/>
<path d="M287.562 315.469H283.188V320.938H287.562V315.469Z" fill="white"/>
<path d="M313.812 320.938H309.438V326.406H313.812V320.938Z" fill="white"/>
<path d="M309.438 315.469H303.969V320.938H309.438V315.469Z" fill="white"/>
<path d="M298.5 315.469H293.031V320.938H298.5V315.469Z" fill="white"/>
<path d="M210.5 294.622L192.753 283.16C164.029 264.607 128.773 258.05 94.6489 264.916L77.5326 268.36C71.8992 269.493 66.1144 269.537 60.506 268.49L53.6548 267.21C40.3466 264.724 30.0565 254.557 27.6313 241.499V241.499C23.1095 217.152 46.9233 196.437 70.9965 203.776L110.795 215.911C113.245 216.658 115.891 216.599 118.334 215.743V215.743C131.395 211.17 127.597 187.203 114.175 184.358C101.623 181.697 92.496 177.418 91.5004 170.651C88.0004 146.865 209 185.5 216 158" stroke="#F8F8F8" stroke-width="18" stroke-linecap="round"/>
<path d="M246 295C278.198 288.586 302.534 282.676 321.018 277.186C353.157 267.64 330.377 235.521 312.592 263.943C308.091 271.136 313.565 278.008 322.551 283.766C347.658 299.856 382.923 288.521 401.108 264.888C407.616 256.43 412.528 247.998 413.088 241.432C417.008 195.453 353.104 198 334 198C314.6 198 306.916 199.658 301.502 202.441C295.851 205.344 291.226 212.803 295.231 217.734C299.651 223.176 311.707 220.823 340.5 219C369 212 364.301 206.391 371.835 202C377.79 194.76 382.1 171.751 374.5 165C374.5 157.5 354.472 155.202 363.5 175.5C384.185 209.339 427 182.5 416 159.5C384 110.8 289.5 175.798 257 154.5" stroke="#F8F8F8" stroke-width="18" stroke-linecap="round"/>
<path d="M233.03 292.863L242.321 283.636C254.407 271.633 260.105 255.675 257.729 240.482V240.482C255.924 228.944 244.464 221.408 231.444 223.198L205.435 226.773C193.626 228.396 181.788 227.805 170.667 225.037L169.423 224.727C169.169 224.664 168.957 224.518 168.826 224.315V224.315C160.604 211.64 172.642 194.56 189.392 195.136L208.731 195.801C212.542 195.932 216.41 195.403 220.13 194.241L226.271 192.324C244.213 186.721 248.065 176.37 236.813 163.962C234.919 161.873 232.821 159.56 230.5 157" stroke="#F8F8F8" stroke-width="18" stroke-linecap="round"/>
<g clip-path="url(#clip1_609_155868)">
<path d="M210.5 294.622L192.753 283.16C164.029 264.607 128.773 258.05 94.6489 264.916L77.5326 268.36C71.8992 269.493 66.1144 269.537 60.506 268.49L53.6548 267.21C40.3466 264.724 30.0565 254.557 27.6313 241.499V241.499C23.1095 217.152 46.9233 196.437 70.9965 203.776L110.795 215.911C113.245 216.658 115.891 216.599 118.334 215.743V215.743C131.395 211.17 127.597 187.203 114.175 184.358C101.623 181.697 92.496 177.418 91.5004 170.651C88.0004 146.865 209 185.5 216 158" stroke="#FAFCFE" stroke-width="18" stroke-linecap="round"/>
<path d="M246 295C278.198 288.586 302.534 282.676 321.018 277.186C353.157 267.64 330.377 235.521 312.592 263.943C308.091 271.136 313.565 278.008 322.551 283.766C347.658 299.856 382.923 288.521 401.108 264.888C407.616 256.43 412.528 247.998 413.088 241.432C417.008 195.453 353.104 198 334 198C314.6 198 306.916 199.658 301.502 202.441C295.851 205.344 291.226 212.803 295.231 217.734C299.651 223.176 311.707 220.823 340.5 219C369 212 364.301 206.391 371.835 202C377.79 194.76 382.1 171.751 374.5 165C374.5 157.5 354.472 155.202 363.5 175.5C384.185 209.339 427 182.5 416 159.5C384 110.8 289.5 175.798 257 154.5" stroke="#FAFCFE" stroke-width="18" stroke-linecap="round"/>
<path d="M233.03 292.863L242.321 283.636C254.407 271.633 260.105 255.675 257.729 240.482V240.482C255.924 228.944 244.464 221.408 231.444 223.198L205.435 226.773C193.626 228.396 181.788 227.805 170.667 225.037L169.423 224.727C169.169 224.664 168.957 224.518 168.826 224.315V224.315C160.604 211.64 172.642 194.56 189.392 195.136L208.731 195.801C212.542 195.932 216.41 195.403 220.13 194.241L226.271 192.324C244.213 186.721 248.065 176.37 236.813 163.962C234.919 161.873 232.821 159.56 230.5 157" stroke="#FAFCFE" stroke-width="18" stroke-linecap="round"/>
</g>
<path d="M233.031 292.863L242.322 283.636C254.408 271.633 260.106 255.675 257.73 240.482V240.482C255.925 228.944 244.465 221.408 231.444 223.198L205.436 226.773C193.627 228.396 181.789 227.805 170.668 225.037L169.424 224.727C169.17 224.664 168.958 224.518 168.827 224.315V224.315C160.605 211.64 172.643 194.56 189.393 195.136L208.732 195.801C212.543 195.932 216.411 195.403 220.131 194.241L226.272 192.324C244.213 186.721 248.066 176.37 236.814 163.962C234.92 161.873 232.822 159.56 230.5 157" stroke="#D7D7D7" stroke-width="2.5" stroke-linecap="round" stroke-dasharray="5.84 5.84"/>
<path d="M210.5 294.622L192.753 283.16C164.029 264.607 128.773 258.05 94.6489 264.916L77.5326 268.36C71.8992 269.493 66.1144 269.537 60.506 268.49L53.6548 267.21C40.3466 264.724 30.0565 254.557 27.6313 241.499V241.499C23.1095 217.152 46.9233 196.437 70.9965 203.776L110.795 215.911C113.245 216.658 115.891 216.599 118.334 215.743V215.743C131.395 211.17 127.597 187.203 114.175 184.358C101.623 181.697 92.496 177.418 91.5004 170.651C88.0004 146.865 209 185.5 216 158" stroke="#D7D7D7" stroke-width="2.5" stroke-linecap="round" stroke-dasharray="6.84 6.84"/>
<path d="M246 295C278.198 288.586 302.534 282.676 321.018 277.186C353.157 267.64 330.377 235.521 312.592 263.943C308.091 271.136 313.565 278.008 322.551 283.766C347.658 299.856 382.923 288.521 401.108 264.888C407.616 256.43 412.528 247.998 413.088 241.432C417.008 195.453 353.104 198 334 198C314.6 198 306.916 199.658 301.502 202.441C295.851 205.344 291.226 212.803 295.231 217.734C299.651 223.176 311.707 220.823 340.5 219C369 212 364.301 206.391 371.835 202C377.79 194.76 382.1 171.751 374.5 165C374.5 157.5 354.472 155.202 363.5 175.5C384.185 209.339 427 182.5 416 159.5C384 110.8 289.5 175.798 257 154.5" stroke="#D7D7D7" stroke-width="2.5" stroke-linecap="round" stroke-dasharray="6 6"/>
<g clip-path="url(#clip2_609_155868)">
<path d="M233.031 292.863L242.322 283.636C254.408 271.633 260.106 255.675 257.73 240.482V240.482C255.925 228.944 244.465 221.408 231.444 223.198L205.436 226.773C193.627 228.396 181.789 227.805 170.668 225.037L169.424 224.727C169.17 224.664 168.958 224.518 168.827 224.315V224.315C160.605 211.64 172.643 194.56 189.393 195.136L208.732 195.801C212.543 195.932 216.411 195.403 220.131 194.241L226.272 192.324C244.213 186.721 248.066 176.37 236.814 163.962C234.92 161.873 232.822 159.56 230.5 157" stroke="#EB7551" stroke-width="2.5" stroke-linecap="round" stroke-dasharray="5.84 5.84"/>
<path d="M210.5 294.622L192.753 283.16C164.029 264.607 128.773 258.05 94.6489 264.916L77.5326 268.36C71.8992 269.493 66.1144 269.537 60.506 268.49L53.6548 267.21C40.3466 264.724 30.0565 254.557 27.6313 241.499V241.499C23.1095 217.152 46.9233 196.437 70.9965 203.776L110.795 215.911C113.245 216.658 115.891 216.599 118.334 215.743V215.743C131.395 211.17 127.597 187.203 114.175 184.358C101.623 181.697 92.496 177.418 91.5004 170.651C88.0004 146.865 209 185.5 216 158" stroke="#78A4EA" stroke-width="2.5" stroke-linecap="round" stroke-dasharray="6.84 6.84"/>
<path d="M246 295C278.198 288.586 302.534 282.676 321.018 277.186C353.157 267.64 330.377 235.521 312.592 263.943C308.091 271.136 313.565 278.008 322.551 283.766C347.658 299.856 382.923 288.521 401.108 264.888C407.616 256.43 412.528 247.998 413.088 241.432C417.008 195.453 353.104 198 334 198C314.6 198 306.916 199.658 301.502 202.441C295.851 205.344 291.226 212.803 295.231 217.734C299.651 223.176 311.707 220.823 340.5 219C369 212 364.301 206.391 371.835 202C377.79 194.76 382.1 171.751 374.5 165C374.5 157.5 354.472 155.202 363.5 175.5C384.185 209.339 427 182.5 416 159.5C384 110.8 289.5 175.798 257 154.5" stroke="#6DD2D2" stroke-width="2.5" stroke-linecap="round" stroke-dasharray="6 6"/>
</g>
<g clip-path="url(#clip3_609_155868)">
<path d="M233.031 292.863L242.322 283.636C254.408 271.633 260.106 255.675 257.73 240.482V240.482C255.925 228.944 244.465 221.408 231.444 223.198L205.436 226.773C193.627 228.396 181.789 227.805 170.668 225.037L169.424 224.727C169.17 224.664 168.958 224.518 168.827 224.315V224.315C160.605 211.64 172.643 194.56 189.393 195.136L208.732 195.801C212.543 195.932 216.411 195.403 220.131 194.241L226.272 192.324C244.213 186.721 248.066 176.37 236.814 163.962C234.92 161.873 232.822 159.56 230.5 157" stroke="#EB7551" stroke-width="2.5" stroke-linecap="round" stroke-dasharray="5.84 5.84"/>
<path d="M210.5 294.622L192.753 283.16C164.029 264.607 128.773 258.05 94.6489 264.916L77.5326 268.36C71.8992 269.493 66.1144 269.537 60.506 268.49L53.6548 267.21C40.3466 264.724 30.0565 254.557 27.6313 241.499V241.499C23.1095 217.152 46.9233 196.437 70.9965 203.776L110.795 215.911C113.245 216.658 115.891 216.599 118.334 215.743V215.743C131.395 211.17 127.597 187.203 114.175 184.358C101.623 181.697 92.496 177.418 91.5004 170.651C88.0004 146.865 209 185.5 216 158" stroke="#78A4EA" stroke-width="2.5" stroke-linecap="round" stroke-dasharray="6.84 6.84"/>
<path d="M246 295C278.198 288.586 302.534 282.676 321.018 277.186C353.157 267.64 330.377 235.521 312.592 263.943C308.091 271.136 313.565 278.008 322.551 283.766C347.658 299.856 382.923 288.521 401.108 264.888C407.616 256.43 412.528 247.998 413.088 241.432C417.008 195.453 353.104 198 334 198C314.6 198 306.916 199.658 301.502 202.441C295.851 205.344 291.226 212.803 295.231 217.734C299.651 223.176 311.707 220.823 340.5 219C369 212 364.301 206.391 371.835 202C377.79 194.76 382.1 171.751 374.5 165C374.5 157.5 354.472 155.202 363.5 175.5C384.185 209.339 427 182.5 416 159.5C384 110.8 289.5 175.798 257 154.5" stroke="#6DD2D2" stroke-width="2.5" stroke-linecap="round" stroke-dasharray="6 6"/>
</g>
<rect x="188" y="120" width="75" height="30" rx="8" fill="#FAFAFA"/>
<path d="M204.42 140V138.474L207.85 135.52C208.279 135.137 208.62 134.825 208.872 134.582C209.133 134.33 209.32 134.092 209.432 133.868C209.544 133.644 209.6 133.401 209.6 133.14C209.6 132.739 209.488 132.417 209.264 132.174C209.049 131.922 208.718 131.796 208.27 131.796C207.757 131.796 207.36 131.936 207.08 132.216C206.8 132.487 206.66 132.953 206.66 133.616H204.56C204.56 132.879 204.7 132.244 204.98 131.712C205.26 131.171 205.675 130.755 206.226 130.466C206.786 130.177 207.467 130.032 208.27 130.032C209.017 130.032 209.647 130.167 210.16 130.438C210.673 130.699 211.056 131.063 211.308 131.53C211.569 131.997 211.7 132.533 211.7 133.14C211.7 133.588 211.593 134.008 211.378 134.4C211.173 134.792 210.897 135.165 210.552 135.52C210.207 135.875 209.819 136.229 209.39 136.584L207.374 138.264H211.84V140H204.42ZM219.661 140.168C219.045 140.168 218.494 140.061 218.009 139.846C217.524 139.631 217.132 139.319 216.833 138.908C216.534 138.497 216.357 138.026 216.301 137.494H218.177C218.27 137.849 218.448 138.124 218.709 138.32C218.98 138.507 219.297 138.6 219.661 138.6C220.165 138.6 220.562 138.465 220.851 138.194C221.14 137.923 221.322 137.489 221.397 136.892H218.821V135.548H221.383C221.308 135.016 221.122 134.624 220.823 134.372C220.524 134.111 220.137 133.98 219.661 133.98C219.204 133.98 218.858 134.083 218.625 134.288C218.401 134.484 218.252 134.75 218.177 135.086H216.301C216.338 134.591 216.488 134.139 216.749 133.728C217.02 133.317 217.398 132.995 217.883 132.762C218.378 132.529 218.97 132.412 219.661 132.412C220.361 132.412 220.986 132.552 221.537 132.832C222.088 133.112 222.517 133.523 222.825 134.064C223.142 134.605 223.301 135.277 223.301 136.08V136.36C223.301 137.2 223.147 137.905 222.839 138.474C222.54 139.034 222.12 139.459 221.579 139.748C221.038 140.028 220.398 140.168 219.661 140.168ZM226.292 140V134.12H223.926V132.58H230.492V134.12H228.14V140H226.292ZM233.562 140.168C233.03 140.168 232.577 140.07 232.204 139.874C231.831 139.669 231.546 139.389 231.35 139.034C231.154 138.679 231.056 138.278 231.056 137.83C231.056 137.083 231.275 136.523 231.714 136.15C232.162 135.777 232.829 135.59 233.716 135.59H235.928V135.24C235.928 134.755 235.816 134.414 235.592 134.218C235.377 134.022 235.032 133.924 234.556 133.924C234.136 133.924 233.833 133.999 233.646 134.148C233.459 134.288 233.352 134.465 233.324 134.68H231.476C231.504 134.251 231.639 133.868 231.882 133.532C232.134 133.187 232.489 132.916 232.946 132.72C233.413 132.515 233.973 132.412 234.626 132.412C235.261 132.412 235.811 132.505 236.278 132.692C236.754 132.879 237.123 133.182 237.384 133.602C237.645 134.013 237.776 134.568 237.776 135.268V138.11C237.776 138.502 237.781 138.847 237.79 139.146C237.809 139.435 237.837 139.72 237.874 140H236.152C236.115 139.795 236.091 139.641 236.082 139.538C236.082 139.426 236.082 139.263 236.082 139.048C235.886 139.347 235.578 139.608 235.158 139.832C234.738 140.056 234.206 140.168 233.562 140.168ZM234.136 138.74C234.435 138.74 234.719 138.689 234.99 138.586C235.27 138.474 235.494 138.306 235.662 138.082C235.839 137.849 235.928 137.555 235.928 137.2V136.85H234.066C233.711 136.85 233.431 136.934 233.226 137.102C233.03 137.261 232.932 137.48 232.932 137.76C232.932 138.059 233.035 138.297 233.24 138.474C233.445 138.651 233.744 138.74 234.136 138.74ZM239.403 140V132.58H246.095V140H244.261V134.12H241.237V140H239.403Z" fill="#776FEF"/>
<path opacity="0.5" fill-rule="evenodd" clip-rule="evenodd" d="M172 63.75C172 63.3358 171.664 63 171.25 63C170.836 63 170.5 63.3358 170.5 63.75V83.75C170.5 84.1642 170.836 84.5 171.25 84.5C171.664 84.5 172 84.1642 172 83.75V75.6V65.6V63.75Z" fill="#776FEF"/>
<path d="M179.058 65.8738L178.645 65.7085C177.082 65.0834 175.371 64.9263 173.721 65.2564L172 65.6005V75.6005L173.721 75.2564C175.371 74.9263 177.082 75.0834 178.645 75.7085C180.338 76.3859 182.202 76.5124 183.972 76.07L184.072 76.045C184.658 75.8985 184.936 75.2274 184.625 74.7094L183.065 72.1083C182.723 71.5392 182.552 71.2546 182.512 70.945C182.495 70.8159 182.495 70.6851 182.512 70.556C182.552 70.2465 182.723 69.9619 183.065 69.3927L184.343 67.2618C184.678 66.7041 184.171 66.0202 183.54 66.178C182.051 66.5502 180.483 66.4438 179.058 65.8738Z" fill="#776FEF"/>
<rect x="189.5" y="59" width="75" height="30" rx="8" fill="#FAFAFA"/>
<path d="M206.63 79V77.264H208.87V71.328L206.63 72.924V70.88L208.996 69.2H210.97V77.264H212.79V79H206.63ZM220.335 79.168C219.719 79.168 219.168 79.0607 218.683 78.846C218.197 78.6313 217.805 78.3187 217.507 77.908C217.208 77.4973 217.031 77.026 216.975 76.494H218.851C218.944 76.8487 219.121 77.124 219.383 77.32C219.653 77.5067 219.971 77.6 220.335 77.6C220.839 77.6 221.235 77.4647 221.525 77.194C221.814 76.9233 221.996 76.4893 222.071 75.892H219.495V74.548H222.057C221.982 74.016 221.795 73.624 221.497 73.372C221.198 73.1107 220.811 72.98 220.335 72.98C219.877 72.98 219.532 73.0827 219.299 73.288C219.075 73.484 218.925 73.75 218.851 74.086H216.975C217.012 73.5913 217.161 73.1387 217.423 72.728C217.693 72.3173 218.071 71.9953 218.557 71.762C219.051 71.5287 219.644 71.412 220.335 71.412C221.035 71.412 221.66 71.552 222.211 71.832C222.761 72.112 223.191 72.5227 223.499 73.064C223.816 73.6053 223.975 74.2773 223.975 75.08V75.36C223.975 76.2 223.821 76.9047 223.513 77.474C223.214 78.034 222.794 78.4587 222.253 78.748C221.711 79.028 221.072 79.168 220.335 79.168ZM226.966 79V73.12H224.6V71.58H231.166V73.12H228.814V79H226.966ZM234.236 79.168C233.704 79.168 233.251 79.07 232.878 78.874C232.505 78.6687 232.22 78.3887 232.024 78.034C231.828 77.6793 231.73 77.278 231.73 76.83C231.73 76.0833 231.949 75.5233 232.388 75.15C232.836 74.7767 233.503 74.59 234.39 74.59H236.602V74.24C236.602 73.7547 236.49 73.414 236.266 73.218C236.051 73.022 235.706 72.924 235.23 72.924C234.81 72.924 234.507 72.9987 234.32 73.148C234.133 73.288 234.026 73.4653 233.998 73.68H232.15C232.178 73.2507 232.313 72.868 232.556 72.532C232.808 72.1867 233.163 71.916 233.62 71.72C234.087 71.5147 234.647 71.412 235.3 71.412C235.935 71.412 236.485 71.5053 236.952 71.692C237.428 71.8787 237.797 72.182 238.058 72.602C238.319 73.0127 238.45 73.568 238.45 74.268V77.11C238.45 77.502 238.455 77.8473 238.464 78.146C238.483 78.4353 238.511 78.72 238.548 79H236.826C236.789 78.7947 236.765 78.6407 236.756 78.538C236.756 78.426 236.756 78.2627 236.756 78.048C236.56 78.3467 236.252 78.608 235.832 78.832C235.412 79.056 234.88 79.168 234.236 79.168ZM234.81 77.74C235.109 77.74 235.393 77.6887 235.664 77.586C235.944 77.474 236.168 77.306 236.336 77.082C236.513 76.8487 236.602 76.5547 236.602 76.2V75.85H234.74C234.385 75.85 234.105 75.934 233.9 76.102C233.704 76.2607 233.606 76.48 233.606 76.76C233.606 77.0587 233.709 77.2967 233.914 77.474C234.119 77.6513 234.418 77.74 234.81 77.74ZM240.077 79V71.58H246.769V79H244.935V73.12H241.911V79H240.077Z" fill="#776FEF"/>
<path d="M180 137.5C143.5 137.5 152.811 113.18 163 107C184 94.2651 225.5 102.8 225.5 92.5003" stroke="#AE9DED" stroke-width="2.5" stroke-linecap="round" stroke-linejoin="round" stroke-dasharray="6 6"/>
<path d="M219.5 53.9999C219.5 41.4999 56.5002 50.4999 49.7399 38.2451" stroke="#AE9DED" stroke-width="2.5" stroke-linecap="round" stroke-linejoin="round" stroke-dasharray="6 6"/>
<path d="M244.5 52.5C251.5 42 416.09 50.5 422.85 38.2451" stroke="#AE9DED" stroke-width="2.5" stroke-linecap="round" stroke-linejoin="round" stroke-dasharray="6 6"/>
<path d="M232.001 55.0005C224.274 30.7181 252.121 16.6832 240.538 15.2375" stroke="#AE9DED" stroke-width="2.5" stroke-linecap="round" stroke-linejoin="round" stroke-dasharray="6 6"/>
<defs>
<clipPath id="clip0_609_155868">
<rect width="14" height="16" fill="white" transform="translate(194 320.5)"/>
</clipPath>
<clipPath id="clip1_609_155868">
<rect width="452" height="146" fill="white" transform="translate(0 84)"/>
</clipPath>
<clipPath id="clip2_609_155868">
<rect width="250" height="79" fill="white" transform="translate(0 118)"/>
</clipPath>
<clipPath id="clip3_609_155868">
<rect width="202" height="79" fill="white" transform="translate(250 118)"/>
</clipPath>
</defs>
</svg>
