<svg xmlns="http://www.w3.org/2000/svg" width="48" height="48" viewBox="0 0 48 48"><path d="M41.31,48H6.69L0,24.86H6.69Z" fill="#275e87"/><path d="M6.69,0H35.38V40.16H6.69Z" fill="#69bdfb"/><path d="M9.66,3.92H38.34V44.08H9.66Z" fill="#9cd3fc"/><path d="M41.31,48V13.77L35.38,7.84H12.62V48Z" fill="#cde9fe"/><path d="M35.38,13.77h5.93L35.38,7.84Z" fill="#69bdfb"/><path d="M18.55,17.31H35.38v1H18.55Zm0,3.92H35.38v.95H18.55Zm0,4H35.38v1H18.55Z" fill="#3279af"/><path d="M48,24.86,41.31,48H6.69l6.7-18.36H33.47l1.91-4.78Z" fill="#3279af"/><path d="M44.18,24.86S38,42.36,14.06,48H41.31L48,24.86Z" fill="#275e87"/></svg>