<?xml version="1.0" encoding="UTF-8"?>
<svg id="uuid-eb7eeff8-fe1c-4ad0-b9c5-8776b8b2032a" data-name="Слой 1" xmlns="http://www.w3.org/2000/svg" width="324.99" height="333.01" xmlns:xlink="http://www.w3.org/1999/xlink" viewBox="0 0 324.99 333.01">
  <defs>
    <clipPath id="uuid-a1892ad1-dd43-407d-96c6-07f844077bf3">
      <rect x="129.22" y="306.51" width="14" height="16" fill="none" stroke-width="0"/>
    </clipPath>
    <clipPath id="uuid-a003f5da-b4b1-42f7-a4e9-973ee7c5e5dd">
      <rect x="216.22" y="296.01" width="35" height="35" fill="none" stroke-width="0"/>
    </clipPath>
    <clipPath id="uuid-dec9758d-0052-4f8d-bbd3-11468cb95f2e">
      <rect x="83.22" y="61.01" width="85" height="34" fill="none" stroke-width="0"/>
    </clipPath>
  </defs>
  <rect x="113.22" y="299.51" width="95" height="30" rx="8" ry="8" fill="#fafafa" stroke-width="0"/>
  <g clip-path="url(#uuid-a1892ad1-dd43-407d-96c6-07f844077bf3)">
    <g>
      <path d="m133.94,310.7c0-.61.24-1.19.67-1.62.43-.43,1.01-.67,1.62-.67s1.19.24,1.62.67c.43.43.67,1.01.67,1.62v1.52h1.52v-1.52c0-1.01-.4-1.98-1.12-2.69-.71-.71-1.68-1.12-2.69-1.12s-1.98.4-2.69,1.12c-.71.71-1.12,1.68-1.12,2.69v1.52h1.52v-1.52Zm2.29,8.38c-.2,0-.4-.08-.54-.22s-.22-.34-.22-.54v-2.29c0-.2.08-.4.22-.54.14-.14.34-.22.54-.22s.4.08.54.22c.14.14.22.34.22.54v2.29c0,.2-.08.4-.22.54s-.34.22-.54.22Z" fill="#989fa0" stroke-width="0"/>
      <path d="m140.03,312.23h-7.62c-.61,0-1.19.24-1.62.67-.43.43-.67,1.01-.67,1.62v5.33c0,.61.24,1.19.67,1.62.43.43,1.01.67,1.62.67h7.62c.61,0,1.19-.24,1.62-.67.43-.43.67-1.01.67-1.62v-5.33c0-.61-.24-1.19-.67-1.62-.43-.43-1.01-.67-1.62-.67Zm-3.05,6.1c0,.2-.08.4-.22.54-.14.14-.34.22-.54.22s-.4-.08-.54-.22-.22-.34-.22-.54v-2.29c0-.2.08-.39.22-.54s.34-.22.54-.22.4.08.54.22c.14.14.22.34.22.54v2.29Z" fill="#d7d7d7" stroke-width="0"/>
    </g>
  </g>
  <path d="m153.35,319.68c-.79,0-1.46-.13-2-.38-.54-.26-.95-.63-1.23-1.11-.27-.48-.41-1.04-.41-1.69h2.1c0,.48.12.83.36,1.06.24.23.64.35,1.18.35.51,0,.9-.11,1.15-.34.26-.23.39-.56.39-.98s-.13-.77-.39-.99c-.25-.22-.63-.34-1.15-.34h-.92v-1.6h.92c.45,0,.79-.09,1.04-.28.24-.2.36-.49.36-.9,0-.35-.12-.63-.35-.85-.23-.22-.58-.34-1.05-.34s-.83.11-1.06.32c-.22.21-.34.53-.34.95h-2.1c0-.64.13-1.19.38-1.64.26-.46.65-.8,1.18-1.04.52-.24,1.17-.36,1.95-.36s1.42.12,1.95.35c.52.23.91.55,1.16.95.26.4.39.85.39,1.36,0,.55-.15,1.02-.46,1.4-.3.37-.7.64-1.2.8.58.16,1.02.44,1.33.84.32.39.48.9.48,1.54,0,.56-.15,1.06-.45,1.5-.29.43-.71.77-1.25,1.02-.54.25-1.19.38-1.95.38Zm11.6,0c-.62,0-1.18-.11-1.67-.32-.48-.21-.86-.53-1.16-.94-.3-.41-.48-.88-.53-1.41h1.88c.09.36.27.63.53.83.27.19.59.28.95.28.5,0,.9-.14,1.19-.41.29-.27.47-.7.55-1.3h-2.58v-1.34h2.56c-.07-.53-.26-.92-.56-1.18-.3-.26-.69-.39-1.16-.39s-.8.1-1.04.31c-.22.2-.37.46-.45.8h-1.88c.04-.49.19-.95.45-1.36.27-.41.65-.73,1.13-.97.49-.23,1.09-.35,1.78-.35s1.33.14,1.88.42c.55.28.98.69,1.29,1.23.32.54.48,1.21.48,2.02v.28c0,.84-.15,1.55-.46,2.11-.3.56-.72.99-1.26,1.27-.54.28-1.18.42-1.92.42Zm6.63-.17v-5.88h-2.37v-1.54h6.57v1.54h-2.35v5.88h-1.85Zm7.26.17c-.53,0-.99-.1-1.36-.29-.37-.2-.66-.48-.85-.84s-.29-.76-.29-1.2c0-.75.22-1.31.66-1.68.45-.37,1.12-.56,2-.56h2.21v-.35c0-.48-.11-.83-.34-1.02-.21-.2-.56-.29-1.04-.29-.42,0-.72.07-.91.22-.19.14-.29.32-.32.53h-1.85c.03-.43.16-.81.41-1.15.25-.35.61-.62,1.06-.81.47-.2,1.03-.31,1.68-.31s1.18.09,1.65.28c.48.19.84.49,1.11.91.26.41.39.97.39,1.67v2.84c0,.39,0,.74.01,1.04.02.29.05.57.08.85h-1.72c-.04-.2-.06-.36-.07-.46v-.49c-.2.3-.5.56-.92.78s-.95.34-1.6.34Zm.57-1.43c.3,0,.58-.05.85-.15.28-.11.5-.28.67-.5.18-.23.27-.53.27-.88v-.35h-1.86c-.35,0-.64.08-.84.25-.2.16-.29.38-.29.66,0,.3.1.54.31.71.21.18.5.27.9.27Zm5.27,1.26v-7.42h6.69v7.42h-1.83v-5.88h-3.02v5.88h-1.83Z" fill="#989fa0" stroke-width="0"/>
  <ellipse cx="233.22" cy="330.01" rx="33" ry="3" fill="#e7e7e7" stroke-width="0"/>
  <g clip-path="url(#uuid-a003f5da-b4b1-42f7-a4e9-973ee7c5e5dd)">
    <g>
      <path d="m250.13,297.11c-.6,0-1.09.49-1.09,1.09v1.09h-30.62v-1.09c0-.6-.49-1.09-1.09-1.09s-1.09.49-1.09,1.09v30.62c0,.6.49,1.09,1.09,1.09s1.09-.49,1.09-1.09v-14.22h30.62v14.22c0,.6.49,1.09,1.09,1.09s1.09-.49,1.09-1.09v-30.62c0-.6-.49-1.09-1.09-1.09Zm-5.47,15.31v-5.47h-5.47v5.47h-5.47v-5.47h-5.47v5.47h-5.47v-5.47h-4.37v-5.47h4.37v5.47h5.47v-5.47h5.47v5.47h5.47v-5.47h5.47v5.47h4.37v5.47h-4.37Z" fill="#989fa0" stroke-width="0"/>
      <path d="m239.19,306.95h-5.47v5.47h5.47v-5.47Z" fill="#fff" stroke-width="0"/>
      <path d="m222.79,301.48h-4.37v5.47h4.37v-5.47Z" fill="#fff" stroke-width="0"/>
      <path d="m249.04,306.95h-4.37v5.47h4.37v-5.47Z" fill="#fff" stroke-width="0"/>
      <path d="m244.66,301.48h-5.47v5.47h5.47v-5.47Z" fill="#fff" stroke-width="0"/>
      <path d="m233.72,301.48h-5.47v5.47h5.47v-5.47Z" fill="#fff" stroke-width="0"/>
    </g>
  </g>
  <path d="m141.72,281.01l-24.58-24.07c-14.84-14.54-35.63-21.75-56.75-19.71l-14.09,1.36c-9.35.91-18.63-1.76-25.9-7.44l-1.12-.88c-2.35-1.84-4.37-4.05-5.98-6.54h0c-13.95-21.68,8.42-48.87,33.13-40.29l30.29,10.52c1.93.67,4.06.6,5.96-.2h0c9.12-3.81,4.23-23.85-5.34-25.96-8.14-1.79-13.79-5.12-14.62-10.77-3.5-23.79,93.54,14.47,100.54-13.03" fill="none" stroke="#f8f8f8" stroke-linecap="round" stroke-width="18"/>
  <path d="m165.72,283.51c37.53-7.48,65.13-15.05,85.52-22.39,31.55-11.35,11.07-44.2-11.99-19.86-5.02,5.3-3.01,10.22,2.34,14.46,23.38,18.51,64.34,4.21,72.71-24.41.71-2.44,1.2-4.89,1.41-7.29,3.92-45.98-37.4-42.27-56.5-42.27s-33.54,2.07-43.12,5.21c-7.52,2.46-11.79,12.05-5.34,16.64,9.56,6.8,28.24,1.8,57.96-.08,28.5-7,23.65-17.38,31.18-21.77,5.95-7.24-12.08-19.98-19.68-26.73,0-7.5-27.18-10.3-18.15,10,20.68,33.84,52.15,18,41.15-5-32-48.7-112.5,15-118.15-25.77" fill="none" stroke="#f8f8f8" stroke-linecap="round" stroke-width="18"/>
  <path d="m160.72,281.01l16.53-16.77c9.62-9.77,15-22.22,15-34.74h0c0-12.61-11.78-21.66-25.7-19.75l-23.39,3.21c-11.81,1.62-23.65,1.03-34.77-1.74l-1.24-.31c-.25-.06-.47-.21-.6-.41h0c-8.22-12.67,3.82-29.75,20.57-29.18l20.5.71c3.04.11,6.13-.32,9.1-1.24h0c16.86-5.26,23.83-24.01,13.26-35.66-.57-.63-1.16-1.27-1.76-1.94" fill="none" stroke="#f8f8f8" stroke-linecap="round" stroke-width="18"/>
  <path d="m160.22,282.01l18.91-21.14c9.58-10.71,13.64-24.37,11.04-37.13h0c-1.97-9.68-11.78-15.83-22.8-14.3l-21.44,2.97c-10.08,1.4-20.21,1.43-30.04.09l-10.04-1.36c-.4-.05-.73-.28-.89-.61h0c-6.85-14.5,6.8-31.72,24.65-31.11l13.71.47c4.75.16,9.58-.66,14.11-2.42l2.56-.99c6.71-2.6,13.34-6.66,14.81-13.04,1.13-4.9.75-11.48-4.59-18.92" fill="none" stroke="#d7d7d7" stroke-dasharray="0 0 5.84 5.84" stroke-linecap="round" stroke-width="2.5"/>
  <path d="m141.22,281.01l-17.24-18.6c-17.47-18.86-43.17-28.36-69.32-25.64l-6.75.7c-3.65.38-7.34.23-10.93-.44l-6.92-1.29c-10.7-2-18.97-10.17-20.92-20.67h0c-3.63-19.57,15.51-36.22,34.86-30.32l31.6,9.64c2.21.68,4.61.59,6.8-.24h0c10.47-3.99,8.34-21.71-2.2-25.11-9.86-3.18-17.55-7.68-18.49-14.03-2.81-19.12,93.22,15.05,98.85-7.05" fill="none" stroke="#d7d7d7" stroke-dasharray="0 0 6.84 6.84" stroke-linecap="round" stroke-width="2.5"/>
  <path d="m173.72,281.51c40.11-7.99,67.26-17.47,85.42-26.76,23.86-12.21,8.55-34.22-14.76-20.99-10.23,5.8-10.83,11.59-6.72,16.75,18.57,23.33,60.37,8.62,75.77-16.91,2.51-4.16,4.18-8.09,4.47-11.42,3.17-37.2-59.71-38.67-75.17-38.67s-25.08.78-31.77,2.63c-6.12,1.69-9.67,9.01-4.43,12.6,8.84,6.07,28.96,6.79,52.63,5.29,23.06-5.66,19.26-10.2,25.35-13.76,4.82-5.86,2.67-23.3-3.48-28.76,0-6.07-23.62-9.92-16.31,6.5,16.74,27.38,45.9,9.11,37-9.5-25.89-39.4-87.7,2.73-114-14.5" fill="none" stroke="#d7d7d7" stroke-dasharray="0 0 6 6" stroke-linecap="round" stroke-width="2.5"/>
  <path d="m107.22,49.76c0-.41-.34-.75-.75-.75s-.75.34-.75.75v20c0,.41.34.75.75.75s.75-.34.75-.75v-20Z" fill="#776fef" fill-rule="evenodd" isolation="isolate" opacity=".5" stroke-width="0"/>
  <path d="m114.28,51.89l-.41-.17c-1.56-.63-3.27-.78-4.92-.45l-1.72.34v10l1.72-.34c1.65-.33,3.36-.17,4.92.45,1.69.68,3.56.8,5.33.36l.1-.03c.59-.15.86-.82.55-1.34l-1.56-2.6c-.34-.57-.51-.85-.55-1.16-.02-.13-.02-.26,0-.39.04-.31.21-.59.55-1.16l1.28-2.13c.33-.56-.17-1.24-.8-1.08-1.49.37-3.06.27-4.48-.3Z" fill="#776fef" stroke-width="0"/>
  <rect x="124.72" y="45.01" width="75" height="30" rx="8" ry="8" fill="#fafafa" stroke-width="0"/>
  <path d="m141.85,65.01v-1.74h2.24v-5.94l-2.24,1.6v-2.04l2.37-1.68h1.97v8.06h1.82v1.74h-6.16Zm13.71.17c-.63,0-1.18-.11-1.67-.32-.48-.21-.86-.53-1.16-.94-.3-.41-.48-.88-.53-1.41h1.88c.09.35.27.63.53.83.27.19.59.28.95.28.5,0,.9-.14,1.19-.41.29-.27.47-.7.55-1.3h-2.58v-1.34h2.56c-.08-.53-.26-.92-.56-1.18-.3-.26-.69-.39-1.16-.39s-.8.1-1.04.31c-.22.2-.37.46-.45.8h-1.88c.04-.49.19-.95.45-1.36.27-.41.65-.73,1.13-.97.49-.23,1.09-.35,1.78-.35s1.32.14,1.88.42c.55.28.98.69,1.29,1.23.32.54.48,1.21.48,2.02v.28c0,.84-.15,1.54-.46,2.11-.3.56-.72.98-1.26,1.27-.54.28-1.18.42-1.92.42Zm6.63-.17v-5.88h-2.37v-1.54h6.57v1.54h-2.35v5.88h-1.85Zm7.26.17c-.53,0-.98-.1-1.36-.29-.37-.21-.66-.49-.85-.84-.2-.35-.29-.76-.29-1.2,0-.75.22-1.31.66-1.68.45-.37,1.12-.56,2-.56h2.21v-.35c0-.49-.11-.83-.34-1.02-.21-.2-.56-.29-1.04-.29-.42,0-.72.07-.91.22-.19.14-.29.32-.32.53h-1.85c.03-.43.16-.81.41-1.15.25-.35.61-.62,1.06-.81.47-.21,1.03-.31,1.68-.31s1.19.09,1.65.28c.48.19.85.49,1.11.91.26.41.39.97.39,1.67v2.84c0,.39,0,.74.01,1.04.02.29.05.57.08.85h-1.72c-.04-.21-.06-.36-.07-.46v-.49c-.2.3-.5.56-.92.78-.42.22-.95.34-1.6.34Zm.57-1.43c.3,0,.58-.05.85-.15.28-.11.5-.28.67-.5.18-.23.27-.53.27-.88v-.35h-1.86c-.35,0-.63.08-.84.25-.2.16-.29.38-.29.66,0,.3.1.54.31.71.21.18.5.27.9.27Zm5.27,1.26v-7.42h6.69v7.42h-1.83v-5.88h-3.02v5.88h-1.83Z" fill="#776fef" stroke-width="0"/>
  <path d="m115.22,123.51c-36.5,0-27.19-24.32-17-30.5,21-12.73,62.5-4.2,62.5-14.5" fill="none" stroke="#d7d7d7" stroke-dasharray="0 0 6 6" stroke-linecap="round" stroke-linejoin="round" stroke-width="2.5"/>
  <g clip-path="url(#uuid-dec9758d-0052-4f8d-bbd3-11468cb95f2e)">
    <path d="m115.22,123.51c-36.5,0-27.19-24.32-17-30.5,21-12.73,62.5-4.2,62.5-14.5" fill="none" stroke="#ae9ded" stroke-dasharray="0 0 6 6" stroke-linecap="round" stroke-linejoin="round" stroke-width="2.5"/>
  </g>
  <rect x="113.22" y="106.01" width="95" height="30" rx="8" ry="8" fill="#fafafa" stroke-width="0"/>
  <path d="m133.94,117.2c0-.61.24-1.19.67-1.62.43-.43,1.01-.67,1.62-.67s1.19.24,1.62.67c.43.43.67,1.01.67,1.62v1.52h1.52v-1.52c0-1.01-.4-1.98-1.12-2.69s-1.68-1.12-2.69-1.12-1.98.4-2.69,1.12-1.12,1.68-1.12,2.69v1.52h1.52v-1.52Zm2.29,8.38c-.2,0-.4-.08-.54-.22-.14-.14-.22-.34-.22-.54v-2.29c0-.2.08-.4.22-.54s.34-.22.54-.22.4.08.54.22.22.34.22.54v2.29c0,.2-.08.4-.22.54-.14.14-.34.22-.54.22Z" fill="#989fa0" stroke-width="0"/>
  <path d="m140.03,118.73h-7.62c-.61,0-1.19.24-1.62.67-.43.43-.67,1.01-.67,1.62v5.33c0,.61.24,1.19.67,1.62.43.43,1.01.67,1.62.67h7.62c.61,0,1.19-.24,1.62-.67.43-.43.67-1.01.67-1.62v-5.33c0-.61-.24-1.19-.67-1.62s-1.01-.67-1.62-.67Zm-3.05,6.1c0,.2-.08.4-.22.54-.14.14-.34.22-.54.22s-.4-.08-.54-.22-.22-.34-.22-.54v-2.29c0-.2.08-.4.22-.54.14-.14.34-.22.54-.22s.4.08.54.22.22.34.22.54v2.29Z" fill="#d7d7d7" stroke-width="0"/>
  <path d="m149.64,126.01v-1.53l3.43-2.95c.43-.38.77-.7,1.02-.94.26-.25.45-.49.56-.71s.17-.47.17-.73c0-.4-.11-.72-.34-.97-.22-.25-.55-.38-.99-.38-.51,0-.91.14-1.19.42-.28.27-.42.74-.42,1.4h-2.1c0-.74.14-1.37.42-1.9.28-.54.7-.96,1.25-1.25.56-.29,1.24-.43,2.04-.43.75,0,1.38.14,1.89.41.51.26.9.62,1.15,1.09.26.47.39,1,.39,1.61,0,.45-.11.87-.32,1.26-.21.39-.48.76-.83,1.12-.35.35-.73.71-1.16,1.06l-2.02,1.68h4.47v1.74h-7.42Zm15.24.17c-.62,0-1.18-.11-1.67-.32-.48-.21-.86-.53-1.16-.94-.3-.41-.48-.88-.53-1.41h1.88c.09.35.27.63.53.83.27.19.59.28.95.28.5,0,.9-.14,1.19-.41s.47-.71.55-1.3h-2.58v-1.34h2.56c-.07-.53-.26-.92-.56-1.18-.3-.26-.69-.39-1.16-.39s-.8.1-1.04.31c-.22.2-.37.46-.45.8h-1.88c.04-.49.19-.95.45-1.36.27-.41.65-.73,1.13-.97.5-.23,1.09-.35,1.78-.35s1.32.14,1.88.42c.55.28.98.69,1.29,1.23.32.54.48,1.21.48,2.02v.28c0,.84-.15,1.54-.46,2.11-.3.56-.72.99-1.26,1.27-.54.28-1.18.42-1.92.42Zm6.63-.17v-5.88h-2.37v-1.54h6.57v1.54h-2.35v5.88h-1.85Zm7.26.17c-.53,0-.98-.1-1.36-.29-.37-.2-.66-.48-.85-.84-.2-.35-.29-.76-.29-1.2,0-.75.22-1.31.66-1.68.45-.37,1.12-.56,2-.56h2.21v-.35c0-.49-.11-.83-.34-1.02-.21-.2-.56-.29-1.04-.29-.42,0-.72.07-.91.22-.19.14-.29.32-.32.53h-1.85c.03-.43.16-.81.41-1.15.25-.35.61-.62,1.06-.81.47-.21,1.03-.31,1.68-.31s1.19.09,1.65.28c.48.19.84.49,1.11.91.26.41.39.97.39,1.67v2.84c0,.39,0,.74.01,1.04.02.29.05.57.08.85h-1.72c-.04-.21-.06-.36-.07-.46v-.49c-.2.3-.5.56-.92.78s-.95.34-1.6.34Zm.57-1.43c.3,0,.58-.05.85-.15.28-.11.5-.28.67-.5.18-.23.27-.53.27-.88v-.35h-1.86c-.35,0-.63.08-.84.25-.2.16-.29.38-.29.66,0,.3.1.54.31.71.21.18.5.27.9.27Zm5.27,1.26v-7.42h6.69v7.42h-1.83v-5.88h-3.02v5.88h-1.83Z" fill="#989fa0" stroke-width="0"/>
  <path d="m146.4,40.01c0-12.5-109.9-3.5-114.46-15.75" fill="none" stroke="#ae9ded" stroke-dasharray="0 0 6 6" stroke-linecap="round" stroke-linejoin="round" stroke-width="2.5"/>
  <path d="m163.26,38.51c4.72-10.5,115.69-2,120.25-14.25" fill="none" stroke="#ae9ded" stroke-dasharray="0 0 6 6" stroke-linecap="round" stroke-linejoin="round" stroke-width="2.5"/>
  <path d="m154.83,41.01c-5.21-24.28,13.57-38.32,5.76-39.76" fill="none" stroke="#ae9ded" stroke-dasharray="0 0 6 6" stroke-linecap="round" stroke-linejoin="round" stroke-width="2.5"/>
</svg>