<svg xmlns="http://www.w3.org/2000/svg" width="14" height="12" viewBox="0 0 14 12"><path d="M12.3,12H1.7a1.7,1.7,0,0,1-1.2-.48A1.6,1.6,0,0,1,0,10.36V3.18A1.6,1.6,0,0,1,.5,2a1.7,1.7,0,0,1,1.2-.48H3.48L4.35.27A.65.65,0,0,1,4.88,0H9.12a.65.65,0,0,1,.53.27l.87,1.27H12.3A1.7,1.7,0,0,1,13.5,2,1.6,1.6,0,0,1,14,3.18v7.18a1.6,1.6,0,0,1-.5,1.16A1.7,1.7,0,0,1,12.3,12ZM1.7,2.77a.42.42,0,0,0-.3.12.41.41,0,0,0-.13.29v7.18a.41.41,0,0,0,.13.29.42.42,0,0,0,.3.12H12.3a.43.43,0,0,0,.43-.41V3.18a.43.43,0,0,0-.43-.41H10.18a.65.65,0,0,1-.53-.27L8.78,1.23H5.22L4.35,2.5a.65.65,0,0,1-.53.27Z"/><path d="M7,9.44A3,3,0,0,1,4,6.51,3,3,0,0,1,7,3.59a3,3,0,0,1,3,2.92A3,3,0,0,1,7,9.44ZM7,4.82A1.73,1.73,0,0,0,5.25,6.51,1.75,1.75,0,1,0,7,4.82Z"/></svg>