<svg xmlns="http://www.w3.org/2000/svg" width="13" height="12" viewBox="0 0 13 12"><path class="--border" d="M9.39.06h0A3.5,3.5,0,0,1,11.9,1.14a3.81,3.81,0,0,1,1,2.61c0,1.89-1,3.83-3.15,5.79a18.8,18.8,0,0,1-3.08,2.34.4.4,0,0,1-.42,0A19,19,0,0,1,3.08,9.43C1.55,8,.06,6,.06,3.75A3.8,3.8,0,0,1,.73,1.6,3.61,3.61,0,0,1,2.49.25a3.46,3.46,0,0,1,2.18,0A3.56,3.56,0,0,1,6.45,1.54l0,.06,0-.06A3.63,3.63,0,0,1,7.8.45,3.52,3.52,0,0,1,9.39.06Z" fill="#776fef"/><path class="--background" d="M6.5,12a.53.53,0,0,1-.24-.06A19.31,19.31,0,0,1,3,9.47c-2-1.9-3-3.87-3-5.72A3.86,3.86,0,0,1,.68,1.56,3.66,3.66,0,0,1,2.47.19a3.51,3.51,0,0,1,2.22,0A3.64,3.64,0,0,1,6.5,1.5,3.51,3.51,0,0,1,9.38,0h0a3.51,3.51,0,0,1,2.55,1.1A3.81,3.81,0,0,1,13,3.75c0,1.91-1.07,3.88-3.17,5.84a18.94,18.94,0,0,1-3.09,2.35A.53.53,0,0,1,6.5,12ZM3.61.12A3.47,3.47,0,0,0,.78,1.63,3.72,3.72,0,0,0,.12,3.75c0,2.29,1.63,4.32,3,5.63a19.7,19.7,0,0,0,3.2,2.45.38.38,0,0,0,.36,0A19.7,19.7,0,0,0,9.75,9.5c2.08-1.94,3.13-3.88,3.13-5.75a3.65,3.65,0,0,0-1-2.56A3.39,3.39,0,0,0,9.39.13h0A3.38,3.38,0,0,0,7.83.51,3.5,3.5,0,0,0,6.6,1.57l-.1.14-.1-.14A3.45,3.45,0,0,0,4.65.29,3.38,3.38,0,0,0,3.61.12Z" fill="#776fef"/></svg>