<svg xmlns="http://www.w3.org/2000/svg" xmlns:xlink="http://www.w3.org/1999/xlink" width="32" height="32" viewBox="0 0 32 32"><defs><linearGradient id="f271698a-43d5-498d-8a10-0b08da5d9689" data-name="Безымянный градиент" x1="11.97" y1="273.04" x2="34.25" y2="273.04" gradientTransform="translate(-4.63 -250.92)" gradientUnits="userSpaceOnUse"><stop offset="0" stop-color="#0c59a4"/><stop offset="1" stop-color="#114a8b"/></linearGradient><radialGradient id="abda9b06-bc6e-4bc6-8095-cd579d71bca9" data-name="Безымянный градиент 2" cx="49.93" cy="337.56" r="95.38" gradientTransform="translate(13.41 -17.77) scale(0.12 0.12)" gradientUnits="userSpaceOnUse"><stop offset="0.72" stop-opacity="0"/><stop offset="0.95" stop-opacity="0.53"/><stop offset="1"/></radialGradient><linearGradient id="a27b29e4-6fe0-4390-bfe6-9b7bed7f73db" data-name="Безымянный градиент 3" x1="23.73" y1="263.39" x2="9.81" y2="278.55" gradientTransform="translate(-4.63 -250.92)" gradientUnits="userSpaceOnUse"><stop offset="0" stop-color="#1b9de2"/><stop offset="0.16" stop-color="#1595df"/><stop offset="0.67" stop-color="#0680d7"/><stop offset="1" stop-color="#0078d4"/></linearGradient><radialGradient id="e417fa36-1b5c-4265-a673-0784fe49471f" data-name="Безымянный градиент 4" cx="-685.69" cy="388.83" r="143.24" gradientTransform="matrix(0.02, -0.12, 0.1, 0.01, -17.2, -65.8)" gradientUnits="userSpaceOnUse"><stop offset="0.76" stop-opacity="0"/><stop offset="0.95" stop-opacity="0.5"/><stop offset="1"/></radialGradient><radialGradient id="b3a83fb2-732b-4747-87d8-64d5175650ff" data-name="Безымянный градиент 5" cx="-3.79" cy="-359.17" r="202.43" gradientTransform="matrix(0, 0.12, -0.27, -0.01, -92.41, 2.8)" gradientUnits="userSpaceOnUse"><stop offset="0" stop-color="#35c1f1"/><stop offset="0.11" stop-color="#34c1ed"/><stop offset="0.23" stop-color="#2fc2df"/><stop offset="0.31" stop-color="#2bc3d2"/><stop offset="0.67" stop-color="#36c752"/></radialGradient><radialGradient id="bcf22c4b-d1b2-40fe-80f2-9e5415d232c5" data-name="Безымянный градиент 6" cx="295.09" cy="-401.35" r="97.34" gradientTransform="matrix(0.03, 0.12, -0.1, 0.03, -19.45, -14.19)" gradientUnits="userSpaceOnUse"><stop offset="0" stop-color="#66eb6e"/><stop offset="1" stop-color="#66eb6e" stop-opacity="0"/></radialGradient></defs><path d="M28.88,23.81a9.81,9.81,0,0,1-1.32.59,12.68,12.68,0,0,1-4.48.81C17.16,25.21,12,21.14,12,15.92a3.93,3.93,0,0,1,2.05-3.41c-5.35.22-6.72,5.8-6.72,9.06,0,9.24,8.51,10.17,10.34,10.17a13.51,13.51,0,0,0,3.38-.57l.16-.05a16.06,16.06,0,0,0,8.33-6.6.5.5,0,0,0-.16-.69A.49.49,0,0,0,28.88,23.81Z" fill="url(#f271698a-43d5-498d-8a10-0b08da5d9689)"/><path d="M28.88,23.81a9.81,9.81,0,0,1-1.32.59,12.68,12.68,0,0,1-4.48.81C17.16,25.21,12,21.14,12,15.92a3.93,3.93,0,0,1,2.05-3.41c-5.35.22-6.72,5.8-6.72,9.06,0,9.24,8.51,10.17,10.34,10.17a13.51,13.51,0,0,0,3.38-.57l.16-.05a16.06,16.06,0,0,0,8.33-6.6.5.5,0,0,0-.16-.69A.49.49,0,0,0,28.88,23.81Z" opacity="0.35" fill="url(#abda9b06-bc6e-4bc6-8095-cd579d71bca9)" style="isolation: isolate"/><path d="M13.22,30.17a9.81,9.81,0,0,1-2.85-2.67,10.08,10.08,0,0,1,2.2-14.09,9.84,9.84,0,0,1,1.49-.9,4,4,0,0,1,5.16,1.12A4,4,0,0,1,20,16S23.07,6,10,6C4.53,6,0,11.22,0,15.79a16.26,16.26,0,0,0,1.52,7,16,16,0,0,0,19.54,8.39,9.45,9.45,0,0,1-7.84-1Z" fill="url(#a27b29e4-6fe0-4390-bfe6-9b7bed7f73db)"/><path d="M13.22,30.17a9.81,9.81,0,0,1-2.85-2.67,10.08,10.08,0,0,1,2.2-14.09,9.84,9.84,0,0,1,1.49-.9,4,4,0,0,1,5.16,1.12A4,4,0,0,1,20,16S23.07,6,10,6C4.53,6,0,11.22,0,15.79a16.26,16.26,0,0,0,1.52,7,16,16,0,0,0,19.54,8.39,9.45,9.45,0,0,1-7.84-1Z" opacity="0.41" fill="url(#e417fa36-1b5c-4265-a673-0784fe49471f)" style="isolation: isolate"/><path d="M19,18.6c-.1.14-.41.32-.41.71a1.14,1.14,0,0,0,.59.9C21,21.46,24.4,21.3,24.41,21.3a7.45,7.45,0,0,0,3.79-1A7.69,7.69,0,0,0,32,13.65a11,11,0,0,0-1.42-5.49C27.93,3,22.22,0,16,0A16,16,0,0,0,0,15.77c.06-4.56,4.6-8.25,10-8.25a12,12,0,0,1,5.25,1.26,9.08,9.08,0,0,1,3.86,3.65,8,8,0,0,1,.9,3.69A4.5,4.5,0,0,1,19,18.6Z" fill="url(#b3a83fb2-732b-4747-87d8-64d5175650ff)"/><path d="M19,18.6c-.1.14-.41.32-.41.71a1.14,1.14,0,0,0,.59.9C21,21.46,24.4,21.3,24.41,21.3a7.45,7.45,0,0,0,3.79-1A7.69,7.69,0,0,0,32,13.65a11,11,0,0,0-1.42-5.49C27.93,3,22.22,0,16,0A16,16,0,0,0,0,15.77c.06-4.56,4.6-8.25,10-8.25a12,12,0,0,1,5.25,1.26,9.08,9.08,0,0,1,3.86,3.65,8,8,0,0,1,.9,3.69A4.5,4.5,0,0,1,19,18.6Z" fill="url(#bcf22c4b-d1b2-40fe-80f2-9e5415d232c5)"/></svg>