<svg xmlns="http://www.w3.org/2000/svg" width="248" height="50" viewBox="0 0 248 50"><path d="M242.14,10.76a1,1,0,0,1-1-1,1.06,1.06,0,0,1,.23-.66h0A26,26,0,0,0,246,.7a1,1,0,0,1,1.26-.65h0A1,1,0,0,1,248,1.32v0h0a28.5,28.5,0,0,1-5.07,9.06A1,1,0,0,1,242.14,10.76Z" fill="#eeecf7"/><path d="M226,22.48a1,1,0,0,1-1.05-.94,1,1,0,0,1,.61-1h0a55.47,55.47,0,0,0,8.58-4.88,1,1,0,0,1,1.39.24h0a1,1,0,0,1-.22,1.4h0a58.16,58.16,0,0,1-8.89,5.05A.84.84,0,0,1,226,22.48Z" fill="#eeecf7"/><path d="M207,28.76a1,1,0,1,1-.22-2h0c3.37-.78,6.6-1.67,9.6-2.64a1,1,0,0,1,1.26.63h0A1,1,0,0,1,217,26h0c-3.06,1-6.34,1.89-9.77,2.68a.53.53,0,0,1-.25,0Z" fill="#eeecf7"/><path d="M187.13,32a1,1,0,1,1-.11-2c3.39-.36,6.73-.81,9.91-1.32a1,1,0,0,1,1.15.83h0a1,1,0,0,1-.81,1.16h0c-3.21.52-6.58,1-10,1.33Z" fill="#eeecf7"/><path d="M167,33.24a1,1,0,1,1,0-2c3.38-.07,6.74-.2,10-.4a1,1,0,0,1,1.06.94h0a1,1,0,0,1-.92,1.07h0c-3.28.2-6.67.33-10.08.4Z" fill="#eeecf7"/><path d="M157,33.24h0c-3.35-.06-6.74-.18-10.07-.36a1,1,0,0,1-1-1v-.05h0a1,1,0,0,1,1.05-.95h0c3.3.18,6.67.3,10,.36a1,1,0,0,1,0,2Z" fill="#eeecf7"/><path d="M137,32.13h-.09c-3.44-.33-6.81-.72-10-1.16a1,1,0,0,1-.86-1.12h0a1,1,0,0,1,1.11-.87h0c3.18.45,6.53.83,9.94,1.15a1,1,0,0,1,.9,1.09h0A1,1,0,0,1,137,32.13Z" fill="#eeecf7"/><path d="M117.12,29.31a.6.6,0,0,1-.19,0q-5-1-9.92-2.42a1,1,0,0,1,.58-1.93c2.77.84,6,1.64,9.67,2.36a1,1,0,0,1-.2,2Z" fill="#eeecf7"/><path d="M98,23.28a1.07,1.07,0,0,1-.35-.06,65.27,65.27,0,0,0-9.5-2.74,1,1,0,1,1,.42-2,67.62,67.62,0,0,1,9.79,2.82,1,1,0,0,1-.36,2Z" fill="#eeecf7"/><path d="M78.42,19h-.1c-3.2-.31-6.54-.49-9.94-.52a1,1,0,0,1,0-2h0c3.46,0,6.86.21,10.11.53a1,1,0,0,1,1,1,1,1,0,0,1-1,1Z" fill="#eeecf7"/><path d="M48.37,19.83a1,1,0,1,1-.15-2c3.31-.48,6.7-.84,10.07-1.07a1,1,0,0,1,1.07.93h0a1,1,0,0,1-.93,1.07h0c-3.31.23-6.65.59-9.91,1.06Z" fill="#eeecf7"/><path d="M28.81,24.38a1,1,0,0,1-1.16-.84,1,1,0,0,1,.84-1.16c3.08-1,6.37-1.95,9.78-2.73a1,1,0,0,1,.45,2c-3.35.77-6.58,1.67-9.6,2.68A.65.65,0,0,1,28.81,24.38Z" fill="#eeecf7"/><path d="M10.88,33.3a1,1,0,0,1-1-1,1,1,0,0,1,.41-.85h0A53.48,53.48,0,0,1,19,26.22a1,1,0,0,1,1.28.61,1,1,0,0,1-.4,1.17,50.5,50.5,0,0,0-8.44,5.07A1,1,0,0,1,10.88,33.3Z" fill="#eeecf7"/><path d="M1,50a1,1,0,0,1-1-1A18.27,18.27,0,0,1,3.08,39a1,1,0,0,1,1.38-.31h0a1,1,0,0,1,.31,1.38h0A16.34,16.34,0,0,0,2,49,1,1,0,0,1,1,50Z" fill="#eeecf7"/></svg>