<svg xmlns="http://www.w3.org/2000/svg" width="18" height="18" viewBox="0 0 18 18"><path d="M9,18A9,9,0,1,0,0,9,9,9,0,0,0,9,18Z" fill="#cd7f32"/><path d="M8.63,14.63a3.24,3.24,0,0,1-1-.15,3.39,3.39,0,0,1-1.41-.84.75.75,0,0,1,0-1.06.74.74,0,0,1,1.06,0,1.89,1.89,0,0,0,2.52.12,2,2,0,0,0,.54-.73,1.87,1.87,0,0,0,.13-.9,1.76,1.76,0,0,0-.31-.86,1.78,1.78,0,0,0-.67-.61,1.82,1.82,0,0,0-.88-.22A.76.76,0,0,1,8,9,.74.74,0,0,1,8,8.2l1.8-2.57H6.75a.75.75,0,0,1,0-1.5h4.5a.75.75,0,0,1,.67.4.78.78,0,0,1-.06.78l-2,2.81.33.15a3.48,3.48,0,0,1,1.21,1.11A3.29,3.29,0,0,1,12,10.92a3.21,3.21,0,0,1-.24,1.62,3.34,3.34,0,0,1-1,1.32,3.42,3.42,0,0,1-1.49.7A3.5,3.5,0,0,1,8.63,14.63Z" fill="#fff"/></svg>