<svg xmlns="http://www.w3.org/2000/svg" viewBox="0 0 16 16"><path d="m4.78,2.14c-.1-.11-.04-.28.1-.3.15-.01.29-.02.44-.02,1.24,0,2.33.61,3.11,1.41.78-.79,1.87-1.41,3.11-1.41,2.41,0,4.46,1.9,4.46,4.37,0,1.7-.75,3.13-1.75,4.32-.19.22-.38.43-.58.64-.1.1-.26.1-.36,0L4.78,2.14Zm10.14,12.64l.03.03c.06.06.11.14.15.22.04.08.05.17.06.27,0,.09-.01.18-.05.27-.03.09-.08.16-.14.23-.06.07-.14.12-.22.15-.08.03-.17.05-.25.05-.09,0-.17-.02-.25-.06-.08-.04-.15-.09-.21-.16l-2.59-2.73c-.22.16-.43.32-.64.47l-2.01,1.43c-.11.08-.23.12-.36.12s-.26-.04-.36-.12l-2.01-1.43c-1.16-.83-2.45-1.82-3.45-3.01-1-1.19-1.76-2.62-1.76-4.32,0-1.18.47-2.24,1.23-3.01L.18,1.16C.07,1.04,0,.87,0,.69c0-.18.06-.35.18-.48C.29.08.45,0,.62,0c.17,0,.33.05.46.17l13.82,14.59s.02.02.02.02Z" fill="#fff" stroke-width="0"/></svg>