<svg xmlns="http://www.w3.org/2000/svg" width="20" height="18" viewBox="0 0 20 18"><path d="M18.37.15H1.63A1.54,1.54,0,0,0,.15,1.62V13.43A1.54,1.54,0,0,0,1.63,14.9h9.85l-.37,1.94a.9.9,0,0,0,.31.87.8.8,0,0,0,.88,0l2.14-1.17a.45.45,0,0,1,.28,0l2.13,1.17a1,1,0,0,0,.45.12.77.77,0,0,0,.44-.14.87.87,0,0,0,.3-.87l-.3-1.94h.63a1.54,1.54,0,0,0,1.48-1.47V1.62A1.54,1.54,0,0,0,18.37.15ZM14.58,12.52A2.47,2.47,0,1,1,17,10.05,2.43,2.43,0,0,1,14.58,12.52Zm.68,3a1.5,1.5,0,0,0-1.37,0l-1.51.82.48-3a3.43,3.43,0,0,0,3.43,0l.19,1.19h0l.29,1.85Zm3.42-1.76c.11,0,0,.11,0,0H17.55l-.21-1.35v0a3.72,3.72,0,0,0,.8-2.31,3.63,3.63,0,0,0-3.55-3.69A3.62,3.62,0,0,0,11,10.05a3.77,3.77,0,0,0,.79,2.31v0l-.22,1.35H1.32c0,.11-.11,0,0,0V1.36c-.11,0,0-.11,0,0H18.68c0-.11.11,0,0,0Z"/><path d="M11.86,18a.9.9,0,0,1-.53-.17,1,1,0,0,1-.36-1l.33-1.77H1.63A1.68,1.68,0,0,1,0,13.43V1.62A1.68,1.68,0,0,1,1.63,0H18.37A1.69,1.69,0,0,1,20,1.62V13.43a1.69,1.69,0,0,1-1.63,1.62h-.46l.28,1.77a1,1,0,0,1-.36,1,1,1,0,0,1-1,0l-2.13-1.17H14.5l-2.13,1.16A1.09,1.09,0,0,1,11.86,18Zm2.72-1.61a.6.6,0,0,1,.21,0l2.14,1.17a.65.65,0,0,0,.72,0,.75.75,0,0,0,.25-.72l-.31-2,.15-.17h.63a1.39,1.39,0,0,0,1.33-1.32V1.62A1.4,1.4,0,0,0,18.37.29H1.63A1.4,1.4,0,0,0,.3,1.62V13.43a1.39,1.39,0,0,0,1.33,1.32h9.85l.14.18-.36,1.94a.73.73,0,0,0,.24.72.66.66,0,0,0,.73,0l2.13-1.17A.72.72,0,0,1,14.58,16.39Zm2.12.05-1.51-.82a1.37,1.37,0,0,0-1.23,0l-1.51.82-.22-.15.48-3,.22-.11a3.33,3.33,0,0,0,3.29,0l.22.11.48,3ZM13,13.5,12.57,16l1.25-.68a1.67,1.67,0,0,1,1.51,0l1.25.68-.4-2.54A3.62,3.62,0,0,1,13,13.5Zm-11.68.43-.17-.17a.18.18,0,0,1,0-.12V1.45a.16.16,0,0,1,0-.11l.17-.17a.13.13,0,0,1,.12.05H18.59a.13.13,0,0,1,.11-.05l.18.17a.16.16,0,0,1-.05.11V13.64a.18.18,0,0,1,.05.12l-.18.17a.16.16,0,0,1-.11,0h-1l-.14-.12-.22-1.36,0-.13A3.61,3.61,0,0,0,18,10.05a3.4,3.4,0,1,0-6.8,0,3.61,3.61,0,0,0,.76,2.22l0,.12-.22,1.37-.15.12H1.41A.17.17,0,0,1,1.29,13.93Zm0-.17v.12h0Zm17.36.12h0v0ZM1.17,13.73Zm17.53,0h0ZM1.47,1.51V13.59h10l.18-1.19a4,4,0,0,1-.78-2.35,3.77,3.77,0,0,1,3.7-3.84,3.77,3.77,0,0,1,3.69,3.84,3.88,3.88,0,0,1-.78,2.35l.19,1.19h.85V1.51Zm17.25-.15h0Zm-17.4,0h0Zm17.36,0V1.22h0Zm-17.36,0v-.1h0ZM14.58,12.67a2.62,2.62,0,1,1,2.52-2.62A2.58,2.58,0,0,1,14.58,12.67Zm0-4.95a2.33,2.33,0,1,0,2.23,2.33A2.29,2.29,0,0,0,14.58,7.72Z"/><path d="M16.34,4.08H3.66a.53.53,0,0,0-.56.49.53.53,0,0,0,.56.5H16.34a.53.53,0,0,0,.56-.5A.53.53,0,0,0,16.34,4.08Z"/><path d="M16.34,5.21H3.66A.67.67,0,0,1,3,4.57a.67.67,0,0,1,.7-.64H16.34a.67.67,0,0,1,.7.64A.67.67,0,0,1,16.34,5.21Zm-12.68-1a.38.38,0,0,0-.41.34.39.39,0,0,0,.41.35H16.34a.39.39,0,0,0,.41-.35.38.38,0,0,0-.41-.34Z"/><path d="M8.51,6.87H3.61a.5.5,0,1,0,0,1h4.9a.5.5,0,1,0,0-1Z"/><path d="M8.51,8H3.61a.64.64,0,1,1,0-1.28h4.9A.64.64,0,1,1,8.51,8ZM3.61,7a.36.36,0,0,0-.36.35.35.35,0,0,0,.36.34h4.9a.35.35,0,0,0,.36-.34A.36.36,0,0,0,8.51,7Z"/></svg>