<svg xmlns="http://www.w3.org/2000/svg" width="21" height="15" viewBox="0 0 21 15"><path d="M19.13,15H1.88A1.88,1.88,0,0,1,0,13.13v-3a.73.73,0,0,1,.38-.65,2.3,2.3,0,0,0,.82-.82A2.25,2.25,0,0,0,1.5,7.5a2.25,2.25,0,0,0-.3-1.13,2.3,2.3,0,0,0-.82-.82A.73.73,0,0,1,0,4.9v-3A1.88,1.88,0,0,1,1.88,0H19.13A1.88,1.88,0,0,1,21,1.88v3a.73.73,0,0,1-.38.65,2.3,2.3,0,0,0-.82.82,2.28,2.28,0,0,0,0,2.26,2.3,2.3,0,0,0,.82.82.73.73,0,0,1,.38.65v3A1.87,1.87,0,0,1,19.13,15Zm-3.38-1.5h3.38a.38.38,0,0,0,.37-.37V10.5a3.7,3.7,0,0,1-1-1.12,3.78,3.78,0,0,1,0-3.76,3.7,3.7,0,0,1,1-1.12V1.88a.38.38,0,0,0-.37-.38H15.75v.75a.75.75,0,0,1-1.5,0V1.5H1.88a.38.38,0,0,0-.38.38V4.5a3.7,3.7,0,0,1,1,1.12A3.75,3.75,0,0,1,3,7.5a3.75,3.75,0,0,1-.5,1.88,3.84,3.84,0,0,1-1,1.12v2.63a.38.38,0,0,0,.38.37H14.25v-.75a.75.75,0,0,1,1.5,0Zm4.5-8.6h0ZM9,11.25H6a.75.75,0,0,1,0-1.5H9a.75.75,0,0,1,0,1.5Zm6-.75a.76.76,0,0,1-.75-.75V9a.75.75,0,0,1,1.5,0v.75A.76.76,0,0,1,15,10.5ZM11.25,9H6A.75.75,0,0,1,6,7.5h5.25a.75.75,0,0,1,0,1.5ZM15,6.75A.76.76,0,0,1,14.25,6V5.25a.75.75,0,0,1,1.5,0V6A.76.76,0,0,1,15,6.75Z" fill="#776fef"/></svg>