<svg xmlns="http://www.w3.org/2000/svg" width="20" height="17" viewBox="0 0 20 17"><path d="M15.55,17a2.18,2.18,0,0,1-1.06-.31l-6.74-5a1.16,1.16,0,0,1-.28-.34.84.84,0,0,1-.1-.42,1.34,1.34,0,0,1,.1-.44.92.92,0,0,1,.29-.33l3-2.75-4.69,3a1,1,0,0,1-.4.15,1,1,0,0,1-.45-.05L1.18,9.22C.16,8.92,0,8.26,0,8S.13,7,1.34,6.47L17.73.16A1.94,1.94,0,0,1,18.38,0a1.5,1.5,0,0,1,1.26.59,2,2,0,0,1,.28,1.77L17.13,15.47a1.83,1.83,0,0,1-1,1.4A1.49,1.49,0,0,1,15.55,17ZM9.19,10.93l6.11,4.51a.6.6,0,0,0,.25.06,1.86,1.86,0,0,0,.11-.34L18.45,2c.09-.35,0-.49,0-.51l0-.76,0,.75a.28.28,0,0,0-.13,0L1.89,7.87,5.51,9,15,3.06a1.21,1.21,0,0,1,1.65.11.91.91,0,0,1-.21,1.26Zm-.55-.41h0ZM5.31,9.13l0,0Zm.4-.05h0Z" transform="translate(0)" fill="#776fef"/></svg>