<svg xmlns="http://www.w3.org/2000/svg" width="22" height="22" viewBox="0 0 22 22"><path d="M10,14.84A4.86,4.86,0,1,1,14.84,10,4.87,4.87,0,0,1,10,14.84Zm0-8.19A3.33,3.33,0,1,0,13.3,10,3.33,3.33,0,0,0,10,6.65Z" fill="#363638"/><path d="M3.84,18.93a.78.78,0,0,1-.33-.07.77.77,0,0,1-.37-1A8.08,8.08,0,0,1,6,14.54a7.27,7.27,0,0,1,8.05,0,8,8,0,0,1,2.81,3.3.76.76,0,0,1-.37,1,.78.78,0,0,1-1-.37,6.54,6.54,0,0,0-2.27-2.68,5.75,5.75,0,0,0-6.35,0,6.61,6.61,0,0,0-2.27,2.68A.75.75,0,0,1,3.84,18.93Z" fill="#363638"/><path d="M10,22A10,10,0,0,1,.76,8.2,10,10,0,0,1,10.9,2.09a.77.77,0,0,1,.7.83.79.79,0,0,1-.84.7A8.52,8.52,0,0,0,5.29,5,8.44,8.44,0,0,0,1.7,13.67,8.44,8.44,0,0,0,8.33,20.3,8.44,8.44,0,0,0,18.42,12a8.55,8.55,0,0,0-.06-1,.77.77,0,1,1,1.52-.18A9.61,9.61,0,0,1,20,12a10,10,0,0,1-6.15,9.22A10.09,10.09,0,0,1,10,22Z" fill="#363638"/><path d="M18.16,7.16A2.82,2.82,0,1,1,21,4.35,2.8,2.8,0,0,1,18.16,7.16Zm0-4.09a1.28,1.28,0,1,0,1.26,1.28A1.26,1.26,0,0,0,18.16,3.07Z" fill="#363638"/><path d="M18.16,3.07a.76.76,0,0,1-.76-.77V.77a.77.77,0,1,1,1.53,0V2.3A.76.76,0,0,1,18.16,3.07Z" fill="#363638"/><path d="M16.41,4.09A.78.78,0,0,1,16,4l-1.31-.77a.76.76,0,1,1,.77-1.32l1.32.76a.77.77,0,0,1,.27,1A.75.75,0,0,1,16.41,4.09Z" fill="#363638"/><path d="M15.09,6.91a.77.77,0,0,1-.38-1.43L16,4.71A.77.77,0,0,1,17.07,5a.75.75,0,0,1-.27,1l-1.32.77A.77.77,0,0,1,15.09,6.91Z" fill="#363638"/><path d="M18.16,8.7a.77.77,0,0,1-.76-.77V6.4a.77.77,0,1,1,1.53,0V7.93A.77.77,0,0,1,18.16,8.7Z" fill="#363638"/><path d="M21.23,6.91a.76.76,0,0,1-.38-.11L19.53,6a.76.76,0,0,1,.77-1.32l1.32.77a.77.77,0,0,1,.28,1A.79.79,0,0,1,21.23,6.91Z" fill="#363638"/><path d="M19.92,4.09a.74.74,0,0,1-.66-.38.77.77,0,0,1,.27-1l1.32-.76a.76.76,0,1,1,.77,1.32L20.3,4A.75.75,0,0,1,19.92,4.09Z" fill="#363638"/></svg>