<svg xmlns="http://www.w3.org/2000/svg" width="16" height="19" viewBox="0 0 16 19"><path d="M14.54,19H1.45a1.46,1.46,0,0,1-1-.43,1.42,1.42,0,0,1-.43-1V1.46a1.48,1.48,0,0,1,.43-1,1.46,1.46,0,0,1,1-.43h8.73a.78.78,0,0,1,.52.21l5.09,5.12a.76.76,0,0,1,.21.52V17.54A1.47,1.47,0,0,1,14.54,19ZM1.45,1.46V17.54H14.54V6.15L9.88,1.46Z"/><path d="M15.27,6.58H10.18a.73.73,0,0,1-.73-.73V.73a.73.73,0,0,1,1.46,0V5.12h4.36a.73.73,0,1,1,0,1.46Z"/><path d="M10.91,11H5.09a.73.73,0,0,1,0-1.46h5.82a.73.73,0,0,1,0,1.46Z"/><path d="M10.91,13.88H5.09a.73.73,0,1,1,0-1.46h5.82a.73.73,0,0,1,0,1.46Z"/></svg>