<svg xmlns="http://www.w3.org/2000/svg" xmlns:xlink="http://www.w3.org/1999/xlink" width="20" height="18" viewBox="0 0 20 18"><defs><linearGradient id="a7cde1f1-c9d6-45fb-b619-a7229a0523f3" data-name="Безымянный градиент" x1="20" y1="12.06" x2="0" y2="12.06" gradientTransform="matrix(1, 0, 0, -1, 0, 21.06)" gradientUnits="userSpaceOnUse"><stop offset="0" stop-color="#bfb1ca"/><stop offset="0.24" stop-color="#c3b5cd"/><stop offset="0.26" stop-color="#ded3e5"/><stop offset="0.49" stop-color="#ebe1f1"/><stop offset="0.51" stop-color="#c5b9cd"/><stop offset="0.74" stop-color="#c7bcce"/><stop offset="0.76" stop-color="#efe3f3"/><stop offset="1" stop-color="#e3d7e9"/></linearGradient><linearGradient id="ffb2a70e-3ff3-4451-a4c4-d1d990aabce0" data-name="Безымянный градиент 2" x1="10" y1="-11.36" x2="10" y2="21.52" gradientTransform="matrix(1, 0, 0, -1, 0, 21.06)" gradientUnits="userSpaceOnUse"><stop offset="0" stop-color="#c5b2d4"/><stop offset="1" stop-color="#c5b2d4" stop-opacity="0"/></linearGradient><linearGradient id="afe071fb-3737-4483-8742-2834a60152cf" data-name="Безымянный градиент 3" x1="18.95" y1="12.13" x2="1.03" y2="12.04" gradientTransform="matrix(1, 0, 0, -1, 0, 21.06)" gradientUnits="userSpaceOnUse"><stop offset="0" stop-color="#257ac5"/><stop offset="0.21" stop-color="#237bc8"/><stop offset="0.23" stop-color="#4190db"/><stop offset="0.48" stop-color="#49a5f1"/><stop offset="0.51" stop-color="#2484d0"/><stop offset="0.76" stop-color="#2488d4"/><stop offset="0.79" stop-color="#4aa6f6"/><stop offset="1" stop-color="#4babfc"/></linearGradient><linearGradient id="ba1e3b27-38db-402c-93c4-2ba719719f2e" data-name="Безымянный градиент 4" x1="8.58" y1="12.8" x2="17.17" y2="12.8" gradientTransform="matrix(1, 0, 0, -1, 0, 21.06)" gradientUnits="userSpaceOnUse"><stop offset="0" stop-color="#46bf86"/><stop offset="0.14" stop-color="#46bf86"/><stop offset="0.19" stop-color="#5ce09b"/><stop offset="0.72" stop-color="#50cc8c"/><stop offset="0.78" stop-color="#43be81"/></linearGradient><linearGradient id="e7aebb7f-afb5-4902-a48c-ed7c965983c5" data-name="Безымянный градиент 5" x1="1.41" y1="12.43" x2="8.58" y2="12.43" gradientTransform="matrix(1, 0, 0, -1, 0, 21.06)" gradientUnits="userSpaceOnUse"><stop offset="0" stop-color="#61e7a1"/><stop offset="0.48" stop-color="#61e7a1"/><stop offset="0.53" stop-color="#46c687"/><stop offset="1" stop-color="#46c687"/></linearGradient><linearGradient id="bd5a4561-704d-47b6-a228-17f386bef6ea" data-name="Безымянный градиент 6" x1="14.31" y1="10.24" x2="17.18" y2="10.24" gradientTransform="matrix(1, 0, 0, -1, 0, 21.06)" gradientUnits="userSpaceOnUse"><stop offset="0" stop-color="#4ec88c"/><stop offset="0.32" stop-color="#4ec88c"/><stop offset="0.44" stop-color="#42b483"/><stop offset="1" stop-color="#45b683"/></linearGradient><linearGradient id="f1c75bfa-3272-4934-9184-fb59b055420c" data-name="Безымянный градиент 7" x1="15.03" y1="8.11" x2="17.18" y2="8.11" gradientTransform="matrix(1, 0, 0, -1, 0, 21.06)" gradientUnits="userSpaceOnUse"><stop offset="0" stop-color="#4bbd8e"/><stop offset="0.06" stop-color="#4bbd8e"/><stop offset="0.12" stop-color="#43b385"/></linearGradient></defs><path d="M.37,1.3,4.8,0a.65.65,0,0,1,.39,0L9.82,1.36a.86.86,0,0,0,.39,0L14.83,0a.65.65,0,0,1,.39,0L19.63,1.3a.49.49,0,0,1,.37.47V17.51a.49.49,0,0,1-.61.47l-4.15-1.35a.67.67,0,0,0-.42,0l-4.6,1.32a.68.68,0,0,1-.4,0L5.21,16.61a.67.67,0,0,0-.42,0L.61,18a.81.81,0,0,1-.22,0,.72.72,0,0,1-.2-.09.49.49,0,0,1-.14-.18.5.5,0,0,1,0-.21V1.77A.5.5,0,0,1,.37,1.3Z" fill="url(#a7cde1f1-c9d6-45fb-b619-a7229a0523f3)"/><path d="M.37,1.3,4.8,0a.65.65,0,0,1,.39,0L9.82,1.36a.86.86,0,0,0,.39,0L14.83,0a.65.65,0,0,1,.39,0L19.63,1.3a.49.49,0,0,1,.37.47V17.51a.49.49,0,0,1-.61.47l-4.15-1.35a.67.67,0,0,0-.42,0l-4.6,1.32a.68.68,0,0,1-.4,0L5.21,16.61a.67.67,0,0,0-.42,0L.61,18a.81.81,0,0,1-.22,0,.72.72,0,0,1-.2-.09.49.49,0,0,1-.14-.18.5.5,0,0,1,0-.21V1.77A.5.5,0,0,1,.37,1.3Z" fill="url(#ffb2a70e-3ff3-4451-a4c4-d1d990aabce0)"/><path d="M1.4,2.38,4.72,1.5a1.18,1.18,0,0,1,.56,0L9.69,2.77a1,1,0,0,0,.59,0l4.46-1.26a1,1,0,0,1,.57,0l3.28.88a.5.5,0,0,1,.36.48V16c0,.16-.08.37-.33.3l-3.3-1.05a1,1,0,0,0-.62,0l-4.42,1.26a1,1,0,0,1-.59,0L5.31,15.2a1.09,1.09,0,0,0-.62,0l-3.18,1A.37.37,0,0,1,1,15.8V2.86A.49.49,0,0,1,1.4,2.38Z" fill="url(#afe071fb-3737-4483-8742-2834a60152cf)"/><path d="M9.21,8.7l-.38.39a.82.82,0,0,0-.25.61.86.86,0,0,0,.25.61l.38.38a.31.31,0,0,0,.09.07l.11,0h.31a.29.29,0,0,1,.29.29v1.58a.29.29,0,0,0,.29.29h.3l.12,0,.09-.06.3-.3a1.17,1.17,0,0,0,.33-.82v-.89a.31.31,0,0,1,0-.13l.65-1.32a.31.31,0,0,0,0-.13V8.9a.29.29,0,0,1,.29-.29h.13a.29.29,0,0,1,.29.29V9a.29.29,0,0,0,.29.28h.13A.29.29,0,0,0,13.57,9V8.9a.29.29,0,0,1,.29-.29H14a.29.29,0,0,1,.29.29V9a.29.29,0,0,0,.29.28h.8a.28.28,0,0,0,.26-.18l.64-1.58a.29.29,0,0,0,0-.13.25.25,0,0,0,0-.13.27.27,0,0,0-.11-.1.28.28,0,0,0-.13,0,.29.29,0,0,1-.29-.29V6A.29.29,0,0,1,16,5.73h.14a.29.29,0,0,1,.28.29v.07a.36.36,0,1,0,.72,0V4.69A1.11,1.11,0,0,0,16,3.58h0a.29.29,0,0,0-.29.29V4a.29.29,0,0,1-.28.29h-.86A.29.29,0,0,1,14.29,4a.43.43,0,0,0-.43-.43h-.29a.72.72,0,0,0-.72.72v0a.31.31,0,0,1-.09.22L11.51,5.66a.27.27,0,0,1-.2.07h-1A.28.28,0,0,0,10,6v.14a.29.29,0,0,1-.29.29H9.57a.28.28,0,0,0-.28.29v.85a.28.28,0,0,0,.28.29h.14a.29.29,0,0,1,.29.29v.14a.29.29,0,0,1-.29.29H9.4A.5.5,0,0,0,9.21,8.7Z" fill="url(#ba1e3b27-38db-402c-93c4-2ba719719f2e)"/><path d="M6.07,13.67a.36.36,0,0,0,.36-.37v-.82a.39.39,0,0,1,.23-.37l.88-.45a.6.6,0,0,0,.32-.52.58.58,0,0,0-.32-.52L6.7,10.2a1.29,1.29,0,0,0-.58-.13H5.8l-.08,0A.18.18,0,0,1,5.65,10L4.34,8.69l0-.07a.28.28,0,0,1,0-.09v-.4A.22.22,0,0,1,4.5,7.9h.27A.22.22,0,0,1,5,8.13v.13a.36.36,0,0,0,.72,0V8.13a.22.22,0,0,1,.22-.23,1.21,1.21,0,0,0,.85-.35L7,7.34A.24.24,0,0,0,7,7l-.5-.49a.22.22,0,0,1,0-.08.19.19,0,0,1,0-.08V6.1a.36.36,0,0,0-.72,0A.36.36,0,0,1,5,6.1V6a.22.22,0,0,1,.23-.22.22.22,0,0,0,.22-.23l0-.25A.23.23,0,0,1,5.65,5h.56a.22.22,0,0,0,.22-.23V4.67a.36.36,0,1,1,.71,0V6.11a.36.36,0,1,0,.72,0V5.84a.25.25,0,0,1,.06-.16l.3-.29a1.23,1.23,0,0,0,.36-.87.94.94,0,0,0-.93-.94H6.5a1.83,1.83,0,0,0-1.33.58l-.44.48A1.16,1.16,0,0,1,3.86,5H3.79a.22.22,0,0,1-.22-.23.49.49,0,0,0-.5-.49H2.63a.49.49,0,0,0-.49.49v.27a1.64,1.64,0,0,1-.48,1.15l-.17.18a.18.18,0,0,0-.05.07.28.28,0,0,0,0,.09v.09a.22.22,0,0,0,.38.16l.9-.91a.51.51,0,0,1,.36-.15c.28,0-.21.23-.21.51V8c0,.43.89.84,1.19,1.15l.89.9a.2.2,0,0,1,.07.16V11a1.32,1.32,0,0,0,.38.93l.27.27a.24.24,0,0,1,.07.16v1A.33.33,0,0,0,6.07,13.67Z" fill="url(#e7aebb7f-afb5-4902-a48c-ed7c965983c5)"/><path d="M14.31,10.28v.15a1.05,1.05,0,0,0,.21.62l.15.18a.91.91,0,0,0,.9.31.2.2,0,0,0,.12-.08.24.24,0,0,0,.05-.14v-.27a.23.23,0,0,1,.2-.22H16a.38.38,0,0,1,.42.37.38.38,0,0,0,.29.37l.16,0a.23.23,0,0,0,.27-.22v-.61a.73.73,0,0,0-.72-.72h-.62a.24.24,0,0,0-.16.07l-.27.3a.26.26,0,0,1-.11.07.19.19,0,0,1-.13,0l-.11-.08a.31.31,0,0,1,0-.13.22.22,0,0,0-.23-.22h-.27A.24.24,0,0,0,14.31,10.28Z" fill="url(#bd5a4561-704d-47b6-a228-17f386bef6ea)"/><path d="M15,12.83v.48a.35.35,0,0,0,.35.36h1.44a.36.36,0,0,0,.36-.36v-.68a.41.41,0,0,0-.41-.41H15.62A.6.6,0,0,0,15,12.83Z" fill="url(#f1c75bfa-3272-4934-9184-fb59b055420c)"/><path d="M10.3,1.72a.08.08,0,0,1-.07-.05.07.07,0,0,1,0-.09L14.89.22A.06.06,0,0,1,15,.27a.07.07,0,0,1-.05.08L10.32,1.72Z" fill="#eae4ee"/><path d="M.46,1.68a.08.08,0,0,1-.07-.05.07.07,0,0,1,0-.09L4.85.25a.07.07,0,1,1,0,.14L.48,1.68Z" fill="#eae4ee"/></svg>