<svg xmlns="http://www.w3.org/2000/svg" width="18" height="20" viewBox="0 0 18 20"><path d="M17.25,4.62H.75a.77.77,0,0,1,0-1.54h16.5a.77.77,0,0,1,0,1.54Z" fill="#989fa0"/><path d="M6.75,15.38A.76.76,0,0,1,6,14.62V8.46a.75.75,0,1,1,1.5,0v6.16A.76.76,0,0,1,6.75,15.38Z" fill="#989fa0"/><path d="M11.25,15.38a.76.76,0,0,1-.75-.76V8.46a.75.75,0,1,1,1.5,0v6.16A.76.76,0,0,1,11.25,15.38Z" fill="#989fa0"/><path d="M15,20H3a1.47,1.47,0,0,1-1.06-.45,1.57,1.57,0,0,1-.44-1.09V3.85a.75.75,0,1,1,1.5,0V18.46H15V3.85a.75.75,0,1,1,1.5,0V18.46a1.57,1.57,0,0,1-.44,1.09A1.47,1.47,0,0,1,15,20Z" fill="#989fa0"/><path d="M12.75,4.62A.77.77,0,0,1,12,3.85V2.31a.8.8,0,0,0-.22-.55.75.75,0,0,0-.53-.22H6.75a.75.75,0,0,0-.53.22A.8.8,0,0,0,6,2.31V3.85a.75.75,0,1,1-1.5,0V2.31A2.28,2.28,0,0,1,5.16.68,2.19,2.19,0,0,1,6.75,0h4.5a2.24,2.24,0,0,1,1.59.68,2.28,2.28,0,0,1,.66,1.63V3.85A.77.77,0,0,1,12.75,4.62Z" fill="#989fa0"/></svg>