<svg xmlns="http://www.w3.org/2000/svg" width="22" height="20" viewBox="0 0 22 20"><path d="M7.6,20H.79A.77.77,0,0,1,0,19.23V6.92a.78.78,0,0,1,.79-.77H7.6a.78.78,0,0,1,.78.77V19.23A.77.77,0,0,1,7.6,20Zm-6-1.54H6.81V7.69H1.57Z" fill="#776fef"/><path d="M14.4,20H7.6a.77.77,0,0,1-.79-.77V.77A.77.77,0,0,1,7.6,0h6.8a.77.77,0,0,1,.79.77V19.23A.77.77,0,0,1,14.4,20Zm-6-1.54h5.24V1.54H8.38Z" fill="#776fef"/><path d="M21.21,20H14.4a.77.77,0,0,1-.78-.77V11a.77.77,0,0,1,.78-.77h6.81A.77.77,0,0,1,22,11v8.2A.77.77,0,0,1,21.21,20Zm-6-1.54h5.24V11.79H15.19Z" fill="#776fef"/></svg>