<svg xmlns="http://www.w3.org/2000/svg" xmlns:xlink="http://www.w3.org/1999/xlink" width="4" height="14" viewBox="0 0 4 14"><defs><linearGradient id="b1300b1b-a009-4686-a1df-833155c612c4" data-name="Безымянный градиент" x1="-3.48" y1="6.4" x2="5.82" y2="3.79" gradientTransform="matrix(1, 0, 0, -1, 0, 16.86)" gradientUnits="userSpaceOnUse"><stop offset="0" stop-color="#776fef"/><stop offset="0.51" stop-color="#d7699b"/><stop offset="1" stop-color="#ffc141"/></linearGradient><linearGradient id="be82a3e3-d988-4557-861f-67778b85cbfe" x1="-3.48" y1="16.4" x2="5.82" y2="13.79" xlink:href="#b1300b1b-a009-4686-a1df-833155c612c4"/></defs><g id="f5a503bb-e240-4c09-8650-d27e66df9a03" data-name="Слой 2"><path d="M0,12a1.92,1.92,0,0,1,.54-1.44A1.93,1.93,0,0,1,2,10a2,2,0,0,1,1.48.55A1.92,1.92,0,0,1,4,12a2,2,0,0,1-.54,1.46A2,2,0,0,1,2,14a1.93,1.93,0,0,1-1.44-.55A2,2,0,0,1,0,12Z" fill="url(#b1300b1b-a009-4686-a1df-833155c612c4)"/></g><path d="M0,2A1.92,1.92,0,0,1,.54.55,1.93,1.93,0,0,1,2,0,2,2,0,0,1,3.46.55,1.92,1.92,0,0,1,4,2a2,2,0,0,1-.54,1.46A2,2,0,0,1,2,4,1.93,1.93,0,0,1,.54,3.45,2,2,0,0,1,0,2Z" fill="url(#be82a3e3-d988-4557-861f-67778b85cbfe)"/></svg>