<svg xmlns="http://www.w3.org/2000/svg" viewBox="0 0 16 16"><path d="m1.37.23c-.07-.07-.16-.13-.26-.17-.1-.04-.2-.06-.31-.06s-.21.02-.31.06c-.1.04-.19.1-.26.17-.07.07-.13.16-.17.26-.04.1-.06.2-.06.31s.02.21.06.31c.04.1.1.19.17.26l3.33,3.33-2.47.36c-.24.03-.46.13-.64.29-.18.15-.32.36-.39.58-.07.23-.08.47-.03.7.06.23.18.44.35.61l2.88,2.81-.68,3.96c-.04.24-.01.48.08.7.09.22.24.41.43.55.19.14.42.22.66.24.24.02.48-.03.69-.14l3.56-1.87,3.56,1.87c.17.09.36.14.56.15.19,0,.39-.03.56-.11.18-.08.33-.2.46-.35.12-.15.21-.32.26-.51l1.23,1.24c.15.15.35.23.57.23s.42-.08.57-.23c.15-.15.23-.35.23-.57s-.08-.42-.23-.57L1.37.23Zm14.24,7l-2.52,2.46L6,2.61l.85-1.73c.11-.21.27-.39.47-.52.2-.13.44-.19.68-.19s.47.07.68.19c.2.13.37.31.47.52l1.78,3.6,3.98.58c.24.03.46.13.64.29.18.15.32.36.39.58.07.23.08.47.03.7-.06.23-.18.44-.35.61Z" fill="#fff" stroke-width="0"/></svg>