<svg xmlns="http://www.w3.org/2000/svg" width="14" height="12" viewBox="0 0 14 12"><path d="M4.08,12h-3a1.14,1.14,0,0,1-.77-.3A1,1,0,0,1,0,11V5.76A1,1,0,0,1,.32,5a1.11,1.11,0,0,1,.77-.31h3a.59.59,0,0,1,.6.57v6.14A.58.58,0,0,1,4.08,12ZM1.19,10.87H3.48v-5H1.17Z"/><path d="M11.66,12H4.08a.57.57,0,1,1,0-1.13h7.58a.45.45,0,0,0,.27-.1.41.41,0,0,0,.13-.23l.74-5.67a.42.42,0,0,0,0-.16.64.64,0,0,0-.08-.14.71.71,0,0,0-.14-.1.45.45,0,0,0-.16,0H8.56A.58.58,0,0,1,8,3.87V2.46A1.25,1.25,0,0,0,7.86,2a1.31,1.31,0,0,0-.31-.43,1.51,1.51,0,0,0-.45-.29l-.18-.05L4.61,5.55a.62.62,0,0,1-.8.25A.55.55,0,0,1,3.55,5L6,.31A.62.62,0,0,1,6.57,0a2.6,2.6,0,0,1,1,.19A2.5,2.5,0,0,1,9,1.52a2.33,2.33,0,0,1,.2.94v.85h3.25a1.61,1.61,0,0,1,.65.13,1.55,1.55,0,0,1,.87.94A1.35,1.35,0,0,1,14,5l-.75,5.67a1.48,1.48,0,0,1-.52.94A1.64,1.64,0,0,1,11.66,12Z"/></svg>