<svg width="461" height="352" viewBox="0 0 461 352" fill="none" xmlns="http://www.w3.org/2000/svg">
<rect x="197" y="311.5" width="76" height="30" rx="8" fill="#FAFAFA"/>
<path d="M217.13 331.668C216.337 331.668 215.669 331.542 215.128 331.29C214.587 331.029 214.176 330.66 213.896 330.184C213.625 329.708 213.49 329.143 213.49 328.49H215.59C215.59 328.966 215.711 329.321 215.954 329.554C216.197 329.787 216.589 329.904 217.13 329.904C217.643 329.904 218.026 329.792 218.278 329.568C218.539 329.335 218.67 329.008 218.67 328.588C218.67 328.149 218.539 327.818 218.278 327.594C218.026 327.37 217.643 327.258 217.13 327.258H216.206V325.662H217.13C217.578 325.662 217.923 325.569 218.166 325.382C218.409 325.186 218.53 324.887 218.53 324.486C218.53 324.141 218.413 323.856 218.18 323.632C217.947 323.408 217.597 323.296 217.13 323.296C216.654 323.296 216.299 323.403 216.066 323.618C215.842 323.833 215.73 324.15 215.73 324.57H213.63C213.63 323.926 213.756 323.38 214.008 322.932C214.269 322.475 214.661 322.129 215.184 321.896C215.707 321.653 216.355 321.532 217.13 321.532C217.905 321.532 218.553 321.649 219.076 321.882C219.599 322.115 219.986 322.433 220.238 322.834C220.499 323.235 220.63 323.688 220.63 324.192C220.63 324.743 220.476 325.209 220.168 325.592C219.869 325.965 219.468 326.231 218.964 326.39C219.543 326.549 219.986 326.829 220.294 327.23C220.611 327.622 220.77 328.135 220.77 328.77C220.77 329.33 220.621 329.829 220.322 330.268C220.033 330.697 219.617 331.038 219.076 331.29C218.535 331.542 217.886 331.668 217.13 331.668ZM228.729 331.668C228.113 331.668 227.563 331.561 227.077 331.346C226.592 331.131 226.2 330.819 225.901 330.408C225.603 329.997 225.425 329.526 225.369 328.994H227.245C227.339 329.349 227.516 329.624 227.777 329.82C228.048 330.007 228.365 330.1 228.729 330.1C229.233 330.1 229.63 329.965 229.919 329.694C230.209 329.423 230.391 328.989 230.465 328.392H227.889V327.048H230.451C230.377 326.516 230.19 326.124 229.891 325.872C229.593 325.611 229.205 325.48 228.729 325.48C228.272 325.48 227.927 325.583 227.693 325.788C227.469 325.984 227.32 326.25 227.245 326.586H225.369C225.407 326.091 225.556 325.639 225.817 325.228C226.088 324.817 226.466 324.495 226.951 324.262C227.446 324.029 228.039 323.912 228.729 323.912C229.429 323.912 230.055 324.052 230.605 324.332C231.156 324.612 231.585 325.023 231.893 325.564C232.211 326.105 232.369 326.777 232.369 327.58V327.86C232.369 328.7 232.215 329.405 231.907 329.974C231.609 330.534 231.189 330.959 230.647 331.248C230.106 331.528 229.467 331.668 228.729 331.668ZM235.361 331.5V325.62H232.995V324.08H239.561V325.62H237.209V331.5H235.361ZM242.63 331.668C242.098 331.668 241.646 331.57 241.272 331.374C240.899 331.169 240.614 330.889 240.418 330.534C240.222 330.179 240.124 329.778 240.124 329.33C240.124 328.583 240.344 328.023 240.782 327.65C241.23 327.277 241.898 327.09 242.784 327.09H244.996V326.74C244.996 326.255 244.884 325.914 244.66 325.718C244.446 325.522 244.1 325.424 243.624 325.424C243.204 325.424 242.901 325.499 242.714 325.648C242.528 325.788 242.42 325.965 242.392 326.18H240.544C240.572 325.751 240.708 325.368 240.95 325.032C241.202 324.687 241.557 324.416 242.014 324.22C242.481 324.015 243.041 323.912 243.694 323.912C244.329 323.912 244.88 324.005 245.346 324.192C245.822 324.379 246.191 324.682 246.452 325.102C246.714 325.513 246.844 326.068 246.844 326.768V329.61C246.844 330.002 246.849 330.347 246.858 330.646C246.877 330.935 246.905 331.22 246.942 331.5H245.22C245.183 331.295 245.16 331.141 245.15 331.038C245.15 330.926 245.15 330.763 245.15 330.548C244.954 330.847 244.646 331.108 244.226 331.332C243.806 331.556 243.274 331.668 242.63 331.668ZM243.204 330.24C243.503 330.24 243.788 330.189 244.058 330.086C244.338 329.974 244.562 329.806 244.73 329.582C244.908 329.349 244.996 329.055 244.996 328.7V328.35H243.134C242.78 328.35 242.5 328.434 242.294 328.602C242.098 328.761 242 328.98 242 329.26C242 329.559 242.103 329.797 242.308 329.974C242.514 330.151 242.812 330.24 243.204 330.24ZM248.471 331.5V324.08H255.163V331.5H253.329V325.62H250.305V331.5H248.471Z" fill="#776FEF"/>
<ellipse cx="298" cy="342" rx="33" ry="3" fill="#E7E7E7"/>
<path d="M314.906 309.094C314.302 309.094 313.812 309.583 313.812 310.188V311.281H283.188V310.188C283.188 309.583 282.698 309.094 282.094 309.094C281.49 309.094 281 309.583 281 310.188V312.375V325.5V340.812C281 341.417 281.49 341.906 282.094 341.906C282.698 341.906 283.188 341.417 283.188 340.812V326.594H313.812V340.812C313.812 341.417 314.302 341.906 314.906 341.906C315.51 341.906 316 341.417 316 340.812V325.5V312.375V310.188C316 309.583 315.51 309.094 314.906 309.094ZM309.438 324.406V318.938H303.969V324.406H298.5V318.938H293.031V324.406H287.562V318.938H283.188V313.469H287.562V318.938H293.031V313.469H298.5V318.938H303.969V313.469H309.438V318.938H313.812V324.406H309.438Z" fill="#344851"/>
<path d="M303.969 318.938H298.5V324.406H303.969V318.938Z" fill="white"/>
<path d="M287.562 313.469H283.188V318.938H287.562V313.469Z" fill="white"/>
<path d="M313.812 318.938H309.438V324.406H313.812V318.938Z" fill="white"/>
<path d="M309.438 313.469H303.969V318.938H309.438V313.469Z" fill="white"/>
<path d="M298.5 313.469H293.031V318.938H298.5V313.469Z" fill="white"/>
<path d="M219.5 294.622L201.753 283.16C173.029 264.607 137.773 258.05 103.649 264.916L86.5326 268.36C80.8992 269.493 75.1144 269.537 69.506 268.49L62.6548 267.21C49.3466 264.724 39.0565 254.557 36.6313 241.499V241.499C32.1095 217.152 55.9233 196.437 79.9965 203.776L119.795 215.911C122.245 216.658 124.891 216.599 127.334 215.743V215.743C140.395 211.17 136.597 187.203 123.175 184.358C110.623 181.697 101.496 177.418 100.5 170.651C97.0004 146.865 218 185.5 225 158" stroke="#FAFCFE" stroke-width="18" stroke-linecap="round"/>
<path d="M255 295C287.198 288.586 311.534 282.676 330.018 277.186C362.157 267.64 339.377 235.521 321.592 263.943C317.091 271.136 322.565 278.008 331.551 283.766C356.658 299.856 391.923 288.521 410.108 264.888C416.616 256.43 421.528 247.998 422.088 241.432C426.008 195.453 362.104 198 343 198C323.6 198 315.916 199.658 310.502 202.441C304.851 205.344 300.226 212.803 304.231 217.734C308.651 223.176 320.707 220.823 349.5 219C378 212 373.301 206.391 380.835 202C386.79 194.76 391.1 171.751 383.5 165C383.5 157.5 363.472 155.202 372.5 175.5C393.185 209.339 436 182.5 425 159.5C393 110.8 298.5 175.798 266 154.5" stroke="#FAFCFE" stroke-width="18" stroke-linecap="round"/>
<path d="M242.03 292.863L251.321 283.636C263.407 271.633 269.105 255.675 266.729 240.482V240.482C264.924 228.944 253.464 221.408 240.444 223.198L214.435 226.773C202.626 228.396 190.788 227.805 179.667 225.037L178.423 224.727C178.169 224.664 177.957 224.518 177.826 224.315V224.315C169.604 211.64 181.642 194.56 198.392 195.136L217.731 195.801C221.542 195.932 225.41 195.403 229.13 194.241L235.271 192.324C253.213 186.721 257.065 176.37 245.813 163.962C243.919 161.873 241.821 159.56 239.5 157" stroke="#FAFCFE" stroke-width="18" stroke-linecap="round"/>
<path d="M242.031 292.863L251.322 283.636C263.408 271.633 269.106 255.675 266.73 240.482V240.482C264.925 228.944 253.465 221.408 240.444 223.198L214.436 226.773C202.627 228.396 190.789 227.805 179.668 225.037L178.424 224.727C178.17 224.664 177.958 224.518 177.827 224.315V224.315C169.605 211.64 181.643 194.56 198.393 195.136L217.732 195.801C221.543 195.932 225.411 195.403 229.131 194.241L235.272 192.324C253.213 186.721 257.066 176.37 245.814 163.962C243.92 161.873 241.822 159.56 239.5 157" stroke="#EB7551" stroke-width="2.5" stroke-linecap="round" stroke-dasharray="5.84 5.84"/>
<path d="M219.5 294.622L201.753 283.16C173.029 264.607 137.773 258.05 103.649 264.916L86.5326 268.36C80.8992 269.493 75.1144 269.537 69.506 268.49L62.6548 267.21C49.3466 264.724 39.0565 254.557 36.6313 241.499V241.499C32.1095 217.152 55.9233 196.437 79.9965 203.776L119.795 215.911C122.245 216.658 124.891 216.599 127.334 215.743V215.743C140.395 211.17 136.597 187.203 123.175 184.358C110.623 181.697 101.496 177.418 100.5 170.651C97.0004 146.865 218 185.5 225 158" stroke="#78A4EA" stroke-width="2.5" stroke-linecap="round" stroke-dasharray="6.84 6.84"/>
<path d="M255 295C287.198 288.586 311.534 282.676 330.018 277.186C362.157 267.64 339.377 235.521 321.592 263.943C317.091 271.136 322.565 278.008 331.551 283.766C356.658 299.856 391.923 288.521 410.108 264.888C416.616 256.43 421.528 247.998 422.088 241.432C426.008 195.453 362.104 198 343 198C323.6 198 315.916 199.658 310.502 202.441C304.851 205.344 300.226 212.803 304.231 217.734C308.651 223.176 320.707 220.823 349.5 219C378 212 373.301 206.391 380.835 202C386.79 194.76 391.1 171.751 383.5 165C383.5 157.5 363.472 155.202 372.5 175.5C393.185 209.339 436 182.5 425 159.5C393 110.8 298.5 175.798 266 154.5" stroke="#6DD2D2" stroke-width="2.5" stroke-linecap="round" stroke-dasharray="6 6"/>
<rect x="197" y="120" width="75" height="30" rx="8" fill="#FAFAFA"/>
<path d="M213.42 140V138.474L216.85 135.52C217.279 135.137 217.62 134.825 217.872 134.582C218.133 134.33 218.32 134.092 218.432 133.868C218.544 133.644 218.6 133.401 218.6 133.14C218.6 132.739 218.488 132.417 218.264 132.174C218.049 131.922 217.718 131.796 217.27 131.796C216.757 131.796 216.36 131.936 216.08 132.216C215.8 132.487 215.66 132.953 215.66 133.616H213.56C213.56 132.879 213.7 132.244 213.98 131.712C214.26 131.171 214.675 130.755 215.226 130.466C215.786 130.177 216.467 130.032 217.27 130.032C218.017 130.032 218.647 130.167 219.16 130.438C219.673 130.699 220.056 131.063 220.308 131.53C220.569 131.997 220.7 132.533 220.7 133.14C220.7 133.588 220.593 134.008 220.378 134.4C220.173 134.792 219.897 135.165 219.552 135.52C219.207 135.875 218.819 136.229 218.39 136.584L216.374 138.264H220.84V140H213.42ZM228.661 140.168C228.045 140.168 227.494 140.061 227.009 139.846C226.524 139.631 226.132 139.319 225.833 138.908C225.534 138.497 225.357 138.026 225.301 137.494H227.177C227.27 137.849 227.448 138.124 227.709 138.32C227.98 138.507 228.297 138.6 228.661 138.6C229.165 138.6 229.562 138.465 229.851 138.194C230.14 137.923 230.322 137.489 230.397 136.892H227.821V135.548H230.383C230.308 135.016 230.122 134.624 229.823 134.372C229.524 134.111 229.137 133.98 228.661 133.98C228.204 133.98 227.858 134.083 227.625 134.288C227.401 134.484 227.252 134.75 227.177 135.086H225.301C225.338 134.591 225.488 134.139 225.749 133.728C226.02 133.317 226.398 132.995 226.883 132.762C227.378 132.529 227.97 132.412 228.661 132.412C229.361 132.412 229.986 132.552 230.537 132.832C231.088 133.112 231.517 133.523 231.825 134.064C232.142 134.605 232.301 135.277 232.301 136.08V136.36C232.301 137.2 232.147 137.905 231.839 138.474C231.54 139.034 231.12 139.459 230.579 139.748C230.038 140.028 229.398 140.168 228.661 140.168ZM235.292 140V134.12H232.926V132.58H239.492V134.12H237.14V140H235.292ZM242.562 140.168C242.03 140.168 241.577 140.07 241.204 139.874C240.831 139.669 240.546 139.389 240.35 139.034C240.154 138.679 240.056 138.278 240.056 137.83C240.056 137.083 240.275 136.523 240.714 136.15C241.162 135.777 241.829 135.59 242.716 135.59H244.928V135.24C244.928 134.755 244.816 134.414 244.592 134.218C244.377 134.022 244.032 133.924 243.556 133.924C243.136 133.924 242.833 133.999 242.646 134.148C242.459 134.288 242.352 134.465 242.324 134.68H240.476C240.504 134.251 240.639 133.868 240.882 133.532C241.134 133.187 241.489 132.916 241.946 132.72C242.413 132.515 242.973 132.412 243.626 132.412C244.261 132.412 244.811 132.505 245.278 132.692C245.754 132.879 246.123 133.182 246.384 133.602C246.645 134.013 246.776 134.568 246.776 135.268V138.11C246.776 138.502 246.781 138.847 246.79 139.146C246.809 139.435 246.837 139.72 246.874 140H245.152C245.115 139.795 245.091 139.641 245.082 139.538C245.082 139.426 245.082 139.263 245.082 139.048C244.886 139.347 244.578 139.608 244.158 139.832C243.738 140.056 243.206 140.168 242.562 140.168ZM243.136 138.74C243.435 138.74 243.719 138.689 243.99 138.586C244.27 138.474 244.494 138.306 244.662 138.082C244.839 137.849 244.928 137.555 244.928 137.2V136.85H243.066C242.711 136.85 242.431 136.934 242.226 137.102C242.03 137.261 241.932 137.48 241.932 137.76C241.932 138.059 242.035 138.297 242.24 138.474C242.445 138.651 242.744 138.74 243.136 138.74ZM248.403 140V132.58H255.095V140H253.261V134.12H250.237V140H248.403Z" fill="#776FEF"/>
<path opacity="0.5" fill-rule="evenodd" clip-rule="evenodd" d="M181 63.75C181 63.3358 180.664 63 180.25 63C179.836 63 179.5 63.3358 179.5 63.75V83.75C179.5 84.1642 179.836 84.5 180.25 84.5C180.664 84.5 181 84.1642 181 83.75V75.6V65.6V63.75Z" fill="#776FEF"/>
<path d="M188.058 65.8738L187.645 65.7085C186.082 65.0834 184.371 64.9263 182.721 65.2564L181 65.6005V75.6005L182.721 75.2564C184.371 74.9263 186.082 75.0834 187.645 75.7085C189.338 76.3859 191.202 76.5124 192.972 76.07L193.072 76.045C193.658 75.8985 193.936 75.2274 193.625 74.7094L192.065 72.1083C191.723 71.5392 191.552 71.2546 191.512 70.945C191.495 70.8159 191.495 70.6851 191.512 70.556C191.552 70.2465 191.723 69.9619 192.065 69.3927L193.343 67.2618C193.678 66.7041 193.171 66.0202 192.54 66.178C191.051 66.5502 189.483 66.4438 188.058 65.8738Z" fill="#776FEF"/>
<rect x="198.5" y="59" width="75" height="30" rx="8" fill="#FAFAFA"/>
<path d="M215.63 79V77.264H217.87V71.328L215.63 72.924V70.88L217.996 69.2H219.97V77.264H221.79V79H215.63ZM229.335 79.168C228.719 79.168 228.168 79.0607 227.683 78.846C227.197 78.6313 226.805 78.3187 226.507 77.908C226.208 77.4973 226.031 77.026 225.975 76.494H227.851C227.944 76.8487 228.121 77.124 228.383 77.32C228.653 77.5067 228.971 77.6 229.335 77.6C229.839 77.6 230.235 77.4647 230.525 77.194C230.814 76.9233 230.996 76.4893 231.071 75.892H228.495V74.548H231.057C230.982 74.016 230.795 73.624 230.497 73.372C230.198 73.1107 229.811 72.98 229.335 72.98C228.877 72.98 228.532 73.0827 228.299 73.288C228.075 73.484 227.925 73.75 227.851 74.086H225.975C226.012 73.5913 226.161 73.1387 226.423 72.728C226.693 72.3173 227.071 71.9953 227.557 71.762C228.051 71.5287 228.644 71.412 229.335 71.412C230.035 71.412 230.66 71.552 231.211 71.832C231.761 72.112 232.191 72.5227 232.499 73.064C232.816 73.6053 232.975 74.2773 232.975 75.08V75.36C232.975 76.2 232.821 76.9047 232.513 77.474C232.214 78.034 231.794 78.4587 231.253 78.748C230.711 79.028 230.072 79.168 229.335 79.168ZM235.966 79V73.12H233.6V71.58H240.166V73.12H237.814V79H235.966ZM243.236 79.168C242.704 79.168 242.251 79.07 241.878 78.874C241.505 78.6687 241.22 78.3887 241.024 78.034C240.828 77.6793 240.73 77.278 240.73 76.83C240.73 76.0833 240.949 75.5233 241.388 75.15C241.836 74.7767 242.503 74.59 243.39 74.59H245.602V74.24C245.602 73.7547 245.49 73.414 245.266 73.218C245.051 73.022 244.706 72.924 244.23 72.924C243.81 72.924 243.507 72.9987 243.32 73.148C243.133 73.288 243.026 73.4653 242.998 73.68H241.15C241.178 73.2507 241.313 72.868 241.556 72.532C241.808 72.1867 242.163 71.916 242.62 71.72C243.087 71.5147 243.647 71.412 244.3 71.412C244.935 71.412 245.485 71.5053 245.952 71.692C246.428 71.8787 246.797 72.182 247.058 72.602C247.319 73.0127 247.45 73.568 247.45 74.268V77.11C247.45 77.502 247.455 77.8473 247.464 78.146C247.483 78.4353 247.511 78.72 247.548 79H245.826C245.789 78.7947 245.765 78.6407 245.756 78.538C245.756 78.426 245.756 78.2627 245.756 78.048C245.56 78.3467 245.252 78.608 244.832 78.832C244.412 79.056 243.88 79.168 243.236 79.168ZM243.81 77.74C244.109 77.74 244.393 77.6887 244.664 77.586C244.944 77.474 245.168 77.306 245.336 77.082C245.513 76.8487 245.602 76.5547 245.602 76.2V75.85H243.74C243.385 75.85 243.105 75.934 242.9 76.102C242.704 76.2607 242.606 76.48 242.606 76.76C242.606 77.0587 242.709 77.2967 242.914 77.474C243.119 77.6513 243.418 77.74 243.81 77.74ZM249.077 79V71.58H255.769V79H253.935V73.12H250.911V79H249.077Z" fill="#776FEF"/>
<path d="M189 137.5C152.5 137.5 161.811 113.18 172 107C193 94.2651 234.5 102.8 234.5 92.5003" stroke="#AE9DED" stroke-width="2.5" stroke-linecap="round" stroke-linejoin="round" stroke-dasharray="6 6"/>
<path d="M228.5 53.9999C228.5 41.4999 65.5002 50.4999 58.7399 38.2451" stroke="#AE9DED" stroke-width="2.5" stroke-linecap="round" stroke-linejoin="round" stroke-dasharray="6 6"/>
<path d="M253.5 52.5C260.5 42 425.09 50.5 431.85 38.2451" stroke="#AE9DED" stroke-width="2.5" stroke-linecap="round" stroke-linejoin="round" stroke-dasharray="6 6"/>
<path d="M241.001 55.0005C233.274 30.7181 261.121 16.6832 249.538 15.2375" stroke="#AE9DED" stroke-width="2.5" stroke-linecap="round" stroke-linejoin="round" stroke-dasharray="6 6"/>
</svg>
