<svg width="463" height="352" viewBox="0 0 463 352" fill="none" xmlns="http://www.w3.org/2000/svg">
<rect x="187" y="313.5" width="95" height="30" rx="8" fill="#FAFAFA"/>
<g clip-path="url(#clip0_609_155817)">
<path d="M207.714 324.69C207.714 324.084 207.955 323.503 208.384 323.074C208.812 322.645 209.394 322.405 210 322.405C210.606 322.405 211.188 322.645 211.616 323.074C212.045 323.503 212.286 324.084 212.286 324.69V326.214H213.809V324.69C213.809 323.68 213.408 322.711 212.694 321.997C211.979 321.282 211.01 320.881 210 320.881C208.99 320.881 208.021 321.282 207.306 321.997C206.592 322.711 206.19 323.68 206.19 324.69V326.214H207.714V324.69ZM210 333.071C209.798 333.071 209.604 332.991 209.461 332.848C209.318 332.705 209.238 332.511 209.238 332.309V330.024C209.238 329.822 209.318 329.628 209.461 329.485C209.604 329.342 209.798 329.262 210 329.262C210.202 329.262 210.396 329.342 210.539 329.485C210.682 329.628 210.762 329.822 210.762 330.024V332.309C210.762 332.511 210.682 332.705 210.539 332.848C210.396 332.991 210.202 333.071 210 333.071Z" fill="#989FA0"/>
<path d="M213.809 326.214H206.19C205.584 326.214 205.002 326.455 204.574 326.883C204.145 327.312 203.904 327.893 203.904 328.5V333.833C203.904 334.439 204.145 335.021 204.574 335.449C205.002 335.878 205.584 336.119 206.19 336.119H213.809C214.415 336.119 214.997 335.878 215.425 335.449C215.854 335.021 216.095 334.439 216.095 333.833V328.5C216.095 327.893 215.854 327.312 215.425 326.883C214.997 326.455 214.415 326.214 213.809 326.214ZM210.761 332.309C210.761 332.511 210.681 332.705 210.538 332.848C210.395 332.991 210.202 333.071 210 333.071C209.797 333.071 209.604 332.991 209.461 332.848C209.318 332.705 209.238 332.511 209.238 332.309V330.023C209.238 329.821 209.318 329.628 209.461 329.485C209.604 329.342 209.797 329.261 210 329.261C210.202 329.261 210.395 329.342 210.538 329.485C210.681 329.628 210.761 329.821 210.761 330.023V332.309Z" fill="#D7D7D7"/>
</g>
<path d="M227.13 333.668C226.337 333.668 225.669 333.542 225.128 333.29C224.587 333.029 224.176 332.66 223.896 332.184C223.625 331.708 223.49 331.143 223.49 330.49H225.59C225.59 330.966 225.711 331.321 225.954 331.554C226.197 331.787 226.589 331.904 227.13 331.904C227.643 331.904 228.026 331.792 228.278 331.568C228.539 331.335 228.67 331.008 228.67 330.588C228.67 330.149 228.539 329.818 228.278 329.594C228.026 329.37 227.643 329.258 227.13 329.258H226.206V327.662H227.13C227.578 327.662 227.923 327.569 228.166 327.382C228.409 327.186 228.53 326.887 228.53 326.486C228.53 326.141 228.413 325.856 228.18 325.632C227.947 325.408 227.597 325.296 227.13 325.296C226.654 325.296 226.299 325.403 226.066 325.618C225.842 325.833 225.73 326.15 225.73 326.57H223.63C223.63 325.926 223.756 325.38 224.008 324.932C224.269 324.475 224.661 324.129 225.184 323.896C225.707 323.653 226.355 323.532 227.13 323.532C227.905 323.532 228.553 323.649 229.076 323.882C229.599 324.115 229.986 324.433 230.238 324.834C230.499 325.235 230.63 325.688 230.63 326.192C230.63 326.743 230.476 327.209 230.168 327.592C229.869 327.965 229.468 328.231 228.964 328.39C229.543 328.549 229.986 328.829 230.294 329.23C230.611 329.622 230.77 330.135 230.77 330.77C230.77 331.33 230.621 331.829 230.322 332.268C230.033 332.697 229.617 333.038 229.076 333.29C228.535 333.542 227.886 333.668 227.13 333.668ZM238.729 333.668C238.104 333.668 237.549 333.561 237.063 333.346C236.587 333.131 236.2 332.819 235.901 332.408C235.603 331.997 235.425 331.526 235.369 330.994H237.245C237.339 331.349 237.516 331.624 237.777 331.82C238.048 332.007 238.365 332.1 238.729 332.1C239.233 332.1 239.63 331.965 239.919 331.694C240.209 331.423 240.391 330.989 240.465 330.392H237.889V329.048H240.451C240.377 328.516 240.19 328.124 239.891 327.872C239.593 327.611 239.205 327.48 238.729 327.48C238.272 327.48 237.927 327.583 237.693 327.788C237.469 327.984 237.32 328.25 237.245 328.586H235.369C235.407 328.091 235.556 327.639 235.817 327.228C236.088 326.817 236.466 326.495 236.951 326.262C237.446 326.029 238.039 325.912 238.729 325.912C239.429 325.912 240.055 326.052 240.605 326.332C241.156 326.612 241.585 327.023 241.893 327.564C242.211 328.105 242.369 328.777 242.369 329.58V329.86C242.369 330.7 242.215 331.405 241.907 331.974C241.609 332.534 241.189 332.959 240.647 333.248C240.106 333.528 239.467 333.668 238.729 333.668ZM245.361 333.5V327.62H242.995V326.08H249.561V327.62H247.209V333.5H245.361ZM252.617 333.668C252.085 333.668 251.632 333.57 251.259 333.374C250.885 333.169 250.601 332.889 250.405 332.534C250.209 332.179 250.111 331.778 250.111 331.33C250.111 330.583 250.33 330.023 250.769 329.65C251.217 329.277 251.884 329.09 252.771 329.09H254.983V328.74C254.983 328.255 254.871 327.914 254.647 327.718C254.432 327.522 254.087 327.424 253.611 327.424C253.191 327.424 252.887 327.499 252.701 327.648C252.514 327.788 252.407 327.965 252.379 328.18H250.531C250.559 327.751 250.694 327.368 250.937 327.032C251.189 326.687 251.543 326.416 252.001 326.22C252.467 326.015 253.027 325.912 253.681 325.912C254.315 325.912 254.866 326.005 255.333 326.192C255.809 326.379 256.177 326.682 256.439 327.102C256.7 327.513 256.831 328.068 256.831 328.768V331.61C256.831 332.002 256.835 332.347 256.845 332.646C256.863 332.935 256.891 333.22 256.929 333.5H255.207C255.169 333.295 255.146 333.141 255.137 333.038C255.137 332.926 255.137 332.763 255.137 332.548C254.941 332.847 254.633 333.108 254.213 333.332C253.793 333.556 253.261 333.668 252.617 333.668ZM253.191 332.24C253.489 332.24 253.774 332.189 254.045 332.086C254.325 331.974 254.549 331.806 254.717 331.582C254.894 331.349 254.983 331.055 254.983 330.7V330.35H253.121C252.766 330.35 252.486 330.434 252.281 330.602C252.085 330.761 251.987 330.98 251.987 331.26C251.987 331.559 252.089 331.797 252.295 331.974C252.5 332.151 252.799 332.24 253.191 332.24ZM258.458 333.5V326.08H265.15V333.5H263.316V327.62H260.292V333.5H258.458Z" fill="#989FA0"/>
<ellipse cx="307" cy="344" rx="33" ry="3" fill="#E7E7E7"/>
<path d="M323.906 311.094C323.302 311.094 322.812 311.583 322.812 312.188V313.281H292.188V312.188C292.188 311.583 291.698 311.094 291.094 311.094C290.49 311.094 290 311.583 290 312.188V314.375V327.5V342.812C290 343.417 290.49 343.906 291.094 343.906C291.698 343.906 292.188 343.417 292.188 342.812V328.594H322.812V342.812C322.812 343.417 323.302 343.906 323.906 343.906C324.51 343.906 325 343.417 325 342.812V327.5V314.375V312.188C325 311.583 324.51 311.094 323.906 311.094ZM318.438 326.406V320.938H312.969V326.406H307.5V320.938H302.031V326.406H296.562V320.938H292.188V315.469H296.562V320.938H302.031V315.469H307.5V320.938H312.969V315.469H318.438V320.938H322.812V326.406H318.438Z" fill="#989FA0"/>
<path d="M312.969 320.938H307.5V326.406H312.969V320.938Z" fill="white"/>
<path d="M296.562 315.469H292.188V320.938H296.562V315.469Z" fill="white"/>
<path d="M322.812 320.938H318.438V326.406H322.812V320.938Z" fill="white"/>
<path d="M318.438 315.469H312.969V320.938H318.438V315.469Z" fill="white"/>
<path d="M307.5 315.469H302.031V320.938H307.5V315.469Z" fill="white"/>
<path d="M219.5 294.622L201.753 283.16C173.029 264.607 137.773 258.05 103.649 264.916L86.5326 268.36C80.8992 269.493 75.1144 269.537 69.506 268.49L62.6548 267.21C49.3466 264.724 39.0565 254.557 36.6313 241.499V241.499C32.1095 217.152 55.9233 196.437 79.9965 203.776L119.795 215.911C122.245 216.658 124.891 216.599 127.334 215.743V215.743C140.395 211.17 136.597 187.203 123.175 184.358C110.623 181.697 101.496 177.418 100.5 170.651C97.0004 146.865 218 185.5 225 158" stroke="#FAFCFE" stroke-width="18" stroke-linecap="round"/>
<path d="M255 295C287.198 288.586 311.534 282.676 330.018 277.186C362.157 267.64 339.377 235.521 321.592 263.943C317.091 271.136 322.565 278.008 331.551 283.766C356.658 299.856 391.923 288.521 410.108 264.888C416.616 256.43 421.528 247.998 422.088 241.432C426.008 195.453 362.104 198 343 198C323.6 198 315.916 199.658 310.502 202.441C304.851 205.344 300.226 212.803 304.231 217.734C308.651 223.176 320.707 220.823 349.5 219C378 212 373.301 206.391 380.835 202C386.79 194.76 391.1 171.751 383.5 165C383.5 157.5 363.472 155.202 372.5 175.5C393.185 209.339 436 182.5 425 159.5C393 110.8 298.5 175.798 266 154.5" stroke="#FAFCFE" stroke-width="18" stroke-linecap="round"/>
<path d="M242.03 292.863L251.321 283.636C263.407 271.633 269.105 255.675 266.729 240.482V240.482C264.924 228.944 253.464 221.408 240.444 223.198L214.435 226.773C202.626 228.396 190.788 227.805 179.667 225.037L178.423 224.727C178.169 224.664 177.957 224.518 177.826 224.315V224.315C169.604 211.64 181.642 194.56 198.392 195.136L217.731 195.801C221.542 195.932 225.41 195.403 229.13 194.241L235.271 192.324C253.213 186.721 257.065 176.37 245.813 163.962C243.919 161.873 241.821 159.56 239.5 157" stroke="#FAFCFE" stroke-width="18" stroke-linecap="round"/>
<path d="M242.031 292.863L251.322 283.636C263.408 271.633 269.106 255.675 266.73 240.482V240.482C264.925 228.944 253.465 221.408 240.444 223.198L214.436 226.773C202.627 228.396 190.789 227.805 179.668 225.037L178.424 224.727C178.17 224.664 177.958 224.518 177.827 224.315V224.315C169.605 211.64 181.643 194.56 198.393 195.136L217.732 195.801C221.543 195.932 225.411 195.403 229.131 194.241L235.272 192.324C253.213 186.721 257.066 176.37 245.814 163.962C243.92 161.873 241.822 159.56 239.5 157" stroke="#EB7551" stroke-width="2.5" stroke-linecap="round" stroke-dasharray="5.84 5.84"/>
<path d="M219.5 294.622L201.753 283.16C173.029 264.607 137.773 258.05 103.649 264.916L86.5326 268.36C80.8992 269.493 75.1144 269.537 69.506 268.49L62.6548 267.21C49.3466 264.724 39.0565 254.557 36.6313 241.499V241.499C32.1095 217.152 55.9233 196.437 79.9965 203.776L119.795 215.911C122.245 216.658 124.891 216.599 127.334 215.743V215.743C140.395 211.17 136.597 187.203 123.175 184.358C110.623 181.697 101.496 177.418 100.5 170.651C97.0004 146.865 218 185.5 225 158" stroke="#78A4EA" stroke-width="2.5" stroke-linecap="round" stroke-dasharray="6.84 6.84"/>
<path d="M255 295C287.198 288.586 311.534 282.676 330.018 277.186C362.157 267.64 339.377 235.521 321.592 263.943C317.091 271.136 322.565 278.008 331.551 283.766C356.658 299.856 391.923 288.521 410.108 264.888C416.616 256.43 421.528 247.998 422.088 241.432C426.008 195.453 362.104 198 343 198C323.6 198 315.916 199.658 310.502 202.441C304.851 205.344 300.226 212.803 304.231 217.734C308.651 223.176 320.707 220.823 349.5 219C378 212 373.301 206.391 380.835 202C386.79 194.76 391.1 171.751 383.5 165C383.5 157.5 363.472 155.202 372.5 175.5C393.185 209.339 436 182.5 425 159.5C393 110.8 298.5 175.798 266 154.5" stroke="#6DD2D2" stroke-width="2.5" stroke-linecap="round" stroke-dasharray="6 6"/>
<rect x="197" y="120" width="75" height="30" rx="8" fill="#FAFAFA"/>
<path d="M213.42 140V138.474L216.85 135.52C217.279 135.137 217.62 134.825 217.872 134.582C218.133 134.33 218.32 134.092 218.432 133.868C218.544 133.644 218.6 133.401 218.6 133.14C218.6 132.739 218.488 132.417 218.264 132.174C218.049 131.922 217.718 131.796 217.27 131.796C216.757 131.796 216.36 131.936 216.08 132.216C215.8 132.487 215.66 132.953 215.66 133.616H213.56C213.56 132.879 213.7 132.244 213.98 131.712C214.26 131.171 214.675 130.755 215.226 130.466C215.786 130.177 216.467 130.032 217.27 130.032C218.017 130.032 218.647 130.167 219.16 130.438C219.673 130.699 220.056 131.063 220.308 131.53C220.569 131.997 220.7 132.533 220.7 133.14C220.7 133.588 220.593 134.008 220.378 134.4C220.173 134.792 219.897 135.165 219.552 135.52C219.207 135.875 218.819 136.229 218.39 136.584L216.374 138.264H220.84V140H213.42ZM228.661 140.168C228.045 140.168 227.494 140.061 227.009 139.846C226.524 139.631 226.132 139.319 225.833 138.908C225.534 138.497 225.357 138.026 225.301 137.494H227.177C227.27 137.849 227.448 138.124 227.709 138.32C227.98 138.507 228.297 138.6 228.661 138.6C229.165 138.6 229.562 138.465 229.851 138.194C230.14 137.923 230.322 137.489 230.397 136.892H227.821V135.548H230.383C230.308 135.016 230.122 134.624 229.823 134.372C229.524 134.111 229.137 133.98 228.661 133.98C228.204 133.98 227.858 134.083 227.625 134.288C227.401 134.484 227.252 134.75 227.177 135.086H225.301C225.338 134.591 225.488 134.139 225.749 133.728C226.02 133.317 226.398 132.995 226.883 132.762C227.378 132.529 227.97 132.412 228.661 132.412C229.361 132.412 229.986 132.552 230.537 132.832C231.088 133.112 231.517 133.523 231.825 134.064C232.142 134.605 232.301 135.277 232.301 136.08V136.36C232.301 137.2 232.147 137.905 231.839 138.474C231.54 139.034 231.12 139.459 230.579 139.748C230.038 140.028 229.398 140.168 228.661 140.168ZM235.292 140V134.12H232.926V132.58H239.492V134.12H237.14V140H235.292ZM242.562 140.168C242.03 140.168 241.577 140.07 241.204 139.874C240.831 139.669 240.546 139.389 240.35 139.034C240.154 138.679 240.056 138.278 240.056 137.83C240.056 137.083 240.275 136.523 240.714 136.15C241.162 135.777 241.829 135.59 242.716 135.59H244.928V135.24C244.928 134.755 244.816 134.414 244.592 134.218C244.377 134.022 244.032 133.924 243.556 133.924C243.136 133.924 242.833 133.999 242.646 134.148C242.459 134.288 242.352 134.465 242.324 134.68H240.476C240.504 134.251 240.639 133.868 240.882 133.532C241.134 133.187 241.489 132.916 241.946 132.72C242.413 132.515 242.973 132.412 243.626 132.412C244.261 132.412 244.811 132.505 245.278 132.692C245.754 132.879 246.123 133.182 246.384 133.602C246.645 134.013 246.776 134.568 246.776 135.268V138.11C246.776 138.502 246.781 138.847 246.79 139.146C246.809 139.435 246.837 139.72 246.874 140H245.152C245.115 139.795 245.091 139.641 245.082 139.538C245.082 139.426 245.082 139.263 245.082 139.048C244.886 139.347 244.578 139.608 244.158 139.832C243.738 140.056 243.206 140.168 242.562 140.168ZM243.136 138.74C243.435 138.74 243.719 138.689 243.99 138.586C244.27 138.474 244.494 138.306 244.662 138.082C244.839 137.849 244.928 137.555 244.928 137.2V136.85H243.066C242.711 136.85 242.431 136.934 242.226 137.102C242.03 137.261 241.932 137.48 241.932 137.76C241.932 138.059 242.035 138.297 242.24 138.474C242.445 138.651 242.744 138.74 243.136 138.74ZM248.403 140V132.58H255.095V140H253.261V134.12H250.237V140H248.403Z" fill="#776FEF"/>
<path opacity="0.5" fill-rule="evenodd" clip-rule="evenodd" d="M181 63.75C181 63.3358 180.664 63 180.25 63C179.836 63 179.5 63.3358 179.5 63.75V83.75C179.5 84.1642 179.836 84.5 180.25 84.5C180.664 84.5 181 84.1642 181 83.75V75.6V65.6V63.75Z" fill="#776FEF"/>
<path d="M188.058 65.8738L187.645 65.7085C186.082 65.0834 184.371 64.9263 182.721 65.2564L181 65.6005V75.6005L182.721 75.2564C184.371 74.9263 186.082 75.0834 187.645 75.7085C189.338 76.3859 191.202 76.5124 192.972 76.07L193.072 76.045C193.658 75.8985 193.936 75.2274 193.625 74.7094L192.065 72.1083C191.723 71.5392 191.552 71.2546 191.512 70.945C191.495 70.8159 191.495 70.6851 191.512 70.556C191.552 70.2465 191.723 69.9619 192.065 69.3927L193.343 67.2618C193.678 66.7041 193.171 66.0202 192.54 66.178C191.051 66.5502 189.483 66.4438 188.058 65.8738Z" fill="#776FEF"/>
<rect x="198.5" y="59" width="75" height="30" rx="8" fill="#FAFAFA"/>
<path d="M215.63 79V77.264H217.87V71.328L215.63 72.924V70.88L217.996 69.2H219.97V77.264H221.79V79H215.63ZM229.335 79.168C228.719 79.168 228.168 79.0607 227.683 78.846C227.197 78.6313 226.805 78.3187 226.507 77.908C226.208 77.4973 226.031 77.026 225.975 76.494H227.851C227.944 76.8487 228.121 77.124 228.383 77.32C228.653 77.5067 228.971 77.6 229.335 77.6C229.839 77.6 230.235 77.4647 230.525 77.194C230.814 76.9233 230.996 76.4893 231.071 75.892H228.495V74.548H231.057C230.982 74.016 230.795 73.624 230.497 73.372C230.198 73.1107 229.811 72.98 229.335 72.98C228.877 72.98 228.532 73.0827 228.299 73.288C228.075 73.484 227.925 73.75 227.851 74.086H225.975C226.012 73.5913 226.161 73.1387 226.423 72.728C226.693 72.3173 227.071 71.9953 227.557 71.762C228.051 71.5287 228.644 71.412 229.335 71.412C230.035 71.412 230.66 71.552 231.211 71.832C231.761 72.112 232.191 72.5227 232.499 73.064C232.816 73.6053 232.975 74.2773 232.975 75.08V75.36C232.975 76.2 232.821 76.9047 232.513 77.474C232.214 78.034 231.794 78.4587 231.253 78.748C230.711 79.028 230.072 79.168 229.335 79.168ZM235.966 79V73.12H233.6V71.58H240.166V73.12H237.814V79H235.966ZM243.236 79.168C242.704 79.168 242.251 79.07 241.878 78.874C241.505 78.6687 241.22 78.3887 241.024 78.034C240.828 77.6793 240.73 77.278 240.73 76.83C240.73 76.0833 240.949 75.5233 241.388 75.15C241.836 74.7767 242.503 74.59 243.39 74.59H245.602V74.24C245.602 73.7547 245.49 73.414 245.266 73.218C245.051 73.022 244.706 72.924 244.23 72.924C243.81 72.924 243.507 72.9987 243.32 73.148C243.133 73.288 243.026 73.4653 242.998 73.68H241.15C241.178 73.2507 241.313 72.868 241.556 72.532C241.808 72.1867 242.163 71.916 242.62 71.72C243.087 71.5147 243.647 71.412 244.3 71.412C244.935 71.412 245.485 71.5053 245.952 71.692C246.428 71.8787 246.797 72.182 247.058 72.602C247.319 73.0127 247.45 73.568 247.45 74.268V77.11C247.45 77.502 247.455 77.8473 247.464 78.146C247.483 78.4353 247.511 78.72 247.548 79H245.826C245.789 78.7947 245.765 78.6407 245.756 78.538C245.756 78.426 245.756 78.2627 245.756 78.048C245.56 78.3467 245.252 78.608 244.832 78.832C244.412 79.056 243.88 79.168 243.236 79.168ZM243.81 77.74C244.109 77.74 244.393 77.6887 244.664 77.586C244.944 77.474 245.168 77.306 245.336 77.082C245.513 76.8487 245.602 76.5547 245.602 76.2V75.85H243.74C243.385 75.85 243.105 75.934 242.9 76.102C242.704 76.2607 242.606 76.48 242.606 76.76C242.606 77.0587 242.709 77.2967 242.914 77.474C243.119 77.6513 243.418 77.74 243.81 77.74ZM249.077 79V71.58H255.769V79H253.935V73.12H250.911V79H249.077Z" fill="#776FEF"/>
<path d="M189 137.5C152.5 137.5 161.811 113.18 172 107C193 94.2651 234.5 102.8 234.5 92.5003" stroke="#AE9DED" stroke-width="3" stroke-linecap="round" stroke-linejoin="round" stroke-dasharray="6 6"/>
<path d="M228.5 53.9999C228.5 41.4999 65.5002 50.4999 58.7399 38.2451" stroke="#AE9DED" stroke-width="2.5" stroke-linecap="round" stroke-linejoin="round" stroke-dasharray="6 6"/>
<path d="M253.5 52.5C260.5 42 425.09 50.5 431.85 38.2451" stroke="#AE9DED" stroke-width="2.5" stroke-linecap="round" stroke-linejoin="round" stroke-dasharray="6 6"/>
<path d="M241.001 55.0005C233.274 30.7181 261.121 16.6832 249.538 15.2375" stroke="#AE9DED" stroke-width="2.5" stroke-linecap="round" stroke-linejoin="round" stroke-dasharray="6 6"/>
<defs>
<clipPath id="clip0_609_155817">
<rect width="14" height="16" fill="white" transform="translate(203 320.5)"/>
</clipPath>
</defs>
</svg>
