<svg xmlns="http://www.w3.org/2000/svg" xmlns:xlink="http://www.w3.org/1999/xlink" width="32" height="32" viewBox="0 0 32 32"><defs><clipPath id="b58b5f48-f6e9-476d-b676-d71ebc1b474b"><circle cx="16" cy="16" r="16" fill="none"/></clipPath><linearGradient id="bb8f8d25-974e-4874-9439-75054fd1e96e" data-name="Безымянный градиент" x1="732.52" y1="-731.74" x2="770.7" y2="-709.44" gradientTransform="matrix(0.25, 0, 0, -0.25, -179.25, -170.75)" gradientUnits="userSpaceOnUse"><stop offset="0" stop-color="#a52714" stop-opacity="0.6"/><stop offset="0.66" stop-color="#a52714" stop-opacity="0"/></linearGradient><linearGradient id="b17e475b-9dce-41de-83f2-046478997c54" data-name="Безымянный градиент 2" x1="791.82" y1="-796.81" x2="749.39" y2="-771.96" gradientTransform="matrix(0.25, 0, 0, -0.25, -179.25, -170.75)" gradientUnits="userSpaceOnUse"><stop offset="0" stop-color="#055524" stop-opacity="0.4"/><stop offset="0.33" stop-color="#055524" stop-opacity="0"/></linearGradient><clipPath id="b5f36b47-e6e8-4b1d-8761-4d723839f500"><polygon points="0 32 15.23 32 22.3 24.93 22.3 19.64 9.7 19.64 0 3 0 32" fill="none"/></clipPath><linearGradient id="b05c31e9-f81d-4e99-a1d4-042f491e62f5" data-name="Безымянный градиент 3" x1="799.8" y1="-713.4" x2="810.49" y2="-760.19" gradientTransform="matrix(0.25, 0, 0, -0.25, -179.25, -170.75)" gradientUnits="userSpaceOnUse"><stop offset="0" stop-color="#ea6100" stop-opacity="0.3"/><stop offset="0.66" stop-color="#ea6100" stop-opacity="0"/></linearGradient><clipPath id="a8cbce23-498b-4ffa-a77b-36283e9dcd86"><polygon points="16 8.73 22.3 19.64 15.23 32 32 32 32 8.73 16 8.73" fill="none"/></clipPath><radialGradient id="a992a674-737d-4674-9553-1521270c5829" data-name="Безымянный градиент 6" cx="777.18" cy="-706.95" r="84.08" gradientTransform="matrix(0.18, 0, 0, -0.18, -126, -119.82)" gradientUnits="userSpaceOnUse"><stop offset="0" stop-color="#3e2723" stop-opacity="0.2"/><stop offset="1" stop-color="#3e2723" stop-opacity="0"/></radialGradient><clipPath id="ebaabbc6-3c83-4659-af64-84db2bc03c38"><polygon points="2.54 0 2.54 7.33 9.7 19.64 16 8.73 32 8.73 32 0 2.54 0" fill="none"/></clipPath><radialGradient id="af9e0251-ebfe-410d-98a2-22d22948bd96" data-name="Безымянный градиент 8" cx="706.88" cy="-699.52" r="78.04" xlink:href="#a992a674-737d-4674-9553-1521270c5829"/><radialGradient id="bd8acd35-6a61-4b40-b606-8f8fb920f51e" data-name="Безымянный градиент 9" cx="780.84" cy="-747.14" r="87.87" gradientTransform="matrix(0.18, 0, 0, -0.18, -126, -119.82)" gradientUnits="userSpaceOnUse"><stop offset="0" stop-color="#263238" stop-opacity="0.2"/><stop offset="1" stop-color="#263238" stop-opacity="0"/></radialGradient><radialGradient id="e8b9c870-832d-4f1e-82ec-ec0fda212c7c" data-name="Безымянный градиент 10" cx="719.29" cy="-683.01" r="176.75" gradientTransform="matrix(0.18, 0, 0, -0.18, -126, -119.82)" gradientUnits="userSpaceOnUse"><stop offset="0" stop-color="#fff" stop-opacity="0.1"/><stop offset="1" stop-color="#fff" stop-opacity="0"/></radialGradient></defs><g><g clip-path="url(#b58b5f48-f6e9-476d-b676-d71ebc1b474b)"><g><path d="M2.54,0V19.64H9.7L16,8.73H32V0Z" fill="#db4437"/><path d="M2.54,0V19.64H9.7L16,8.73H32V0Z" fill="url(#bb8f8d25-974e-4874-9439-75054fd1e96e)"/></g></g><g clip-path="url(#b58b5f48-f6e9-476d-b676-d71ebc1b474b)"><path d="M9.87,19.57,2.63,7.15l-.1.18L9.72,19.66Z" fill="#3e2723" fill-opacity="0.15"/></g><g clip-path="url(#b58b5f48-f6e9-476d-b676-d71ebc1b474b)"><g><path d="M0,32H15.23l7.07-7.07V19.64H9.7L0,3Z" fill="#0f9d58"/><path d="M0,32H15.23l7.07-7.07V19.64H9.7L0,3Z" fill="url(#b17e475b-9dce-41de-83f2-046478997c54)"/></g></g><g clip-path="url(#b58b5f48-f6e9-476d-b676-d71ebc1b474b)"><path d="M22.15,19.88,22,19.79,15,32h.21l6.93-12.12Z" fill="#263238" fill-opacity="0.15"/></g><g clip-path="url(#b58b5f48-f6e9-476d-b676-d71ebc1b474b)"><g clip-path="url(#b5f36b47-e6e8-4b1d-8761-4d723839f500)"><g><path d="M16,8.73l6.3,10.91L15.23,32H32V8.73Z" fill="#ffcd40"/><path d="M16,8.73l6.3,10.91L15.23,32H32V8.73Z" fill="url(#b05c31e9-f81d-4e99-a1d4-042f491e62f5)"/></g></g></g><g clip-path="url(#b58b5f48-f6e9-476d-b676-d71ebc1b474b)"><g><path d="M16,8.73l6.3,10.91L15.23,32H32V8.73Z" fill="#ffcd40"/><path d="M16,8.73l6.3,10.91L15.23,32H32V8.73Z" fill="url(#b05c31e9-f81d-4e99-a1d4-042f491e62f5)"/></g></g><g clip-path="url(#b58b5f48-f6e9-476d-b676-d71ebc1b474b)"><g clip-path="url(#a8cbce23-498b-4ffa-a77b-36283e9dcd86)"><g><path d="M2.54,0V19.64H9.7L16,8.73H32V0Z" fill="#db4437"/><path d="M2.54,0V19.64H9.7L16,8.73H32V0Z" fill="url(#bb8f8d25-974e-4874-9439-75054fd1e96e)"/></g></g></g><g clip-path="url(#b58b5f48-f6e9-476d-b676-d71ebc1b474b)"><path d="M16,8.73v3.81L30.25,8.73Z" fill="url(#a992a674-737d-4674-9553-1521270c5829)"/></g><g clip-path="url(#b58b5f48-f6e9-476d-b676-d71ebc1b474b)"><g clip-path="url(#ebaabbc6-3c83-4659-af64-84db2bc03c38)"><g><path d="M0,32H15.23l7.07-7.07V19.64H9.7L0,3Z" fill="#0f9d58"/><path d="M0,32H15.23l7.07-7.07V19.64H9.7L0,3Z" fill="url(#b17e475b-9dce-41de-83f2-046478997c54)"/></g></g></g><g clip-path="url(#b58b5f48-f6e9-476d-b676-d71ebc1b474b)"><path d="M2.54,7.35,13,17.76,9.7,19.64Z" fill="url(#af9e0251-ebfe-410d-98a2-22d22948bd96)"/></g><g clip-path="url(#b58b5f48-f6e9-476d-b676-d71ebc1b474b)"><path d="M15.24,32l3.81-14.22,3.25,1.88Z" fill="url(#bd8acd35-6a61-4b40-b606-8f8fb920f51e)"/></g><g clip-path="url(#b58b5f48-f6e9-476d-b676-d71ebc1b474b)"><g><circle cx="16" cy="16" r="7.27" fill="#f1f1f1"/><circle cx="16" cy="16" r="5.82" fill="#4285f4"/></g></g><g clip-path="url(#b58b5f48-f6e9-476d-b676-d71ebc1b474b)"><g><path d="M16,8.55a7.26,7.26,0,0,0-7.27,7.27V16A7.26,7.26,0,0,1,16,8.73H32V8.55Z" fill="#3e2723" fill-opacity="0.2"/><path d="M22.29,19.64a7.26,7.26,0,0,1-12.58,0h0L0,3v.18L9.7,19.82h0a7.26,7.26,0,0,0,12.58,0h0v-.18Z" fill="#fff" fill-opacity="0.1"/><path d="M16.18,8.73h-.09a7.27,7.27,0,0,1,0,14.54h.09a7.27,7.27,0,0,0,0-14.54Z" fill="#3e2723" opacity="0.1" style="isolation: isolate"/><path d="M22.36,19.88A7.24,7.24,0,0,0,23,14.05,7.4,7.4,0,0,1,23.27,16a7.29,7.29,0,0,1-1,3.63h0L15.23,32h.21l6.93-12.11Z" fill="#fff" fill-opacity="0.2"/></g></g><g clip-path="url(#b58b5f48-f6e9-476d-b676-d71ebc1b474b)"><g><path d="M16,.18A16,16,0,0,1,32,16.09V16A16,16,0,0,0,0,16v.09A16,16,0,0,1,16,.18Z" fill="#fff" fill-opacity="0.2"/><path d="M16,31.82A16,16,0,0,0,32,15.91V16A16,16,0,0,1,0,16v-.09A16,16,0,0,0,16,31.82Z" fill="#3e2723" fill-opacity="0.15"/></g></g><circle cx="16" cy="16" r="16" fill="url(#e8b9c870-832d-4f1e-82ec-ec0fda212c7c)"/></g></svg>