<svg width="40" height="40" viewBox="0 0 40 40" fill="none" xmlns="http://www.w3.org/2000/svg">
<path d="M13.3334 35H25" stroke="#253639" stroke-width="1.5" stroke-linecap="round" stroke-linejoin="round"/>
<path d="M11.4641 23.335C9.9778 22.2093 8.77394 20.7716 7.94304 19.1298C7.11214 17.4881 6.67582 15.6851 6.66688 13.8563C6.62944 7.28625 12.0917 1.82474 18.8653 1.67014C21.4901 1.60885 24.0681 2.35054 26.2338 3.79C28.3994 5.22945 30.0426 7.29359 30.9304 9.68962C31.8182 12.0856 31.9054 14.6919 31.1797 17.1387C30.454 19.5855 28.9522 21.7486 26.8874 23.3212C26.4326 23.6629 26.0639 24.1003 25.8091 24.6005C25.5543 25.1007 25.4201 25.6506 25.4167 26.2084L25.4167 27.1212C25.4167 27.4427 25.285 27.751 25.0506 27.9783C24.8162 28.2056 24.4982 28.3333 24.1667 28.3333H14.1667C13.8351 28.3333 13.5172 28.2056 13.2828 27.9783C13.0484 27.751 12.9167 27.4427 12.9167 27.1212L12.9166 26.2074C12.9152 25.6531 12.7837 25.1064 12.532 24.6088C12.2804 24.1111 11.9152 23.6755 11.4641 23.335V23.335Z" stroke="#253639" stroke-width="1.5" stroke-linecap="round" stroke-linejoin="round"/>
<path d="M20 8.33325C21.6639 8.61644 23.199 9.40992 24.3932 10.6041C25.5874 11.7983 26.3818 13.3343 26.6667 14.9999" stroke="#253639" stroke-width="1.5" stroke-linecap="round" stroke-linejoin="round"/>
</svg>
