<svg xmlns="http://www.w3.org/2000/svg" width="135" height="57" viewBox="0 0 135 57"><path d="M30.85,34.69l-6.24,5.75L9.88,44.57,0,53.67v3.16H30.85V41.4l-3.44,3.16v9.11H4.85l6.85-6.3,14.74-4.14,4.41-4.07Z"  fill="#358e43"/><path d="M21.88,36.25,7.15,40.38,3.44,43.79V3.26a14.94,14.94,0,0,1,6,2,13.65,13.65,0,0,1,4.46,4.25l1.49,2.23,1.48-2.23a13.58,13.58,0,0,1,4.47-4.25,14.83,14.83,0,0,1,6.05-2V28.91l3.43-3.16V0H29.12a18.87,18.87,0,0,0-7.58,1.55A17.37,17.37,0,0,0,15.43,6,17.5,17.5,0,0,0,9.31,1.55,18.87,18.87,0,0,0,1.73,0H0V51.43l9-8.26L23.71,39l7.15-6.58V28Z"  fill="#e24d25"/><path d="M44.49,3.58H41v3h-.84V0H41V2.89h3.5V0h.84V6.55h-.84Z" /><path d="M47.18,0H48V4.11l-.08,1.34h0l.7-1.18L51.6,0h.75V6.55h-.81V2.44l.08-1.34h0l-.7,1.18-3,4.27h-.75Z" /><path d="M54.2,0H55V4.11l-.07,1.34h0l.7-1.18,3-4.27h.76V6.55h-.82V2.44l.08-1.34h0l-.7,1.18L55,6.55H54.2Z" /><path d="M42.75,18.92a3.16,3.16,0,0,1-1.22-.22,2.62,2.62,0,0,1-.93-.64A2.93,2.93,0,0,1,40,17a4.74,4.74,0,0,1-.21-1.47A4.57,4.57,0,0,1,40,14.08,2.93,2.93,0,0,1,40.6,13a2.53,2.53,0,0,1,.93-.65,3.47,3.47,0,0,1,2.43,0,2.41,2.41,0,0,1,.92.65,3,3,0,0,1,.6,1.06,4.57,4.57,0,0,1,.21,1.45A4.74,4.74,0,0,1,45.48,17a3,3,0,0,1-.6,1.06,2.5,2.5,0,0,1-.92.64A3.18,3.18,0,0,1,42.75,18.92Zm0-.7a2.21,2.21,0,0,0,.82-.15,1.94,1.94,0,0,0,.65-.43,2,2,0,0,0,.42-.68,2.46,2.46,0,0,0,.15-.88V15a2.46,2.46,0,0,0-.15-.88,2,2,0,0,0-.42-.68,1.94,1.94,0,0,0-.65-.43,2.34,2.34,0,0,0-1.65,0,1.94,1.94,0,0,0-.65.43,2,2,0,0,0-.42.68,2.46,2.46,0,0,0-.15.88v1.09a2.46,2.46,0,0,0,.15.88,2,2,0,0,0,.42.68,1.94,1.94,0,0,0,.65.43A2.23,2.23,0,0,0,42.75,18.22Z" /><path d="M47.19,18.81V12.26H50a1.91,1.91,0,0,1,1.43.51,1.83,1.83,0,0,1,.51,1.37,1.86,1.86,0,0,1-.51,1.38A1.94,1.94,0,0,1,50,16H48v2.8ZM48,15.32H50a1.1,1.1,0,0,0,.76-.24.88.88,0,0,0,.28-.7v-.49a.85.85,0,0,0-.28-.69A1.1,1.1,0,0,0,50,13H48Z" /><path d="M53.21,12.26H57V13H54v5.85h-.83Z" /><path d="M61.68,18.81,61,16.88h-2.8l-.7,1.93h-.84l2.42-6.55h1.06l2.43,6.55ZM59.61,13h0l-1.17,3.19h2.39Z" /><path d="M68.05,15.84H64.54v3h-.83V12.26h.83v2.89h3.51V12.26h.83v6.55h-.83Z" /><path d="M70.73,12.26h.81v4.11l-.08,1.34h0l.7-1.18,3-4.27h.75v6.55h-.81V14.7l.08-1.34h0l-.7,1.18-3,4.27h-.75Z" /><path d="M79.62,18.92a3.06,3.06,0,0,1-1.44-.31,2.79,2.79,0,0,1-1-.85l.6-.46a2.3,2.3,0,0,0,.75.68,2.2,2.2,0,0,0,1.07.24,2.11,2.11,0,0,0,1.16-.28,1,1,0,0,0,.42-.9v-.12a1,1,0,0,0-.36-.8,1.7,1.7,0,0,0-1.13-.31h-1v-.7h1a1.6,1.6,0,0,0,1.06-.28A1,1,0,0,0,81,14v-.13a.86.86,0,0,0-.34-.74,1.56,1.56,0,0,0-1-.27,2.08,2.08,0,0,0-1,.21,1.85,1.85,0,0,0-.63.54l-.65-.39a2.69,2.69,0,0,1,.91-.78,2.89,2.89,0,0,1,1.38-.28,2.6,2.6,0,0,1,1.69.47,1.55,1.55,0,0,1,.55,1.25,1.5,1.5,0,0,1-.35,1.05,1.76,1.76,0,0,1-1,.49v.05a2.14,2.14,0,0,1,.58.14,1.61,1.61,0,0,1,.47.29,1.43,1.43,0,0,1,.31.47,1.56,1.56,0,0,1,.12.64,1.75,1.75,0,0,1-.17.79,1.64,1.64,0,0,1-.48.6,2.55,2.55,0,0,1-.79.4A3.63,3.63,0,0,1,79.62,18.92Z" /><path d="M87.86,18.81l-.69-1.93h-2.8l-.7,1.93h-.84l2.42-6.55h1.06l2.43,6.55ZM85.79,13h-.05l-1.17,3.19H87Z" /><path d="M95.13,18.81H89.89V12.26h.83v5.85h3.37V12.26h.83v5.85h1v2.1h-.77Z" /><path d="M97.14,12.26H98v4.11l-.08,1.34h0l.69-1.18,3-4.27h.76v6.55h-.82V14.7l.08-1.34h0l-.69,1.18-3,4.27h-.76Z" /><path d="M104.17,12.26H105v4.11l-.08,1.34h0l.7-1.18,3-4.27h.76v6.55h-.81V14.7l.08-1.34h0l-.69,1.18-3,4.27h-.75Z" /><path d="M42,31.18a3.06,3.06,0,0,1-1.44-.31,2.77,2.77,0,0,1-1-.85l.6-.46a2.41,2.41,0,0,0,.75.68,2.2,2.2,0,0,0,1.07.24,2.09,2.09,0,0,0,1.16-.28,1,1,0,0,0,.42-.89v-.13a1,1,0,0,0-.36-.8,1.66,1.66,0,0,0-1.13-.31h-1v-.7h1a1.58,1.58,0,0,0,1.06-.28,1,1,0,0,0,.33-.84v-.13a.86.86,0,0,0-.34-.74,1.54,1.54,0,0,0-1-.27,2.11,2.11,0,0,0-1,.21,1.77,1.77,0,0,0-.63.55l-.64-.4a2.57,2.57,0,0,1,.9-.78,3,3,0,0,1,1.38-.28,2.58,2.58,0,0,1,1.69.47,1.56,1.56,0,0,1,.56,1.25A1.45,1.45,0,0,1,44,27.18a1.7,1.7,0,0,1-1,.49v0a2.59,2.59,0,0,1,.58.14,1.49,1.49,0,0,1,.47.29,1.45,1.45,0,0,1,.32.47,1.59,1.59,0,0,1,.11.64,1.86,1.86,0,0,1-.16.79,1.91,1.91,0,0,1-.49.61,2.16,2.16,0,0,1-.79.39A3.58,3.58,0,0,1,42,31.18Z" /><path d="M45.22,30.38h.72a4.38,4.38,0,0,0,.69-1.54,9.89,9.89,0,0,0,.24-2.39V24.52H51v5.86h1v2.1h-.76V31.07H46v1.41h-.76Zm5,0V25.22H47.66V26.5a11.13,11.13,0,0,1-.21,2.41,4.27,4.27,0,0,1-.53,1.42v.05Z" /><path d="M53.25,31.07V24.52H56a1.91,1.91,0,0,1,1.43.51A1.83,1.83,0,0,1,58,26.4a1.86,1.86,0,0,1-.51,1.38,1.94,1.94,0,0,1-1.43.49H54.08v2.8Zm.83-3.49H56a1.13,1.13,0,0,0,.77-.24.91.91,0,0,0,.27-.7v-.48a.9.9,0,0,0-.27-.7,1.13,1.13,0,0,0-.77-.24H54.08Z" /><path d="M63.17,31.07l-.7-1.93h-2.8L59,31.07h-.85l2.43-6.55h1.06L64,31.07Zm-2.08-5.81H61l-1.17,3.18h2.39Z" /><path d="M65.19,24.52H68a1.9,1.9,0,0,1,1.35.46,1.77,1.77,0,0,1,.39,1.85,1.29,1.29,0,0,1-.28.42,1.15,1.15,0,0,1-.37.25,2,2,0,0,1-.36.1v.06a1.13,1.13,0,0,1,.41.09,1.5,1.5,0,0,1,.45.27,1.41,1.41,0,0,1,.35.47,1.47,1.47,0,0,1,.15.69,2.12,2.12,0,0,1-.14.75,1.84,1.84,0,0,1-.37.6,2,2,0,0,1-.57.4,1.8,1.8,0,0,1-.71.14H65.19ZM66,30.38h2.06a1.26,1.26,0,0,0,.84-.26.93.93,0,0,0,.31-.76V29a.91.91,0,0,0-.31-.75,1.26,1.26,0,0,0-.84-.26H66Zm0-3h1.92a1.17,1.17,0,0,0,.78-.24.83.83,0,0,0,.27-.67v-.32a.85.85,0,0,0-.27-.68,1.23,1.23,0,0,0-.78-.23H66Z" /><path d="M74.27,31.18A3.36,3.36,0,0,1,73.05,31a2.52,2.52,0,0,1-.92-.65,3,3,0,0,1-.59-1.06,5.18,5.18,0,0,1,0-2.92,3,3,0,0,1,.59-1.06,2.39,2.39,0,0,1,.92-.64,3.16,3.16,0,0,1,1.22-.23,3.11,3.11,0,0,1,1.21.23,2.35,2.35,0,0,1,.93.64A3,3,0,0,1,77,26.34a5.18,5.18,0,0,1,0,2.92,3,3,0,0,1-.59,1.06,2.48,2.48,0,0,1-.93.65A3.3,3.3,0,0,1,74.27,31.18Zm0-.7a2.27,2.27,0,0,0,.83-.15,1.9,1.9,0,0,0,.64-.43,1.92,1.92,0,0,0,.43-.68,2.42,2.42,0,0,0,.15-.88V27.25a2.46,2.46,0,0,0-.15-.88,1.8,1.8,0,0,0-.43-.67,1.65,1.65,0,0,0-.64-.43,2.08,2.08,0,0,0-.83-.16,2,2,0,0,0-.82.16,1.8,1.8,0,0,0-.66.43,1.91,1.91,0,0,0-.42.67,2.71,2.71,0,0,0-.14.88v1.09a2.66,2.66,0,0,0,.14.88,2,2,0,0,0,.42.68,2.09,2.09,0,0,0,.66.43A2.18,2.18,0,0,0,74.27,30.48Z" /><path d="M81.3,31.18A3.4,3.4,0,0,1,80.08,31a2.7,2.7,0,0,1-.92-.65,3.1,3.1,0,0,1-.59-1.06,5.18,5.18,0,0,1,0-2.92,3.1,3.1,0,0,1,.59-1.06,2.55,2.55,0,0,1,.92-.64,3.35,3.35,0,0,1,2.44,0,2.39,2.39,0,0,1,.92.64,3,3,0,0,1,.6,1.06,5.43,5.43,0,0,1,0,2.92,3,3,0,0,1-.6,1.06,2.52,2.52,0,0,1-.92.65A3.4,3.4,0,0,1,81.3,31.18Zm0-.7a2.23,2.23,0,0,0,.83-.15,1.81,1.81,0,0,0,.64-.43,1.92,1.92,0,0,0,.43-.68,2.42,2.42,0,0,0,.15-.88V27.25a2.46,2.46,0,0,0-.15-.88,1.8,1.8,0,0,0-.43-.67,1.58,1.58,0,0,0-.64-.43,2.21,2.21,0,0,0-1.65,0,1.8,1.8,0,0,0-.66.43,2,2,0,0,0-.41.67,2.46,2.46,0,0,0-.15.88v1.09a2.42,2.42,0,0,0,.15.88,2.2,2.2,0,0,0,.41.68,2.09,2.09,0,0,0,.66.43A2.21,2.21,0,0,0,81.3,30.48Z" /><path d="M90.53,31.07h-1L87.7,28.32h0l-1.81,2.75h-1l2.27-3.33L85,24.52h1l1.73,2.61h0l1.78-2.61h1l-2.23,3.19Z" /><path d="M91.69,31.07V24.52h2.76a1.91,1.91,0,0,1,1.43.51,1.83,1.83,0,0,1,.51,1.37,1.86,1.86,0,0,1-.51,1.38,1.94,1.94,0,0,1-1.43.49H92.52v2.8Zm.83-3.49h1.93a1.13,1.13,0,0,0,.77-.24.91.91,0,0,0,.27-.7v-.48a.9.9,0,0,0-.27-.7,1.13,1.13,0,0,0-.77-.24H92.52Z" /><path d="M101.61,31.07l-.7-1.93h-2.8l-.69,1.93h-.85L99,24.52h1.06l2.42,6.55Zm-2.08-5.81h0l-1.17,3.18h2.4Z" /><path d="M108,28.11h-3.5v3h-.84V24.52h.84v2.89H108V24.52h.84v6.55H108Z" /><path d="M110.65,31.07V24.52h4.24v.7h-3.4v2.19h3.2v.7h-3.2v2.27h3.4v.69Z" /><path d="M120.79,28.11h-3.51v3h-.84V24.52h.84v2.89h3.51V24.52h.83v6.55h-.83Z" /><path d="M123.47,24.52h.81v4.11L124.2,30h0l.7-1.18,3-4.27h.75v6.55h-.81V27l.08-1.34h0l-.7,1.18-3,4.27h-.75Z" /><path d="M130,30.38h.6l.85-1.57.15-.25.14-.18a.66.66,0,0,1,.17-.12.83.83,0,0,1,.22-.08v-.05a2.21,2.21,0,0,1-.81-.14,1.59,1.59,0,0,1-.56-.36,1.44,1.44,0,0,1-.33-.56,2.5,2.5,0,0,1-.1-.69,1.79,1.79,0,0,1,.51-1.38,2,2,0,0,1,1.43-.48H135v6.55h-.83V28.26h-1.52l-1.18,2.15a1.51,1.51,0,0,1-.4.53.82.82,0,0,1-.48.13H130Zm4.2-2.8V25.22h-1.93a1.14,1.14,0,0,0-.78.24.93.93,0,0,0-.26.7v.48a.94.94,0,0,0,.26.7,1.14,1.14,0,0,0,.78.24Z" /><path d="M40.15,36.79H41v4.1l-.08,1.34h0l.69-1.18,3-4.26h.76v6.54h-.82V39.22l.08-1.34h0l-.69,1.18-3,4.27h-.76Z" /><path d="M54.93,37.82h0l-.59,1.09-1.66,2.86L51,38.91l-.58-1.09h0v5.51h-.82V36.79h1.12l2,3.52h.05l2-3.52h1.07v6.54h-.81Z" /><path d="M57.59,43.33V36.79h4.23v.69h-3.4v2.19h3.2v.7h-3.2v2.27h3.4v.69Z" /><path d="M62.55,42.64h.73A4.57,4.57,0,0,0,64,41.1a9.89,9.89,0,0,0,.24-2.39V36.79h4.17v5.85h1v2.1h-.77V43.33H63.32v1.41h-.77Zm5,0V37.48H65v1.28a11.13,11.13,0,0,1-.21,2.41,4.26,4.26,0,0,1-.54,1.42v0Z" /><path d="M70.58,36.79h.82v4.1l-.08,1.34h0L72,41.05l3-4.26h.76v6.54h-.82V39.22L75,37.88h0l-.69,1.18-3,4.27h-.76Z" /><path d="M82.85,43.33H77.61V36.79h.83v5.85h3.37V36.79h.83v5.85h1v2.1h-.77Z" /><path d="M84.86,36.79h.82v4.1l-.08,1.34h0l.69-1.18,3-4.26H90v6.54h-.82V39.22l.08-1.34h0l-.69,1.18-3,4.27h-.76Z" /><path d="M96.23,40.37H92.72v3h-.84V36.79h.84v2.88h3.51V36.79h.83v6.54h-.83Z" /><path d="M101.35,43.44a2.6,2.6,0,0,1-2.06-.84,3.73,3.73,0,0,1-.73-2.5,3.88,3.88,0,0,1,.73-2.54,2.54,2.54,0,0,1,2.06-.89,2.66,2.66,0,0,1,1.46.38,2.47,2.47,0,0,1,.93,1.06l-.68.38a1.8,1.8,0,0,0-.64-.8,1.74,1.74,0,0,0-1.07-.31,1.87,1.87,0,0,0-.8.16,1.67,1.67,0,0,0-.6.46,2,2,0,0,0-.37.7,3.17,3.17,0,0,0-.13.91v1a2.35,2.35,0,0,0,.5,1.59,1.76,1.76,0,0,0,1.4.57,1.79,1.79,0,0,0,1.77-1.18l.66.39a2.53,2.53,0,0,1-.94,1.1A2.73,2.73,0,0,1,101.35,43.44Z" /><path d="M105.08,36.79h.83v2.89h1.35l1.39-2.24a1.89,1.89,0,0,1,.45-.5.93.93,0,0,1,.54-.15h.45v.69h-.62l-1.23,2a1.44,1.44,0,0,1-.3.37.67.67,0,0,1-.29.15v0a1.09,1.09,0,0,1,.4.16,1.33,1.33,0,0,1,.36.44l1.3,2h.6v.69h-.62a.92.92,0,0,1-.45-.12,1.45,1.45,0,0,1-.45-.49l-1.53-2.36h-1.35v3h-.83Z" /><path d="M114,43.44a3.4,3.4,0,0,1-1.22-.21,2.61,2.61,0,0,1-.92-.65,3.1,3.1,0,0,1-.59-1.06,4.63,4.63,0,0,1-.21-1.46,4.52,4.52,0,0,1,.21-1.45,3,3,0,0,1,.59-1.06,2.38,2.38,0,0,1,.92-.65,3.35,3.35,0,0,1,2.44,0,2.31,2.31,0,0,1,.92.65,2.73,2.73,0,0,1,.59,1.06,4.52,4.52,0,0,1,.21,1.45,4.63,4.63,0,0,1-.21,1.46,2.8,2.8,0,0,1-.59,1.06,2.52,2.52,0,0,1-.92.65A3.4,3.4,0,0,1,114,43.44Zm0-.7a2.23,2.23,0,0,0,.83-.15,1.68,1.68,0,0,0,.64-.43,1.84,1.84,0,0,0,.43-.68,2.42,2.42,0,0,0,.15-.88V39.52a2.52,2.52,0,0,0-.15-.89,1.88,1.88,0,0,0-.43-.67,1.68,1.68,0,0,0-.64-.43,2.34,2.34,0,0,0-1.65,0,1.93,1.93,0,0,0-.66.43,2,2,0,0,0-.41.67,2.52,2.52,0,0,0-.15.89V40.6a2.42,2.42,0,0,0,.15.88,1.77,1.77,0,0,0,1.07,1.11A2.21,2.21,0,0,0,114,42.74Z" /><path d="M118.42,36.79h3.78v.69h-2.94v5.85h-.84Z" /><path d="M125.64,43.44a3.4,3.4,0,0,1-1.22-.21,2.61,2.61,0,0,1-.92-.65,3.1,3.1,0,0,1-.59-1.06,4.63,4.63,0,0,1-.21-1.46,4.52,4.52,0,0,1,.21-1.45,3,3,0,0,1,.59-1.06,2.38,2.38,0,0,1,.92-.65,3.35,3.35,0,0,1,2.44,0,2.31,2.31,0,0,1,.92.65,2.88,2.88,0,0,1,.6,1.06,4.84,4.84,0,0,1,.2,1.45,5,5,0,0,1-.2,1.46,3,3,0,0,1-.6,1.06,2.52,2.52,0,0,1-.92.65A3.4,3.4,0,0,1,125.64,43.44Zm0-.7a2.23,2.23,0,0,0,.83-.15,1.76,1.76,0,0,0,.64-.43,1.84,1.84,0,0,0,.43-.68,2.42,2.42,0,0,0,.15-.88V39.52a2.52,2.52,0,0,0-.15-.89,1.88,1.88,0,0,0-.43-.67,1.76,1.76,0,0,0-.64-.43,2.34,2.34,0,0,0-1.65,0,1.93,1.93,0,0,0-.66.43,2,2,0,0,0-.41.67,2.52,2.52,0,0,0-.15.89V40.6a2.42,2.42,0,0,0,.15.88,1.77,1.77,0,0,0,1.07,1.11A2.21,2.21,0,0,0,125.64,42.74Z" /><path d="M45.56,50.08h-.05l-.59,1.1L43.26,54,41.6,51.18,41,50.08H41v5.51h-.82V49.05h1.12l2,3.52h0l2-3.52h1.07v6.54h-.81Z" /><path d="M48.22,55.59V49.05h4.23v.69h-3.4v2.2h3.2v.69h-3.2V54.9h3.4v.69Z" /><path d="M58.35,52.63H54.84v3H54V49.05h.83v2.89h3.51V49.05h.83v6.54h-.83Z" /><path d="M61,55.59V49.05h4.23v.69h-3.4v2.2h3.2v.69h-3.2V54.9h3.4v.69Z" /><path d="M66,54.9h.72a4.3,4.3,0,0,0,.69-1.54A10.43,10.43,0,0,0,67.64,51V49.05h4.18V54.9h1V57H72V55.59H66.76V57H66Zm5,0V49.74H68.44V51a11.26,11.26,0,0,1-.21,2.41,4,4,0,0,1-.54,1.41v0Z" /><path d="M73.52,54.9h.63l1.07-2a1.45,1.45,0,0,1,.33-.45,1,1,0,0,1,.39-.19v0a1,1,0,0,1-.36-.19,1.42,1.42,0,0,1-.3-.42l-.94-1.91h-.62v-.69h.52a1,1,0,0,1,.55.15,1.23,1.23,0,0,1,.44.52L76.32,52h1.22v-2.9h.84V52H79.6l1.11-2.23a1.36,1.36,0,0,1,.42-.52,1,1,0,0,1,.55-.15h.52v.69h-.62l-1,1.91a1.42,1.42,0,0,1-.3.42.88.88,0,0,1-.34.19v0a1,1,0,0,1,.39.19,1.33,1.33,0,0,1,.35.45l1,2h.63v.69h-.64a.84.84,0,0,1-.5-.14,1.47,1.47,0,0,1-.43-.54L79.6,52.62H78.38v3h-.84v-3H76.32l-1.25,2.29a1.71,1.71,0,0,1-.43.54.76.76,0,0,1-.48.14h-.64Z" /><path d="M89.14,50.08h0l-.59,1.1L86.85,54l-1.66-2.85-.59-1.1h0v5.51h-.81V49.05h1.11l2,3.52h0l2-3.52H90v6.54h-.81Z" /><path d="M91.8,55.59V49.05H96v.69h-3.4v2.2h3.2v.69h-3.2V54.9H96v.69Z" /><path d="M101.93,52.63H98.42v3h-.83V49.05h.83v2.89h3.51V49.05h.83v6.54h-.83Z" /><path d="M106.94,49.74v5.85h-.83V49.74h-2.2v-.69h5.24v.69Z" /><path d="M114,55.59l-.7-1.93h-2.8l-.7,1.93H109l2.42-6.54h1.07l2.42,6.54Zm-2.08-5.81h0L110.69,53h2.39Z" /></svg>