<svg xmlns="http://www.w3.org/2000/svg" width="161" height="47" viewBox="0 0 161 47"><path d="M51.05,33.19H46.22v7.34h2V34.88H51Zm.53,5.25a3.44,3.44,0,0,0,.67,1.23,3,3,0,0,0,1.09.77,4,4,0,0,0,1.56.28,3.34,3.34,0,0,0,2.59-1,4.08,4.08,0,0,0,.94-2.87,5.79,5.79,0,0,0-.22-1.61A3.39,3.39,0,0,0,57.56,34a3.09,3.09,0,0,0-1.1-.79,4,4,0,0,0-1.56-.28,3.39,3.39,0,0,0-1.41.22,3.55,3.55,0,0,0-1.2.78,4.11,4.11,0,0,0-.93,2.87,5.28,5.28,0,0,0,.21,1.58Zm2.19-3.33a1.31,1.31,0,0,1,.5-.4,1.33,1.33,0,0,1,.62-.13,1.16,1.16,0,0,1,.68.15,1.11,1.11,0,0,1,.48.48,3.16,3.16,0,0,1,.35,1.63,3,3,0,0,1-.4,1.71,1.35,1.35,0,0,1-.49.43,1.22,1.22,0,0,1-.65.12,1.32,1.32,0,0,1-.7-.17,1.44,1.44,0,0,1-.47-.48,2.89,2.89,0,0,1-.27-.71,4.67,4.67,0,0,1-.08-.91,2.93,2.93,0,0,1,.4-1.74Zm6,8.31H61.7V40.48a2.54,2.54,0,0,0,.6.22,4.24,4.24,0,0,0,2.23-.22,3,3,0,0,0,1.07-.8,3.54,3.54,0,0,0,.67-1.29,6,6,0,0,0,.22-1.68,4.53,4.53,0,0,0-.7-2.82,2.44,2.44,0,0,0-.94-.71A2.62,2.62,0,0,0,63.68,33a2.85,2.85,0,0,0-1.29.27,2.54,2.54,0,0,0-.94.81h-.06l-.23-.91H59.77Zm4.39-8.33a2.8,2.8,0,0,1,.33,1.5,3.28,3.28,0,0,1-.42,1.91,1.48,1.48,0,0,1-1.25.59,1.8,1.8,0,0,1-1.12-.36v-3a1.93,1.93,0,0,1,.51-.83,1.3,1.3,0,0,1,.89-.28,1.17,1.17,0,0,1,1.06.52Zm3.54,3.35a3.41,3.41,0,0,0,.66,1.23,3.17,3.17,0,0,0,1.11.77,3.91,3.91,0,0,0,1.55.28,3.24,3.24,0,0,0,1.41-.22,3.28,3.28,0,0,0,1.19-.78,4.08,4.08,0,0,0,.93-2.87,5.13,5.13,0,0,0-.22-1.61A3.39,3.39,0,0,0,73.68,34a3,3,0,0,0-1.09-.78A3.93,3.93,0,0,0,71,33a3.24,3.24,0,0,0-1.41.22A3.28,3.28,0,0,0,68.4,34a4.12,4.12,0,0,0-.94,2.87,5.29,5.29,0,0,0,.22,1.58Zm2.22-3.32a1.24,1.24,0,0,1,.48-.4,1.37,1.37,0,0,1,.63-.13,1.2,1.2,0,0,1,1.17.63,3.26,3.26,0,0,1,.34,1.63,3,3,0,0,1-.37,1.71,1.38,1.38,0,0,1-.5.43,1.62,1.62,0,0,1-1.33,0,1.21,1.21,0,0,1-.47-.48,2.27,2.27,0,0,1-.27-.71,4.2,4.2,0,0,1-.1-.93,2.9,2.9,0,0,1,.42-1.72Zm13.41,3.72h-1.1V33.19H77a16.9,16.9,0,0,1-.14,2.36,11.41,11.41,0,0,1-.3,1.65,5.79,5.79,0,0,1-.37,1.06,3,3,0,0,1-.31.55H75v3.37h1.42l.23-1.68h5l.23,1.68H83.3Zm-5.49.09a3.34,3.34,0,0,0,.32-.81,9.34,9.34,0,0,0,.27-1c.07-.37.14-.75.18-1.15s.09-.78.12-1.12h1.56v4.12Zm7-3.85a4.38,4.38,0,0,1,1.07-.31,8.2,8.2,0,0,1,1.2-.15c.51,0,.85.11,1,.36a1.89,1.89,0,0,1,.12,1.17,9.72,9.72,0,0,0-1.79.08,4.12,4.12,0,0,0-1.38.39,2.35,2.35,0,0,0-.88.74,2.11,2.11,0,0,0-.31,1.14,2.2,2.2,0,0,0,.17.91,2,2,0,0,0,1.18,1.12,2.92,2.92,0,0,0,.93.15,2.53,2.53,0,0,0,1.37-.33,2.61,2.61,0,0,0,.83-.79h.08l.36,1h1.59a4.83,4.83,0,0,1-.23-1.13V35.65A4.24,4.24,0,0,0,90,34.59a2,2,0,0,0-.43-.8,2,2,0,0,0-.87-.51,3.83,3.83,0,0,0-1.3-.19,9,9,0,0,0-1.72.16,5.81,5.81,0,0,0-1.42.42Zm1.33,3.76a.8.8,0,0,1-.24-.63.65.65,0,0,1,0-.27.51.51,0,0,1,.15-.21,1.13,1.13,0,0,1,.52-.3,3.19,3.19,0,0,1,.75-.13,4.82,4.82,0,0,1,.93,0v.88a1.9,1.9,0,0,1-.51.55,1.57,1.57,0,0,1-.94.25.73.73,0,0,1-.36,0,1.09,1.09,0,0,1-.32-.17Zm17.66,1.63h2V30.27H104l-2.64,4.65-.45,1.2h-.07L100.32,35l-2.81-4.68H95.57V40.53h1.94V35.24l-.3-2h.14L98,34.8l2.35,3.84H101l2.24-3.83.64-1.65H104l-.26,2.08Zm3.66-2.08a3.41,3.41,0,0,0,.66,1.23,2.93,2.93,0,0,0,1.1.77,3.79,3.79,0,0,0,1.56.28,3.37,3.37,0,0,0,2.59-1,4.08,4.08,0,0,0,.93-2.87,5.31,5.31,0,0,0-.22-1.59,3.27,3.27,0,0,0-.66-1.23,2.82,2.82,0,0,0-1.09-.74,3.91,3.91,0,0,0-1.55-.28,3.44,3.44,0,0,0-1.42.22,3.28,3.28,0,0,0-1.19.78,4.12,4.12,0,0,0-.94,2.87,5.63,5.63,0,0,0,.22,1.58Zm2.18-3.28a1.31,1.31,0,0,1,.5-.4,1.37,1.37,0,0,1,.63-.13,1.25,1.25,0,0,1,1.16.63,3.26,3.26,0,0,1,.34,1.63,3,3,0,0,1-.37,1.71,1.13,1.13,0,0,1-.49.43,1.41,1.41,0,0,1-.64.12,1.25,1.25,0,0,1-1.17-.65,2.27,2.27,0,0,1-.27-.71,4,4,0,0,1-.1-.91,3,3,0,0,1,.41-1.74Zm10.83,3.47a2.88,2.88,0,0,1-.61.3,2.38,2.38,0,0,1-.84.13,2,2,0,0,1-.79-.17,1.6,1.6,0,0,1-.54-.46,2.15,2.15,0,0,1-.31-.69,3.15,3.15,0,0,1-.11-.91,2.62,2.62,0,0,1,.42-1.66,1.4,1.4,0,0,1,.55-.41,1.53,1.53,0,0,1,.67-.12,2.93,2.93,0,0,1,.78.1,2.68,2.68,0,0,1,.67.24l.47-1.55a4.55,4.55,0,0,0-.93-.35,6.49,6.49,0,0,0-1.32-.13,3.16,3.16,0,0,0-1.39.26,3.25,3.25,0,0,0-1.12.82,4.32,4.32,0,0,0-.85,2.88,6.48,6.48,0,0,0,.17,1.58,3.32,3.32,0,0,0,.56,1.24,2.69,2.69,0,0,0,1,.77,3.72,3.72,0,0,0,1.51.28,4.94,4.94,0,0,0,1.33-.15,3.55,3.55,0,0,0,1.09-.48Zm5.89,2h2.23l-2-3.42-.85-.57.77-.57,1.81-2.74h-2.08l-1.74,2.89-.47.2V33.19h-1.94v7.34H124v-3h.53Zm3,0c.36,0,.76.06,1.23.09s.93,0,1.33,0a5.45,5.45,0,0,0,2.81-.54,2.13,2.13,0,0,0,.81-1.28,2,2,0,0,0-.31-1.47,1.94,1.94,0,0,0-1.16-.63v-.05A1.83,1.83,0,0,0,135,36a1.79,1.79,0,0,0,.3-1,1.58,1.58,0,0,0-.69-1.39,4.39,4.39,0,0,0-2.34-.45h-1.6l-1.26.09Zm1.87-3.16h1a1.67,1.67,0,0,1,1.05.24.76.76,0,0,1,.29.63.73.73,0,0,1-.08.38.61.61,0,0,1-.27.28,2,2,0,0,1-1.15.23h-.84Zm0-1.18V34.65h.92a1.66,1.66,0,0,1,.93.19.75.75,0,0,1,.21.26.72.72,0,0,1,.08.32.73.73,0,0,1-.08.33.72.72,0,0,1-.21.25,1.28,1.28,0,0,1-.78.23Zm7.61,1a3.24,3.24,0,0,1,.93-.1,1.27,1.27,0,0,1,.94.24,1,1,0,0,1,.21.33A.82.82,0,0,1,141,38a.91.91,0,0,1-.06.4,1.1,1.1,0,0,1-.21.36,1.49,1.49,0,0,1-.94.23,4.8,4.8,0,0,1-.85-.08Zm0-4h-2v7.33l1.14.08h1.48a6.48,6.48,0,0,0,1.58-.17,2.75,2.75,0,0,0,1-.49,2.14,2.14,0,0,0,.59-.84,3.45,3.45,0,0,0,.17-1.15,2.63,2.63,0,0,0-.13-.92,1.78,1.78,0,0,0-.46-.72,2,2,0,0,0-.81-.48,4.28,4.28,0,0,0-1.28-.16h-.66a2.19,2.19,0,0,0-.72.08Zm4.91,7.33h1.95V33.2h-1.95Z" fill="#9dc034"/><path d="M47.78,23.74a3.38,3.38,0,0,1,1.3.17.51.51,0,0,1,.26.22.67.67,0,0,1,.09.34c0,.56-.46.85-1.36.85A3.86,3.86,0,0,1,47,25.2a3,3,0,0,1-.82-.3l-.44,1.52a4.48,4.48,0,0,0,1,.38,6,6,0,0,0,2.8,0,3.64,3.64,0,0,0,1-.46,2,2,0,0,0,.59-.71,2.11,2.11,0,0,0,.19-1.05,2.31,2.31,0,0,0-.32-1A1.88,1.88,0,0,0,49.88,23v-.05a2,2,0,0,0,.51-.29,1.86,1.86,0,0,0,.37-.42,1.48,1.48,0,0,0,.21-.5,2.09,2.09,0,0,0,.08-.5,1.67,1.67,0,0,0-.15-.76,1.75,1.75,0,0,0-.5-.61,3.22,3.22,0,0,0-1.87-.46,7.64,7.64,0,0,0-1.58.17,5.2,5.2,0,0,0-1.19.45l.42,1.45a3.86,3.86,0,0,1,.72-.32,3.72,3.72,0,0,1,1-.14,2,2,0,0,1,.94.17.69.69,0,0,1,.24.24.71.71,0,0,1,.07.32.57.57,0,0,1-.1.31.59.59,0,0,1-.24.23,1.64,1.64,0,0,1-.87.22H47v1.33Zm12.34,1.35H59v-5.6H53.82a18.67,18.67,0,0,1-.13,2.36,15.35,15.35,0,0,1-.3,1.62A8.53,8.53,0,0,1,53,24.54a3.7,3.7,0,0,1-.31.55h-.93v3.36H53.2l.22-1.68h5l.22,1.68h1.45Zm-5.49.08a6.13,6.13,0,0,0,.33-.8,9.49,9.49,0,0,0,.3-1c.07-.37.14-.76.18-1.15s.09-.77.11-1.13h1.58v4.12Zm6.55,4.54h1.94v-3a3.39,3.39,0,0,0,.61.21,3.84,3.84,0,0,0,.76.06A3.55,3.55,0,0,0,66,26.71a2.85,2.85,0,0,0,1-.82,3.5,3.5,0,0,0,.67-1.28,6,6,0,0,0,.22-1.69,4.53,4.53,0,0,0-.7-2.82,2.42,2.42,0,0,0-.94-.7,2.55,2.55,0,0,0-1.16-.21,2.89,2.89,0,0,0-1.3.27,2.27,2.27,0,0,0-.94.82h-.06l-.23-.92h-1.4Zm4.37-8.33a2.89,2.89,0,0,1,.32,1.5,3.28,3.28,0,0,1-.42,1.91,1.42,1.42,0,0,1-.55.45,1.53,1.53,0,0,1-.7.13,2.44,2.44,0,0,1-.66-.09,2.07,2.07,0,0,1-.45-.27V22a1.77,1.77,0,0,1,.5-.84A1.42,1.42,0,0,1,64,20.9a1.2,1.2,0,0,1,.5,0,1,1,0,0,1,.6.12,1.07,1.07,0,0,1,.46.41Zm4.14-.09a4,4,0,0,1,1.07-.3A6.43,6.43,0,0,1,72,20.87c.52,0,.85.12,1,.35a1.81,1.81,0,0,1,.12,1.19,10.6,10.6,0,0,0-1.78.06,4.14,4.14,0,0,0-1.38.4,2,2,0,0,0-1.19,1.88,2.36,2.36,0,0,0,.17.87,1.86,1.86,0,0,0,.46.68,2,2,0,0,0,.72.43,2.94,2.94,0,0,0,2.31-.17,2.81,2.81,0,0,0,.83-.78h.08l.31,1h1.59A4.09,4.09,0,0,1,75,25.67v-3.8a3.86,3.86,0,0,0-.12-1.07,1.91,1.91,0,0,0-.44-.8,2,2,0,0,0-.83-.52,3.59,3.59,0,0,0-1.3-.18,8.27,8.27,0,0,0-1.72.15,5.81,5.81,0,0,0-1.42.42ZM71,25.09a.7.7,0,0,1-.19-.29,1,1,0,0,1-.06-.34.57.57,0,0,1,0-.26A.86.86,0,0,1,70.9,24a1.29,1.29,0,0,1,.52-.3,3.91,3.91,0,0,1,.76-.14,6.61,6.61,0,0,1,.89,0v.92a1.9,1.9,0,0,1-.51.55,1.51,1.51,0,0,1-.94.26,1.09,1.09,0,0,1-.36,0,.8.8,0,0,1-.32-.19Zm5.67,1.62c.35,0,.76.06,1.23.09s.94,0,1.33,0a5.29,5.29,0,0,0,2.8-.54,2,2,0,0,0,.52-2.78,2,2,0,0,0-1.17-.63v-.06a1.72,1.72,0,0,0,.94-.71,2,2,0,0,0,.29-1,1.5,1.5,0,0,0-.16-.78,1.56,1.56,0,0,0-.54-.6,4.49,4.49,0,0,0-2.34-.46H78l-1.27.08Zm1.88-3.16h1a1.75,1.75,0,0,1,1,.24.74.74,0,0,1,.22.28.71.71,0,0,1,.07.35.76.76,0,0,1-.34.67,2.16,2.16,0,0,1-1.15.22h-.84Zm0-1.17V20.9h.9a1.7,1.7,0,0,1,.94.19.73.73,0,0,1,.2.26.59.59,0,0,1,.06.32.76.76,0,0,1-.08.33.61.61,0,0,1-.23.25,1.28,1.28,0,0,1-.78.23Zm5.5,2.25a3.25,3.25,0,0,0,.67,1.24,3.16,3.16,0,0,0,1.09.78,4.18,4.18,0,0,0,1.56.28,3.4,3.4,0,0,0,1.41-.23A3.28,3.28,0,0,0,90,25.92,4.09,4.09,0,0,0,90.9,23a5.21,5.21,0,0,0-.2-1.52,3.39,3.39,0,0,0-.65-1.23,3,3,0,0,0-1.12-.75,4,4,0,0,0-1.56-.29,3.45,3.45,0,0,0-1.42.23,3.25,3.25,0,0,0-1.18.78,4,4,0,0,0-.94,2.86,5.7,5.7,0,0,0,.22,1.59Zm2.17-3.28a1.31,1.31,0,0,1,.5-.4,1.26,1.26,0,0,1,.63-.13A1.23,1.23,0,0,1,88,21a1.35,1.35,0,0,1,.49.49,3.24,3.24,0,0,1,.34,1.62,3.07,3.07,0,0,1-.37,1.73,1.36,1.36,0,0,1-.5.42,1.41,1.41,0,0,1-.64.12,1.32,1.32,0,0,1-.7-.17,1.12,1.12,0,0,1-.46-.48,2,2,0,0,1-.27-.71,4.2,4.2,0,0,1-.1-.93,2.89,2.89,0,0,1,.4-1.72Zm5.85,3.29a3.52,3.52,0,0,0,.65,1.24,3.33,3.33,0,0,0,1.11.78,4.18,4.18,0,0,0,1.56.28,3.47,3.47,0,0,0,2.61-1,4.14,4.14,0,0,0,.94-2.88,5.67,5.67,0,0,0-.23-1.53,3.22,3.22,0,0,0-.64-1.23,2.82,2.82,0,0,0-1.1-.77,3.59,3.59,0,0,0-1.55-.29,3.38,3.38,0,0,0-2.61,1,4.11,4.11,0,0,0-.94,2.86,5.7,5.7,0,0,0,.22,1.59Zm2.21-3.31a1.32,1.32,0,0,1,1.12-.53,1.12,1.12,0,0,1,.67.15,1.08,1.08,0,0,1,.49.48,3.24,3.24,0,0,1,.34,1.62,3.07,3.07,0,0,1-.37,1.73,1.25,1.25,0,0,1-1.13.54,1.44,1.44,0,0,1-.7-.16,1.3,1.3,0,0,1-.47-.49A2.27,2.27,0,0,1,94,24a3.67,3.67,0,0,1-.09-.93,2.71,2.71,0,0,1,.41-1.71Zm4.94,5.38h2.13L102.53,25l.49-1.08.44,1.08,1.15,1.76h2.27L104.47,23l2.22-3.46h-2.12l-1,1.56-.44,1-.43-1-.93-1.56H99.45l2.24,3.57Zm8.59,2.94h2V26.71a3.19,3.19,0,0,0,.59.21,3.94,3.94,0,0,0,.77.06,3.64,3.64,0,0,0,1.46-.27,3,3,0,0,0,1.08-.82,3.47,3.47,0,0,0,.66-1.28,5.69,5.69,0,0,0,.22-1.69,4.47,4.47,0,0,0-.7-2.82,2.54,2.54,0,0,0-2.11-.91,2.85,2.85,0,0,0-1.29.27,2.41,2.41,0,0,0-.94.82h0l-.22-.92h-1.42Zm4.4-8.32a2.76,2.76,0,0,1,.33,1.49,3.44,3.44,0,0,1-.42,2,1.4,1.4,0,0,1-.55.44,1.54,1.54,0,0,1-.7.14,2.11,2.11,0,0,1-.66-.1,1.38,1.38,0,0,1-.45-.27V22.05a1.79,1.79,0,0,1,.5-.83,1.3,1.3,0,0,1,.89-.28,1,1,0,0,1,.6.11,1.17,1.17,0,0,1,.46.42Zm4.1,0a4,4,0,0,1,1.07-.3,6.41,6.41,0,0,1,1.23-.12c.52,0,.85.12,1,.35a1.94,1.94,0,0,1,.13,1.19,10.12,10.12,0,0,0-1.74.05,4.52,4.52,0,0,0-1.39.4,2.42,2.42,0,0,0-.88.74,2.3,2.3,0,0,0-.13,2,1.86,1.86,0,0,0,1.17,1.11,2.51,2.51,0,0,0,.94.16,2.48,2.48,0,0,0,1.36-.33,2.51,2.51,0,0,0,.84-.78H120l.32,1h1.58a5.3,5.3,0,0,1-.23-1.12V24.46a9.29,9.29,0,0,1,.06-1.29,9.26,9.26,0,0,0,0-1.29,4.29,4.29,0,0,0-.13-1.07,1.89,1.89,0,0,0-.43-.8,2,2,0,0,0-.83-.52,3.59,3.59,0,0,0-1.3-.18,8.27,8.27,0,0,0-1.72.15,6,6,0,0,0-1.43.42Zm1.32,3.8a.81.81,0,0,1-.19-.29,1,1,0,0,1,0-.35.67.67,0,0,1,.18-.48,1.2,1.2,0,0,1,.53-.29,3.91,3.91,0,0,1,.76-.14,7.21,7.21,0,0,1,.93,0v.88a1.68,1.68,0,0,1-.51.55,1.51,1.51,0,0,1-.94.26,1.09,1.09,0,0,1-.36,0,.8.8,0,0,1-.32-.19Zm10.09,1.63h2V19.49h-1.94v2.75H125.3V19.49h-1.94v7.34h1.94V23.89h2.44Zm9-1.84a4,4,0,0,1-.74.38,3.12,3.12,0,0,1-1.09.18,1.77,1.77,0,0,1-.76-.09,2.14,2.14,0,0,1-.67-.39,2.17,2.17,0,0,1-.46-1.43h4.48a6.13,6.13,0,0,1,.11-.73q0-.33,0-.66a3.65,3.65,0,0,0-.26-1.42,2.73,2.73,0,0,0-.66-.92,3,3,0,0,0-.94-.49,5.11,5.11,0,0,0-1.1-.15,3.72,3.72,0,0,0-1.44.23,3.61,3.61,0,0,0-1.22.77,4,4,0,0,0-.94,2.94,4.43,4.43,0,0,0,.84,2.84,3.22,3.22,0,0,0,2.65,1,5.06,5.06,0,0,0,1.64-.25,3.92,3.92,0,0,0,1.22-.58Zm-1.17-3.67a2,2,0,0,1,.24,1.23H133a2.28,2.28,0,0,1,.44-1.21,1.27,1.27,0,0,1,.51-.34,1.4,1.4,0,0,1,.61-.1,1.14,1.14,0,0,1,.94.42Zm7.74,5.59h2V19.49h-2v2.75h-2.43V19.49h-1.94v7.34h1.94V23.89h2.43Zm8.16,0h2V19.49h-1.21l-2.7,3.45-.62,1h0l.09-1V19.49h-2v7.34h1.22l2.7-3.35.63-1.07-.07,1.07Zm7.6,0H161V19.49c-.32-.06-.67-.11-1.09-.16a11.87,11.87,0,0,0-1.33-.08,4.85,4.85,0,0,0-2.81.64,2.22,2.22,0,0,0-.72.86,2.09,2.09,0,0,0-.21,1.1,2.17,2.17,0,0,0,.47,1.42,2,2,0,0,0,1.22.68l-.74.54-1.45,2.3h2.32l1.44-2.6L159,24Zm-.54-3.75a2,2,0,0,1-1.21-.24.92.92,0,0,1-.3-.35,1,1,0,0,1-.1-.47.92.92,0,0,1,.1-.51,1,1,0,0,1,.3-.37,1.6,1.6,0,0,1,1-.28,1.15,1.15,0,0,1,.37,0,.92.92,0,0,1,.36.1v2Z" fill="#9dc034"/><path d="M55.45,11.23H54.12V2.75H47.85a32.08,32.08,0,0,1-.15,3.67A21.82,21.82,0,0,1,47.3,9a9.38,9.38,0,0,1-.46,1.54,4,4,0,0,1-.35.72H45.37v3.68h1.47l.23-1.84H53.8l.2,1.84h1.45Zm-6.8,0a12.29,12.29,0,0,0,.68-2.46,25.53,25.53,0,0,0,.42-4.27h2.32v6.69Zm13-.09a3.05,3.05,0,0,1-.74.38,2.92,2.92,0,0,1-1.1.18,2.17,2.17,0,0,1-.76-.08,1.7,1.7,0,0,1-.66-.39,2,2,0,0,1-.48-1.39h4.47a7.64,7.64,0,0,0,.15-1.35,3.44,3.44,0,0,0-.26-1.42,2.2,2.2,0,0,0-.67-.92,2.62,2.62,0,0,0-.94-.48,3.8,3.8,0,0,0-1.11-.14,3.51,3.51,0,0,0-2.65,1A4,4,0,0,0,56,9.43a4.39,4.39,0,0,0,.81,2.76,3.22,3.22,0,0,0,2.65,1A5.73,5.73,0,0,0,61.08,13a3.81,3.81,0,0,0,1.21-.6ZM60.48,7.48a2,2,0,0,1,.24,1.2H57.91a2.22,2.22,0,0,1,.44-1.18,1.34,1.34,0,0,1,1.13-.45,1,1,0,0,1,.52.1,1.09,1.09,0,0,1,.41.33Zm7.73,5.59h2V5.73h-6.3v7.34h2V7.38h2.35Zm4.07-5.5a5.15,5.15,0,0,1,1.08-.32,8.52,8.52,0,0,1,1.23-.11c.51,0,.85.11,1,.36a1.82,1.82,0,0,1,.12,1.17,10.57,10.57,0,0,0-1.78.1,4.8,4.8,0,0,0-1.39.39,2.48,2.48,0,0,0-.88.76,2.08,2.08,0,0,0-.31,1.14,2.36,2.36,0,0,0,.17.87,2,2,0,0,0,1.18,1.12,2.72,2.72,0,0,0,.94.15A2.5,2.5,0,0,0,75,12.84a2.58,2.58,0,0,0,.83-.78h.08l.32,1h1.58a4.93,4.93,0,0,1-.23-1.13V10.73a9.14,9.14,0,0,1,.06-1.28,9.4,9.4,0,0,0,0-1.3,4.08,4.08,0,0,0-.12-1.05,2.16,2.16,0,0,0-.43-.82,2.05,2.05,0,0,0-.83-.52A4.14,4.14,0,0,0,75,5.57a10,10,0,0,0-1.73.15,7,7,0,0,0-1.42.42Zm1.33,3.8a.72.72,0,0,1-.2-.29,1,1,0,0,1,0-.35.75.75,0,0,1,.19-.49,1.62,1.62,0,0,1,.53-.29,3.93,3.93,0,0,1,.75-.13,6.61,6.61,0,0,1,.89,0v.91a1.57,1.57,0,0,1-1.44.8.93.93,0,0,1-.68-.22Zm5.67,4.54h1.94V13a2.51,2.51,0,0,0,.6.21,3.25,3.25,0,0,0,.76.06A3.64,3.64,0,0,0,84,13a2.78,2.78,0,0,0,1.08-.81,3.65,3.65,0,0,0,.67-1.28A6.08,6.08,0,0,0,86,9.16a4.36,4.36,0,0,0-.71-2.8,2.54,2.54,0,0,0-2.11-.87,2.86,2.86,0,0,0-1.29.25,2.65,2.65,0,0,0-.93.83H80.9l-.22-.91H79.27Zm4.39-8.34A2.8,2.8,0,0,1,84,9.07,3.21,3.21,0,0,1,83.57,11a1.42,1.42,0,0,1-.55.45,1.53,1.53,0,0,1-.7.13,1.8,1.8,0,0,1-.65-.09,2.09,2.09,0,0,1-.46-.26v-3a1.76,1.76,0,0,1,.51-.83,1.29,1.29,0,0,1,.93-.28,1.36,1.36,0,0,1,.6.11,1.17,1.17,0,0,1,.46.42Zm9-1.84H86.4V7.42h2.12v5.65h2V7.38h2.15ZM94,7.57a5.06,5.06,0,0,1,1-.32,8.52,8.52,0,0,1,1.23-.11c.52,0,.85.11,1,.36a1.82,1.82,0,0,1,.12,1.17,11.47,11.47,0,0,0-1.76.1,5.07,5.07,0,0,0-1.38.39,2.48,2.48,0,0,0-.88.76A2.09,2.09,0,0,0,93,11a2.36,2.36,0,0,0,.17.87A2,2,0,0,0,94.35,13a2.72,2.72,0,0,0,.94.15,2.48,2.48,0,0,0,1.36-.33,2.58,2.58,0,0,0,.83-.78h.08l.32,1h1.58a4.45,4.45,0,0,1-.23-1.13V10.73a9.14,9.14,0,0,1,.06-1.28,9.4,9.4,0,0,0,0-1.3,4.08,4.08,0,0,0-.12-1.05,2,2,0,0,0-.44-.82,1.86,1.86,0,0,0-.82-.52,4.09,4.09,0,0,0-1.3-.18,10,10,0,0,0-1.73.15,7,7,0,0,0-1.42.42Zm1.33,3.8a.72.72,0,0,1-.2-.29.87.87,0,0,1-.13-.35.57.57,0,0,1,0-.26,1.14,1.14,0,0,1,.15-.23,1.62,1.62,0,0,1,.53-.29,3.93,3.93,0,0,1,.75-.13,6.61,6.61,0,0,1,.89,0v.91a1.57,1.57,0,0,1-1.44.8.93.93,0,0,1-.68-.22Zm12,1.7h1.87V5.73h-2l-1.59,2.76-.43.91h-.07l-.41-.91L103,5.73h-2v7.34h1.73V9.65l-.19-1.51h.08l.58,1.26,1.48,2.31h.7l1.4-2.27.6-1.27h.08l-.13,1.53Zm8.9-1.88a3.05,3.05,0,0,1-.74.38,3.37,3.37,0,0,1-1.09.18,1.85,1.85,0,0,1-.77-.11,1.88,1.88,0,0,1-.66-.41,2.12,2.12,0,0,1-.48-1.39H117a5.57,5.57,0,0,1,.11-.73q0-.33,0-.66A3.62,3.62,0,0,0,116.85,7a2.38,2.38,0,0,0-.68-.92,2.48,2.48,0,0,0-.93-.47,4.13,4.13,0,0,0-1.11-.15,3.47,3.47,0,0,0-2.65,1,4,4,0,0,0-.94,2.94,4.43,4.43,0,0,0,.85,2.79,3.13,3.13,0,0,0,1.2.83,3.26,3.26,0,0,0,1.45.21,5.34,5.34,0,0,0,1.64-.24,3.43,3.43,0,0,0,1.21-.6Zm-1.17-3.67a1.77,1.77,0,0,1,.23,1.25h-2.8a2.07,2.07,0,0,1,.44-1.19,1.36,1.36,0,0,1,.5-.36,1.46,1.46,0,0,1,.62-.09,1.15,1.15,0,0,1,.52.1,1.23,1.23,0,0,1,.42.33Zm7.81,5.55h2V5.73h-2V8.49h-2.43V5.73h-2v7.34h2V10.13h2.43ZM132,5.73h-6.23V7.42h2.12v5.65h2V7.38H132Z" fill="#9dc034"/><path d="M1.81,1.82V37.59c0,3.09,2.86,4.71,5.67,4.71h6.33a10.85,10.85,0,0,1,6.35,2.36A10.82,10.82,0,0,1,26.5,42.3h6.37c2.81,0,5.67-1.62,5.67-4.71V1.82ZM20.16,47l-.59-.5a9.57,9.57,0,0,0-5.76-2.44H7.48C3.74,44.06,0,41.87,0,37.6V0H40.36V37.6c0,4.27-3.74,6.5-7.49,6.5H26.5a9.51,9.51,0,0,0-5.78,2.42Z" fill="#9dc034"/><path d="M3.62,23.26c1.66,0,1.53.82,1.87,1.64a1.39,1.39,0,0,1,.14-.6A1.21,1.21,0,0,1,6,23.81v-.16C6.18,15.72,16.24,6,27.76,3.64H3.62Z" fill="#85bce7"/><path d="M35,3.64a.6.6,0,0,1,.19.23.65.65,0,0,1,.05.31.53.53,0,0,1-.1.29.66.66,0,0,1-.23.21c-.81.55-8.09,5.49-1.75,17.06l.28.51c1.47-.65,3.22.35,3.22,1.07V3.64Z" fill="#85bce7"/><path d="M21.88,20.53c-.4,1-1.09,1.33-1.58,1.16-.28-.09-1-.51-.61-1.75s1.39-1.52,1.81-1.37S22.27,19.55,21.88,20.53Zm7.65-8.91a11.9,11.9,0,0,1,2.41-5.79C33,4.51,33.66,4.61,33.53,4.21s-1.38-.25-2.65,0a37.4,37.4,0,0,0-13.09,4.9C9.72,14.07,4.58,23,7.62,29a6.23,6.23,0,0,0,6.88,3.61A19.25,19.25,0,0,0,21,40.63c.14.09.19.09.22.07.21-.13-.32-.54-.59-.87a21.18,21.18,0,0,1-3.3-4.68C16.28,33,14.57,29,16.18,22a22.89,22.89,0,0,1,3.74-8.11l.57-.72c.77-1,.72-.5.66-.38s-.34.58-.49.91a34.37,34.37,0,0,0-1.46,3.76c-1.87,5.63-.23,9.48-.23,9.48l1.87-3.17a18.85,18.85,0,0,1,3.62-4.2,8.84,8.84,0,0,1,1.26-.92c.08,0,.23,0-.13.43a19.38,19.38,0,0,0-3.67,6.38,12.54,12.54,0,0,0-.56,2.64c1.57-.22,1.05,1.66,0,2.62.33,2.5,1.58,4.59,4,5.12,4.74,1,8-2.18,8.17-7.46.15-6.2-5-10.61-4-16.67" fill="#9dc034"/><path d="M20.46,28.57c2.09-.91,1.07,1.78,0,2C19.62,30.26,18.72,27.4,20.46,28.57Z" fill="#dc0c15"/><path d="M17.78,39.07c-2-1.11-3.31-3.61-4-4.9a13.88,13.88,0,0,0-2.71.56,9,9,0,0,1-.93-1.51c-.76,0-4.68,1-5.62,2.17a4.1,4.1,0,0,0,.94,1c.32-.08.94-.17,1.63-.27a9.75,9.75,0,0,0-3.24,2.2,6.82,6.82,0,0,0,1.54,2c2.19-.41,4.39-.72,6.61-.91a4.88,4.88,0,0,0-1.46,1.25,4,4,0,0,0,1.12.92A50.92,50.92,0,0,1,18,39.93a3.66,3.66,0,0,1-1.24-.85h1" fill="#e2b900"/><path d="M36.81,35.24c-1.5,0-13.35,2.46-15.21,4a7.13,7.13,0,0,0,1.92,1.43c.94-.15,3-.39,5.31-.61a3.46,3.46,0,0,0-1,1,4.07,4.07,0,0,0,1.11.91,50.8,50.8,0,0,1,6.42-1.65,3.52,3.52,0,0,1-1-.65l1.58-.06c.5-.36.93-3,.93-4.34" fill="#e2b900"/></svg>