<svg width="118" height="38" viewBox="0 0 118 38" fill="none" xmlns="http://www.w3.org/2000/svg">
<path d="M44.8107 18.9599L44.7613 19.0944C44.3654 19.9818 43.4499 20.3046 42.7818 20.3046C41.4457 20.3046 40.3817 19.0675 40.3817 17.5615C40.3817 16.2437 41.223 14.8453 42.7571 14.8453C43.2767 14.8453 44.2417 15.0066 44.687 16.0286L44.7613 16.163L45.9737 15.3562L45.9242 15.2218C45.3551 14.0922 44.1922 13.4199 42.8066 13.4199C40.3322 13.4199 38.8477 15.4907 38.8477 17.4808C38.8477 19.4978 40.4065 21.6761 42.7323 21.6761C43.9695 21.6761 45.5035 21.0307 46.0232 19.7667L46.0726 19.6322L44.8107 18.9599Z" fill="black"/>
<path d="M50.2545 13.4453C48.1018 13.4453 46.3203 15.3009 46.3203 17.5869C46.3203 19.5769 47.8049 21.7284 50.2297 21.7284C52.3824 21.7284 54.1391 19.8728 54.1391 17.6137C54.1639 15.5968 52.6545 13.4453 50.2545 13.4453ZM52.6051 17.5869C52.6051 18.9046 51.7885 20.3031 50.2545 20.3031C48.6956 20.3031 47.8791 18.9046 47.8791 17.5869C47.8791 16.2691 48.7204 14.8706 50.2545 14.8706C51.739 14.8706 52.6051 16.2422 52.6051 17.5869Z" fill="black"/>
<path d="M58.5904 13.4453C56.4378 13.4453 54.6562 15.3009 54.6562 17.5869C54.6562 19.5769 56.1408 21.7284 58.5657 21.7284C60.7183 21.7284 62.4751 19.8728 62.4751 17.6137C62.4998 15.5968 60.9905 13.4453 58.5904 13.4453ZM60.941 17.5869C60.941 18.9046 60.1245 20.3031 58.5904 20.3031C57.0316 20.3031 56.2151 18.9046 56.2151 17.5869C56.2151 16.2691 57.0563 14.8706 58.5904 14.8706C60.0503 14.8706 60.941 16.2422 60.941 17.5869Z" fill="black"/>
<path d="M67.2024 16.781H65.025V14.8715H69.3055V13.5H63.5156V21.6755H67.2766C68.9344 21.6755 69.9488 20.7343 69.9488 19.2013C69.9488 17.6953 68.9344 16.781 67.2024 16.781ZM68.39 19.1207C68.39 19.8468 67.9199 20.2771 67.1034 20.2771H65.025V18.0718H67.0786C67.9694 18.0718 68.39 18.4214 68.39 19.1207Z" fill="black"/>
<path d="M80.2422 20.2771V13.5H78.7329V20.2771H76.3081V13.5H74.774V20.2771H72.3492V13.5H70.8398V21.6486H79.8711V23.1546H81.2567V20.2771H80.2422Z" fill="black"/>
<path d="M83.7554 20.2771V18.1525H87.2689V16.8348H83.7554V14.8984H87.8133V13.5H82.2461V21.6486H87.9123V20.2771H83.7554Z" fill="black"/>
<path d="M94.271 18.9599L94.2215 19.0944C93.8257 19.9818 92.9102 20.3046 92.2421 20.3046C90.906 20.3046 89.842 19.0675 89.842 17.5615C89.842 16.2437 90.6833 14.8453 92.2174 14.8453C92.737 14.8453 93.7019 15.0066 94.1473 16.0286L94.2215 16.163L95.434 15.3562L95.3597 15.2218C94.7906 14.0922 93.6277 13.4199 92.2421 13.4199C89.7678 13.4199 88.2832 15.4907 88.2832 17.4808C88.2832 19.4978 89.842 21.6761 92.1679 21.6761C93.405 21.6761 94.9391 21.0307 95.4587 19.7667L95.5082 19.6322L94.271 18.9599Z" fill="black"/>
<path d="M95.6572 13.5V14.8984H98.28V21.6486H99.7893V14.8984H102.412V13.5H95.6572Z" fill="black"/>
<path d="M108.4 17.4533C108.969 17.0768 109.316 16.4045 109.316 15.6515C109.316 14.6026 108.573 13.5 107.386 13.5H103.204V21.6755H107.089C108.598 21.6755 109.662 20.788 109.662 19.4972C109.662 18.5559 109.192 17.8029 108.4 17.4533ZM108.103 19.2551C108.103 19.8199 107.658 20.304 107.089 20.304H104.713V18.1794H107.163C107.683 18.1794 108.103 18.6635 108.103 19.2551ZM104.713 16.8885V14.8715H106.94C107.46 14.8715 107.831 15.3018 107.831 15.8935C107.831 16.4582 107.41 16.8885 106.891 16.8885H104.713Z" fill="black"/>
<path d="M114.115 13.4453C111.962 13.4453 110.181 15.3009 110.181 17.5869C110.181 19.5769 111.665 21.7284 114.09 21.7284C116.243 21.7284 117.999 19.8728 117.999 17.6137C117.999 15.5968 116.515 13.4453 114.115 13.4453ZM116.465 17.5869C116.465 18.9046 115.649 20.3031 114.115 20.3031C112.556 20.3031 111.739 18.9046 111.739 17.5869C111.739 16.2691 112.581 14.8706 114.115 14.8706C115.575 14.8706 116.465 16.2422 116.465 17.5869Z" fill="black"/>
<path d="M39.9355 0.941406V9.11692H41.4449V2.33985H44.9089V9.11692H46.443V0.941406H39.9355Z" fill="black"/>
<path d="M51.3924 0.941406H47.9531V9.11692H49.4625V6.37382H51.4667C53.0255 6.37382 53.9657 5.00227 53.9657 3.65761C53.9657 2.33985 52.9265 0.941406 51.3924 0.941406ZM52.4316 3.65761C52.4316 4.43751 51.9863 4.97538 51.3677 4.97538H49.4625V2.33985H51.3182C51.9368 2.33985 52.4316 2.90461 52.4316 3.65761Z" fill="black"/>
<path d="M58.2701 0.886719C56.1174 0.886719 54.3359 2.74235 54.3359 5.02826C54.3359 7.01835 55.8205 9.1698 58.2454 9.1698C60.398 9.1698 62.1548 7.31418 62.1548 5.05515C62.1795 3.03817 60.6949 0.886719 58.2701 0.886719ZM60.6207 5.02826C60.6207 6.34603 59.8042 7.74447 58.2701 7.74447C56.7113 7.74447 55.8948 6.34603 55.8948 5.02826C55.8948 3.7105 56.736 2.31205 58.2701 2.31205C59.7547 2.31205 60.6207 3.7105 60.6207 5.02826Z" fill="black"/>
<path d="M64.7046 7.71848V5.62081H68.2182V4.27615H64.7046V2.33985H68.7625V0.941406H63.1953V9.11692H68.8615V7.71848H64.7046Z" fill="black"/>
<path d="M73.3625 4.92159L76.3564 0.941406H74.5996L72.1253 4.24926H71.4078V0.941406H69.8984V9.11692H71.4078V5.6746H72.1253L74.6986 9.11692H76.5791L73.3625 4.92159Z" fill="black"/>
<path d="M76.5801 0.941406V2.33985H79.2029V9.11692H80.7122V2.33985H83.335V0.941406H76.5801Z" fill="black"/>
<path d="M89.3477 0.941406V4.24926H85.6363V0.941406H84.127V9.11692H85.6363V5.6477H89.3477V9.11692H90.8571V0.941406H89.3477Z" fill="black"/>
<path d="M95.7808 0.886719C93.6282 0.886719 91.8467 2.74235 91.8467 5.02826C91.8467 7.01835 93.3313 9.1698 95.7561 9.1698C97.9087 9.1698 99.6655 7.31418 99.6655 5.05515C99.6902 3.03817 98.2057 0.886719 95.7808 0.886719ZM98.1314 5.02826C98.1314 6.34603 97.3149 7.74447 95.7808 7.74447C94.222 7.74447 93.4055 6.34603 93.4055 5.02826C93.4055 3.7105 94.2468 2.31205 95.7808 2.31205C97.2654 2.31205 98.1314 3.7105 98.1314 5.02826Z" fill="black"/>
<path d="M102.214 7.71848V5.62081H105.728V4.27615H102.214V2.33985H106.272V0.941406H100.705V9.11692H106.371V7.71848H102.214Z" fill="black"/>
<path d="M13.9799 0L0 15.1946H20.9822V38L34.9621 22.8054V0H13.9799ZM31.4238 9.92357H28.6278V12.9625H25.8318V9.92357H23.0359V6.85775H25.8318V3.81883H28.6278V6.85775H31.4238V9.92357Z" fill="#9A1B1F"/>
</svg>
