<svg xmlns="http://www.w3.org/2000/svg" width="134" height="42" viewBox="0 0 134 42"><path d="M52.75,20l-.06.14a2.38,2.38,0,0,1-2.2,1.34,2.86,2.86,0,0,1-2.66-3,2.79,2.79,0,0,1,2.64-3,2.24,2.24,0,0,1,2.14,1.31l.08.14L54,16,54,15.84a3.76,3.76,0,0,0-3.46-2,4.4,4.4,0,0,0-4.39,4.49A4.56,4.56,0,0,0,50.44,23a4,4,0,0,0,3.65-2.11l.06-.15Z"/><path d="M58.79,13.88a4.49,4.49,0,0,0-4.37,4.58,4.35,4.35,0,1,0,8.68,0A4.46,4.46,0,0,0,58.79,13.88Zm2.61,4.58a2.65,2.65,0,1,1-5.25,0,2.65,2.65,0,1,1,5.25,0Z"/><path d="M68,13.88a4.49,4.49,0,0,0-4.36,4.58,4.35,4.35,0,1,0,8.68,0A4.47,4.47,0,0,0,68,13.88Zm2.61,4.58a2.64,2.64,0,1,1-5.24,0,2.64,2.64,0,1,1,5.24,0Z"/><path d="M77.61,17.57H75.19V15.46h4.75V13.94H73.51v9h4.18a2.64,2.64,0,0,0,3-2.74C80.65,18.58,79.53,17.57,77.61,17.57Zm1.31,2.58c0,.81-.52,1.28-1.42,1.28H75.19V19h2.28C78.46,19,78.92,19.38,78.92,20.15Z"/><path d="M92.08,21.43V13.94H90.41v7.49h-2.7V13.94H86v7.49H83.32V13.94H81.64v9h10v1.66h1.54V21.43Z"/><path d="M96,21.43V19.08h3.9V17.63H96V15.49h4.51V13.94H94.31v9h6.29V21.43Z"/><path d="M107.66,20l-.06.14a2.38,2.38,0,0,1-2.2,1.34,2.86,2.86,0,0,1-2.66-3,2.79,2.79,0,0,1,2.64-3,2.23,2.23,0,0,1,2.14,1.31l.08.14L109,16l-.09-.15a3.76,3.76,0,0,0-3.46-2A4.41,4.41,0,0,0,101,18.34,4.56,4.56,0,0,0,105.32,23,4,4,0,0,0,109,20.87l.06-.15Z"/><path d="M109.2,13.94v1.55h2.91V23h1.67V15.49h2.91V13.94Z"/><path d="M123.34,18.31a2.36,2.36,0,0,0,1-2,2.27,2.27,0,0,0-2.14-2.38h-4.65v9h4.32c1.67,0,2.85-1,2.85-2.41A2.36,2.36,0,0,0,123.34,18.31Zm-.33,2a1.14,1.14,0,0,1-1.12,1.16h-2.64V19.11H122A1.12,1.12,0,0,1,123,20.3Zm-3.76-2.61V15.46h2.47a1,1,0,0,1,1,1.13,1.07,1.07,0,0,1-1,1.1Z"/><path d="M129.69,13.88a4.49,4.49,0,0,0-4.37,4.58,4.35,4.35,0,1,0,8.68,0A4.48,4.48,0,0,0,129.69,13.88Zm2.61,4.58a2.65,2.65,0,1,1-5.25,0,2.65,2.65,0,1,1,5.25,0Z"/><path d="M46.34.06v9H48V1.61h3.85V9.1h1.7v-9Z"/><path d="M59.05.06H55.24v9h1.67v-3h2.23a2.87,2.87,0,0,0,2.77-3A3,3,0,0,0,59.05.06Zm1.16,3c0,.87-.5,1.46-1.18,1.46H56.91V1.61H59A1.34,1.34,0,0,1,60.21,3.06Z"/><path d="M66.69,0a4.49,4.49,0,0,0-4.37,4.58,4.35,4.35,0,1,0,8.68,0A4.44,4.44,0,0,0,66.69,0ZM69.3,4.58a2.65,2.65,0,1,1-5.25,0,2.65,2.65,0,1,1,5.25,0Z"/><path d="M73.83,7.55V5.23h3.9V3.75h-3.9V1.61h4.51V.06H72.16v9h6.29V7.55Z"/><path d="M83.44,4.46,86.77.06h-2L82.07,3.72h-.8V.06H79.6v9h1.67V5.29h.8L84.93,9.1H87Z"/><path d="M87,.06V1.61h2.91V9.1h1.68V1.61h2.91V.06Z"/><path d="M101.19.06V3.72H97.07V.06H95.4v9h1.67V5.26h4.12V9.1h1.68v-9Z"/><path d="M108.33,0A4.49,4.49,0,0,0,104,4.58a4.35,4.35,0,1,0,8.68,0A4.44,4.44,0,0,0,108.33,0Zm2.61,4.58a2.64,2.64,0,1,1-5.24,0,2.64,2.64,0,1,1,5.24,0Z"/><path d="M115.48,7.55V5.23h3.9V3.75h-3.9V1.61H120V.06H113.8v9h6.29V7.55Z"/><path d="M15.52,0,0,16.79H23.29V42L38.81,25.21V0ZM34.89,11H31.78v3.36h-3.1V11H25.57V7.58h3.11V4.22h3.1V7.58h3.11Z" fill="#9a1b1f"/><path d="M34.89,11H31.78v3.36h-3.1V11H25.57V7.58h3.11V4.22h3.1V7.58h3.11Z" fill="#fff"/></svg>