<svg xmlns="http://www.w3.org/2000/svg" xmlns:xlink="http://www.w3.org/1999/xlink" width="118" height="38" viewBox="0 0 118 38"><defs><clipPath id="b474d342-fcab-4d0e-8c45-a0ff51d78cff"><path d="M17.66,13.88a1.13,1.13,0,0,0-.62.54,1.36,1.36,0,0,0-.12.95,7.18,7.18,0,0,0,.38,1.18c.06.15.12.33.19.51a.23.23,0,0,0,.1.12.25.25,0,0,0,.15,0l.53-.11a7.65,7.65,0,0,0,1.2-.31,1.3,1.3,0,0,0,.74-.6,1.12,1.12,0,0,0,.13-.81,1,1,0,0,0-.48-.63,1,1,0,0,0-.6-.11,1.31,1.31,0,0,0-.32.1,1.16,1.16,0,0,0-.08-.32.9.9,0,0,0-.41-.45,1,1,0,0,0-.48-.13,1.12,1.12,0,0,0-.31.05M11.31,27.94a6.43,6.43,0,0,1,.4-3l.44-.77,2.32,1.32-.44.77a5.7,5.7,0,0,1-2.39,1.91.16.16,0,0,1-.1,0,.23.23,0,0,1-.23-.22M8.92,20.83c.25-1.26.76-2.53,2.16-2.91l1.83-.51a.26.26,0,0,0,.16-.13c1.5-3.66,4.46-6.36,7-7.07l1.06-.3a.72.72,0,0,1,.88.5l.29,1.06c.71,2.58-.08,6.5-2.45,9.68a.26.26,0,0,0,0,.19l.51,1.84c.39,1.4-.44,2.49-1.39,3.35l-1.28,1.15-.48-1.75-.46-1.66a.19.19,0,0,0-.11-.14l-2.23-1.26L12.17,21.6a.22.22,0,0,0-.18,0L10.34,22l-1.75.49ZM14.68,1,1.82,8.42A3.63,3.63,0,0,0,0,11.57V26.43a3.63,3.63,0,0,0,1.82,3.15L14.68,37a3.66,3.66,0,0,0,3.65,0l12.86-7.43A3.63,3.63,0,0,0,33,26.43V11.57a3.63,3.63,0,0,0-1.82-3.15L18.33,1a3.71,3.71,0,0,0-3.65,0" fill="none"/></clipPath><linearGradient id="e9ea6f20-beba-4689-9d2c-91ef22119f7e" x1="-59.58" y1="73.25" x2="-58.9" y2="73.25" gradientTransform="matrix(0, 52.94, 52.94, 0, -3861.15, 3155.38)" gradientUnits="userSpaceOnUse"><stop offset="0" stop-color="#314998"/><stop offset="0.16" stop-color="#666aae"/><stop offset="0.32" stop-color="#7172b3"/><stop offset="0.48" stop-color="#794c98"/><stop offset="0.64" stop-color="#d6699a"/><stop offset="0.82" stop-color="#f29a9e"/><stop offset="1" stop-color="#fbbf42"/></linearGradient></defs><g><path d="M43.48,16.33V4.46a.33.33,0,0,1,.33-.34h6.56a.33.33,0,0,1,.33.34V16.33a.33.33,0,0,1-.33.33h-1.6a.33.33,0,0,1-.33-.33V6.08a.33.33,0,0,0-.33-.33h-2a.33.33,0,0,0-.33.33V16.33a.34.34,0,0,1-.34.33H43.81a.33.33,0,0,1-.33-.33" fill="#2f3030"/><path d="M52.59,16.33V4.46a.33.33,0,0,1,.33-.33h3.36a3.54,3.54,0,0,1,1.83.41,2.55,2.55,0,0,1,1,1.22,5,5,0,0,1,.33,1.92,4,4,0,0,1-.42,2,2.52,2.52,0,0,1-1.17,1.09,4.2,4.2,0,0,1-1.77.34H54.88v5.24a.33.33,0,0,1-.33.33H52.92a.33.33,0,0,1-.33-.33m2.29-6.85h.87a2.18,2.18,0,0,0,1-.18,1,1,0,0,0,.48-.57,3.72,3.72,0,0,0,.13-1.06,5.54,5.54,0,0,0-.1-1.11.93.93,0,0,0-.44-.62,2,2,0,0,0-1-.2h-.87Z" fill="#2f3030"/><path d="M64.15,16.83A4,4,0,0,1,62,16.34a2.79,2.79,0,0,1-1.13-1.43,6.54,6.54,0,0,1-.34-2.19V8a6.36,6.36,0,0,1,.34-2.18A2.71,2.71,0,0,1,62,4.47a5,5,0,0,1,4.27,0,2.76,2.76,0,0,1,1.13,1.38A6.11,6.11,0,0,1,67.78,8v4.7a6.23,6.23,0,0,1-.35,2.18,2.91,2.91,0,0,1-1.13,1.42,4,4,0,0,1-2.15.5m0-1.68a1.07,1.07,0,0,0,1.21-.93,4.72,4.72,0,0,0,.09-1V7.5a4.41,4.41,0,0,0-.09-.94A1.19,1.19,0,0,0,65,5.9a1.25,1.25,0,0,0-.85-.24,1.23,1.23,0,0,0-.82.24,1.2,1.2,0,0,0-.37.66,4.41,4.41,0,0,0-.09.94v5.77a5.61,5.61,0,0,0,.08,1,1.19,1.19,0,0,0,.37.68,1.23,1.23,0,0,0,.83.25" fill="#2f3030"/><path d="M69.46,16.33V4.46a.34.34,0,0,1,.33-.34h4.94V5.73H72.08a.34.34,0,0,0-.33.34V9a.33.33,0,0,0,.33.33h2v1.6h-2a.33.33,0,0,0-.33.33v3.48a.33.33,0,0,0,.33.33h2.68v1.58h-5a.33.33,0,0,1-.33-.33" fill="#2f3030"/><path d="M76.12,16.33V4.46a.34.34,0,0,1,.33-.34h1.61a.34.34,0,0,1,.33.34V9.39h.47L80.8,4.34a.34.34,0,0,1,.31-.22h1.56a.34.34,0,0,1,.31.46L80.82,9.92a.33.33,0,0,0,0,.24l2.35,6.05a.33.33,0,0,1-.31.45H81.25a.34.34,0,0,1-.31-.21l-2.08-5.56h-.47v5.44a.33.33,0,0,1-.33.33H76.45a.33.33,0,0,1-.33-.33" fill="#2f3030"/><path d="M85.71,16.33V6.14a.33.33,0,0,0-.33-.33H84.05a.33.33,0,0,1-.33-.33v-1a.34.34,0,0,1,.33-.34h5.59a.34.34,0,0,1,.33.34v1a.33.33,0,0,1-.33.33h-1.3a.34.34,0,0,0-.34.33V16.33a.33.33,0,0,1-.33.33H86.05a.34.34,0,0,1-.34-.33" fill="#2f3030"/><path d="M91.15,16.33V4.46a.34.34,0,0,1,.33-.34h1.61a.34.34,0,0,1,.33.34V9a.33.33,0,0,0,.33.33h1.9A.33.33,0,0,0,96,9V4.46a.33.33,0,0,1,.33-.34h1.63a.34.34,0,0,1,.33.34V16.33a.33.33,0,0,1-.33.33H96.31a.33.33,0,0,1-.33-.33v-5a.33.33,0,0,0-.33-.33h-1.9a.33.33,0,0,0-.33.33v5a.33.33,0,0,1-.33.33H91.48a.33.33,0,0,1-.33-.33" fill="#2f3030"/><path d="M99.63,16.27,102,4.39a.33.33,0,0,1,.32-.27h1.9a.34.34,0,0,1,.33.27l2.37,11.88a.33.33,0,0,1-.32.39h-1.44a.33.33,0,0,1-.33-.27l-.4-2.35a.31.31,0,0,0-.32-.27h-1.63a.31.31,0,0,0-.32.27l-.42,2.35a.33.33,0,0,1-.33.27H100a.33.33,0,0,1-.33-.39m2.82-4h1.7l-.85-5.26Z" fill="#2f3030"/><path d="M107.7,16.2l2.18-4.88a.32.32,0,0,0-.13-.41,3.17,3.17,0,0,1-1-1.1,4.13,4.13,0,0,1-.48-2.08,4.09,4.09,0,0,1,.45-2,2.7,2.7,0,0,1,1.36-1.19,5.83,5.83,0,0,1,2.3-.39h2.56a.34.34,0,0,1,.33.34V16.33a.33.33,0,0,1-.33.33h-1.61a.33.33,0,0,1-.33-.33V11.59h-1l-1.92,4.86a.32.32,0,0,1-.3.21H108a.32.32,0,0,1-.3-.46M112.47,10H113V5.72h-.56a2.11,2.11,0,0,0-1.52.49,2,2,0,0,0-.51,1.52,2.62,2.62,0,0,0,.46,1.66,1.93,1.93,0,0,0,1.61.59" fill="#2f3030"/><path d="M42.92,33,45.3,21.16a.32.32,0,0,1,.32-.27h1.9a.33.33,0,0,1,.33.27L50.22,33a.33.33,0,0,1-.32.4H48.46a.34.34,0,0,1-.33-.27l-.4-2.35a.31.31,0,0,0-.32-.27H45.78a.33.33,0,0,0-.33.27L45,33.16a.33.33,0,0,1-.33.27H43.24a.33.33,0,0,1-.32-.4m2.82-4h1.7l-.85-5.26Z" fill="#2f3030"/><path d="M51.59,33.1V21.22a.33.33,0,0,1,.33-.33h1.61a.33.33,0,0,1,.33.33v4.94h.47l1.94-5.06a.34.34,0,0,1,.31-.21h1.56a.34.34,0,0,1,.31.46l-2.16,5.33a.36.36,0,0,0,0,.25l2.35,6a.33.33,0,0,1-.31.45H56.72a.34.34,0,0,1-.31-.21l-2.08-5.56h-.47V33.1a.33.33,0,0,1-.33.33H51.92a.33.33,0,0,1-.33-.33" fill="#2f3030"/><path d="M61.18,33.1V22.91a.33.33,0,0,0-.33-.33H59.52a.33.33,0,0,1-.33-.33v-1a.33.33,0,0,1,.33-.33h5.59a.33.33,0,0,1,.33.33v1a.33.33,0,0,1-.33.33H63.8a.33.33,0,0,0-.33.33V33.1a.33.33,0,0,1-.33.33H61.51a.33.33,0,0,1-.33-.33" fill="#2f3030"/><path d="M66.61,33.43V21.22a.34.34,0,0,1,.34-.33h1.21a.33.33,0,0,1,.33.33v6a.33.33,0,0,0,.63.13l2.72-6.25a.33.33,0,0,1,.3-.2h1.32V33.1a.33.33,0,0,1-.33.33H71.9a.33.33,0,0,1-.33-.33V27a.33.33,0,0,0-.64-.13L68.2,33.23a.33.33,0,0,1-.3.2Z" fill="#2f3030"/><path d="M75.37,33.1V21.22a.34.34,0,0,1,.34-.33h2.74a6.93,6.93,0,0,1,1.51.16,2.87,2.87,0,0,1,1.16.52,2.34,2.34,0,0,1,.76,1,4.1,4.1,0,0,1,.26,1.56,3.58,3.58,0,0,1-.21,1.3,2,2,0,0,1-.61.86,2.26,2.26,0,0,1-1,.43,2.47,2.47,0,0,1,1.23.52,2.31,2.31,0,0,1,.73,1,4.41,4.41,0,0,1,.24,1.54,5,5,0,0,1-.22,1.58,3,3,0,0,1-.67,1.15,2.87,2.87,0,0,1-1.1.69,4.75,4.75,0,0,1-1.54.23H75.71a.34.34,0,0,1-.34-.33M77.67,26h.77a2.3,2.3,0,0,0,1-.2A1.14,1.14,0,0,0,80,25.2a3.18,3.18,0,0,0,.15-1.06,2,2,0,0,0-.23-1,1.13,1.13,0,0,0-.67-.49,4.09,4.09,0,0,0-1.15-.13h-.44Zm0,5.8h.86a1.68,1.68,0,0,0,1.41-.5,2.64,2.64,0,0,0,.37-1.56,3.55,3.55,0,0,0-.18-1.23,1.28,1.28,0,0,0-.59-.7,2.13,2.13,0,0,0-1.09-.23h-.78Z" fill="#2f3030"/><path d="M83.44,33l2.38-11.87a.32.32,0,0,1,.32-.27H88a.33.33,0,0,1,.33.27L90.74,33a.33.33,0,0,1-.32.4H89a.34.34,0,0,1-.33-.27l-.4-2.35a.32.32,0,0,0-.32-.27H86.3a.33.33,0,0,0-.33.27l-.41,2.35a.33.33,0,0,1-.33.27H83.76a.33.33,0,0,1-.32-.4m2.82-4H88l-.85-5.26Z" fill="#2f3030"/><path d="M99.2,35.62,99,33.73a.33.33,0,0,0-.33-.3H92.44a.33.33,0,0,1-.33-.33V21.22a.33.33,0,0,1,.33-.33h1.61a.33.33,0,0,1,.33.33v10.3a.33.33,0,0,0,.33.33h2.16a.33.33,0,0,0,.33-.33V21.22a.33.33,0,0,1,.33-.33h1.61a.33.33,0,0,1,.33.33V31.85h1.46v3.74a.33.33,0,0,1-.33.33H99.53a.33.33,0,0,1-.33-.3" fill="#2f3030"/><path d="M102.24,33.43V21.22a.34.34,0,0,1,.34-.33h1.21a.33.33,0,0,1,.33.33v6a.33.33,0,0,0,.63.13l2.72-6.25a.33.33,0,0,1,.3-.2h1.32V33.1a.34.34,0,0,1-.34.33h-1.22a.33.33,0,0,1-.33-.33V27a.33.33,0,0,0-.64-.13l-2.73,6.36a.33.33,0,0,1-.3.2Z" fill="#2f3030"/><path d="M110.44,33l2.18-4.87a.32.32,0,0,0-.13-.41,3.17,3.17,0,0,1-1-1.1A4.13,4.13,0,0,1,111,24.5a4.14,4.14,0,0,1,.45-2,2.73,2.73,0,0,1,1.36-1.18,5.83,5.83,0,0,1,2.3-.39h2.56a.33.33,0,0,1,.33.33V33.1a.33.33,0,0,1-.33.33h-1.61a.33.33,0,0,1-.33-.33V28.35h-1l-1.91,4.87a.35.35,0,0,1-.31.21h-1.76a.33.33,0,0,1-.3-.47m4.77-6.22h.52V22.49h-.56a2.15,2.15,0,0,0-1.52.48,2,2,0,0,0-.51,1.53,2.64,2.64,0,0,0,.46,1.66,1.92,1.92,0,0,0,1.61.58" fill="#2f3030"/><g clip-path="url(#b474d342-fcab-4d0e-8c45-a0ff51d78cff)"><rect x="-8.3" y="-5.72" width="49.61" height="49.61" transform="translate(-8.66 17.26) rotate(-45)" fill="url(#e9ea6f20-beba-4689-9d2c-91ef22119f7e)"/></g></g></svg>