<svg xmlns="http://www.w3.org/2000/svg" width="32" height="32" viewBox="0 0 32 32"><circle cx="16" cy="16" r="16" fill="#2aabee"/><path d="M7.24,15.83q7-3,9.33-4c4.45-1.85,5.37-2.17,6-2.18a1,1,0,0,1,.62.19.68.68,0,0,1,.23.43,3,3,0,0,1,0,.63c-.24,2.53-1.29,8.67-1.82,11.5-.22,1.2-.66,1.61-1.09,1.64-.93.09-1.63-.61-2.53-1.2-1.41-.92-2.21-1.5-3.58-2.4-1.57-1-.55-1.61.35-2.55.24-.24,4.33-4,4.41-4.3a.31.31,0,0,0-.08-.28c-.09-.09-.23-.06-.33,0S16.36,14.77,12,17.71a3,3,0,0,1-1.73.64,11.61,11.61,0,0,1-2.49-.58c-1-.33-1.8-.5-1.73-1.05C6.09,16.43,6.49,16.13,7.24,15.83Z" fill="#fff" fill-rule="evenodd"/></svg>