<svg xmlns="http://www.w3.org/2000/svg" xmlns:xlink="http://www.w3.org/1999/xlink" width="74" height="74" viewBox="0 0 56 56"><defs><mask id="be40f69f-37a2-4e00-9a77-635d242bf48b" x="0" y="0" width="56" height="56" maskUnits="userSpaceOnUse"><g id="a8664e8f-a875-4adb-9d6d-ffe12eed7b04" data-name="mask0 7414 64391"><circle cx="28" cy="28" r="28" fill="#f7f8fc"/></g></mask></defs><circle cx="28" cy="28" r="28" fill="#f7f8fc"/><g mask="url(#be40f69f-37a2-4e00-9a77-635d242bf48b)"><g><path d="M29.41,56C14.61,56.74,8,48,8,48s7.26-4,21.42-3.3c8.23.37,17.58,4,17.58,4S41.32,55.28,29.41,56Z" fill="#3572f2"/><path d="M23.31,53.9a7.78,7.78,0,0,1-2.45-1.59,7.6,7.6,0,0,1-1.65-2.42A7.46,7.46,0,0,1,18.6,47l-.44-29.68.92-.64a20.63,20.63,0,0,1,21-1.62l-.51,16.57a10,10,0,0,1-6.23,8.94s0,3.65.14,6.63a7.07,7.07,0,0,1-2.24,5.06,7.38,7.38,0,0,1-7.92,1.62Z" fill="#ffc9ae"/><path d="M33.33,41.34v.81C26.49,40.53,24.08,38,24.08,38c3.62,1.62,6.63,2.6,9.25,2.54Z" fill="#dea688"/><path d="M18.54,29.58c0,.1-4.15.88-4.06-3.25s4-2.75,4.11-2.7S18.58,29.48,18.54,29.58Z" fill="#ffc9ae"/><path d="M17.12,28.16a1,1,0,0,1-.32.12.92.92,0,0,1-.33,0,1.88,1.88,0,0,1-.78-.75,1.86,1.86,0,0,1-.23-1.06,2.39,2.39,0,0,1,.27-1.14,1.1,1.1,0,0,1,.29-.42,1,1,0,0,1,.45-.21.61.61,0,0,1,.4.11.48.48,0,0,1,.16.26c0,.17-.06.25-.06.24a.3.3,0,0,0,0-.21.37.37,0,0,0-.18-.17.33.33,0,0,0-.24,0,.83.83,0,0,0-.34.2.81.81,0,0,0-.21.34,2.48,2.48,0,0,0-.22,1,1.88,1.88,0,0,0,.19.93,1.81,1.81,0,0,0,.62.7.8.8,0,0,0,.53,0,1.35,1.35,0,0,0,.2-.11S17.3,28,17.12,28.16Z" fill="#dea688"/><path d="M37.14,24.69a.77.77,0,0,0-.19-.28.85.85,0,0,0-.29-.17.75.75,0,0,0-.33,0,.89.89,0,0,0-.81.88.88.88,0,0,0,.07.32.92.92,0,0,0,.19.28,1.05,1.05,0,0,0,.29.17.93.93,0,0,0,.33,0,.9.9,0,0,0,.58-.27.84.84,0,0,0,.22-.6A.72.72,0,0,0,37.14,24.69Z" fill="#263238"/><path d="M37.91,22.86a2.24,2.24,0,0,0-1.32-.43,2.34,2.34,0,0,0-1.36.41c-.29.22-.43.36-.35.48s.77-.35,1.69-.35,1.57.47,1.67.36S38.2,23.08,37.91,22.86Z" fill="#263238"/><path d="M28.3,24.81a.8.8,0,0,0-.48-.43.85.85,0,0,0-.32,0,.81.81,0,0,0-.57.27.84.84,0,0,0-.23.6.72.72,0,0,0,.08.32.79.79,0,0,0,.19.26,1,1,0,0,0,.28.16.87.87,0,0,0,.32,0,.81.81,0,0,0,.58-.27.86.86,0,0,0,.23-.6A.84.84,0,0,0,28.3,24.81Z" fill="#263238"/><path d="M28.88,23a2.18,2.18,0,0,0-1.33-.43A2.32,2.32,0,0,0,26.2,23c-.3.21-.45.36-.36.47s.78-.35,1.7-.35,1.56.48,1.67.37S29.16,23.25,28.88,23Z" fill="#263238"/><path d="M34.05,30.38a1.34,1.34,0,0,0,.4-.06.47.47,0,0,0,.24-.13.51.51,0,0,0,.15-.21,1.35,1.35,0,0,0-.12-.93l-.67-1.82a30.52,30.52,0,0,0-1.93-4.57,30.94,30.94,0,0,0,1.56,4.71l.69,1.8a1.27,1.27,0,0,1,.17.71c0,.16-.27.23-.5.23a6.39,6.39,0,0,0-1.5.27A5.46,5.46,0,0,0,34.05,30.38Z" fill="#263238"/><path d="M28.93,19.4a3.59,3.59,0,0,0-1.65-.21,3.54,3.54,0,0,0-1.57.56c-.35.24-.51.48-.44.59s1-.08,2.1-.21,2,0,2.08-.25S29.29,19.55,28.93,19.4Z" fill="#263238"/><path d="M37.62,20.13a2.2,2.2,0,0,0-2.5-.08c-.33.2-.39.41-.33.51s.8.09,1.56.09,1.39.21,1.56,0S37.89,20.33,37.62,20.13Z" fill="#263238"/><path d="M42.25,13.17a1.71,1.71,0,0,1,.45.9,1.77,1.77,0,0,1-.11,1,3.19,3.19,0,0,1-1.38,1.52,5.33,5.33,0,0,1-1.61.69h-.22a12.09,12.09,0,0,1-7.45-.81c-6.28-3.24-7.86-1.66-8.6-1s.37,5.23-2.63,6.39c0,0,.54,4.61-1.87,4.61-1.4,0-1.77-3.92-1.83-7.23v-.23a12.68,12.68,0,0,1-.69-2.71,5.65,5.65,0,0,1,.86-4,3.41,3.41,0,0,1,1.58-1.25,3.36,3.36,0,0,1,2-.12,7.71,7.71,0,0,1,4-4.3,7.58,7.58,0,0,1,5.8-.25c.9.33,1.72.82,2.61,1.19A4.4,4.4,0,0,0,35.92,8c.95-.26,1.78-1,2.75-.94a1.91,1.91,0,0,1,.73.24,1.85,1.85,0,0,1,.57.51,1.88,1.88,0,0,1,.31.71,2,2,0,0,1,0,.77,1.64,1.64,0,0,1,1-.44,1.66,1.66,0,0,1,1,.29A2.23,2.23,0,0,1,43,10a2.33,2.33,0,0,1,.15,1.11A3.94,3.94,0,0,1,42.25,13.17Z" fill="#263238"/><path d="M29.15,33.59c-.09.82.92,2,2.17,2.13s2.78-.66,2.88-1.49-1.09.12-2.34,0S29.25,32.76,29.15,33.59Z" fill="#fff"/></g></g></svg>