<svg xmlns="http://www.w3.org/2000/svg" xmlns:xlink="http://www.w3.org/1999/xlink" width="74" height="74" viewBox="0 0 56 56"><defs><mask id="ea337391-0e24-4e56-b43a-c8e8585a5012" x="0" y="0" width="56" height="56" maskUnits="userSpaceOnUse"><g id="aa0d3565-a3e5-416c-a073-4edc81c8a0c5" data-name="mask0 7414 64391"><circle cx="28" cy="28" r="28" fill="#f7f8fc"/></g></mask></defs><circle cx="28" cy="28" r="28" fill="#f7f8fc"/><g mask="url(#ea337391-0e24-4e56-b43a-c8e8585a5012)"><g><path d="M9,48.7s9.35-3.61,17.58-4C40.74,44,48,48,48,48S41.39,56.74,26.59,56C14.68,55.28,9,48.7,9,48.7Z" fill="#3572f2"/><path d="M29.83,54.42a7.39,7.39,0,0,1-5.06-2.14,7.07,7.07,0,0,1-2.24-5.06c.14-3,.14-6.63.14-6.63a10,10,0,0,1-6.23-8.94l-.51-16.57a20.63,20.63,0,0,1,21,1.62l.92.64L37.4,47a7.46,7.46,0,0,1-.61,2.87,7.6,7.6,0,0,1-1.65,2.42,7.78,7.78,0,0,1-2.45,1.59A7.36,7.36,0,0,1,29.83,54.42Z" fill="#ffc9ae"/><path d="M22.67,40.53c2.62.06,5.63-.92,9.25-2.54,0,0-2.41,2.54-9.25,4.16V40.53Z" fill="#dea688"/><path d="M37.41,23.63c.1-.05,4-1.43,4.11,2.7s-4,3.35-4.06,3.25S37.41,23.63,37.41,23.63Z" fill="#ffc9ae"/><path d="M38.68,28a1.35,1.35,0,0,0,.2.11.8.8,0,0,0,.53,0,1.81,1.81,0,0,0,.62-.7,1.88,1.88,0,0,0,.19-.93,2.48,2.48,0,0,0-.22-1,.81.81,0,0,0-.21-.34.83.83,0,0,0-.34-.2.33.33,0,0,0-.24,0,.37.37,0,0,0-.18.17.3.3,0,0,0,0,.21s-.09-.07-.06-.24a.48.48,0,0,1,.16-.26.61.61,0,0,1,.4-.11,1,1,0,0,1,.45.21,1.1,1.1,0,0,1,.29.42,2.39,2.39,0,0,1,.27,1.14,1.86,1.86,0,0,1-.23,1.06,1.88,1.88,0,0,1-.78.75.92.92,0,0,1-.33,0,1,1,0,0,1-.32-.12C38.7,28,38.67,28,38.68,28Z" fill="#dea688"/><path d="M18.8,25a.84.84,0,0,0,.22.6.9.9,0,0,0,.58.27.93.93,0,0,0,.33,0,1.05,1.05,0,0,0,.29-.17.92.92,0,0,0,.19-.28.83.83,0,0,0-.17-.92.87.87,0,0,0-.57-.28.75.75,0,0,0-.33,0,.85.85,0,0,0-.29.17.77.77,0,0,0-.19.28A.72.72,0,0,0,18.8,25Z" fill="#263238"/><path d="M17.76,23.33c.1.11.75-.37,1.67-.36s1.61.46,1.69.35-.06-.26-.35-.48a2.34,2.34,0,0,0-1.36-.41,2.24,2.24,0,0,0-1.32.43C17.8,23.08,17.71,23.28,17.76,23.33Z" fill="#263238"/><path d="M27.62,25.12a.86.86,0,0,0,.23.6.81.81,0,0,0,.58.27.87.87,0,0,0,.32,0A1,1,0,0,0,29,25.8a.79.79,0,0,0,.19-.26.72.72,0,0,0,.08-.32.84.84,0,0,0-.23-.6.81.81,0,0,0-.57-.27.76.76,0,0,0-.6.19.86.86,0,0,0-.2.27A.84.84,0,0,0,27.62,25.12Z" fill="#263238"/><path d="M26.79,23.51c.11.11.75-.37,1.67-.37s1.61.47,1.7.35-.06-.26-.36-.47a2.32,2.32,0,0,0-1.35-.42,2.18,2.18,0,0,0-1.33.43C26.84,23.25,26.74,23.45,26.79,23.51Z" fill="#263238"/><path d="M23.46,30.38a6.39,6.39,0,0,0-1.5-.27c-.23,0-.46-.07-.5-.23a1.27,1.27,0,0,1,.17-.71l.69-1.8a30.94,30.94,0,0,0,1.56-4.71A30.52,30.52,0,0,0,22,27.23l-.67,1.82a1.35,1.35,0,0,0-.12.93.51.51,0,0,0,.15.21.47.47,0,0,0,.24.13,1.34,1.34,0,0,0,.4.06A5.46,5.46,0,0,0,23.46,30.38Z" fill="#263238"/><path d="M26.55,19.88c.09.25,1,.13,2.08.25s2,.43,2.1.21-.09-.35-.44-.59a3.54,3.54,0,0,0-1.57-.56,3.59,3.59,0,0,0-1.65.21C26.71,19.55,26.51,19.75,26.55,19.88Z" fill="#263238"/><path d="M18.09,20.65c.17.21.81,0,1.56,0s1.4.14,1.56-.09,0-.31-.33-.51a2.2,2.2,0,0,0-2.5.08C18.11,20.33,18,20.55,18.09,20.65Z" fill="#263238"/><path d="M12.89,11.11A2.33,2.33,0,0,1,13,10a2.23,2.23,0,0,1,.66-.89,1.66,1.66,0,0,1,1-.29,1.64,1.64,0,0,1,1,.44,2,2,0,0,1,0-.77A1.88,1.88,0,0,1,16,7.78a1.85,1.85,0,0,1,.57-.51A1.91,1.91,0,0,1,17.33,7c1-.06,1.8.68,2.75.94a4.4,4.4,0,0,0,2.79-.32c.89-.37,1.71-.86,2.61-1.19a7.58,7.58,0,0,1,5.8.25,7.71,7.71,0,0,1,4,4.3,3.36,3.36,0,0,1,2,.12,3.41,3.41,0,0,1,1.58,1.25,5.65,5.65,0,0,1,.86,4A12.68,12.68,0,0,1,39,19.05v.23c-.06,3.31-.43,7.22-1.83,7.23-2.41,0-1.87-4.61-1.87-4.61-3-1.16-1.88-5.68-2.63-6.39s-2.32-2.29-8.6,1a12.09,12.09,0,0,1-7.45.81H16.4a5.33,5.33,0,0,1-1.61-.69,3.19,3.19,0,0,1-1.38-1.52,1.77,1.77,0,0,1-.11-1,1.71,1.71,0,0,1,.45-.9A3.94,3.94,0,0,1,12.89,11.11Z" fill="#263238"/><path d="M24.14,34.21c-1.25.14-2.43-.8-2.34,0s1.63,1.64,2.88,1.49,2.26-1.31,2.17-2.13S25.39,34.06,24.14,34.21Z" fill="#fff"/></g></g></svg>