<svg xmlns="http://www.w3.org/2000/svg" xmlns:xlink="http://www.w3.org/1999/xlink" viewBox="0 0 1090 344"><defs><linearGradient id="b38f5e36-3581-4a7d-9f6b-66e2c214bbb2" data-name="Безымянный градиент" x1="121.65" y1="88.37" x2="815.32" y2="52.47" gradientTransform="matrix(1, 0, 0, -1, 0, 371)" gradientUnits="userSpaceOnUse"><stop offset="0.16" stop-color="#eceef4"/><stop offset="0.43" stop-color="#c9cede"/></linearGradient><linearGradient id="f809621b-7dd9-4eb5-85e8-210f85da35f9" data-name="Безымянный градиент 2" x1="242.22" y1="124.04" x2="239.72" y2="212.07" gradientTransform="matrix(1, 0, 0, -1, 0, 371)" gradientUnits="userSpaceOnUse"><stop offset="0.32" stop-color="#e8eaf2"/><stop offset="1" stop-color="#f7f8fc" stop-opacity="0"/></linearGradient><linearGradient id="aa507bdb-bafd-4ad7-a874-ad343d15e933" data-name="Безымянный градиент 3" x1="1021.54" y1="79.61" x2="497.33" y2="63.06" gradientTransform="matrix(1, 0, 0, -1, 0, 371)" gradientUnits="userSpaceOnUse"><stop offset="0.26" stop-color="#eceef4"/><stop offset="0.71" stop-color="#c9cede"/></linearGradient><linearGradient id="f32f0972-ec66-4ed8-bc9c-944361d924f0" data-name="Безымянный градиент 4" x1="845.8" y1="107.08" x2="843.52" y2="193.51" gradientTransform="matrix(1, 0, 0, -1, 0, 371)" gradientUnits="userSpaceOnUse"><stop offset="0.24" stop-color="#e8eaf2"/><stop offset="1" stop-color="#f7f8fc" stop-opacity="0"/></linearGradient><linearGradient id="be356a6d-94d6-47e9-8af4-3f0eac865e94" data-name="Безымянный градиент 5" x1="542.65" y1="153.22" x2="541.71" y2="237.05" xlink:href="#f32f0972-ec66-4ed8-bc9c-944361d924f0"/><linearGradient id="eaa5a684-e709-4a47-99ff-fb8acf12cc4a" data-name="Безымянный градиент 6" x1="541.29" y1="128.91" x2="551.23" y2="-129.07" gradientTransform="matrix(1, 0, 0, -1, 0, 371)" gradientUnits="userSpaceOnUse"><stop offset="0" stop-color="#dee1eb"/><stop offset="0.43" stop-color="#e9ebf2"/></linearGradient><linearGradient id="b3494f93-3f3d-4ab1-a06a-9783ab466162" data-name="Безымянный градиент 7" x1="211.02" y1="175.78" x2="246.32" y2="160.1" gradientTransform="matrix(1, 0, 0, -1, 0, 371)" gradientUnits="userSpaceOnUse"><stop offset="0.13" stop-color="#d2d8da"/><stop offset="0.5" stop-color="#d2d8da" stop-opacity="0.5"/><stop offset="1" stop-color="#d2d8da" stop-opacity="0"/></linearGradient><linearGradient id="a5a85841-d594-4b93-997b-34cf06da4b70" data-name="Безымянный градиент 8" x1="214.93" y1="175.45" x2="285.95" y2="153.45" gradientTransform="matrix(1, 0, 0, -1, 0, 371)" gradientUnits="userSpaceOnUse"><stop offset="0.1" stop-color="#d2d8da"/><stop offset="0.22" stop-color="#d2d8da" stop-opacity="0.5"/><stop offset="0.37" stop-color="#d2d8da" stop-opacity="0"/></linearGradient><linearGradient id="e8ebcd51-be80-4cda-9c04-c648cc0c8104" data-name="Безымянный градиент 9" x1="215.81" y1="178.56" x2="187.3" y2="139.55" gradientTransform="matrix(1, 0, 0, -1, 0, 371)" gradientUnits="userSpaceOnUse"><stop offset="0.1" stop-color="#d2d8da"/><stop offset="0.4" stop-color="#d2d8da" stop-opacity="0.5"/><stop offset="0.91" stop-color="#d2d8da" stop-opacity="0"/></linearGradient><linearGradient id="e626d3a9-ec89-4e3f-bbaa-a453979f43b6" data-name="Безымянный градиент 10" x1="217.32" y1="167.8" x2="217.31" y2="147.05" gradientTransform="matrix(1, 0, 0, -1, 0, 371)" gradientUnits="userSpaceOnUse"><stop offset="0.34" stop-color="#d2d8da"/><stop offset="0.67" stop-color="#d2d8da" stop-opacity="0.5"/><stop offset="0.99" stop-color="#d2d8da" stop-opacity="0"/></linearGradient><linearGradient id="b97bdfcc-e295-4faf-9976-78558ae33cf9" data-name="Безымянный градиент 11" x1="170.14" y1="259.4" x2="323.68" y2="189.88" gradientTransform="matrix(1, 0, 0, -1, 0, 371)" gradientUnits="userSpaceOnUse"><stop offset="0.2" stop-color="#d2d8da"/><stop offset="0.57" stop-color="#d2d8da" stop-opacity="0.5"/><stop offset="1" stop-color="#dbdfe1" stop-opacity="0"/></linearGradient><linearGradient id="f94e0ea7-7c05-46a4-907a-80bff76e572d" data-name="Безымянный градиент 12" x1="270.33" y1="243.46" x2="218.26" y2="195.31" gradientTransform="matrix(1, 0, 0, -1, 0, 371)" gradientUnits="userSpaceOnUse"><stop offset="0.14" stop-color="#d2d8da"/><stop offset="0.47" stop-color="#d2d8da" stop-opacity="0.5"/><stop offset="0.64" stop-color="#d2d8da" stop-opacity="0"/></linearGradient><linearGradient id="a2ae6577-fdb4-40d1-976d-c49328bcd907" data-name="Безымянный градиент 13" x1="157.13" y1="244.44" x2="234.46" y2="203.63" gradientTransform="matrix(1, 0, 0, -1, 0, 371)" gradientUnits="userSpaceOnUse"><stop offset="0.25" stop-color="#d2d8da"/><stop offset="0.39" stop-color="#d2d8da" stop-opacity="0.5"/><stop offset="0.64" stop-color="#d2d8da" stop-opacity="0"/></linearGradient><linearGradient id="f8204923-5b2f-45d6-8c61-18a7c31adebd" data-name="Безымянный градиент 14" x1="215.83" y1="280.21" x2="216.33" y2="291.22" gradientTransform="matrix(1, 0, 0, -1, 0, 371)" gradientUnits="userSpaceOnUse"><stop offset="0.07" stop-color="#d2d8da"/><stop offset="1" stop-color="#d2d8da" stop-opacity="0"/></linearGradient><linearGradient id="f29f5982-465f-45ee-9e00-0ef0dcb33b67" data-name="Безымянный градиент 15" x1="868.67" y1="181.23" x2="878.18" y2="114.2" gradientTransform="matrix(1, 0, 0, -1, 0, 371)" gradientUnits="userSpaceOnUse"><stop offset="0.13" stop-color="#cd7f32"/><stop offset="0.5" stop-color="#cd7f32" stop-opacity="0.5"/><stop offset="1" stop-color="#cd7f32" stop-opacity="0"/></linearGradient><linearGradient id="b3060385-e267-4af4-88e4-7a5d778987dc" data-name="Безымянный градиент 16" x1="862.17" y1="163.53" x2="948.19" y2="154.53" gradientTransform="matrix(1, 0, 0, -1, 0, 371)" gradientUnits="userSpaceOnUse"><stop offset="0.1" stop-color="#cd7f32"/><stop offset="0.22" stop-color="#cd7f32" stop-opacity="0.5"/><stop offset="0.37" stop-color="#cd7f32" stop-opacity="0"/></linearGradient><linearGradient id="aeb8cd50-2a94-4b7d-a497-3bedb70df956" data-name="Безымянный градиент 17" x1="870.4" y1="169.67" x2="847.56" y2="131.32" gradientTransform="matrix(1, 0, 0, -1, 0, 371)" gradientUnits="userSpaceOnUse"><stop offset="0.1" stop-color="#cd7f32"/><stop offset="0.4" stop-color="#cd7f32" stop-opacity="0.5"/><stop offset="0.91" stop-color="#cd7f32" stop-opacity="0"/></linearGradient><linearGradient id="e7cd9b99-1fff-4b71-8906-2c2a4f518cae" data-name="Безымянный градиент 18" x1="871.96" y1="154.58" x2="870.46" y2="127.57" gradientTransform="matrix(1, 0, 0, -1, 0, 371)" gradientUnits="userSpaceOnUse"><stop offset="0.07" stop-color="#cd7f32"/><stop offset="0.45" stop-color="#cd7f32" stop-opacity="0.5"/><stop offset="0.99" stop-color="#cd7f32" stop-opacity="0"/></linearGradient><linearGradient id="f96460d6-b8ef-498e-a3c0-7915d30cc0f8" data-name="Безымянный градиент 19" x1="792.87" y1="262.83" x2="1016.92" y2="160.82" gradientTransform="matrix(1, 0, 0, -1, 0, 371)" gradientUnits="userSpaceOnUse"><stop offset="0.15" stop-color="#cd7f32"/><stop offset="0.5" stop-color="#cd7f32" stop-opacity="0.5"/><stop offset="1" stop-color="#cd7f32" stop-opacity="0"/></linearGradient><linearGradient id="ae40977d-3c17-4dce-bfae-e3b4588fd0ac" data-name="Безымянный градиент 20" x1="948.73" y1="246.57" x2="874.01" y2="201.69" gradientTransform="matrix(1, 0, 0, -1, 0, 371)" gradientUnits="userSpaceOnUse"><stop offset="0" stop-color="#cd7f32"/><stop offset="0.39" stop-color="#cd7f32" stop-opacity="0.5"/><stop offset="0.64" stop-color="#cd7f32" stop-opacity="0"/></linearGradient><linearGradient id="fefab6cd-4c45-4887-abab-d555d8f28407" data-name="Безымянный градиент 21" x1="793.37" y1="245.57" x2="869.18" y2="197.92" gradientTransform="matrix(1, 0, 0, -1, 0, 371)" gradientUnits="userSpaceOnUse"><stop offset="0.16" stop-color="#cd7f32"/><stop offset="0.39" stop-color="#cd7f32" stop-opacity="0.5"/><stop offset="0.64" stop-color="#cd7f32" stop-opacity="0"/></linearGradient><linearGradient id="ae721b02-9836-4e14-b9b9-2d873a2a0962" data-name="Безымянный градиент 22" x1="870.01" y1="269.09" x2="870.01" y2="279.1" gradientTransform="matrix(1, 0, 0, -1, 0, 371)" gradientUnits="userSpaceOnUse"><stop offset="0" stop-color="#cd7f32"/><stop offset="1" stop-color="#cd7f32" stop-opacity="0"/></linearGradient><linearGradient id="a8b36594-6b54-4711-ad56-7dbea9498db3" data-name="Безымянный градиент 23" x1="538.26" y1="233.78" x2="552.26" y2="154.75" gradientTransform="matrix(1, 0, 0, -1, 0, 371)" gradientUnits="userSpaceOnUse"><stop offset="0.27" stop-color="#ebbd1f"/><stop offset="0.5" stop-color="#ebbd1f" stop-opacity="0.5"/><stop offset="1" stop-color="#ebbd1f" stop-opacity="0"/></linearGradient><linearGradient id="a0b0b8a6-efab-4098-b925-3efcd3c116dc" data-name="Безымянный градиент 24" x1="530.04" y1="205.86" x2="639.06" y2="200.86" gradientTransform="matrix(1, 0, 0, -1, 0, 371)" gradientUnits="userSpaceOnUse"><stop offset="0.1" stop-color="#ebbd1f"/><stop offset="0.22" stop-color="#ebbd1f" stop-opacity="0.5"/><stop offset="0.37" stop-color="#ebbd1f" stop-opacity="0"/></linearGradient><linearGradient id="b93bfea7-f37d-4341-af6a-8d82725ad831" data-name="Безымянный градиент 25" x1="544.07" y1="212.34" x2="511.06" y2="173.82" gradientTransform="matrix(1, 0, 0, -1, 0, 371)" gradientUnits="userSpaceOnUse"><stop offset="0.1" stop-color="#ebbd1f"/><stop offset="0.4" stop-color="#ebbd1f" stop-opacity="0.5"/><stop offset="0.91" stop-color="#ebbd1f" stop-opacity="0"/></linearGradient><linearGradient id="efe54ce5-60be-4032-8aeb-79cdcb141e70" data-name="Безымянный градиент 26" x1="543.36" y1="199.07" x2="543.36" y2="185.06" gradientTransform="matrix(1, 0, 0, -1, 0, 371)" gradientUnits="userSpaceOnUse"><stop offset="0.07" stop-color="#ebbd1f"/><stop offset="0.67" stop-color="#ebbd1f" stop-opacity="0.5"/><stop offset="0.99" stop-color="#ebbd1f" stop-opacity="0"/></linearGradient><linearGradient id="ec2db1d3-31e6-44b8-a94a-3bd470efd35f" data-name="Безымянный градиент 27" x1="455.97" y1="318.53" x2="676.02" y2="199.51" gradientTransform="matrix(1, 0, 0, -1, 0, 371)" gradientUnits="userSpaceOnUse"><stop offset="0.18" stop-color="#ebbd1f"/><stop offset="0.63" stop-color="#ebbd1f" stop-opacity="0.5"/><stop offset="0.75" stop-color="#f8ca2a" stop-opacity="0"/></linearGradient><linearGradient id="e28233fa-00c1-4cff-8223-d10ce3ac90b4" data-name="Безымянный градиент 28" x1="621.09" y1="294.36" x2="541.18" y2="232.22" gradientTransform="matrix(1, 0, 0, -1, 0, 371)" gradientUnits="userSpaceOnUse"><stop offset="0.15" stop-color="#ebbd1f"/><stop offset="0.39" stop-color="#ebbd1f" stop-opacity="0.5"/><stop offset="0.64" stop-color="#ebbd1f" stop-opacity="0"/></linearGradient><linearGradient id="b066a2f3-78aa-4f02-864f-dbe43faf3c6a" data-name="Безымянный градиент 29" x1="460.24" y1="290.71" x2="543.98" y2="240.9" xlink:href="#e28233fa-00c1-4cff-8223-d10ce3ac90b4"/><linearGradient id="f99045da-af4b-43e5-ae22-0ec3282d321f" data-name="Безымянный градиент 30" x1="541.86" y1="311.32" x2="542.36" y2="324.82" gradientTransform="matrix(1, 0, 0, -1, 0, 371)" gradientUnits="userSpaceOnUse"><stop offset="0" stop-color="#ebbd1f"/><stop offset="1" stop-color="#f8ca2a" stop-opacity="0"/></linearGradient></defs><path d="M1077.93,93.75l.14-13.86L1090,87Z" fill="#d7699b" opacity="0.74" style="isolation: isolate"/><path d="M28.45,52.63,21.86,64.82,14.59,53Z" fill="#d7699b" opacity="0.74" style="isolation: isolate"/><path d="M13.71,153.25,0,155.28l5.1-12.89Z" fill="#ffc141" opacity="0.74" style="isolation: isolate"/><path d="M974.42,29.64l12.12,6.74L974.65,43.5Z" fill="#776fef" opacity="0.74" style="isolation: isolate"/><path d="M167.34,20.34l10.81-8.68,2.11,13.7Z" fill="#776fef" opacity="0.74" style="isolation: isolate"/><path d="M336.21,69.78l-13.69-2.17,8.73-10.77Z" fill="#ffc141" opacity="0.74" style="isolation: isolate"/><path d="M747.75,150.19l-5.07,12.89-8.63-10.84Z" fill="#ffc141" opacity="0.74" style="isolation: isolate"/><path d="M700.75,38l-13.4-3.56,9.78-9.83Z" fill="#d7699b" opacity="0.74" style="isolation: isolate"/><path d="M532.79,13.08l-9-10.51L537.37,0Z" fill="#41afe4" opacity="0.74" style="isolation: isolate"/><path d="M651,131.92c4.45,0,7-3.33,7-6" fill="none" stroke="#41afe4" stroke-linecap="round" stroke-width="2" opacity="0.74" style="isolation: isolate"/><path d="M875.54,42.54c1.44,4.22,5.42,5.55,7.94,4.69" fill="none" stroke="#41afe4" stroke-linecap="round" stroke-width="2" opacity="0.74" style="isolation: isolate"/><path d="M100.67,123.2c-.33,4.45,2.8,7.23,5.46,7.43" fill="none" stroke="#41afe4" stroke-linecap="round" stroke-width="2" opacity="0.74" style="isolation: isolate"/><path d="M350.33,154.88c1.66,1.88,11.12,8.05,11.12,1.88,0-7.51-10.54-.12-8.3,5.4,1.53,3.77,5.79,5.77,11.29,3.77" fill="none" stroke="#d7699b" stroke-linecap="round" stroke-width="2" opacity="0.74" style="isolation: isolate"/><path d="M430.08,56.56l-.41.91a3.34,3.34,0,0,1-4.27,1.75l-.25-.1a3.06,3.06,0,0,0-3.94,1.66h0a3.06,3.06,0,0,1-4.59,1.31L415,60.91" fill="none" stroke="#776fef" stroke-linecap="round" stroke-width="2" opacity="0.74" style="isolation: isolate"/><path d="M601.72,28.09l2.49,2.18a2.09,2.09,0,0,0,3.47-1.57h0A2.09,2.09,0,0,1,610,26.63l.56.05a2.61,2.61,0,0,0,2.3-4.19l-1-1.35" fill="none" stroke="#ffc141" stroke-linecap="round" stroke-width="2" opacity="0.74" style="isolation: isolate"/><path d="M260.92,15.88l5,6.5" fill="none" stroke="#41afe4" stroke-linecap="round" stroke-width="2" opacity="0.74" style="isolation: isolate"/><path d="M1030.84,171.76c4.24-1.34,5.67-5.28,4.87-7.83" fill="none" stroke="#41afe4" stroke-linecap="round" stroke-width="2" opacity="0.74" style="isolation: isolate"/><rect x="51.89" y="230.96" width="327.05" height="113.04" fill="url(#b38f5e36-3581-4a7d-9f6b-66e2c214bbb2)"/><path d="M101.34,207H431l-49.44,24H51.89Z" fill="url(#f809621b-7dd9-4eb5-85e8-210f85da35f9)"/><rect x="705.99" y="248.38" width="327.05" height="95.62" fill="url(#aa507bdb-bafd-4ad7-a874-ad343d15e933)"/><path d="M984,219H657l49,29.43h327Z" fill="url(#f32f0972-ec66-4ed8-bc9c-944361d924f0)"/><path d="M411,173.94H686.52L706,201h-327Z" fill="url(#be356a6d-94d6-47e9-8af4-3f0eac865e94)"/><rect x="378.94" y="200.95" width="327.05" height="143.05" fill="url(#eaa5a684-e709-4a47-99ff-fb8acf12cc4a)"/><rect x="171.25" y="215.08" width="89.35" height="4.87" fill="#d2d8da"/><rect x="213.13" y="188.27" width="8.38" height="19.5" fill="url(#b3494f93-3f3d-4ab1-a06a-9783ab466162)"/><path d="M221.5,188.27h2.79v18.41l-2.79,1.09Z" fill="url(#a5a85841-d594-4b93-997b-34cf06da4b70)"/><path d="M213.13,188.27h-2.8v18.41l2.8,1.09Z" fill="url(#e8ebcd51-be80-4cda-9c04-c648cc0c8104)"/><path d="M196.37,213.63a8,8,0,0,1,9.38-7.88l11.56,2,11.57-2a8,8,0,0,1,9.38,7.88v3.89H196.37Z" fill="url(#e626d3a9-ec89-4e3f-bbaa-a453979f43b6)"/><path d="M214.43,117.67a4.51,4.51,0,0,1,5.86,3.17,4.49,4.49,0,0,1-.62,3.56L208.75,139a1.47,1.47,0,0,0-.33.94h0a1.51,1.51,0,0,0,1,1.43,1.44,1.44,0,0,0,.54.07h11.94a1.5,1.5,0,0,0,0-3h-9l9.17-12.25-1.2-.9,1.25.84a7.54,7.54,0,0,0,1.16-2.88,7.36,7.36,0,0,0-.1-3.1,7.51,7.51,0,0,0-1.35-2.8A7.49,7.49,0,0,0,209,119a1.5,1.5,0,1,0,2.76,1.16,4.51,4.51,0,0,1,1.07-1.53A4.37,4.37,0,0,1,214.43,117.67ZM171.32,90.78h89.34v65h-.07c.05.54.07,1.08.07,1.62,0,11.21-10.78,20.85-26.29,25.19l-1.63,5.69H203l-1.35-4.71c-17.62-3.71-30.29-14-30.29-26.17,0-.54,0-1.08.07-1.62h-.07Z" fill-rule="evenodd" fill="url(#b97bdfcc-e295-4faf-9976-78558ae33cf9)"/><path d="M260.6,159c4.23,0,19.27-10.05,21.9-26,1.21-7.37,0-27.63-4.79-27.63H266.1v6.71" fill="none" stroke-linecap="round" stroke-width="0.4" stroke="url(#f94e0ea7-7c05-46a4-907a-80bff76e572d)"/><path d="M171.25,159C167,159,152,149,149.35,133c-1.22-7.37,0-27.63,4.79-27.63h11.6v6.71" fill="none" stroke-linecap="round" stroke-width="0.4" stroke="url(#a2ae6577-fdb4-40d1-976d-c49328bcd907)"/><path d="M170.24,88.92a2,2,0,0,1,1.72-3h88a2,2,0,0,1,1.74,3l-1.07,1.89H171.34Z" fill="url(#f8204923-5b2f-45d6-8c61-18a7c31adebd)"/><rect x="825.34" y="226.08" width="89.35" height="4.87" fill="#cd7f32"/><rect x="867.22" y="199.27" width="8.38" height="19.5" fill="url(#f29f5982-465f-45ee-9e00-0ef0dcb33b67)"/><path d="M875.59,199.27h2.79v18.42l-2.79,1.08Z" fill="url(#b3060385-e267-4af4-88e4-7a5d778987dc)"/><path d="M867.22,199.27h-2.8v18.42l2.8,1.08Z" fill="url(#aeb8cd50-2a94-4b7d-a497-3bedb70df956)"/><path d="M850.46,224.64a8,8,0,0,1,9.38-7.89l11.56,2,11.57-2a8,8,0,0,1,9.38,7.89v3.88H850.46Z" fill="url(#e7cd9b99-1fff-4b71-8906-2c2a4f518cae)"/><path d="M864,125.42a1.5,1.5,0,0,0,0,3h9.12l-5.35,7.64a1.5,1.5,0,0,0,1.23,2.36,5.49,5.49,0,0,1,4.57,2.45,5.51,5.51,0,0,1,.51,5.16,5.45,5.45,0,0,1-1.59,2.15,5.58,5.58,0,0,1-2.42,1.14,5.5,5.5,0,0,1-2.67-.13,5.41,5.41,0,0,1-2.29-1.38,1.5,1.5,0,1,0-2.12,2.13,8.49,8.49,0,0,0,7.67,2.32,8.47,8.47,0,0,0,6.19-5.08A8.49,8.49,0,0,0,873,136.43a7.86,7.86,0,0,0-1.41-.6l5.63-8.05a1.5,1.5,0,0,0-1.23-2.36Zm-38.6-23.64h89.35v65h-.08c.05.54.08,1.08.08,1.63,0,11.2-10.79,20.85-26.3,25.18l-1.63,5.7H857.05l-1.35-4.72c-17.62-3.7-30.29-14-30.29-26.16,0-.55,0-1.09.07-1.63h-.07Z" fill-rule="evenodd" fill="url(#f96460d6-b8ef-498e-a3c0-7915d30cc0f8)"/><path d="M914.69,169.54c4.23,0,19.27-10.06,21.9-26,1.21-7.37,0-27.63-4.8-27.63H920.2v6.71" fill="none" stroke-linecap="round" stroke-width="0.4" stroke="url(#ae40977d-3c17-4dce-bfae-e3b4588fd0ac)"/><path d="M825.33,170c-4.23,0-19.27-10.06-21.89-26-1.22-7.36,0-27.62,4.79-27.62h11.6v6.7" fill="none" stroke-linecap="round" stroke-width="0.4" stroke="url(#fefab6cd-4c45-4887-abab-d555d8f28407)"/><path d="M824.26,99.9a2,2,0,0,1,1.74-3h88a2,2,0,0,1,1.74,3l-1.08,1.88H825.34Z" fill="url(#ae721b02-9836-4e14-b9b9-2d873a2a0962)"/><rect x="497.29" y="183.07" width="89.35" height="4.87" fill="#ebbd1f"/><rect x="539.17" y="156.26" width="8.38" height="19.5" fill="url(#a8b36594-6b54-4711-ad56-7dbea9498db3)"/><path d="M547.55,156.26h2.79v18.41l-2.79,1.09Z" fill="url(#a0b0b8a6-efab-4098-b925-3efcd3c116dc)"/><path d="M539.17,156.26h-2.79v18.41l2.79,1.09Z" fill="url(#b93bfea7-f37d-4341-af6a-8d82725ad831)"/><path d="M522.42,181.62a8,8,0,0,1,9.37-7.88l11.57,2,11.56-2a8,8,0,0,1,9.38,7.88v3.89H522.42Z" fill="url(#efe54ce5-60be-4032-8aeb-79cdcb141e70)"/><path d="M546,87.9a1.49,1.49,0,0,0-.79-1.32,1.52,1.52,0,0,0-1.54.07l-6,4a1.5,1.5,0,1,0,1.66,2.5L543,90.71v21.2a1.5,1.5,0,0,0,3,0Zm-48.6-29h89.35v65h-.08c0,.53.08,1.08.08,1.62,0,11.21-10.81,20.87-26.33,25.19l-1.59,5.56H529l-1.32-4.58c-17.63-3.7-30.33-14-30.33-26.17,0-.54,0-1.09.08-1.62h-.08Z" fill-rule="evenodd" fill="url(#ec2db1d3-31e6-44b8-a94a-3bd470efd35f)"/><path d="M586.64,127c4.24,0,19.28-10.05,21.9-26,1.21-7.36,0-27.62-4.79-27.62h-11.6v6.7" fill="none" stroke-linecap="round" stroke-width="0.4" stroke="url(#e28233fa-00c1-4cff-8223-d10ce3ac90b4)"/><path d="M497.29,127c-4.23,0-19.28-10.05-21.9-26-1.21-7.36,0-27.62,4.79-27.62h11.6v6.7" fill="none" stroke-linecap="round" stroke-width="0.4" stroke="url(#b066a2f3-78aa-4f02-864f-dbe43faf3c6a)"/><path d="M496.19,56.88a2,2,0,0,1,1.74-3h88.13a2,2,0,0,1,1.76,3l-1.12,2H497.33Z" fill="url(#f99045da-af4b-43e5-ae22-0ec3282d321f)"/></svg>