<svg xmlns="http://www.w3.org/2000/svg" xmlns:xlink="http://www.w3.org/1999/xlink" viewBox="0 0 1090 320"><defs><linearGradient id="adc7d5d8-a8cd-469f-a48e-c70444d3c838" data-name="Безымянный градиент" x1="121.8" y1="101.96" x2="814.37" y2="56.96" gradientTransform="matrix(1, 0, 0, -1, 0, 371)" gradientUnits="userSpaceOnUse"><stop offset="0.16" stop-color="#eceef4"/><stop offset="0.43" stop-color="#c9cede"/></linearGradient><linearGradient id="b9a06f32-fe14-4a76-ae18-3a0fd3ed3265" data-name="Безымянный градиент 2" x1="242.21" y1="124.78" x2="239.72" y2="212.61" gradientTransform="matrix(1, 0, 0, -1, 0, 371)" gradientUnits="userSpaceOnUse"><stop offset="0.32" stop-color="#e8eaf2"/><stop offset="1" stop-color="#f7f8fc" stop-opacity="0"/></linearGradient><linearGradient id="b32af15b-be3e-4bf4-bd25-1ed98997fefa" data-name="Безымянный градиент 3" x1="1021.46" y1="95.77" x2="497.52" y2="75.5" gradientTransform="matrix(1, 0, 0, -1, 0, 371)" gradientUnits="userSpaceOnUse"><stop offset="0.26" stop-color="#eceef4"/><stop offset="0.71" stop-color="#c9cede"/></linearGradient><linearGradient id="f21e355a-f200-43d8-bc30-94537f9ee541" data-name="Безымянный градиент 4" x1="845.54" y1="116.12" x2="844.02" y2="186.5" gradientTransform="matrix(1, 0, 0, -1, 0, 371)" gradientUnits="userSpaceOnUse"><stop offset="0.24" stop-color="#e8eaf2"/><stop offset="1" stop-color="#f7f8fc" stop-opacity="0"/></linearGradient><linearGradient id="f1eee405-9750-43e5-82ed-506c58ff746b" data-name="Безымянный градиент 5" x1="542.65" y1="153.88" x2="541.72" y2="237.48" xlink:href="#f21e355a-f200-43d8-bc30-94537f9ee541"/><linearGradient id="fab68b22-bb7e-405c-812d-0f289c440f70" data-name="Безымянный градиент 6" x1="541.64" y1="136.27" x2="548.62" y2="-79.69" gradientTransform="matrix(1, 0, 0, -1, 0, 371)" gradientUnits="userSpaceOnUse"><stop offset="0" stop-color="#dee1eb"/><stop offset="0.43" stop-color="#e9ebf2"/></linearGradient><linearGradient id="b8ce98f6-c3bc-46a2-9844-06ce1f99012d" data-name="Безымянный градиент 7" x1="211.03" y1="176.38" x2="246.28" y2="160.74" gradientTransform="matrix(1, 0, 0, -1, 0, 371)" gradientUnits="userSpaceOnUse"><stop offset="0.13" stop-color="#d2d8da"/><stop offset="0.5" stop-color="#d2d8da" stop-opacity="0.5"/><stop offset="1" stop-color="#d2d8da" stop-opacity="0"/></linearGradient><linearGradient id="b391e699-7f0a-4e6f-9b93-ec0869da8846" data-name="Безымянный градиент 8" x1="214.94" y1="176.06" x2="285.82" y2="154.1" gradientTransform="matrix(1, 0, 0, -1, 0, 371)" gradientUnits="userSpaceOnUse"><stop offset="0.1" stop-color="#d2d8da"/><stop offset="0.22" stop-color="#d2d8da" stop-opacity="0.5"/><stop offset="0.37" stop-color="#d2d8da" stop-opacity="0"/></linearGradient><linearGradient id="a8aa3923-adfc-42b8-832e-8e7c8705eacd" data-name="Безымянный градиент 9" x1="215.8" y1="179.16" x2="187.37" y2="140.25" gradientTransform="matrix(1, 0, 0, -1, 0, 371)" gradientUnits="userSpaceOnUse"><stop offset="0.1" stop-color="#d2d8da"/><stop offset="0.4" stop-color="#d2d8da" stop-opacity="0.5"/><stop offset="0.91" stop-color="#d2d8da" stop-opacity="0"/></linearGradient><linearGradient id="bd73b94b-2f93-4801-9c52-ee293653d05a" data-name="Безымянный градиент 10" x1="217.32" y1="168.43" x2="217.31" y2="147.74" gradientTransform="matrix(1, 0, 0, -1, 0, 371)" gradientUnits="userSpaceOnUse"><stop offset="0.34" stop-color="#d2d8da"/><stop offset="0.67" stop-color="#d2d8da" stop-opacity="0.5"/><stop offset="0.99" stop-color="#d2d8da" stop-opacity="0"/></linearGradient><linearGradient id="a13dedfd-6a75-434b-a2df-c10f11536add" data-name="Безымянный градиент 11" x1="170.19" y1="259.8" x2="323.6" y2="190.35" gradientTransform="matrix(1, 0, 0, -1, 0, 371)" gradientUnits="userSpaceOnUse"><stop offset="0.2" stop-color="#d2d8da"/><stop offset="0.57" stop-color="#d2d8da" stop-opacity="0.5"/><stop offset="1" stop-color="#dbdfe1" stop-opacity="0"/></linearGradient><linearGradient id="f0c29ccd-73d4-4625-84be-fb96fe4c3fe4" data-name="Безымянный градиент 12" x1="270.33" y1="243.86" x2="218.37" y2="195.81" gradientTransform="matrix(1, 0, 0, -1, 0, 371)" gradientUnits="userSpaceOnUse"><stop offset="0.14" stop-color="#d2d8da"/><stop offset="0.47" stop-color="#d2d8da" stop-opacity="0.5"/><stop offset="0.64" stop-color="#d2d8da" stop-opacity="0"/></linearGradient><linearGradient id="a6472f32-f3f3-4b7a-ba47-0028161a7cf1" data-name="Безымянный градиент 13" x1="157.14" y1="244.85" x2="234.33" y2="204.11" gradientTransform="matrix(1, 0, 0, -1, 0, 371)" gradientUnits="userSpaceOnUse"><stop offset="0.25" stop-color="#d2d8da"/><stop offset="0.39" stop-color="#d2d8da" stop-opacity="0.5"/><stop offset="0.64" stop-color="#d2d8da" stop-opacity="0"/></linearGradient><linearGradient id="bed40c79-1057-47a9-b884-4dc2660bc696" data-name="Безымянный градиент 14" x1="215.83" y1="280.49" x2="216.33" y2="291.47" gradientTransform="matrix(1, 0, 0, -1, 0, 371)" gradientUnits="userSpaceOnUse"><stop offset="0.07" stop-color="#d2d8da"/><stop offset="1" stop-color="#d2d8da" stop-opacity="0"/></linearGradient><linearGradient id="e7ca518e-5ca6-4e0d-882b-6683fa67c168" data-name="Безымянный градиент 15" x1="868.68" y1="181.82" x2="878.16" y2="114.99" gradientTransform="matrix(1, 0, 0, -1, 0, 371)" gradientUnits="userSpaceOnUse"><stop offset="0.13" stop-color="#cd7f32"/><stop offset="0.5" stop-color="#cd7f32" stop-opacity="0.5"/><stop offset="1" stop-color="#cd7f32" stop-opacity="0"/></linearGradient><linearGradient id="f29be002-6ce5-4dc7-89a0-d2b8654c910e" data-name="Безымянный градиент 16" x1="862.19" y1="164.17" x2="948.1" y2="155.18" gradientTransform="matrix(1, 0, 0, -1, 0, 371)" gradientUnits="userSpaceOnUse"><stop offset="0.1" stop-color="#cd7f32"/><stop offset="0.22" stop-color="#cd7f32" stop-opacity="0.5"/><stop offset="0.37" stop-color="#cd7f32" stop-opacity="0"/></linearGradient><linearGradient id="fdb81b2e-a920-4216-b21a-b84fccd3b51d" data-name="Безымянный градиент 17" x1="870.39" y1="170.29" x2="847.61" y2="132.05" gradientTransform="matrix(1, 0, 0, -1, 0, 371)" gradientUnits="userSpaceOnUse"><stop offset="0.1" stop-color="#cd7f32"/><stop offset="0.4" stop-color="#cd7f32" stop-opacity="0.5"/><stop offset="0.91" stop-color="#cd7f32" stop-opacity="0"/></linearGradient><linearGradient id="b9140c50-3ced-4ae0-bddf-9b61ac671f2e" data-name="Безымянный градиент 18" x1="871.96" y1="155.25" x2="870.46" y2="128.31" gradientTransform="matrix(1, 0, 0, -1, 0, 371)" gradientUnits="userSpaceOnUse"><stop offset="0.07" stop-color="#cd7f32"/><stop offset="0.45" stop-color="#cd7f32" stop-opacity="0.5"/><stop offset="0.99" stop-color="#cd7f32" stop-opacity="0"/></linearGradient><linearGradient id="e8d7566a-92bd-440f-b189-7f55b1235dd5" data-name="Безымянный градиент 19" x1="792.95" y1="263.26" x2="1016.8" y2="161.33" gradientTransform="matrix(1, 0, 0, -1, 0, 371)" gradientUnits="userSpaceOnUse"><stop offset="0.15" stop-color="#cd7f32"/><stop offset="0.5" stop-color="#cd7f32" stop-opacity="0.5"/><stop offset="1" stop-color="#cd7f32" stop-opacity="0"/></linearGradient><linearGradient id="f38dfb9d-41c6-4695-ac41-2be0e5e0abaa" data-name="Безымянный градиент 20" x1="948.68" y1="246.98" x2="874.11" y2="202.18" gradientTransform="matrix(1, 0, 0, -1, 0, 371)" gradientUnits="userSpaceOnUse"><stop offset="0" stop-color="#cd7f32"/><stop offset="0.39" stop-color="#cd7f32" stop-opacity="0.5"/><stop offset="0.64" stop-color="#cd7f32" stop-opacity="0"/></linearGradient><linearGradient id="f32e484a-cb1c-46c4-944f-da65913c33d0" data-name="Безымянный градиент 21" x1="793.42" y1="245.98" x2="869.08" y2="198.42" gradientTransform="matrix(1, 0, 0, -1, 0, 371)" gradientUnits="userSpaceOnUse"><stop offset="0.16" stop-color="#cd7f32"/><stop offset="0.39" stop-color="#cd7f32" stop-opacity="0.5"/><stop offset="0.64" stop-color="#cd7f32" stop-opacity="0"/></linearGradient><linearGradient id="e00ec1d2-1813-4bf4-bc6a-9e5e667bb5ae" data-name="Безымянный градиент 22" x1="870.01" y1="269.41" x2="870.01" y2="279.38" gradientTransform="matrix(1, 0, 0, -1, 0, 371)" gradientUnits="userSpaceOnUse"><stop offset="0" stop-color="#cd7f32"/><stop offset="1" stop-color="#cd7f32" stop-opacity="0"/></linearGradient><linearGradient id="ab66f856-d2c7-49c6-a1f0-11ed02713ac0" data-name="Безымянный градиент 23" x1="538.27" y1="234.21" x2="552.24" y2="155.4" gradientTransform="matrix(1, 0, 0, -1, 0, 371)" gradientUnits="userSpaceOnUse"><stop offset="0.27" stop-color="#ebbd1f"/><stop offset="0.5" stop-color="#ebbd1f" stop-opacity="0.5"/><stop offset="1" stop-color="#ebbd1f" stop-opacity="0"/></linearGradient><linearGradient id="a9a27891-1b2e-4d44-881f-9d288a44971d" data-name="Безымянный градиент 24" x1="530.05" y1="206.37" x2="638.99" y2="201.38" gradientTransform="matrix(1, 0, 0, -1, 0, 371)" gradientUnits="userSpaceOnUse"><stop offset="0.1" stop-color="#ebbd1f"/><stop offset="0.22" stop-color="#ebbd1f" stop-opacity="0.5"/><stop offset="0.37" stop-color="#ebbd1f" stop-opacity="0"/></linearGradient><linearGradient id="a0a203dc-c8bf-4189-8667-898fcb341424" data-name="Безымянный градиент 25" x1="544.05" y1="212.83" x2="511.13" y2="174.42" gradientTransform="matrix(1, 0, 0, -1, 0, 371)" gradientUnits="userSpaceOnUse"><stop offset="0.1" stop-color="#ebbd1f"/><stop offset="0.4" stop-color="#ebbd1f" stop-opacity="0.5"/><stop offset="0.91" stop-color="#ebbd1f" stop-opacity="0"/></linearGradient><linearGradient id="a6f0f918-6e02-409e-9aa7-4e9611f9d484" data-name="Безымянный градиент 26" x1="543.36" y1="199.6" x2="543.36" y2="185.63" gradientTransform="matrix(1, 0, 0, -1, 0, 371)" gradientUnits="userSpaceOnUse"><stop offset="0.07" stop-color="#ebbd1f"/><stop offset="0.67" stop-color="#ebbd1f" stop-opacity="0.5"/><stop offset="0.99" stop-color="#ebbd1f" stop-opacity="0"/></linearGradient><linearGradient id="ef416af1-393b-4d97-95ef-3d4e33a491cb" data-name="Безымянный градиент 27" x1="456.07" y1="318.81" x2="675.9" y2="199.91" gradientTransform="matrix(1, 0, 0, -1, 0, 371)" gradientUnits="userSpaceOnUse"><stop offset="0.18" stop-color="#ebbd1f"/><stop offset="0.63" stop-color="#ebbd1f" stop-opacity="0.5"/><stop offset="0.75" stop-color="#f8ca2a" stop-opacity="0"/></linearGradient><linearGradient id="b9d7b508-1a7c-440e-8150-577e5d3b87e8" data-name="Безымянный градиент 28" x1="621.03" y1="294.62" x2="541.3" y2="232.61" gradientTransform="matrix(1, 0, 0, -1, 0, 371)" gradientUnits="userSpaceOnUse"><stop offset="0.15" stop-color="#ebbd1f"/><stop offset="0.39" stop-color="#ebbd1f" stop-opacity="0.5"/><stop offset="0.64" stop-color="#ebbd1f" stop-opacity="0"/></linearGradient><linearGradient id="ae0e6f6c-93f4-470d-8691-55f196b3db43" data-name="Безымянный градиент 29" x1="460.29" y1="290.99" x2="543.87" y2="241.27" xlink:href="#b9d7b508-1a7c-440e-8150-577e5d3b87e8"/><linearGradient id="a10788d6-6317-4005-8292-09ac019fc858" data-name="Безымянный градиент 30" x1="541.86" y1="311.5" x2="542.36" y2="324.97" gradientTransform="matrix(1, 0, 0, -1, 0, 371)" gradientUnits="userSpaceOnUse"><stop offset="0" stop-color="#ebbd1f"/><stop offset="1" stop-color="#f8ca2a" stop-opacity="0"/></linearGradient></defs><path d="M1077.93,93.46l.14-13.82,11.93,7Z" fill="#d7699b" opacity="0.74" style="isolation: isolate"/><path d="M28.45,52.46,21.86,64.62,14.59,52.86Z" fill="#d7699b" opacity="0.74" style="isolation: isolate"/><path d="M13.71,152.78,0,154.8,5.1,142Z" fill="#ffc141" opacity="0.74" style="isolation: isolate"/><path d="M974.42,29.55l12.12,6.72-11.89,7.1Z" fill="#776fef" opacity="0.74" style="isolation: isolate"/><path d="M167.34,20.27l10.81-8.64,2.11,13.66Z" fill="#776fef" opacity="0.74" style="isolation: isolate"/><path d="M336.21,69.56,322.52,67.4l8.73-10.74Z" fill="#ffc141" opacity="0.74" style="isolation: isolate"/><path d="M747.75,149.72l-5.07,12.86-8.63-10.81Z" fill="#ffc141" opacity="0.74" style="isolation: isolate"/><path d="M700.75,37.84l-13.4-3.55,9.78-9.79Z" fill="#d7699b" opacity="0.74" style="isolation: isolate"/><path d="M532.79,13l-9-10.48L537.37,0Z" fill="#41afe4" opacity="0.74" style="isolation: isolate"/><path d="M651,131.51c4.45,0,7-3.32,7-6" fill="none" stroke="#41afe4" stroke-linecap="round" stroke-width="2" opacity="0.74" style="isolation: isolate"/><path d="M875.54,42.41c1.44,4.2,5.42,5.53,7.94,4.68" fill="none" stroke="#41afe4" stroke-linecap="round" stroke-width="2" opacity="0.74" style="isolation: isolate"/><path d="M100.67,122.82c-.33,4.43,2.8,7.21,5.46,7.41" fill="none" stroke="#41afe4" stroke-linecap="round" stroke-width="2" opacity="0.74" style="isolation: isolate"/><path d="M350.33,154.4c1.66,1.87,11.12,8,11.12,1.87,0-7.48-10.54-.12-8.3,5.39,1.53,3.76,5.79,5.76,11.29,3.76" fill="none" stroke="#d7699b" stroke-linecap="round" stroke-width="2" opacity="0.74" style="isolation: isolate"/><path d="M430.08,56.38l-.41.91A3.34,3.34,0,0,1,425.4,59l-.25-.09a3.06,3.06,0,0,0-3.94,1.65h0a3.07,3.07,0,0,1-4.59,1.31L415,60.72" fill="none" stroke="#776fef" stroke-linecap="round" stroke-width="2" opacity="0.74" style="isolation: isolate"/><path d="M601.72,28l2.49,2.17a2.1,2.1,0,0,0,3.47-1.56h0A2.08,2.08,0,0,1,610,26.55l.56.05a2.61,2.61,0,0,0,2.3-4.18l-1-1.34" fill="none" stroke="#ffc141" stroke-linecap="round" stroke-width="2" opacity="0.74" style="isolation: isolate"/><path d="M260.92,15.83l5,6.48" fill="none" stroke="#41afe4" stroke-linecap="round" stroke-width="2" opacity="0.74" style="isolation: isolate"/><path d="M1030.84,171.23c4.24-1.33,5.67-5.27,4.87-7.8" fill="none" stroke="#41afe4" stroke-linecap="round" stroke-width="2" opacity="0.74" style="isolation: isolate"/><rect x="51.89" y="230.24" width="327.05" height="89.76" fill="url(#adc7d5d8-a8cd-469f-a48e-c70444d3c838)"/><path d="M101.34,206.31H431l-49.44,23.93H51.89Z" fill="url(#b9a06f32-fe14-4a76-ae18-3a0fd3ed3265)"/><rect x="705.99" y="242.21" width="327.05" height="77.79" fill="url(#b32af15b-be3e-4bf4-bd25-1ed98997fefa)"/><path d="M984,218.28H657l49,23.93h327Z" fill="url(#f21e355a-f200-43d8-bc30-94537f9ee541)"/><path d="M411,173.4H686.52L706,200.33h-327Z" fill="url(#f1eee405-9750-43e5-82ed-506c58ff746b)"/><rect x="378.94" y="200.33" width="327.05" height="119.67" fill="url(#fab68b22-bb7e-405c-812d-0f289c440f70)"/><rect x="171.25" y="214.41" width="89.35" height="4.86" fill="#d2d8da"/><rect x="213.13" y="187.69" width="8.38" height="19.44" fill="url(#b8ce98f6-c3bc-46a2-9844-06ce1f99012d)"/><path d="M221.5,187.69h2.79v18.36l-2.79,1.08Z" fill="url(#b391e699-7f0a-4e6f-9b93-ec0869da8846)"/><path d="M213.13,187.69h-2.8v18.36l2.8,1.08Z" fill="url(#a8aa3923-adfc-42b8-832e-8e7c8705eacd)"/><path d="M196.37,213a8,8,0,0,1,9.38-7.86l11.56,2,11.57-2a8,8,0,0,1,9.38,7.86v3.87H196.37Z" fill="url(#bd73b94b-2f93-4801-9c52-ee293653d05a)"/><path d="M214.43,117.3a4.6,4.6,0,0,1,3.63.29,4.49,4.49,0,0,1,2.29,4.74,4.53,4.53,0,0,1-.68,1.69l-10.92,14.53a1.47,1.47,0,0,0-.33.94h0a1.49,1.49,0,0,0,1,1.42,1.68,1.68,0,0,0,.54.08h11.94a1.5,1.5,0,0,0,0-3h-9l9.17-12.21-1.2-.89,1.25.83a7.43,7.43,0,0,0,1.16-2.87,7.5,7.5,0,0,0-3.81-7.89,7.52,7.52,0,0,0-6.06-.48,7.53,7.53,0,0,0-2.65,1.61,7.37,7.37,0,0,0-1.77,2.54,1.49,1.49,0,0,0,.79,2,1.51,1.51,0,0,0,2-.8,4.47,4.47,0,0,1,1.07-1.52A4.4,4.4,0,0,1,214.43,117.3ZM171.32,90.5h89.34v64.79h-.07c.05.54.07,1.08.07,1.62,0,11.17-10.78,20.78-26.29,25.1l-1.63,5.68H203l-1.35-4.7c-17.62-3.69-30.29-14-30.29-26.08,0-.54,0-1.08.07-1.62h-.07Z" fill-rule="evenodd" fill="url(#a13dedfd-6a75-434b-a2df-c10f11536add)"/><path d="M260.6,158.53c4.23,0,19.27-10,21.9-25.91,1.21-7.34,0-27.54-4.79-27.54H266.1v6.68" fill="none" stroke-linecap="round" stroke-width="0.4" stroke="url(#f0c29ccd-73d4-4625-84be-fb96fe4c3fe4)"/><path d="M171.25,158.53c-4.24,0-19.28-10-21.9-25.91-1.22-7.34,0-27.54,4.79-27.54h11.6v6.68" fill="none" stroke-linecap="round" stroke-width="0.4" stroke="url(#a6472f32-f3f3-4b7a-ba47-0028161a7cf1)"/><path d="M170.24,88.65a2,2,0,0,1,1.72-3h88a2,2,0,0,1,1.74,3l-1.07,1.88H171.34Z" fill="url(#bed40c79-1057-47a9-b884-4dc2660bc696)"/><rect x="825.34" y="225.38" width="89.35" height="4.86" fill="#cd7f32"/><rect x="867.22" y="198.66" width="8.38" height="19.44" fill="url(#e7ca518e-5ca6-4e0d-882b-6683fa67c168)"/><path d="M875.59,198.66h2.79V217l-2.79,1.08Z" fill="url(#f29be002-6ce5-4dc7-89a0-d2b8654c910e)"/><path d="M867.22,198.66h-2.8V217l2.8,1.08Z" fill="url(#fdb81b2e-a920-4216-b21a-b84fccd3b51d)"/><path d="M850.46,224a8,8,0,0,1,9.38-7.86l11.56,2,11.57-2a8,8,0,0,1,9.38,7.86v3.87H850.46Z" fill="url(#b9140c50-3ced-4ae0-bddf-9b61ac671f2e)"/><path d="M864,125a1.5,1.5,0,1,0,0,3h9.12l-5.35,7.62A1.5,1.5,0,0,0,869,138a5.47,5.47,0,0,1,4.57,2.43,5.48,5.48,0,0,1-1.08,7.29,5.58,5.58,0,0,1-2.42,1.14,5.5,5.5,0,0,1-5-1.5,1.5,1.5,0,1,0-2.12,2.11A8.49,8.49,0,1,0,873,136a7.86,7.86,0,0,0-1.41-.6l5.63-8A1.49,1.49,0,0,0,876,125Zm-38.6-23.56h89.35v64.79h-.08c.05.54.08,1.08.08,1.62,0,11.17-10.79,20.78-26.3,25.1l-1.63,5.68H857.05L855.7,194c-17.62-3.69-30.29-14-30.29-26.08,0-.54,0-1.08.07-1.62h-.07Z" fill-rule="evenodd" fill="url(#e8d7566a-92bd-440f-b189-7f55b1235dd5)"/><path d="M914.69,169c4.23,0,19.27-10,21.9-25.92,1.21-7.34,0-27.53-4.8-27.53H920.2v6.68" fill="none" stroke-linecap="round" stroke-width="0.4" stroke="url(#f38dfb9d-41c6-4695-ac41-2be0e5e0abaa)"/><path d="M825.33,169.5c-4.23,0-19.27-10-21.89-25.91-1.22-7.34,0-27.54,4.79-27.54h11.6v6.68" fill="none" stroke-linecap="round" stroke-width="0.4" stroke="url(#f32e484a-cb1c-46c4-944f-da65913c33d0)"/><path d="M824.26,99.59a2,2,0,0,1,1.74-3h88a2,2,0,0,1,1.74,3l-1.08,1.88H825.34Z" fill="url(#e00ec1d2-1813-4bf4-bc6a-9e5e667bb5ae)"/><rect x="497.29" y="182.5" width="89.35" height="4.86" fill="#ebbd1f"/><rect x="539.17" y="155.77" width="8.38" height="19.44" fill="url(#ab66f856-d2c7-49c6-a1f0-11ed02713ac0)"/><path d="M547.55,155.77h2.79v18.36l-2.79,1.08Z" fill="url(#a9a27891-1b2e-4d44-881f-9d288a44971d)"/><path d="M539.17,155.77h-2.79v18.36l2.79,1.08Z" fill="url(#a0a203dc-c8bf-4189-8667-898fcb341424)"/><path d="M522.42,181.06a8,8,0,0,1,9.37-7.86l11.57,2,11.56-2a8,8,0,0,1,9.38,7.86v3.87H522.42Z" fill="url(#a6f0f918-6e02-409e-9aa7-4e9611f9d484)"/><path d="M546,87.63a1.49,1.49,0,0,0-2.33-1.24l-6,4a1.5,1.5,0,1,0,1.66,2.49L543,90.43v21.14a1.5,1.5,0,0,0,3,0Zm-48.6-28.92h89.35V123.5h-.08c0,.54.08,1.08.08,1.62,0,11.18-10.81,20.8-26.33,25.12l-1.59,5.54H529l-1.32-4.57c-17.63-3.68-30.33-14-30.33-26.09,0-.54,0-1.08.08-1.62h-.08Z" fill-rule="evenodd" fill="url(#ef416af1-393b-4d97-95ef-3d4e33a491cb)"/><path d="M586.64,126.62c4.24,0,19.28-10,21.9-25.92,1.21-7.34,0-27.54-4.79-27.54h-11.6v6.69" fill="none" stroke-linecap="round" stroke-width="0.4" stroke="url(#b9d7b508-1a7c-440e-8150-577e5d3b87e8)"/><path d="M497.29,126.62c-4.23,0-19.28-10-21.9-25.92-1.21-7.34,0-27.54,4.79-27.54h11.6v6.69" fill="none" stroke-linecap="round" stroke-width="0.4" stroke="url(#ae0e6f6c-93f4-470d-8691-55f196b3db43)"/><path d="M496.19,56.7a2,2,0,0,1,1.74-3h88.13a2,2,0,0,1,1.76,3l-1.12,2H497.33Z" fill="url(#a10788d6-6317-4005-8292-09ac019fc858)"/></svg>